<svg width="136" height="108" fill="none" xmlns="http://www.w3.org/2000/svg"><g clip-path="url(#a)"><path d="M72.739 15.17c4.511-3.13 10.863-4.329 15.834-1.888-5.596 2.281-10.151 6.347-12.861 11.477-1.038 1.983-1.972 4.289-4.112 5.205-1.332.57-2.904.46-4.283 0-1.38-.46-2.606-1.242-3.816-2.016l-.363-.041c2.153-4.863 5.089-9.608 9.6-12.737z" fill="#F0F0F0"/><path d="M88.532 13.386c-4.64.137-9.117 1.643-12.794 4.304a9.224 9.224 0 0 0-2.085 2 4.914 4.914 0 0 0-.899 2.56c-.066.851-.028 1.729-.313 2.55a3.104 3.104 0 0 1-.719 1.124 3.35 3.35 0 0 1-1.145.75c-1.07.454-2.25.52-3.405.547-1.283.03-2.616.042-3.783.61-.142.068-.247-.142-.106-.21 2.03-.988 4.403-.344 6.537-.931.996-.274 1.91-.832 2.31-1.764.349-.816.31-1.72.37-2.583a5.22 5.22 0 0 1 .78-2.534 8.467 8.467 0 0 1 1.995-2.068 21.807 21.807 0 0 1 5.799-3.147 23.754 23.754 0 0 1 7.48-1.44c.159-.004.136.228-.022.232z" fill="#fff"/><path d="M76.868 16.767a2.949 2.949 0 0 1-.386-2.115 3.08 3.08 0 0 1 1.165-1.847c.123-.094.285.082.161.176a2.854 2.854 0 0 0-1.084 1.72c-.131.676 0 1.374.368 1.967.08.13-.144.228-.224.1zM72.727 21.814a6.764 6.764 0 0 0 4.632-.438c.141-.068.247.142.105.21a7.036 7.036 0 0 1-4.82.447c-.154-.04-.07-.26.083-.219zM83.45 14.025c.096.277.265.527.49.728.225.201.5.347.8.423.154.04.07.257-.084.219a2.14 2.14 0 0 1-.883-.469 1.964 1.964 0 0 1-.547-.802.113.113 0 0 1-.003-.088.122.122 0 0 1 .062-.067.132.132 0 0 1 .094-.004c.031.01.056.032.07.06z" fill="#fff"/><path d="M92.513 30.725a26.215 26.215 0 0 0-4.567-.638 27.63 27.63 0 0 0-9.509 1.158c-1.22.373-2.407.833-3.553 1.376-1.582.749-3.233 1.68-4.936 1.888a4.606 4.606 0 0 1-.535.04l-6.3-6.224-.022-.061-.264-.238.174-.095c.033-.02.067-.036.1-.055l.065-.036a.301.301 0 0 1 .02-.01l.058-.032c.334-.18.67-.356 1.007-.532l.005-.001c2.577-1.33 5.296-2.469 8.112-3.185.084-.021.17-.044.258-.063a25.577 25.577 0 0 1 3.877-.651c.717-.062 1.437-.09 2.157-.084 1.86.019 3.706.313 5.47.87 3.515 1.112 6.612 3.267 8.26 6.337l.123.236z" fill="#F0F0F0"/><path d="M92.415 30.786c-3.793-2.514-8.333-3.843-12.976-3.796-1-.007-1.994.134-2.947.418a5.474 5.474 0 0 0-2.36 1.536c-.598.642-1.13 1.364-1.884 1.859-.39.247-.832.415-1.295.491-.464.077-.94.06-1.396-.048-1.145-.242-2.129-.856-3.069-1.488-1.044-.701-2.116-1.446-3.411-1.652-.157-.025-.107-.253.05-.228 2.254.36 3.735 2.215 5.816 2.953.97.344 2.058.415 2.975-.104.802-.453 1.352-1.197 1.952-1.852a5.804 5.804 0 0 1 2.248-1.583 9.299 9.299 0 0 1 2.919-.523 22.754 22.754 0 0 1 6.648.765c2.469.65 4.8 1.691 6.895 3.08.13.085-.036.257-.165.172z" fill="#fff"/><path d="M80.933 26.893a3.052 3.052 0 0 1 1.048-1.908 3.43 3.43 0 0 1 2.115-.816c.159-.005.175.226.016.232a3.177 3.177 0 0 0-1.968.76 2.826 2.826 0 0 0-.969 1.779c-.019.148-.26.1-.242-.047zM74.39 28.581c.975 1.2 2.396 2.01 3.98 2.268.156.026.105.253-.051.228-1.647-.273-3.124-1.119-4.136-2.369-.096-.119.111-.245.207-.127zM87.947 28.423a1.66 1.66 0 0 0-.076.859c.051.287.177.559.368.79.097.117-.11.244-.207.127a1.915 1.915 0 0 1-.405-.874 1.859 1.859 0 0 1 .078-.95.12.12 0 0 1 .054-.072.125.125 0 0 1 .17.032.11.11 0 0 1 .018.088z" fill="#fff"/><path d="M71.548 19.825h-.488V7.268c0-.955-.2-1.9-.59-2.781a7.255 7.255 0 0 0-1.677-2.358A7.793 7.793 0 0 0 66.28.553 8.18 8.18 0 0 0 63.32 0H34.983a8.18 8.18 0 0 0-2.962.553c-.94.365-1.793.9-2.511 1.576a7.255 7.255 0 0 0-1.678 2.357 6.884 6.884 0 0 0-.59 2.782v68.89c0 1.927.816 3.775 2.268 5.138 1.451 1.363 3.42 2.129 5.473 2.129H63.32c2.053 0 4.022-.766 5.474-2.129 1.451-1.363 2.267-3.211 2.267-5.139V28.763h.488v-8.938z" fill="#3F3D56"/><path d="M63.632 1.891h-3.7a2.436 2.436 0 0 1-.263 2.412c-.251.351-.59.639-.988.838a2.89 2.89 0 0 1-1.291.303H41.157a2.89 2.89 0 0 1-1.292-.303 2.694 2.694 0 0 1-.988-.838 2.48 2.48 0 0 1-.452-1.175c-.046-.42.019-.845.189-1.237h-3.455c-1.533 0-3.003.572-4.087 1.59-1.084 1.018-1.694 2.398-1.694 3.838v68.788c0 .713.15 1.418.44 2.077.291.659.717 1.257 1.254 1.76a5.82 5.82 0 0 0 1.875 1.177 6.11 6.11 0 0 0 2.212.413h28.473c.759 0 1.51-.14 2.212-.413a5.82 5.82 0 0 0 1.875-1.176 5.418 5.418 0 0 0 1.253-1.761c.29-.659.44-1.364.44-2.077V7.319c0-1.44-.609-2.82-1.693-3.838-1.084-1.018-2.554-1.59-4.087-1.59z" fill="#fff"/><path d="M49.942 59.437a16.855 16.855 0 0 1-6.11-1.137 16.055 16.055 0 0 1-5.18-3.249 14.948 14.948 0 0 1-3.46-4.863 14.183 14.183 0 0 1-1.211-5.738 14.288 14.288 0 0 1 2.347-7.832c1.538-2.357 3.741-4.268 6.365-5.521a16.8 16.8 0 0 1 6.108-1.594 16.967 16.967 0 0 1 6.288.759c3.579 1.145 6.609 3.446 8.55 6.492 1.941 3.047 2.667 6.641 2.05 10.144-.618 3.502-2.54 6.685-5.424 8.98-2.883 2.297-6.541 3.558-10.323 3.559zm0-29.385a15.975 15.975 0 0 0-6.964 1.568 15.203 15.203 0 0 0-4.89 3.692 14.119 14.119 0 0 0-2.906 5.221 13.55 13.55 0 0 0-.435 5.877 13.842 13.842 0 0 0 2.107 5.549 14.815 14.815 0 0 0 4.298 4.291 15.872 15.872 0 0 0 5.769 2.317c2.072.39 4.209.375 6.274-.046a15.84 15.84 0 0 0 5.73-2.402 14.94 14.94 0 0 0 2.286-1.904c2.023-2.056 3.365-4.621 3.86-7.382.494-2.76.12-5.596-1.075-8.16-1.196-2.565-3.163-4.746-5.659-6.277a16.06 16.06 0 0 0-8.395-2.344z" fill="#F0F0F0"/><path d="M15.356 31.151c.438.052.859.193 1.232.413.374.221.692.516.931.865.24.348.394.742.454 1.152.06.411.023.83-.108 1.225l5.303 4.148-1.899 3.64-7.401-5.956a2.98 2.98 0 0 1-1.607-1.351 2.694 2.694 0 0 1-.245-2.013 2.86 2.86 0 0 1 1.24-1.657 3.193 3.193 0 0 1 2.1-.466z" fill="#FFB6B6"/><path d="M64.886 48.447c-.106-1.074-.546-3.004-.92-3.717-1.146-2.819-8.557-5.135-9.552-5.434l-.253-2.635-10.297-1.04-1.306 3.37-3.693 1.3c-.25.088-.477.227-.664.407a1.69 1.69 0 0 0-.417.633l-3.313.9-3.27.887-11.358-7.515-.537.33-3.584 2.196-.553.339 14.7 12.45 5.46-1.202 4.106-.907.35 1.336-.907 4.694c2.63 2.47 6.11 3.979 9.817 4.257 3.708.278 7.4-.693 10.413-2.74l2.333-1.943a14.47 14.47 0 0 0 3.507-5.784l-.062-.182z" fill="#E4E4E4"/><path d="M52.248 33.467c3.887-1.209 5.995-5.147 4.708-8.796-1.287-3.65-5.481-5.629-9.368-4.42-3.887 1.208-5.995 5.146-4.708 8.795 1.287 3.65 5.481 5.629 9.368 4.42z" fill="#FFB6B6"/><path d="M44.062 18.923c.72-.966 1.802-1.642 3.03-1.894a5.039 5.039 0 0 1 3.523.606c1.137-.43 2.364-.715 3.569-.57 1.205.145 2.386.777 2.944 1.818.117.27.26.529.425.775.491.616 1.404.695 2.21.725l-1.223.67 1.22.533-1.66.595c1.287 1.062 1.599 2.952 1.111 4.537-.461 1.5-1.52 2.764-2.7 3.845-.23-.807.023-1.682.192-2.517.178-.883.206-1.915-.452-2.538-.444-.42-1.095-.547-1.71-.65a88.129 88.129 0 0 0-9.365-1.044 2.812 2.812 0 0 0-1.248.12c-.765.319-1.072 1.195-1.293 1.971a14.691 14.691 0 0 1 .252-4.075c.21-1.027.54-2.055 1.175-2.907z" fill="#2F2E41"/><path d="M53.698 66.497h-8.763c-.304 0-.596-.113-.812-.315a1.045 1.045 0 0 1-.336-.762c0-.286.121-.56.337-.762.215-.202.507-.316.81-.316h8.764c.304 0 .596.114.812.316.215.202.336.476.336.762 0 .285-.121.56-.336.762a1.187 1.187 0 0 1-.812.315zM24.942 8.84H.838a.867.867 0 0 1-.592-.231.763.763 0 0 1-.245-.556c0-.209.088-.409.245-.556a.867.867 0 0 1 .592-.231h24.104c.223 0 .436.083.593.23a.764.764 0 0 1 .246.557.764.764 0 0 1-.246.556.867.867 0 0 1-.593.23zM38.86 13.867H.837a.867.867 0 0 1-.592-.23A.763.763 0 0 1 0 13.08c0-.209.088-.409.246-.556a.867.867 0 0 1 .592-.231H38.86c.223 0 .436.083.593.23a.763.763 0 0 1 .246.557.764.764 0 0 1-.246.557.867.867 0 0 1-.593.23z" fill="#6C63FF"/><path d="M31.553 18.604H.838a.867.867 0 0 1-.592-.231.763.763 0 0 1-.246-.557c0-.208.088-.409.246-.556a.867.867 0 0 1 .592-.23h30.715c.222 0 .435.082.593.23a.764.764 0 0 1 .245.556.763.763 0 0 1-.245.557.867.867 0 0 1-.593.23zM18.158 23.322H.838a.867.867 0 0 1-.592-.23.763.763 0 0 1-.246-.557c0-.209.088-.409.246-.556a.867.867 0 0 1 .592-.231h17.32c.222 0 .436.083.593.23a.764.764 0 0 1 .245.557.764.764 0 0 1-.245.557.867.867 0 0 1-.593.23zM27.726 28.041H.838a.867.867 0 0 1-.592-.231.764.764 0 0 1-.245-.556c0-.209.088-.409.245-.556a.866.866 0 0 1 .592-.231h26.888c.222 0 .435.083.592.23a.763.763 0 0 1 .245.557.764.764 0 0 1-.245.556.867.867 0 0 1-.592.231z" fill="#CACACA"/><path d="M103.502 105.045h-2.16l-1.028-7.824h3.189l-.001 7.824z" fill="#9F616A"/><path d="M104.352 107.852h-8.248v-.098c0-.799.339-1.566.94-2.131a3.32 3.32 0 0 1 2.27-.883l1.507-1.073 2.811 1.073h.72v3.112z" fill="#2F2E41"/><path d="m102.244 68.275-.953-10.907-.749-4.094 4.191-.87 1.391 5.606-1.212 10.568a1.724 1.724 0 0 1 .196 2.028 1.884 1.884 0 0 1-.813.742 2.05 2.05 0 0 1-1.117.187 2 2 0 0 1-1.037-.431 1.806 1.806 0 0 1-.602-.903 1.715 1.715 0 0 1 .038-1.064c.126-.343.358-.643.667-.862zM92.026 105.045h-2.16l-1.028-7.824h3.189v7.824z" fill="#9F616A"/><path d="m88.57 70.748-.958 1.556s-1.053.27-.709 3.49c.344 3.221.359 22.303 2.024 24.651l.3 2.016 3.144.283.08-1.79 3.748-24.856s2.208 24.401 4.034 24.998l.66 2.033 2.881.001-.17-2.395.185-30.239-15.22.252z" fill="#2F2E41"/><path d="m87.516 72.185-.066-.016c1.977-6.942 1.407-15.931.011-25.584v-.04l5.046-4.339h4.381l4.344 2.632c2.808 1.318 3.446 4.11 3.453 4.138l.004.02-1.721 5.638 1.297 16.307.001.02-.007.017c-.42.999-1.544.856-2.846.692-1.299-.165-6.087 1.34-7.555 1.34-2.87 0-6.137-.776-6.342-.825z" fill="#E4E4E4"/><path d="m100.323 47.036 1.882-.769 2.48 2.855 2.01 9.148-6.885-.98.513-10.254z" fill="#E4E4E4"/><path d="m71.37 63.905 8.605-7.383 2.99-3.061 3.298 2.58-3.87 4.463-9.644 5.567a1.799 1.799 0 0 1-.569.922c-.283.247-.638.41-1.02.465a2.052 2.052 0 0 1-1.123-.15 1.9 1.9 0 0 1-.841-.715 1.732 1.732 0 0 1 .12-2.033c.234-.29.555-.506.92-.623.367-.117.761-.128 1.134-.032z" fill="#9F616A"/><path d="m79.788 56.603 2.383-2.906c.02-.042 1.997-4.19 3.711-5.993 1.758-1.849 3.143-.903 3.156-.893l.035.024.096 6.828-6.6 7.404-2.78-4.464z" fill="#E4E4E4"/><path d="M98.228 38.119c.355-2.056-1.132-3.993-3.322-4.327-2.19-.333-4.253 1.063-4.608 3.119-.355 2.056 1.132 3.993 3.322 4.326 2.19.334 4.252-1.062 4.608-3.118z" fill="#9F616A"/><path d="M90.591 36.955s-.032-1.326-.21-1.913c-.18-.586-.536-1.09-.358-1.09.179 0 .268-.418.268-.418s.179-.084.268 0c.09.084.178-.587.178-.587s.09-.251.179-.084c.09.168.09.084.178-.167.09-.252.536-.42.536-.42s1.696.085 1.964-.25c.267-.336 3.302-.084 3.927.335.625.419 3.392 1.927 2.946 3.184-.447 1.257-1.731 4.152-2.053 4.442-.51.459-.862.624-3.27 1.074-.472.088-2.879-1.357-2.879-1.608 0-.251.29-1.049-.176-1.158-.705-.166-.784.671-.962.42-.179-.252-.536-1.76-.536-1.76zM92.877 107.852h-8.248v-.098c0-.799.338-1.566.94-2.131a3.32 3.32 0 0 1 2.27-.883l1.507-1.073 2.81 1.073h.72v3.112z" fill="#2F2E41"/><path d="M135.752 108H.694a.256.256 0 0 1-.175-.069.225.225 0 0 1-.073-.165c0-.061.026-.121.073-.164a.256.256 0 0 1 .175-.069h135.058c.065 0 .129.025.175.069a.223.223 0 0 1 0 .329.255.255 0 0 1-.175.069z" fill="#CACACA"/></g><defs><clipPath id="a"><path fill="#fff" d="M0 0h136v108H0z"/></clipPath></defs></svg>