<svg width="136" height="104" fill="none" xmlns="http://www.w3.org/2000/svg"><path d="M136 93.663H0V94h136v-.337z" fill="#CACACA"/><path d="M95.94 63.18s-.52-4.16-5.606-3.75c0 0 .613 3.757 5.166 4.43l.44-.68zM98.848 59.448s-.472-4.297-5.397-3.822c0 0 .972 4.166 4.977 4.473l.42-.65zM100.917 55.792s-.076-5.177-4.66-4.77c0 0 .57 4.788 4.221 5.45l.439-.68zM103.02 51.31s-.236-5.241-4.929-4.483c0 0 1.007 5.079 4.509 5.134l.42-.65zM104.55 47.07s-.839-5.339-4.308-5.756c0 0 .831 5.63 3.868 6.73l.44-.973zM105.754 42.886s-.816-6.398-3.707-6.377c0 0 .499 4.873 3.458 7.306l.249-.929zM106.853 37.835s-.87-5.36-3.613-6.009c0 0 .352 5.192 3.346 7.322l.267-1.313zM107.926 33.14s-1.279-5.431-3.095-5.841c0 0 .12 5.163 2.782 6.648l.313-.807zM108.844 28.755s-.413-5.742-2.174-6.497c0 0-.453 4.57 1.923 6.884l.251-.387zM110.431 23.077s-.654-4.627-2.032-5.54c0 0-.517 5.252 1.521 6.564l.511-1.024zM111.595 19.368l1.478-7.738s-3.679 5.427-1.895 9.078l.417-1.34zM114.937 11.98s2.879-5.362 3.408-5.601c0 0-4.488 3.057-4.843 7.86l1.435-2.26zM95.927 63.522s3.957-1.167 5.605 3.75c0 0-3.63.917-6.044-3.07l.439-.68zM98.925 59.5s4.062-1.264 5.588 3.527c0 0-4.143.744-6.009-2.876l.42-.651zM100.852 55.893s4.179-2.946 6.522 1.09c0 0-4.164 2.306-6.811-.33l.289-.76z" fill="#6C63FF"/><path d="M102.833 51.156s4.214-3.022 6.498 1.215c0 0-4.56 2.303-6.749-.48l.251-.735zM104.2 46.865s3.51-4.056 6.675-2.512c0 0-3.662 4.304-6.804 3.58l.129-1.068zM105.675 42.846s3.721-5.226 6.246-3.807c0 0-2.722 4.036-6.468 4.75l.222-.943zM106.701 37.517s3.609-4.002 6.257-3.015c0 0-3.086 4.15-6.74 4.267l.483-1.252zM107.631 32.995s3.037-4.652 4.881-4.4c0 0-1.86 4.807-4.86 5.267l-.021-.867zM108.771 28.63s3.299-4.675 5.187-4.381c0 0-1.959 4.135-5.174 4.841l-.013-.46zM109.981 23.325s2.533-3.904 4.161-4.128c0 0-1.735 4.971-4.127 5.276l-.034-1.148z" fill="#6C63FF"/><path d="m111.841 19.257 5.208-5.832s-2.073 6.247-6.015 6.975l.807-1.143zM115.82 12.659s5.411-2.644 5.671-3.165c0 0-3.234 4.4-7.963 4.506l2.292-1.341zM116.351 11.164s6.452-4.58 7.881-4.344c0 0-4.652-.528-7.97 4.03l.089.314z" fill="#6C63FF"/><path d="m109.909 24.146.2.06c2.355-8.217 4.657-12.921 6.489-13.262l-.036-.208c-1.94.354-4.239 4.991-6.653 13.41z" fill="#444053"/><path d="m105.244 43.955.305.076c.185-.773.36-1.567.518-2.359 1.372-6.895 2.818-13.195 4.16-17.877l-.147-.25c-1.345 4.691-2.948 11.164-4.323 18.068-.151.78-.325 1.57-.513 2.342z" fill="#444053"/><path d="M75.742 78.121c.057-.015 5.868-1.609 12.415-6.586a45.681 45.681 0 0 0 9.942-10.411c3.443-4.979 6.061-11.358 7.595-17.718l-.345.102c-3.443 14.274-11.449 23.123-17.43 27.675-6.484 4.935-12.23 6.512-12.287 6.528l.11.41z" fill="#444053"/><path d="M40.69 63.012s.527-4.16 5.697-3.75c0 0-.623 3.757-5.25 4.43l-.446-.68zM37.734 59.28s.48-4.297 5.486-3.823c0 0-.988 4.167-5.059 4.474l-.427-.651zM35.631 55.623s.078-5.176 4.737-4.77c0 0-.58 4.788-4.29 5.45l-.447-.68zM33.494 51.142s.24-5.241 5.01-4.483c0 0-1.024 5.079-4.583 5.134l-.427-.65zM31.939 46.902s.853-5.339 4.379-5.757c0 0-.845 5.63-3.931 6.73l-.448-.973zM30.716 42.718s.829-6.398 3.767-6.377c0 0-.507 4.872-3.514 7.306l-.253-.93zM29.599 37.666s.883-5.359 3.672-6.008c0 0-.358 5.191-3.401 7.322l-.271-1.314zM28.507 32.972s1.3-5.431 3.146-5.841c0 0-.122 5.163-2.827 6.648l-.319-.807zM27.576 28.586s.42-5.742 2.21-6.497c0 0 .459 4.57-1.956 6.885l-.254-.388zM25.962 22.909s.665-4.627 2.066-5.54c0 0 .524 5.252-1.546 6.564l-.52-1.024zM24.78 19.2l-1.503-7.738s3.74 5.427 1.926 9.077l-.424-1.34zM21.383 11.812S18.457 6.45 17.919 6.21c0 0 4.562 3.057 4.922 7.86l-1.458-2.26zM40.703 63.354s-4.022-1.167-5.696 3.75c0 0 3.69.917 6.143-3.07l-.447-.68zM37.656 59.331s-4.128-1.264-5.68 3.527c0 0 4.211.745 6.107-2.876l-.427-.65zM35.698 55.725s-4.247-2.946-6.629 1.09c0 0 4.232 2.306 6.922-.33l-.293-.76z" fill="#6C63FF"/><path d="M33.684 50.988s-4.283-3.022-6.604 1.214c0 0 4.635 2.303 6.86-.48l-.256-.734zM32.295 46.697s-3.568-4.056-6.784-2.512c0 0 3.721 4.304 6.915 3.58l-.131-1.068zM30.796 42.677s-3.782-5.226-6.348-3.806c0 0 2.766 4.035 6.573 4.75l-.225-.944zM29.753 37.349s-3.668-4.002-6.358-3.015c0 0 3.136 4.149 6.849 4.266l-.491-1.252zM28.808 32.826s-3.087-4.652-4.96-4.4c0 0 1.89 4.808 4.939 5.268l.021-.868zM27.65 28.462s-3.353-4.675-5.273-4.382c0 0 1.992 4.136 5.259 4.842l.014-.46zM26.42 23.157s-2.574-3.904-4.229-4.128c0 0 1.763 4.971 4.194 5.276l.034-1.148z" fill="#6C63FF"/><path d="m24.53 19.089-5.294-5.832s2.107 6.247 6.113 6.975l-.82-1.143zM20.485 12.49s-5.498-2.643-5.763-3.165c0 0 3.287 4.4 8.092 4.507l-2.329-1.342zM19.946 10.995s-6.558-4.579-8.01-4.343c0 0 4.728-.529 8.1 4.03l-.09.313z" fill="#6C63FF"/><path d="m26.493 23.978-.204.06c-2.393-8.217-4.732-12.921-6.594-13.261l.036-.21c1.971.355 4.309 4.992 6.762 13.411z" fill="#444053"/><path d="m31.234 43.787-.31.075a61.239 61.239 0 0 1-.526-2.358c-1.395-6.895-2.864-13.196-4.228-17.878l.15-.25c1.366 4.692 2.996 11.165 4.393 18.069.153.78.33 1.569.521 2.342z" fill="#444053"/><path d="M61.217 77.953c-.059-.015-5.964-1.61-12.618-6.587a46.01 46.01 0 0 1-10.104-10.41c-3.5-4.98-6.16-11.359-7.72-17.718l.352.102c3.499 14.274 11.635 23.122 17.715 27.675 6.59 4.935 12.429 6.511 12.486 6.528l-.111.41z" fill="#444053"/><path opacity=".3" d="M69 92c23.196 0 42-18.804 42-42S92.196 8 69 8 27 26.804 27 50s18.804 42 42 42z" fill="#6C63FF"/><path d="M90.779 81.092H47.407a5.55 5.55 0 0 1-3.921-1.629 5.568 5.568 0 0 1-1.627-3.927V24.517a5.568 5.568 0 0 1 1.627-3.927 5.55 5.55 0 0 1 3.92-1.63h40.351l8.57 6.842v49.734a5.568 5.568 0 0 1-1.627 3.927 5.55 5.55 0 0 1-3.921 1.63z" fill="#E6E6E6"/><path d="M47.407 20.56a3.952 3.952 0 0 0-2.793 1.16 3.964 3.964 0 0 0-1.158 2.797v51.019a3.964 3.964 0 0 0 1.158 2.797 3.952 3.952 0 0 0 2.793 1.16h43.372a3.952 3.952 0 0 0 2.792-1.16 3.965 3.965 0 0 0 1.158-2.797V26.573L87.2 20.56H47.407z" fill="#fff"/><path d="M85.709 41.746H52.818a1.58 1.58 0 0 1-.911-.272c-.242-.173-.377-.408-.377-.654 0-.245.135-.48.377-.654.241-.174.569-.272.91-.272H85.71c.17 0 .337.024.494.07.157.047.3.115.42.2.119.087.214.189.28.301a.706.706 0 0 1 .097.355.706.706 0 0 1-.098.355.976.976 0 0 1-.28.3c-.12.086-.262.155-.419.201a1.74 1.74 0 0 1-.494.07zM85.709 34.674H52.818a1.58 1.58 0 0 1-.911-.271c-.242-.174-.377-.41-.377-.655 0-.245.135-.48.377-.654.241-.174.569-.271.91-.272H85.71c.17 0 .337.024.494.07.157.047.3.115.42.201.119.086.214.188.28.3a.705.705 0 0 1 .097.355.705.705 0 0 1-.098.355.975.975 0 0 1-.28.3c-.12.087-.262.155-.419.201-.157.047-.325.07-.494.07zM85.709 48.819H52.818c-.342 0-.67-.099-.911-.272-.242-.174-.377-.41-.377-.655 0-.245.135-.48.377-.654.241-.174.569-.271.91-.272H85.71c.17 0 .337.024.494.07.157.047.3.115.42.201.119.086.214.188.28.3a.706.706 0 0 1 .097.355.706.706 0 0 1-.098.355.977.977 0 0 1-.28.3c-.12.087-.262.155-.419.201a1.74 1.74 0 0 1-.494.07zM85.709 55.89H52.818a1.58 1.58 0 0 1-.911-.272c-.242-.173-.377-.409-.377-.654 0-.245.135-.48.377-.654a1.58 1.58 0 0 1 .91-.272H85.71c.17 0 .337.024.494.07.157.047.3.115.42.2.119.087.214.189.28.301a.705.705 0 0 1 .097.355.705.705 0 0 1-.098.355.975.975 0 0 1-.28.3c-.12.086-.262.155-.419.201a1.74 1.74 0 0 1-.494.07zM75.002 62.852H52.867a.842.842 0 0 1-.613-.271.959.959 0 0 1-.254-.655c0-.245.091-.48.254-.654a.841.841 0 0 1 .613-.272h22.135c.114 0 .227.024.333.07a.867.867 0 0 1 .282.2.98.98 0 0 1 0 1.31.866.866 0 0 1-.282.202.822.822 0 0 1-.333.07z" fill="#575A89"/><path d="M96.16 26.022h-6.713a1.846 1.846 0 0 1-1.848-1.85v-4.966a.117.117 0 0 1 .066-.104.115.115 0 0 1 .121.013l8.445 6.7a.116.116 0 0 1-.072.207z" fill="#CCC"/></svg>