<svg width="171" height="69" fill="none" xmlns="http://www.w3.org/2000/svg"><g clip-path="url(#a)"><path d="m144.855 60.243 2.582-14.373L171 49.534c-6.505 7.736-17.03 11.868-26.145 10.709zM102.196.44c7.731-2.305 16.653 4.818 16.146 12.89-.507 8.073-10.249 14.018-17.631 10.76-7.382-3.26-12.282-19.547 1.485-23.65z" fill="#5D54CD" fill-opacity=".4"/><path d="M3.924 39.18C1.636 48.624-.486 58.23.098 68.014c2.36-9.429 4.213-19.07 3.826-28.836zM21.568 64.218c-2.434-3.551-5.49-6.672-9.175-8.915 3.21-4.095 7.413-11.595 9.405-17.452-3.21 4.25-6.664 8.295-10.12 12.343-1.557 2.18-5.648 5.283-2.163 7.657 4.567 2.579 7.737 4.71 11.461 8.005A109.75 109.75 0 0 1 24.477 69a41.33 41.33 0 0 0-2.909-4.782zM52.582 42.166A78.29 78.29 0 0 0 50.2 62.794c2.102-6.651 2.65-13.684 2.382-20.627zM62.18 41.835c-1.713 6.883-2.633 12.895-2.07 20.05a54.202 54.202 0 0 0 2.07-20.05zM100.792 49.307c-2.766-2.548-8.093-5.3-12.461-6.808 3.932 3.176 6.952 5.192 10.748 9.258l.019.02c-1.116 2.872-4.933 7.362-6.743 11.167-.558 1.02-1.11 2.044-1.657 3.07a100.173 100.173 0 0 0 3.311-3.342c2.147-2.88 11.775-10.033 6.783-13.365zM112.825 41.503c-2.396 7.12-3.013 14.662-2.596 22.133.08 1.022-.052 1.815.393.268 2.386-7.217 2.302-14.887 2.203-22.401zM160.212 50.827c-3.193-2.226-6.346-4.498-9.692-6.494-1.812-1.081-3.799-2.754-6.033-2.336-1.837.428-2.317 2.342-2.352 4.002-.243 2.6-.475 5.2-.771 7.795-.218 1.952-.399 3.909-.584 5.864-.086.42-.127.85-.121 1.279l-.004.035c.001-.003.004-.003.005-.006.004.27.043.54.116.8a1.722 1.722 0 0 0 1.034.966 1.711 1.711 0 0 0 1.406-.14c.918-.54.904-1.7 1.182-2.617.964-3.916 1.741-7.874 2.431-11.845 4.09 2.47 8.05 5.167 12.245 7.456-3.944 1.857-8.113 3.151-12.619 5.46-.999.516-3.033 1.074-.669.715 4.249-.66 8.484-1.441 12.716-2.2 2.238-.635 5.076-.873 6.641-2.752 1.739-3.172-3.145-4.334-4.931-5.982zM154.623 14.32c-5.755-.736-12.922-2.19-19.369-2.525a399.842 399.842 0 0 0-22.211-.945c.206-3.831-1.559-7.058-6.938-6.34-1.27.25-2.129 1.29-2.977 2.187l.548-.34c1.224-.868 2.756-1.267 4.181-.645.755.361 1.789.802 2.275 1.61.452.837.399 1.772.303 2.718a9.674 9.674 0 0 1-.163.775c-3.686-.024-7.372.012-11.06.109 1.078-2.285 3.23-4.146 4.862-6.029-2.494 1.66-5.388 3.463-6.868 6.086-.517.017-1.035.026-1.552.045-12.78.043-25.56-.44-38.34-.086-6.967.251-13.984.25-20.857 1.56-3.874.665-8.415 1.64-11.801 2.08-3.439.52-6.92.346-10.384.363 8.9 1.849 17.887.526 26.856.166 12.74.2 25.457 1.28 38.187 1.8 5.733.337 11.48.354 17.215.053 1.758 6.905 10.9 6.604 14.71.1.184-.345.357-.703.519-1.069l.287-.02c9.246-.2 18.482-.702 27.724-.978 6.165-.046 12.321.45 18.487.235 1.104-.025 2.208-.065 3.312-.105a288.98 288.98 0 0 1-6.946-.805zm-51.087 4.398c-1.321.044-2.292-.059-3.291-.794a9.46 9.46 0 0 1-.836-1.105 528.44 528.44 0 0 0 8.276-.535c-1.126 1.145-3.023 2.214-4.149 2.434z" fill="#000"/></g><defs><clipPath id="a"><path fill="#fff" d="M0 0h171v69H0z"/></clipPath></defs></svg>