<svg width="118" height="92" fill="none" xmlns="http://www.w3.org/2000/svg"><g clip-path="url(#a)"><path d="M92.033 35.056a67.758 67.758 0 0 1 17.635-6.94 54.24 54.24 0 0 1-4.571-20.124 99.96 99.96 0 0 1-12.294.393c-4.452-.131-6.15-1-5.888 4.04.1 1.933 4.243 23.127 5.118 22.631zM100.365 77.268A67.752 67.752 0 0 1 118 70.328a54.22 54.22 0 0 1-4.571-20.124 99.96 99.96 0 0 1-12.295.393c-4.451-.132-6.15-1-5.888 4.04.1 1.933 4.244 23.126 5.119 22.63zM24.47 38.61c1.01 4.045 3.422 7.63 6.337 10.606 1.814 1.852 3.882 3.527 6.307 4.435 2.425.908 5.257.968 7.52-.293 2.988-1.665 4.384-5.15 5.505-8.387.464-1.342.925-2.725.86-4.144-.09-2.012-1.217-3.814-2.37-5.464-2.25-3.218-4.933-6.407-8.624-7.731-3.334-1.197-9.888-1.29-13.115.509-3.548 1.978-3.316 6.88-2.42 10.469z" fill="#5D54CD" fill-opacity=".4"/><path d="m3.58 61.035-.003-.014v.005l.002.009z" fill="#000"/><path d="M114.457 55.859c-2.492-4.614-15.3-4.108-20.025-3.812-4.179.237-8.338.792-12.523.918-1.343.014-2.687.002-4.03-.015.163-2.939.365-5.875.459-8.817.15-2.976.025-5.964.152-8.94 5.206-.304 10.431-.163 15.636-.519 3.75-.016 5.03-3.198 5.82-6.35a87.248 87.248 0 0 0 1.785-9.274c.533-4.079.808-5.936 1.269-9.75.171-1.903.559-3.838.246-5.743C102.66.43 99.743-.28 96.966.09c-1.98.168-3.955.39-5.935.562-8.118.82-16.101 2.585-24.16 3.845.027-.979.073-1.931.144-2.845a62.882 62.882 0 0 0-.51 2.9c-.674.105-1.347.212-2.022.308-.33.054-.66.106-.99.158.544-.006 1.09-.01 1.634-.019.438-.007.875-.019 1.313-.027a103.508 103.508 0 0 0-.945 13.322c-2.977.214-5.786.58-7.565.743-6.34.619-12.714 1.349-19.09.924-4.68-.123-9.102-1.893-14.512-2.982A52.965 52.965 0 0 0 5.911 17c-.624.117-1.246.24-1.868.369 1.393-.055 2.786-.114 4.18-.071 7.003.21 13.262 1.075 20.09 3.446 6.242 2.502 13.027 2.88 19.668 2.373 5.844-.358 11.645-1.209 17.48-1.653-.012 2.03-.008 4.059-.015 6.081.068 2.047-.164 4.133.201 6.155 1.06 3.303 6.176 1.857 8.794 1.833.29-.034.58-.055.87-.084-.003.229-.013.457-.008.687.194 5.598-.11 11.187-.434 16.774-2.655-.033-5.31-.038-7.963.129l-.4.017a87.8 87.8 0 0 1 .417-2.91 74.568 74.568 0 0 0-.819 2.927l-.501.022.479.06a100.684 100.684 0 0 0-2.16 11.07c-1.05-.272-2.107-.554-3.141-.824a60.987 60.987 0 0 0-9.544-1.467c-5.033-.507-10.058.198-15.08.503-3.03.194-6.07.153-9.103.302-4.635.187-9.267.511-13.908.5-3.4.015-7.554-.275-8.93-.956a1.124 1.124 0 0 1-.107-.064l-.006-.006c-.079-.106-.105-.13-.102-.115a3.89 3.89 0 0 1-.293-.48c-.01-.027-.02-.053-.028-.08a4.161 4.161 0 0 1-.101-.503c.034.209.017.322-.002-.008-.006-.04-.018-.078-.023-.117.01.038.017.076.023.112l-.005-.088c-.082-2.773.056-5.552-.115-8.324-.27-4.638-.778-9.259-1.175-13.887-.43-3.79-.839-7.591-.61-11.41.116-3.12.758-6.005 1.498-9.183A41.56 41.56 0 0 0 .017 32.212c-.11 6.88.342 13.762.631 20.635.084 2.056.08 4.114.071 6.17.018 1.346-.094 2.779.544 4.01 1.028 2.233 3.675 2.466 5.83 2.719 2.575.268 5.164.378 7.752.33 4.22-.035 8.435-.296 12.653-.433 3.028-.12 6.062-.06 9.087-.256 5.144-.317 10.293-.95 15.443-.372 2.457.285 4.558.474 7.712 1.245 1.26.325 2.522.667 3.788.993-.325 2.697-.58 5.404-.8 8.11-.227 2.748-.4 5.5-.644 8.245-.095 1.803-.451 3.626-.228 5.427.425 2.93 3.738 2.995 6.074 2.96 3.26.022 6.512-.24 9.77-.362 5.315-.212 10.632-.465 15.94-.81 3.325-.322 5.997-.847 8.358-1.054a61.79 61.79 0 0 1 3.709-.157c1.302.065 2.724-.152 3.564-1.257 1.406-1.759 1.806-4.071 2.333-6.207.717-3.129 1.244-6.298 1.738-9.47.669-4.456.956-6.805 1.385-9.965.277-2.258.624-4.693-.27-6.854zM66.862 4.963c4.312-.086 8.624-.246 12.92-.64 4.839-.427 9.684-.722 14.536-.922 1.587-.067 3.183-.29 4.77-.147a4.6 4.6 0 0 1 .36.107c.12.058.237.123.35.195l.106.113c.361.765.15 2.898-.129 5.172-.918 7.366-2.312 20.536-4.483 22.483-2.999.755-9.178.367-13.618.614-.841.02-1.853.081-2.937.162l.006-.063c.198-1.799.78-4.67.642-7.618-.229-1.606-.673-3.385-1.85-4.558-1.855-1.62-5.992-1.867-10.15-1.68-.338-4.396-.608-9.039-.523-13.218zm1.578 27.73-.021-.038c-.014-2.667-.394-6.738-.777-11.305 2.733-.04 5.354.014 7.064.521l.018.007c.142.073.43.223.645.36l.005.002c.016.02.025.029.037.041.453.771.718 2.317.735 2.496.045 2.543-.38 5.06-.644 7.59-3.18.274-6.22.54-7.063.326zm-1.954 20.513.034.005c2.953.306 5.594.723 8.266 1.111-.268 4.232.083 7.418-1.211 10.868-.036.08-.08.17-.129.254l-.068.066-.059.04-.052.034c-1.916.29-4.698-.221-7.662-.939.149-3.846.405-7.672.881-11.439zm45.187 8.425c-.52 4.115-.827 6.761-1.343 10.167-.602 4.464-2.155 12.783-3.224 14.272a2.578 2.578 0 0 1-.309.338l-.012.007c-.381.065-1.154.01-2.137.047-5.095.088-8.36 1.113-12.846 1.3-5.29.235-10.574.612-15.867.816-3.133.226-8.775.46-10.397.22a3.913 3.913 0 0 1-.595-.166l-.01-.006c-.09-.25-.043-.723.035-2.064.167-2.595.307-5.192.348-7.793.063-3.663.093-7.352.19-11.032 2.237.558 4.525.884 6.828.974 2.178.157 3.767-1.074 4.306-3.19.863-2.548.884-5.278 1.035-7.94.024-.949.067-1.897.112-2.845 1.71.218 3.483.405 5.402.527 9.98.233 23.135-1.358 28.047 1.71.125.115.242.237.352.366l.01.017c.333.977.237 2.425.075 4.275z" fill="#000"/><path d="M56.694 30.593a14.059 14.059 0 0 0-7.563-3.223 20.724 20.724 0 0 0-8.933.433 40.731 40.731 0 0 0-3.45 1.02c.287-.058.573-.115.861-.165 2.967-.555 6.411-.826 9.065-.332 3.468.668 6.47 1.645 8.667 4.07 3.141 3.084 2.835 7.096 1.437 9.983-1.315 2.498-2.375 3.015-5.078 4.846-4.318 2.733-7.818 3.54-12.681 3.735-5.456.103-11.281-1.736-12.223-5.57-.672-3.28-.053-7.793 3.316-11.084 2.742-3.21 6.952-3.856 10.808-3.09-3.038-.996-6.495-1.276-9.44.166a14.124 14.124 0 0 0-6.174 6.362 14.17 14.17 0 0 0-1.175 8.797c1.443 5.18 7.328 7.241 12.175 7.685 5.901.42 12.052-.8 17.02-4.114 2.032-1.36 4.142-2.75 5.48-4.855 3.114-4.923 2.612-10.979-2.112-14.664z" fill="#000"/><path d="M49.072 40.315a35.545 35.545 0 0 0-5.682-1.666c.665-2.393 1.154-4.836 1.62-7.276a45.991 45.991 0 0 0-2.543 7.092 65.406 65.406 0 0 0-8.468-.943 52.464 52.464 0 0 0 8.193 2.015 38.863 38.863 0 0 0-.831 4.708c-.201 1.107.735-1.722.9-2.108.307-.809.58-1.628.83-2.454 1.98.3 3.977.505 5.981.632zM80.906 62.62c6.43 1.267 14.752 2.04 20.401 2.407-6.479-2.578-13.523-2.835-20.401-2.408zM79.228 71.45c3.926-.288 7.852-.057 11.779.09 3.215.11 6.429-.02 9.64-.186-7.06-1.323-14.427-1.88-21.42.095zM78.528 78.878c8.19.765 16.473 1.203 24.626-.166-8.192-.808-16.455-.957-24.626.166zM93.929 10.851c-2.917-.659-5.858-1.256-8.844-1.49-2.201-.154-4.41-.13-6.613-.239-.888-.112-1.905-.014-2.716-.36-.001.043-.003.047.044.08 1.285.59 2.687.886 4.064 1.185 4.778.933 9.665 1.122 14.522 1.025l.418-.006c-.292-.064-.584-.13-.875-.195zM94.639 16.126a51.863 51.863 0 0 0-15.97-1.778c3.948.74 7.927 1.491 11.942 1.753 1.468.079 2.938.103 4.409.123l-.381-.098zM94.814 24.464a48.944 48.944 0 0 0-15.385.676c4.398.2 8.817.244 13.194-.303.868-.098 1.731-.208 2.597-.328l-.406-.045z" fill="#000"/></g><defs><clipPath id="a"><path fill="#fff" d="M0 0h118v92H0z"/></clipPath></defs></svg>