<svg width="110" height="100" fill="none" xmlns="http://www.w3.org/2000/svg"><g clip-path="url(#a)"><path d="M70.45 27.746c-3.304-1.682-7.211-2.142-10.62-.482-2.243.984-4.486 3.041-5.866 5.463-.625.43-1.21.917-1.745 1.455-3.004 3.789-3.282 8.727.403 12.173 3.15 3.061 7.964 3.36 12.06 2.457a14.717 14.717 0 0 0 9.24-8.005c2.091-4.378 1.399-10.893-3.472-13.061zm-5.31 4.13c.37.073.737.17 1.1.272 1.946.704.842.14 2.394 1.089.06.056.113.118.169.179.072.116.162.267.25.44l.003.005a6.8 6.8 0 0 1 .179.57c.143.48.195.981.153 1.48A4.653 4.653 0 0 0 69 34.502c-1.288-2.182-4.153-1.516-6.16-.894-.359.116-.713.25-1.063.391.52-.072 1.046-.11 1.572-.114 1.399.036 3.424-.125 4.054 1.253a2.793 2.793 0 0 1-1.137 2.662c-1.537 1.188-4.023 2.04-5.534 2-1.619-.046-2.51-.445-3.064-1.438a5.796 5.796 0 0 1-.07-.27 5.362 5.362 0 0 1-.005-.436c.027-.145.049-.292.089-.434.6-1.963 3.044-4.489 5.045-5.093l-.676.285c2.346-.71 1.291-.524 3.09-.54zm-3.199 12.151c-2.89.411-4.32.636-6.626-.71-1.612-1.039-2.598-2.289-2.544-4.4.122.55.316 1.082.577 1.581 1.983 3.47 6.72 4.113 10.129 2.496 1.62-.666 3.443-1.835 4.637-3.323a9.57 9.57 0 0 1-6.173 4.356zM92.218 44.343a.313.313 0 0 0-.358-.272c-.748.44-1.42 1.345-2.19 1.855a28.067 28.067 0 0 1-4.494 2.567c-3.178 1.356-9.387 2.923-13.707 4.423-7.594 2.96-15.471 5.044-23.288 7.32-8.65 2.649-16.647 5.03-25.389 4.38 9.027 2.786 18.67 1.975 27.807.16 7.344-1.28 14.599-3.242 21.252-6.663 5.912-3.03 12.542-5.132 17.404-9.83a16.446 16.446 0 0 0 2.812-3.583c.001-.002 0-.003.002-.005l.026-.029a.396.396 0 0 0 .123-.323z" fill="#5D54CD" fill-opacity=".4"/><path d="M109.38 32.085c-2.063-4.747-8.222-4.937-12.625-4.034-.708.14-1.413.297-2.114.47-4.32-6.722-10.809-11.77-18.03-15.092-4.966-2.434-10.48-3.526-15.966-3.957-4.692-.33-9.53-.045-13.975 1.59-2.57.898-5.106 1.96-7.309 3.584-.614.428-1.22.868-1.805 1.335a42.45 42.45 0 0 1 4.395-2.146c2.444-.84 6.133-1.769 8.383-1.972 5.484-.394 9.244.182 14.254 1.262C79.056 16.26 90.61 25.222 95.276 37.971c1.12 3.07 1.44 6.374.928 9.602a98.102 98.102 0 0 1-3.753 2.07c-6.607 3.485-11.924 5.651-19.328 8.113-4.813 1.51-9.624 3.044-14.508 4.31-4.963 1.177-10.006 1.98-15 3.01-7.54 1.324-13.813 3.31-20.745 3.146-1.825-3.269-2.864-5.535-3.94-9.486-2.529-9.11-2.485-18.82 2.263-26.782A41.375 41.375 0 0 1 33.795 19.03c2.93-1.957 5.944-2.817 9.335-3.715-2.93.344-5.897.726-8.623 1.918a37.587 37.587 0 0 0-16.281 13.89c-4.216 6.891-4.848 15.261-3.55 23.118-4.608 2.1-8.364 6.712-4.443 11.472 2.682 2.893 6.416 4.374 10.255 5.085.348.609.71 1.21 1.083 1.804 2.077 3.067 4.954 5.51 8.073 7.474 2.816 1.692 5.737 3.305 8.925 4.18 6.353 1.68 13.083 1.13 19.465-.118 5.612-1.437 10.945-3.858 15.954-6.74a69.796 69.796 0 0 0 14.265-10.492c5.066-4.854 9.951-10.675 11.415-17.659a31.369 31.369 0 0 0 3.073-2.261c2.709-2.346 5.441-4.98 6.661-8.43a8.904 8.904 0 0 0-.022-6.472zm-94.2 28.674c-.317-1.478-5.068-1.668-4.204-2.871.875-1.41 2.252-2.551 3.722-3.525.182 1.088.4 2.164.652 3.23a46.85 46.85 0 0 0 3.53 10.135c-3.659-.706-2.819-3.421-3.7-6.969zm74.45-.574c-5.456 5.954-10.178 9.863-16.695 13.596-4.556 2.6-7.353 4.064-11.803 5.61-4.96 1.778-7.808 1.996-12.987 2.286-6.376.14-10.148-.818-15.533-3.939-3.452-2.017-5.847-3.819-7.833-6.47 3.757.068 7.488-.59 11.166-1.301 7.704-1.6 15.478-2.861 23.166-4.53 4.413-1.107 8.742-2.53 13.087-3.874a130.585 130.585 0 0 0 20.151-8.175c.852-.453 1.708-.903 2.561-1.36-1.192 2.855-3.018 5.561-5.28 8.157zm11.236-24.22c-1.512 1.594.825 7.87-.719 9.022.09-5.72-2.13-11.258-5.22-16.027-.028-.045-.059-.088-.087-.132 2.238-.227 4.58-.296 6.482.017 8.343 1.225 3.446 3.213-.456 7.12z" fill="#000"/><path d="M69.888 26.566c-.815-1.433-2.412-2.175-3.873-2.793a11.12 11.12 0 0 0-6.676-.423c-1.073.2.828-.009 1.231.038 2.245.03 4.424.76 6.233 2.087.627.424 1.83 1.42 1.839 2.513.023 1.747-.761 3.184-1.891 4.69a18.267 18.267 0 0 1-3.651 3.601c-.35.23-1.558 1.024-1.924 1.13a4.37 4.37 0 0 0-.235.1c-.046.02-.092.039-.139.056a18.714 18.714 0 0 1-4.43.894c-3.005.174-3.735-.085-6.05-1.307-4.761-2.28-.804-7.87 2.451-10.963 1.915-1.96 4.352-3.034 6.945-4.316-2.533.838-5.174 1.55-7.316 3.211-3.858 2.705-9.065 8.392-5.062 12.989 2.813 2.827 6.884 3.88 10.763 3.108 4.645-.415 8.484-3.635 10.777-7.546 1.237-2.045 2.182-4.804 1.008-7.07zM46.294 50.511a6.641 6.641 0 0 0-5.083-1.254c-.877.17-1.73.44-2.545.805l.49-.235c-1.642.446-3.332.945-4.68 2.024-2.185 1.715-3.642 4.851-2.243 7.486.617 1.248 1.81 1.984 3.1 2.4 3.688 1.32 8.041-.48 10.464-3.385 2.049-2.255 2.82-5.474.497-7.84zm-.595 3.383c-.163 1.251-3.687-3.076-5.086-1.904-.793.59-1.59.709-2.12.907-1.31.49-.883.386-2.119.303-.584-.05-1.216 6.257-1.839 5.893-1.844-1.326-1.556-3.997.023-6.098a8.447 8.447 0 0 1 2.65-2.18c.18-.047.358-.096.538-.141 1.921-.474 4.02-.921 5.884-.01.2.06 1.285.681 1.454.94.49.817.71 1.366.615 2.29zM59.48 70.456a8.003 8.003 0 0 0-1.605-.447c.297.13.59.27.879.415 2.058.928 1.284 1.368.061 2.473-1.373 1.138-2.35 2.155-4.267 2.667-1.303.346-2.983-.004-3.707-1.23-.336-.666-.108-1.572.236-2.267.428-.683.915-.107 1.59-.494 1.243-.615 2.245-.963 3.595-1.556-2.012.478-4.225.653-5.964 1.86-.86.691-1.287 1.873-1.306 2.953.129 2.62 3.307 3.925 5.584 3.205 2.11-.278 8.522-6.005 4.904-7.58zM92.894 8.973c-2.678.066-2.67 3.984 0 4.057 2.678-.066 2.67-3.984 0-4.057zM47.277 0c-2.678.066-2.67 3.984 0 4.058 2.678-.067 2.671-3.984 0-4.058zM7.535 23.468c-2.678.066-2.67 3.984 0 4.058 2.678-.067 2.67-3.984 0-4.058zM39.329 95.942c-2.678.067-2.67 3.984 0 4.058 2.678-.066 2.67-3.984 0-4.058zM92.894 82.138c-2.678.066-2.67 3.984 0 4.057 2.678-.066 2.67-3.984 0-4.057zM73.541 37.618c-2.677.066-2.67 3.984 0 4.057 2.678-.066 2.671-3.984 0-4.057zM24.123 39.343c-2.678.066-2.67 3.984 0 4.058 2.678-.067 2.67-3.984 0-4.058zM2.006 88.35c-2.678.066-2.671 3.984 0 4.057 2.678-.066 2.67-3.984 0-4.057z" fill="#000"/></g><defs><clipPath id="a"><path fill="#fff" d="M0 0h110v100H0z"/></clipPath></defs></svg>