<svg width="136" height="98" fill="none" xmlns="http://www.w3.org/2000/svg"><g clip-path="url(#a)"><path d="M118.727 33.714c-4.922-3.683-12.631-7.166-21.15-9.557-7.758-2.176-15.324-3.227-21.307-2.958l-.03-.697c6.053-.271 13.698.788 21.524 2.984 8.599 2.412 16.392 5.937 21.38 9.67l-.417.558z" fill="#CCC"/><path d="M118.216 36.551a23.203 23.203 0 0 1-2.352 10.214 23.272 23.272 0 0 1-10.896 10.804 23.243 23.243 0 0 1-15.246 1.668 23.261 23.261 0 0 1-12.97-8.193 23.3 23.3 0 0 1 3.08-32.185 23.248 23.248 0 0 1 31.991 1.66 23.297 23.297 0 0 1 6.393 16.032z" fill="#6C63FF"/><path opacity=".1" d="M116.21 46.023c-.11.25-.226.496-.346.741-.679.074-1.395.128-2.146.161-.622.028-1.262.042-1.916.042-5.712 0-12.587-1.055-19.61-3.025-7.826-2.196-14.907-5.268-19.938-8.65-.172-.114-.34-.23-.505-.345.017-.27.04-.538.068-.804.266.19.541.38.825.571 4.972 3.341 11.981 6.38 19.738 8.556 6.962 1.954 13.772 3 19.418 3 .646 0 1.275-.014 1.889-.041.892-.04 1.734-.11 2.523-.206z" fill="#000"/><path d="M111.802 46.41c-5.712 0-12.587-1.056-19.61-3.026-7.826-2.196-14.907-5.268-19.938-8.65-5.136-3.451-7.545-6.853-6.782-9.577.763-2.725 4.587-4.378 10.767-4.655l.031.696c-2.886.13-5.238.56-6.99 1.277-1.75.715-2.804 1.68-3.137 2.87-.333 1.189.067 2.563 1.19 4.084 1.124 1.524 2.91 3.115 5.309 4.727 4.971 3.341 11.981 6.38 19.738 8.556 6.962 1.954 13.771 3 19.419 3 .645 0 1.274-.013 1.887-.04 2.887-.13 5.239-.56 6.991-1.277 1.749-.716 2.804-1.681 3.137-2.87.598-2.135-1.209-4.91-5.087-7.811l.417-.559c1.996 1.494 3.473 2.966 4.391 4.376.984 1.511 1.304 2.918.95 4.182-.763 2.724-4.587 4.377-10.767 4.654-.622.028-1.262.042-1.916.042z" fill="#CCC"/><path d="M95.57 9.069a.267.267 0 1 0 0-.534.267.267 0 0 0 0 .534z" fill="#F2F2F2"/><path d="M60.208 20.646a.459.459 0 1 0 0-.917.459.459 0 0 0 0 .918zM59.23 39.059a.906.906 0 1 0 0-1.813.906.906 0 0 0 0 1.813zM113.607 11.007a.605.605 0 1 0-.001-1.21.605.605 0 0 0 .001 1.21zM135.02 36.465a.98.98 0 1 0-.002-1.961.98.98 0 0 0 .002 1.961zM127.355 20.234a.42.42 0 1 0 0-.84.42.42 0 0 0 0 .84zM76.29 15.062a.656.656 0 1 0 0-1.313.656.656 0 0 0 0 1.313zM125.883 33.916a.42.42 0 1 0-.001-.841.42.42 0 0 0 .001.84zM61.363 51.483a.524.524 0 1 0 0-1.048.524.524 0 0 0 0 1.047zM71.936 58.818a.567.567 0 1 0 0-1.134.567.567 0 0 0 0 1.134zM88.415 1.12h-1.118V0h-.6v1.12h-1.12v.6h1.12v1.12h.6V1.722h1.118V1.12zM114.364 61.707h-.702v-.703h-.377v.703h-.702v.378h.702v.703h.377v-.703h.702v-.378zM130.577 58.108h-.525v-.525h-.282v.525h-.525v.282h.525v.526h.282v-.526h.525v-.282z" fill="#CCC"/><path opacity=".1" d="M95.304 20.276a1.956 1.956 0 1 0-.002-3.911 1.956 1.956 0 0 0 .002 3.911zM80.288 34.594a1.956 1.956 0 1 0-.002-3.911 1.956 1.956 0 0 0 .002 3.911zM101.879 54.249a1.955 1.955 0 0 0 1.954-1.957 1.955 1.955 0 1 0-1.954 1.957zM95.304 37.618a1.956 1.956 0 1 0-.002-3.911 1.956 1.956 0 0 0 .002 3.911zM81.266 48.38a1.956 1.956 0 1 0-.002-3.912 1.956 1.956 0 0 0 .002 3.911zM105.788 27.124a1.956 1.956 0 1 0-.001-3.911 1.956 1.956 0 0 0 .001 3.911zM112.274 40.375a1.956 1.956 0 1 0-.001-3.911 1.956 1.956 0 0 0 .001 3.911z" fill="#000"/><path d="M95.304 29.703a2.578 2.578 0 0 0 2.576-2.579 2.578 2.578 0 1 0-2.576 2.58z" fill="#fff"/><path d="M95.304 23.389a3.64 3.64 0 0 0-3.643 3.646c0 2.014 3.643 8.627 3.643 8.627s3.643-6.613 3.643-8.627a3.648 3.648 0 0 0-3.643-3.646zm0 5.425a1.687 1.687 0 0 1-1.656-2.02 1.691 1.691 0 0 1 1.327-1.327 1.687 1.687 0 0 1 2.017 1.657 1.692 1.692 0 0 1-1.688 1.69z" fill="#CCC"/><path d="M81.266 40.731a2.578 2.578 0 0 0 2.576-2.58 2.578 2.578 0 1 0-2.576 2.58z" fill="#fff"/><path d="M81.266 34.417a3.641 3.641 0 0 0-3.643 3.646c0 2.014 3.642 8.627 3.642 8.627s3.643-6.613 3.643-8.627a3.649 3.649 0 0 0-2.248-3.369 3.64 3.64 0 0 0-1.394-.277zm0 5.425a1.687 1.687 0 0 1-1.656-2.02 1.69 1.69 0 0 1 2.302-1.23 1.689 1.689 0 0 1-.647 3.25z" fill="#CCC"/><path d="M112.274 32.727a2.578 2.578 0 0 0 2.577-2.58 2.577 2.577 0 1 0-5.153 0 2.577 2.577 0 0 0 2.576 2.58z" fill="#fff"/><path d="M112.274 26.413a3.64 3.64 0 0 0-3.365 2.25 3.652 3.652 0 0 0-.278 1.396c0 2.014 3.643 8.626 3.643 8.626s3.643-6.612 3.643-8.626a3.65 3.65 0 0 0-2.249-3.369 3.636 3.636 0 0 0-1.394-.277zm0 5.425a1.688 1.688 0 0 1-1.193-2.885 1.684 1.684 0 0 1 2.597.256 1.694 1.694 0 0 1-.758 2.5 1.686 1.686 0 0 1-.646.129z" fill="#CCC"/><path d="M95.304 12.36a2.578 2.578 0 0 0 2.576-2.578 2.578 2.578 0 1 0-2.576 2.579z" fill="#fff"/><path d="M95.304 6.046a3.64 3.64 0 0 0-3.643 3.647c0 2.014 3.643 8.626 3.643 8.626s3.643-6.612 3.643-8.626a3.648 3.648 0 0 0-3.643-3.647zm0 5.425a1.687 1.687 0 0 1-1.656-2.019 1.691 1.691 0 0 1 1.327-1.328 1.687 1.687 0 0 1 2.017 1.658 1.692 1.692 0 0 1-1.688 1.69z" fill="#CCC"/><path d="M101.879 46.6a2.577 2.577 0 0 0 2.576-2.578 2.577 2.577 0 1 0-5.153 0 2.578 2.578 0 0 0 2.577 2.579z" fill="#fff"/><path d="M101.879 40.286a3.642 3.642 0 0 0-3.643 3.646c0 2.014 3.643 8.627 3.643 8.627s3.643-6.613 3.643-8.627a3.652 3.652 0 0 0-2.249-3.368 3.64 3.64 0 0 0-1.394-.278zm0 5.425a1.685 1.685 0 0 1-1.56-1.043 1.69 1.69 0 0 1 2.206-2.208 1.687 1.687 0 0 1 1.042 1.561 1.688 1.688 0 0 1-1.688 1.69z" fill="#3F3D56"/><path d="M80.288 26.768a2.578 2.578 0 0 0 2.577-2.579 2.578 2.578 0 1 0-2.577 2.58z" fill="#fff"/><path d="M80.288 20.454a3.641 3.641 0 0 0-3.643 3.646c0 2.014 3.643 8.627 3.643 8.627s3.643-6.613 3.643-8.627a3.648 3.648 0 0 0-3.643-3.646zm0 5.425a1.687 1.687 0 0 1-1.656-2.02 1.69 1.69 0 0 1 2.302-1.231 1.689 1.689 0 0 1-.646 3.25z" fill="#3F3D56"/><path d="M105.788 19.564a2.578 2.578 0 1 0-.002-5.156 2.578 2.578 0 0 0 .002 5.156z" fill="#fff"/><path d="M105.788 13.25a3.641 3.641 0 0 0-3.643 3.647c0 2.014 3.643 8.626 3.643 8.626s3.643-6.612 3.643-8.626a3.649 3.649 0 0 0-3.643-3.646zm0 5.425a1.688 1.688 0 0 1-1.656-2.019 1.691 1.691 0 0 1 2.302-1.231 1.69 1.69 0 0 1-.646 3.25z" fill="#3F3D56"/><path d="m31.794 96 2.05-.232.08-8.029-3.027.344.897 7.918z" fill="#FFB8B8"/><path d="m38.016 97.224-6.445.732-.283-2.492 3.955-.45a2.505 2.505 0 0 1 2.773 2.21z" fill="#2F2E41"/><path d="M10.704 95.872h2.064l.981-7.968h-3.046v7.968z" fill="#FFB8B8"/><path d="M16.748 97.79h-6.486v-2.508h3.98a2.505 2.505 0 0 1 2.506 2.508zM25.512 60.239l1.178 3.836 6.397 13.857 1.684 13.143-3.872.169-2.357-12.133-8.08-8.762-7.071 22.917-3.199-.337s2.694-29.657 6.397-32.69c0 0 6.06-2.865 8.923 0z" fill="#2F2E41"/><path d="M20.284 43.684a4.137 4.137 0 0 0 4.135-4.14 4.137 4.137 0 0 0-4.135-4.138 4.137 4.137 0 0 0-4.134 4.139 4.137 4.137 0 0 0 4.134 4.139z" fill="#FFB8B8"/><path d="M25.933 60.997s.505-17.188-6.566-16.008c-7.07 1.18-4.124 17.777-4.124 17.777s1.515 3.033 5.218-.337c3.704-3.37 5.472-1.432 5.472-1.432z" fill="#CCC"/><path opacity=".2" d="m16.169 52.234 1.663 6.384 2.535 2.537-3.525-1.17-.673-7.75z" fill="#000"/><path d="M25.985 68.266a1.693 1.693 0 0 1-.889-2.441l-3.932-4.557 3.1-.404 3.26 4.39a1.703 1.703 0 0 1-1.54 3.012z" fill="#FFB8B8"/><path d="m21.197 48.49.443 8.715 5.218 6.74-2.188 1.686-7.07-7.078s-2.526-8.593-.674-11.121c.695-.948 1.46-1.209 2.146-1.164a2.319 2.319 0 0 1 2.125 2.221z" fill="#CCC"/><path d="M19.793 43.894a.17.17 0 0 0-.024-.273 2.406 2.406 0 0 1-.732-3.386c.24-.359.573-.647.963-.833 1.216-.58 2.863-.128 3.762-1.243a2.091 2.091 0 0 0 .387-1.698c-.194-1.053-.984-1.835-1.87-2.371a6.801 6.801 0 0 0-9.666 2.902 6.818 6.818 0 0 0-.618 3.692c.114 1.014.427 2.15-.175 2.973-.53.724-1.53.86-2.409 1.04-1.884.386-3.702 1.276-4.98 2.714-1.28 1.438-1.962 3.456-1.576 5.342.385 1.886 1.932 3.544 3.833 3.836 1.548.238 3.145-.42 4.282-1.498 1.136-1.078 1.854-2.533 2.307-4.033.538-1.78.75-3.699 1.72-5.285.95-1.552 2.998-2.664 4.603-1.856a.172.172 0 0 0 .193-.023z" fill="#2F2E41"/><path d="M51.85 98H.169a.168.168 0 0 1 0-.337h51.683a.168.168 0 0 1 0 .337z" fill="#3F3D56"/></g><defs><clipPath id="a"><path fill="#fff" d="M0 0h136v98H0z"/></clipPath></defs></svg>