<svg width="124" height="98" fill="none" xmlns="http://www.w3.org/2000/svg"><g clip-path="url(#a)"><path d="M72.722 16.561c-7.846-.27-15.32-2.788-22.456-5.543C43.13 8.263 36.063 5.21 28.405 3.75c-4.926-.938-10.56-1.07-14.528 1.554-3.82 2.53-5.054 6.887-5.717 10.934-.5 3.045-.793 6.248.576 9.098.95 1.98 2.635 3.642 3.8 5.544 4.058 6.595 1.191 14.727-3.206 21.167-2.061 3.021-4.455 5.905-6.046 9.118-1.59 3.213-2.327 6.9-.936 10.18 1.381 3.254 4.67 5.693 8.232 7.41 7.236 3.49 15.76 4.488 24.078 5.053 18.406 1.252 36.91.71 55.365.167 6.83-.2 13.689-.405 20.408-1.454 3.731-.584 7.583-1.508 10.292-3.742 3.438-2.836 4.291-7.639 1.987-11.194-3.866-5.964-14.548-7.446-17.253-13.847-1.487-3.523.041-7.447 2.201-10.716 4.636-7.009 12.406-13.159 12.815-21.171.282-5.504-3.455-11.014-9.23-13.618-6.053-2.74-14.45-2.393-18.913 2.125-4.6 4.656-12.681 6.442-19.608 6.203z" fill="#F5F5F5"/><path d="m52.79 83.217-41.495-.201-4.123-9.614 14.58-1.052-2.542-10.54 28.836-3.716-27.613-9.542 2.44-.576 44.4 7.2-2.445 16.45-3.495 9.04-8.543 2.551z" fill="#6C63FF"/><path d="M11.931 78.99s2.546-.405 4.074 1.383c0 0-1.12.877-3.53-.337l-.543-1.046zM11.665 78.95s-1.625 1.987-.824 4.2c0 0 1.323-.527 1.468-3.21l-.644-.99zM10.205 75.683s1.019-1.858 5.092.742c0 0-.543 1.249-2.342 1.147-1.8-.1-2.274-.91-2.75-1.89zM9.942 75.549s-2.113-.241-2.318 4.567c0 0 1.34.276 2.292-1.245.951-1.52.56-2.374.026-3.322z" fill="#6C63FF"/><path d="M76.464 75.557s-2.748 3.335-.566 8.376l-21.943 9.46-2.106.44-.97-4.219.65-5.323v-2.91l24.935-5.824z" fill="#D5D6DB"/><path d="m7.172 73.402 30.37-5.504 40.243 6.373-24.995 8.946-45.618-9.815z" fill="#6C63FF"/><path d="m7.172 73.402 30.37-5.504 40.243 6.373-24.995 8.946-45.618-9.815z" fill="#575A89"/><path d="M7.172 73.401s-2.84 5.35.433 10.291l45.037 9.702s-2.795-4.262.144-10.177L7.172 73.401z" fill="#575A89"/><path opacity=".1" d="M7.172 73.401s-2.84 5.35.433 10.291l45.037 9.702s-2.795-4.262.144-10.177L7.172 73.401z" fill="#000"/><path opacity=".1" d="M8.514 75.256s-1.623 3.914 0 6.448v-6.448z" fill="#000"/><path d="m52.642 93.394 25.143-10.666s1.407.301.498 1.326c-.91 1.024-25.156 10.364-25.156 10.364L7.605 83.692l45.037 9.702z" fill="#575A89"/><path opacity=".1" d="m52.642 93.394 25.143-10.666s1.407.301.498 1.326c-.91 1.024-25.156 10.364-25.156 10.364L7.605 83.692l45.037 9.702z" fill="#000"/><path opacity=".1" d="M50.581 84.295s-2.424 2.892 0 7.23v-7.23zM62.32 84.246l-10.876 3.607.038.114 10.876-3.607-.038-.114zM64.498 83.887l-13.057 4.936.043.113 13.057-4.937-.043-.112zM66.499 83.87l-14.985 6.097.045.112 14.986-6.098-.046-.111zM68.674 83.347l-16.986 7.628.05.11 16.986-7.628-.05-.11zM70.502 83.35l-18.68 8.116.05.11L70.55 83.46l-.048-.11zM74.5 82.675 52.104 92.29l.048.111 22.394-9.615-.048-.111z" fill="#000"/><path opacity=".3" d="m18.455 73.99 21.337-4.459 12.998 2.471-17.484 5.604-16.851-3.615z" fill="#fff"/><path d="M77.785 74.271s1.104.443.456 1.126c-.647.683-25.455 7.82-25.455 7.82l25-8.946z" fill="#6C63FF"/><path d="M88.501 63.966s-2.747 3.333-.565 8.376l-21.943 9.46-2.105.441-.97-4.218.658-5.322V69.79l24.925-5.824z" fill="#D5D6DB"/><path d="m19.21 61.81 30.37-5.503 40.244 6.373-24.996 8.946L19.21 61.81z" fill="#3A3768"/><path d="M19.205 61.81s-2.841 5.35.432 10.29l45.037 9.703s-2.794-4.266.15-10.178L19.204 61.81z" fill="#3A3768"/><path opacity=".1" d="M19.205 61.81s-2.841 5.35.432 10.29l45.037 9.703s-2.794-4.266.15-10.178L50.58 68.56l-31.376-6.75z" fill="#000"/><path opacity=".1" d="M20.551 63.665s-1.622 3.913 0 6.447v-6.447z" fill="#000"/><path d="m64.68 81.802 25.144-10.665s1.405.3.496 1.325c-.91 1.025-25.156 10.365-25.156 10.365L19.642 72.1l45.037 9.701z" fill="#3A3768"/><path opacity=".1" d="m64.68 81.802 25.144-10.665s1.405.3.496 1.325c-.91 1.025-25.156 10.365-25.156 10.365L19.642 72.1l45.037 9.701z" fill="#000"/><path opacity=".1" d="M62.618 72.703s-2.424 2.893 0 7.231v-7.23zM74.358 72.656l-10.876 3.607.038.114 10.876-3.607-.038-.114zM76.537 72.296 63.48 77.232l.043.113 13.058-4.936-.044-.113zM78.536 72.277l-14.985 6.098.046.111 14.985-6.097-.046-.112zM80.713 71.755l-16.985 7.628.05.11 16.985-7.628-.05-.11zM82.539 71.756 63.86 79.873l.049.11 18.679-8.116-.049-.11zM86.537 71.081l-22.394 9.616.048.11 22.395-9.615-.049-.11z" fill="#000"/><path opacity=".45" d="m30.493 62.4 21.337-4.46 12.998 2.47-17.484 5.605-16.85-3.616z" fill="#fff"/><path d="M89.824 62.68s1.102.442.456 1.124c-.647.683-25.452 7.82-25.452 7.82l24.996-8.944z" fill="#3A3768"/><path d="M89.64 50.705s-2.748 5.986-.566 11.028l-21.942 6.809-2.101.442-.97-4.218.648-5.323V56.53l24.932-5.825z" fill="#D5D6DB"/><path d="m20.354 48.55 30.37-5.504 40.244 6.373-24.996 8.946-45.618-9.815zM20.354 48.55s-2.846 5.35.427 10.29l45.038 9.702s-2.796-4.265.148-10.177L20.353 48.55z" fill="#6C63FF"/><path opacity=".1" d="M20.354 48.55s-2.846 5.35.427 10.29l45.038 9.702s-2.796-4.265.148-10.177L20.353 48.55z" fill="#000"/><path opacity=".1" d="M21.695 50.404s-1.623 3.914 0 6.448v-6.448z" fill="#000"/><path d="m65.824 68.542 25.143-8.014s1.406.3.497 1.325c-.91 1.024-25.156 7.713-25.156 7.713L20.786 58.84l45.038 9.702z" fill="#6C63FF"/><path opacity=".1" d="m65.824 68.542 25.143-8.014s1.406.3.497 1.325c-.91 1.024-25.156 7.713-25.156 7.713L20.786 58.84l45.038 9.702z" fill="#000"/><path opacity=".1" d="M63.763 59.443s-2.425 2.892 0 7.23v-7.23zM75.502 59.395l-10.875 3.607.038.114 10.876-3.607-.038-.114zM77.681 59.036l-13.057 4.936.043.113 13.058-4.936-.043-.113zM79.68 59.018l-14.986 6.097.046.112 14.985-6.098-.046-.111zM81.858 58.495l-16.986 7.627.05.11 16.986-7.627-.05-.11zM83.684 58.497l-18.678 8.116.048.11 18.679-8.116-.049-.11zM87.682 57.823l-22.394 9.615.048.11 22.394-9.615-.048-.11z" fill="#000"/><path opacity=".3" d="m31.636 49.139 21.337-4.46 12.999 2.471-17.484 5.604-16.852-3.615z" fill="#fff"/><path d="M90.967 49.42s1.103.442.456 1.125c-.648.683-25.451 7.82-25.451 7.82l24.995-8.946z" fill="#6C63FF"/><path d="M86.675 45.47c-.793-2.142-5.157-2.343-7.05-1.797-1.346.39-4.183.828-5.698 1.049l-.099-.093c.197-.058.202-.2.177-.411a6.412 6.412 0 0 1 .013-.834c.928.287 1.755-.392 1.755-.392 1.091-.482.798-2.545 1.006-3.11.157-.421.325-2.906.4-4.145h.016l.009-.416.015-.284s.107-3.03.316-3.643c.194-.564.351-3.406.375-3.857v-.059l-.015-.263c.01-.191.015-.405.014-.629 0-1.03-.108-2.328-.121-2.538v-.11c.008-.44-.047-2.643-1.932-3.475-.695-.309-1.53-.676-2.339-1.034-.209-1.79-.685-3.57-.644-5.373 0-.271.024-.542.051-.812 0 .078-.008.158-.01.24v.526c.072-2.255.93-4.522.85-6.728-.008.215-.024.432-.045.65a6.966 6.966 0 0 0-.232-2.217c-.073-.254-.171-.517-.381-.687a1.573 1.573 0 0 0-.664-.262 13.429 13.429 0 0 0-1.745-.323 2.669 2.669 0 0 0-.393-.758C69.075 2.008 67.254.431 65.101.07c-1.08-.18-2.323-.03-3.057.737-.077.068-.15.14-.216.217-.395.47-.565 1.085-.97 1.553-.027.031-.057.06-.086.09-.793.705-2.028.852-2.91 1.485-.155.113-.3.24-.435.377-.355.35-.673.735-.95 1.149-.397.554-.804 1.131-.93 1.793-.253 1.326.655 2.583.823 3.917.376 2.985-2.947 5.634-2.318 8.58a3.922 3.922 0 0 0 1.07 1.907c-1.297 1.167-2.4 2.298-2.4 2.298v.068h-.205l.02.24h-.02l.113 1.308-.113 1.905v.18h.008c.037.697.186 3.206.363 3.735.209.614.314 3.644.314 3.644s.23 4.282.442 4.848c.21.566-.089 2.624 1.006 3.11.32.244.7.4 1.1.453-.056.45-.021.777.16.88.077.045.164.07.254.072a2.69 2.69 0 0 0-.198.343 5.164 5.164 0 0 1-1.27-.298c-1.176-.482-5.078-1.566-6.212-.803-1.134.762-3.861 1.454-2.602 4.525 1.26 3.07 1.847 3.148 1.847 3.148.387.28.727.62 1.007 1.006.378.565 3.903 1.859 4.784 1.859a8.68 8.68 0 0 1 1.121.055s-.956.834-.829 1.319c.127.484-.29 4.362-.29 4.362s.969.972 1.384-.302l.014.019c.078.105.497.579 1.286-.02.323-.243.666-.459 1.026-.645l3.821-.538c.399-.025.798-.027 1.197-.008.606.05 1.201-.307 1.576-.584.791.3 1.681.626 2.104.745.859.241 4.803 1.293 5.726.964.192-.075.362-.196.497-.352l.88.028-.412.082s.803.013 1.894.028l-.046.026 1.368-.012c2.003.018 4.253.024 4.549-.042.463-.102 2.87-.03 3.579 0h.197s2.644-.524 1.553-3.191c-.839-2.049-3.417-2.644-4.562-2.808.323-.064.6-.114.785-.142.799-.12 2.35-.844 2.476-1.091.126-.247 1.427-.964 1.763-1.373.336-.408 1.295-3.304.498-5.446zm-21.9 5.993-.13.043-.087.029-.167.163-.426-.28c.263.017.534.032.81.045z" fill="url(#b)"/><path d="M72.505 38.756s1.855 4.82 2.91 4.339c1.054-.482.768-2.531.97-3.093.2-.562.423-4.82.423-4.82s.102-3.014.303-3.623c.187-.56.339-3.387.364-3.832v-.059l-.2-3.495-1.132-.28-2.626.964-.364 2.064-.142.806-.06.344-.446 10.685z" fill="#BE6F72"/><path opacity=".1" d="M73.116 37.949s1.77 1.44 2.303 1.566c.534.127.86 1.25.86 1.25" fill="#000"/><path d="M58 38.967s-1.855 4.82-2.91 4.339c-1.055-.482-.769-2.531-.97-3.093-.201-.562-.424-4.82-.424-4.82s-.102-3.014-.303-3.623c-.187-.56-.339-3.387-.364-3.832v-.059l.201-3.495 1.132-.28 2.626.964.364 2.064.142.806.06.344L58 38.967z" fill="#BE6F72"/><path d="M70.078 13.169h-4.14v6.415h4.14V13.17z" fill="#3E373A"/><path opacity=".1" d="M70.078 13.169h-4.14v6.415h4.14V13.17z" fill="#000"/><path d="M57.272 43.768s-1.415 1.547-.89 1.827c.525.281 3.92 5.544 3.92 5.544s11.154 1.366 13.257-.683c2.104-2.049 2.061-5.71 2.061-5.71s-1.69.362-1.874.166c-.184-.197-1.197-1.144-1.197-1.144s-14.307-.863-15.277 0z" fill="#4B4B5B"/><path opacity=".02" d="M57.272 43.768s-1.415 1.547-.89 1.827c.525.281 3.92 5.544 3.92 5.544s11.154 1.366 13.257-.683c2.104-2.049 2.061-5.71 2.061-5.71s-1.69.362-1.874.166c-.184-.197-1.197-1.144-1.197-1.144s-14.307-.863-15.277 0z" fill="#000"/><path d="m77.35 24.224-3.637 2.892-1.1.08-.403.029-6.78.494-7.032-.51-1.046-.077-1.333-.096-2.789-2.652s1.974-2.102 3.703-3.52c.68-.56 1.325-1.014 1.794-1.192l.08-.028c.295-.114.558-.297.768-.532 1.365-1.4 2.627-4.852 2.627-4.852s6.022-3.093 5.295.964c-.728 4.056 2.707 3.054 2.707 3.054l1.132.513.447.204 1.141.52 2.574 1.173c2.02.924 1.852 3.536 1.852 3.536z" fill="#BE6F72"/><path opacity=".1" d="M65.147 17.563c2.991 0 5.416-2.41 5.416-5.383 0-2.974-2.425-5.384-5.416-5.384-2.99 0-5.415 2.41-5.415 5.384 0 2.973 2.424 5.383 5.415 5.383zM77.359 28.059h-24.33v-.06l.201-3.494s1.974-2.102 3.703-3.52l15.275-.603.71-.745 2.574 1.174c2.02.923 1.858 3.535 1.858 3.535s.277 3.026.009 3.713z" fill="#000"/><path d="M77.359 27.938h-24.33v-.059l.201-3.495s1.974-2.102 3.703-3.52l15.275-.603.71-.744 2.574 1.173c2.02.924 1.858 3.535 1.858 3.535s.277 3.026.009 3.713z" fill="#E7C7CA"/><path opacity=".1" d="M61.247 18.138s3.838 4.862 8.95-.1c5.113-4.962.567 11.067.567 11.067l-11.032 1.302 1.515-12.269z" fill="#000"/><path d="M61.247 18.379s3.838 4.862 8.95-.1c5.113-4.962.567 11.067.567 11.067l-11.032 1.302 1.515-12.27z" fill="#E7C7CA"/><path opacity=".1" d="m71.777 19.232.406 6.157.436 2.05.332 1.566s.848 12.052.606 12.654c-.243.603.121 1.085.172 1.406.051.32-.05 1.125-.01 1.487.04.361 0 .522-.93.393-.928-.13-2.223-.353-2.223-.353s-3.273.24-4.404-.16c-1.131-.402-3.273-.403-3.273-.403s-3.234.08-4.284-.04c-1.05-.12-1.617 1.286-2.303.883-.686-.402.807-4.297 1.292-5.423.485-1.126-.646-3.977-.646-3.977l1.455-8.023.324-1.819v-5.717l.08-.028c.295-.114.558-.297.768-.532l.364 5.753 11.396.403v-6.476" fill="#000"/><path d="m71.777 18.991.406 6.157.436 2.05.332 1.566s.848 12.052.606 12.654c-.243.603.121 1.085.172 1.405.051.321-.05 1.126-.01 1.488.04.361 0 .521-.93.392-.928-.129-2.223-.353-2.223-.353s-3.273.241-4.404-.16c-1.131-.401-3.273-.402-3.273-.402s-3.234.08-4.284-.04c-1.05-.12-1.617 1.286-2.303.883-.686-.402.807-4.297 1.292-5.423.485-1.126-.646-3.977-.646-3.977l1.455-8.023.324-1.819v-5.717l.08-.028c.295-.114.558-.297.768-.532l.364 5.753 11.396.403v-6.476" fill="#E7C7CA"/><path opacity=".1" d="M73.088 6.142c-.07-.252-.165-.514-.364-.683a1.494 1.494 0 0 0-.64-.26 12.716 12.716 0 0 0-1.683-.32 2.672 2.672 0 0 0-.363-.751C68.85 2.46 67.092.887 65.024.53c-1.083-.186-2.338-.019-3.031.83-.381.466-.545 1.084-.929 1.542-.74.89-2.078 1-3.011 1.687-.499.362-.86.886-1.213 1.395-.382.55-.774 1.124-.896 1.782-.242 1.315.632 2.569.793 3.895.364 2.969-2.837 5.602-2.232 8.53.353 1.708 1.94 2.911 3.582 3.521.578.216 1.239.43 1.509.982.121.241.142.52.256.763.383.812 1.642.844 2.319.252.676-.592.89-1.549.97-2.442.325-3.9-1.246-7.753-1.063-11.662.054-1.182.389-2.524 1.454-3.059 1.434-.723 3.16.482 4.738.252.747 1.807.906 3.8.454 5.702-.252 1.04-.686 2.048-.717 3.121-.047 1.633.839 3.125 1.605 4.569.165.27.274.57.324.88.012.317-.047.632-.174.923-.432 1.158-1.18 2.233-1.264 3.466a.558.558 0 0 0 .09.412c.086.08.197.13.314.14 1.309.223 2.441-.93 3.08-2.089a9.748 9.748 0 0 0 1.215-4.16c.132-2.454-.753-4.868-.698-7.324.063-2.792 1.332-5.604.589-8.297z" fill="#000"/><path d="M73.209 6.021c-.07-.252-.165-.513-.364-.682a1.493 1.493 0 0 0-.64-.26 12.714 12.714 0 0 0-1.683-.32 2.672 2.672 0 0 0-.363-.752C68.97 2.34 67.213.767 65.145.411c-1.083-.187-2.338-.02-3.031.83-.38.466-.544 1.084-.929 1.542-.74.89-2.078.999-3.011 1.687-.498.362-.86.886-1.212 1.394-.382.551-.775 1.125-.896 1.783-.243 1.315.631 2.568.793 3.895.363 2.968-2.837 5.602-2.232 8.53.352 1.708 1.94 2.91 3.58 3.52.58.216 1.24.43 1.51.983.121.24.142.52.256.763.383.812 1.643.843 2.32.252.676-.592.889-1.55.969-2.442.325-3.9-1.246-7.753-1.063-11.663.054-1.182.389-2.523 1.455-3.058 1.434-.723 3.159.482 4.737.251.747 1.807.906 3.801.454 5.702-.251 1.04-.685 2.049-.717 3.122-.047 1.633.84 3.125 1.605 4.568.165.27.275.57.324.881.012.317-.047.632-.173.922-.433 1.159-1.18 2.233-1.265 3.466a.558.558 0 0 0 .091.413c.086.08.196.13.313.14 1.31.222 2.442-.931 3.08-2.09a9.748 9.748 0 0 0 1.215-4.16c.132-2.453-.753-4.867-.698-7.323.063-2.793 1.332-5.604.589-8.298z" fill="#3E373A"/><path d="m70.531 59.383 4.81.153-.69-3.546-3.685.348-.435 3.045z" fill="#C3C7D9"/><path d="M85.433 50.979c-.324.401-1.576 1.124-1.698 1.365-.12.241-1.615.965-2.384 1.085-.769.12-3.192.644-3.637.924-.319.203-2.878.844-4.56 1.2a13 13 0 0 1-1.38.247c-.728.04-8.688-2.652-8.688-2.652l1.535-1.567.085-.028c.434-.146 2.44-.82 3.552-1.14 1.254-.362 2.708-1.848 2.708-1.848s2.141-.723 2.425-.804c.284-.08-.728-2.812-.728-2.812s4.647-.64 6.466-1.184c1.818-.544 6.021-.343 6.789 1.787.767 2.13-.157 5.026-.485 5.427z" fill="#4B4B5B"/><path d="M64.257 57.768s-.928.964-1.858.884c-.93-.08-4.181.241-4.181.241a6.526 6.526 0 0 0-1.638.944c-.76.595-1.164.12-1.24.02l-.013-.02c-.404 1.267-1.333.301-1.333.301s.404-3.856.28-4.338c-.124-.482.799-1.31.799-1.31l1.09-.276 2.765-.704 3.96 1.365 1.37 2.893z" fill="#E7C7CA"/><path opacity=".1" d="m56.16 54.214-.82 5.642-.013-.019c-.404 1.267-1.333.301-1.333.301s.404-3.856.28-4.338c-.124-.482.799-1.31.799-1.31l1.086-.276zM61.879 38.163s2.14.723 4 0h-4zM69.188 39.53s.888.44 1.576 0h-1.576zM69.188 40.576s1.495.199 1.778-.203l-1.778.203zM68.703 42.824s2.808-.362 3.505-.844l-3.505.844zM60.136 41.98s1.575.883 2.748.844l-2.748-.844zM73.153 55.553c-.455.107-.916.19-1.38.247-.728.04-8.688-2.652-8.688-2.652l1.535-1.567.085-.028c.242.17.44.315.583.426.668.523 1.313-.16 1.555-.16.243 0 2.344 1.727 2.344 1.727s1.94.442 2.263.844c.324.4 1.455.321 1.656.602.06.087.068.3.047.56z" fill="#000"/><path d="M58.218 45.113s-1.962.112-3.093-.361c-1.131-.474-4.89-1.567-5.98-.8-1.091.768-3.719 1.447-2.506 4.5 1.212 3.055 1.778 3.134 1.778 3.134.375.28.703.618.97 1 .364.563 3.758 1.848 4.607 1.848.849 0 2.343 0 4.444 1.446 2.101 1.447 4 1.608 4 1.608s2.668 1.085 3.498 1.326c.83.24 4.625 1.284 5.515.964.89-.32 1.455-2.331 1.455-2.331s.404-1.808.201-2.089c-.202-.28-1.333-.2-1.656-.602-.322-.401-2.263-.844-2.263-.844s-2.096-1.728-2.339-1.728c-.242 0-.887.682-1.555.16a35.527 35.527 0 0 0-4.184-2.651c-1.535-.804-2.892-4.58-2.892-4.58z" fill="#4B4B5B"/><path opacity=".1" d="M54.274 46.279a2.328 2.328 0 0 1 1.987.522c.97.803 4.233 2.417 4.233 2.417M78.523 46.228s-4.325.65-5.132 1.534l5.132-1.534z" fill="#000"/><path d="M83.493 59.536h-.19c-.684-.025-3-.097-3.447 0-.525.12-7.476 0-7.476 0l1.359-.281s-.505-1.757-.184-1.903c0 0-1.819-1.19-.448-1.995 1.371-.804 2.85-.465 2.85-.465l3.44-1.16.662-.222s3.879.201 4.929 2.852c1.05 2.652-1.495 3.174-1.495 3.174z" fill="#E7C7CA"/><path opacity=".1" d="M83.493 59.536h-.19c1.128-.926 3.681-3.744-3.905-5.797l.66-.223s3.88.201 4.93 2.852c1.05 2.652-1.495 3.168-1.495 3.168z" fill="#000"/><path d="M76.361 56.412a.212.212 0 0 0 .212-.211.212.212 0 0 0-.212-.211.212.212 0 0 0-.212.21c0 .117.095.212.212.212zM75.128 56.76a.212.212 0 0 0 .212-.21.212.212 0 0 0-.212-.212.211.211 0 0 0-.212.211c0 .117.095.211.212.211z" fill="#4B4B5B"/><g opacity=".1" fill="#000"><path opacity=".1" d="M69.121 11.98a9.302 9.302 0 0 0-.696-3.873c-1.576.234-3.302-.975-4.737-.252-1.063.535-1.396 1.877-1.455 3.059-.015.312-.017.624-.011.936 0-.11 0-.223.01-.333.056-1.183.39-2.524 1.456-3.06 1.435-.722 3.159.483 4.737.253a9.278 9.278 0 0 1 .696 3.27zM56.908 11.76c.021-.262.016-.527-.016-.788-.128-1.06-.711-2.074-.817-3.108-.135 1.247.664 2.445.817 3.71.016.066.016.123.016.186zM63.296 22.575c-.075.895-.287 1.85-.97 2.443-.682.593-1.94.56-2.319-.252-.121-.24-.14-.521-.257-.763-.27-.552-.931-.766-1.51-.982-1.642-.61-3.227-1.808-3.58-3.52a3.682 3.682 0 0 1-.064-.47c-.03.359-.008.72.065 1.073.352 1.707 1.94 2.909 3.58 3.52.578.216 1.24.43 1.509.982.121.241.142.52.257.763.382.812 1.642.843 2.32.252.677-.592.888-1.549.969-2.443.037-.47.05-.943.038-1.415 0 .274-.016.543-.038.812zM72.66 13.747v.522c.068-2.241.895-4.495.813-6.69-.063 2.03-.767 4.105-.813 6.168zM70.058 22.815c.03-.143.04-.29.028-.435a2.402 2.402 0 0 0-.323-.88c-.701-1.327-1.5-2.684-1.595-4.155 0 .063-.008.12-.01.188-.048 1.632.838 3.125 1.605 4.569.13.223.23.463.295.713zM73.357 21.071a9.763 9.763 0 0 1-1.223 4.16c-.64 1.159-1.772 2.312-3.082 2.09a.517.517 0 0 1-.313-.142.3.3 0 0 1-.057-.094c-.014.094-.026.19-.034.286a.553.553 0 0 0 .091.41c.085.082.196.132.313.142 1.31.223 2.442-.93 3.082-2.089a9.763 9.763 0 0 0 1.223-4.16c.014-.282.016-.563.007-.844-.002.08-.002.16-.007.241z"/></g><path opacity=".1" d="M73.555 57.352s3.068 1.28 5.091-1.552M74.158 59.589s2.506-1.62 5.698-.053M57.385 59.221s1.052-2.36 3.862-.56" stroke="#000" stroke-miterlimit="10"/><path opacity=".1" d="m53.973 24.324 2.146-1.928s8.32-.543 8.665 2.27c0 0 2.949-3.334 9.152-2.592l2.625 2.078-7.254 3.165-7.05 2.43-5.192-2.31-3.092-3.113z" fill="#000"/><path d="m53.973 24.445 2.146-1.929s8.32-.542 8.665 2.27c0 0 2.949-3.334 9.152-2.591l2.625 2.077-7.254 3.165-7.05 2.43-5.192-2.31-3.092-3.112z" fill="#D5D6DB"/><path opacity=".1" d="m53.024 24.686.95 11.288 10.061.503-.436-11.24-.008-.19-10.567-.361z" fill="#000"/><path d="m53.024 24.445.95 11.288 10.061.503-.436-11.24-.008-.19-10.567-.361z" fill="#575A89"/><path opacity=".1" d="m77.022 24.445-10.38 1.547v11.34l10.143-1.458.237-11.43z" fill="#000"/><path d="m77.022 24.203-10.38 1.548v11.34l10.143-1.458.237-11.43z" fill="#575A89"/><path opacity=".3" d="m74.574 26.97-5.607.62.123 1.9 5.48-.596.004-1.923z" fill="#fff"/><path d="m54.519 41.779.57 1.527s.85.723 1.778.361c.929-.361 1.739-.541 2.142-.893.404-.352.97-2.12.97-2.12s.566-1.928 1.131-2.41c.565-.482 2.061-7.124 0-6.474-2.06.65-3.637 6.675-3.637 6.675s-.364.441-.888.482c-.525.041-1.576-.08-1.779.362-.202.442-.893 1.606-.287 2.49z" fill="#BE6F72"/><path opacity=".1" d="M66.642 25.99a3.512 3.512 0 0 1-3.044-.754l.438 11.24s1.03 1.109 2.606.855v-11.34z" fill="#000"/><path d="M66.642 25.75a3.512 3.512 0 0 1-3.044-.755l.438 11.24s1.03 1.109 2.606.855V25.75z" fill="#575A89"/><path opacity=".1" d="M66.642 25.75a3.512 3.512 0 0 1-3.044-.755l.437 11.24s1.03 1.109 2.607.855V25.75zM66.884 24.483s4.223-1.283 5.324-1.103l-5.324 1.103zM62.161 23.923s-4.093-.964-4.776-.69l4.776.69zM69.547 24.643s2.823-1.029 3.844-.54l-3.844.54zM68.125 50.462a9.3 9.3 0 0 1 1.391-.86c.728-.348 2.061-1.252 2.061-1.252M57.385 38.163s-1.771 1.44-2.304 1.567c-.532.126-.86 1.25-.86 1.25" fill="#000"/><path d="m75.98 41.564-.565 1.53s-.848.724-1.778.362c-.93-.361-1.737-.54-2.142-.893-.405-.352-.97-2.12-.97-2.12s-.565-1.928-1.131-2.41c-.566-.482-2.061-7.124 0-6.474 2.06.65 3.637 6.675 3.637 6.675s.363.441.888.482c.525.041 1.576-.08 1.779.362.202.442.889 1.606.282 2.486z" fill="#BE6F72"/><path opacity=".1" d="M74.99 38.749s1.158.74 1.153 1.624L74.99 38.75z" fill="#000"/><path d="M65.166 17.3c2.991 0 5.416-2.411 5.416-5.384 0-2.974-2.425-5.384-5.415-5.384-2.991 0-5.416 2.41-5.416 5.384 0 2.973 2.425 5.383 5.416 5.383z" fill="#BE6F72"/><path d="M61.766 10.47c.657-.102 1.233-.482 1.86-.7 1.406-.49 2.96-.154 4.382.288.546.17 1.1.362 1.672.362.572 0 1.18-.233 1.472-.723.269-.45.217-1.037-.01-1.51-.227-.474-.606-.855-.99-1.214-1.26-1.183-2.824-2.29-4.554-2.17-.696.05-1.361.297-2.001.57-.806.346-1.59.739-2.35 1.177-.583.336-1.663.786-1.999 1.4-.764 1.385 1.33 2.706 2.518 2.52z" fill="#3E373A"/><path opacity=".1" d="M71.152 9.19c-.292.491-.9.724-1.472.724s-1.126-.185-1.673-.355c-1.422-.442-2.975-.78-4.381-.288-.627.219-1.204.603-1.861.7-.958.149-2.5-.68-2.667-1.735-.188 1.219 1.6 2.262 2.667 2.096.657-.102 1.234-.482 1.86-.699 1.407-.492 2.96-.154 4.382.288.547.17 1.1.362 1.673.354.573-.007 1.18-.231 1.472-.723.151-.267.21-.577.17-.88-.02.182-.077.36-.17.519z" fill="#000"/><path d="M115.099 74.505s.719.934-.332 2.345c-1.051 1.412-1.917 2.602-1.568 3.482 0 0 1.586-2.62 2.876-2.657 1.29-.038.441-1.595-.976-3.17z" fill="#6C63FF"/><path opacity=".1" d="M115.099 74.505c.063.09.112.189.147.293 1.258 1.47 1.93 2.843.719 2.877-1.128.032-2.479 2.037-2.803 2.541.01.041.023.082.037.121 0 0 1.586-2.62 2.876-2.657 1.29-.038.441-1.6-.976-3.175z" fill="#000"/><path d="M116.433 75.696c0 .329-.038.595-.083.595-.045 0-.083-.266-.083-.595 0-.33.046-.174.092-.174s.074-.155.074.174z" fill="#FFD037"/><path d="M116.892 76.089c-.29.156-.543.252-.565.212-.022-.04.195-.2.485-.362.29-.161.176-.043.198 0 .022.044.173-.008-.118.15z" fill="#FFD037"/><path d="M111.3 74.505s-.719.934.332 2.345c1.051 1.412 1.917 2.602 1.566 3.482 0 0-1.584-2.62-2.875-2.657-1.291-.038-.437-1.595.977-3.17z" fill="#6C63FF"/><path opacity=".1" d="M111.3 74.505c-.063.09-.112.189-.147.293-1.258 1.47-1.93 2.843-.719 2.877 1.126.032 2.479 2.037 2.803 2.541a.86.86 0 0 1-.039.121s-1.584-2.62-2.875-2.657c-1.291-.038-.437-1.6.977-3.175z" fill="#000"/><path d="M109.964 75.696c0 .329.036.595.082.595.046 0 .084-.266.084-.595 0-.33-.047-.174-.092-.174s-.074-.155-.074.174z" fill="#FFD037"/><path d="M109.506 76.089c.289.156.543.252.565.212.021-.04-.196-.2-.485-.362-.29-.161-.176-.043-.198 0-.022.044-.173-.008.118.15z" fill="#FFD037"/><path opacity=".1" d="M113.2 87.481c4.151 0 7.516-.513 7.516-1.146 0-.633-3.365-1.146-7.516-1.146-4.152 0-7.517.513-7.517 1.146 0 .633 3.365 1.146 7.517 1.146z" fill="#6C63FF"/><path d="m117.068 79.073-.036.291-.051.413-.021.172-.051.412-.022.172-.049.411-.576 4.688c-.051.419-.738.745-1.569.745h-2.988c-.831 0-1.517-.326-1.569-.745l-.576-4.688-.051-.41-.02-.173-.051-.412-.022-.172-.05-.413-.036-.291c-.028-.241.343-.436.813-.436h6.113c.469 0 .841.198.812.436z" fill="#65617D"/><path d="m117.032 79.364-.05.413h-7.565l-.051-.413h7.666zM116.96 79.949l-.05.412h-7.421l-.051-.412h7.522zM116.889 80.533l-.051.413h-7.278l-.05-.413h7.379z" fill="#9D9CB5"/></g><defs><linearGradient id="b" x1="66.27" y1="60.49" x2="66.27" y2="0" gradientUnits="userSpaceOnUse"><stop stop-color="gray" stop-opacity=".25"/><stop offset=".54" stop-color="gray" stop-opacity=".12"/><stop offset="1" stop-color="gray" stop-opacity=".1"/></linearGradient><clipPath id="a"><path fill="#fff" d="M0 0h124v98H0z"/></clipPath></defs></svg>