<svg width="136" height="98" fill="none" xmlns="http://www.w3.org/2000/svg"><g clip-path="url(#a)"><path opacity=".1" d="M105.442 57.243c-3.911-.166-7.636-1.712-11.192-3.404-3.557-1.691-7.08-3.565-10.897-4.462-2.455-.576-5.263-.657-7.24.954-1.904 1.554-2.52 4.23-2.85 6.714-.249 1.869-.395 3.836.287 5.586.473 1.215 1.314 2.236 1.894 3.404 2.023 4.049.594 9.042-1.598 12.995-1.027 1.855-2.22 3.626-3.013 5.599-.793 1.972-1.16 4.236-.467 6.25.689 1.998 2.328 3.496 4.103 4.55 3.607 2.142 7.855 2.755 12.001 3.102 9.174.769 18.397.436 27.595.103 3.404-.124 6.823-.249 10.172-.893 1.859-.358 3.779-.926 5.13-2.298 1.713-1.74 2.138-4.69.99-6.873-1.927-3.661-7.251-4.57-8.6-8.501-.74-2.163.021-4.573 1.098-6.58 2.31-4.303 6.183-8.079 6.387-12.998.14-3.38-1.722-6.763-4.601-8.362-3.016-1.681-7.201-1.468-9.426 1.306-2.293 2.858-6.321 3.955-9.773 3.808z" fill="#6C63FF"/><path d="M49.489 74.337a3.617 3.617 0 0 1-.128-2.779c.33-.91 1.012-1.685 1.924-2.184.304-.166.026-.594-.28-.428-1.046.56-1.826 1.442-2.194 2.482a4.024 4.024 0 0 0 .2 3.159c.14.292.616.04.477-.25z" fill="#3F3D56"/><path d="M49.647 75.003c-.746-1.183-.57-2.598-.302-3.877.28-1.335.647-2.69.33-4.049a3.584 3.584 0 0 0-.988-1.77c-.241-.235-.632.115-.39.35.937.911 1.046 2.234.894 3.409-.18 1.385-.688 2.736-.625 4.144.017.714.223 1.414.603 2.043a.277.277 0 0 0 .169.108c.07.015.143.006.205-.027a.253.253 0 0 0 .127-.147.224.224 0 0 0-.023-.184z" fill="#3F3D56"/><path d="M49.093 63.937c.198.94-.047 1.771-.547 1.856-.5.084-1.066-.61-1.264-1.55-.198-.94.41-2.504.41-2.504s1.203 1.258 1.401 2.198zM52.89 68.312c-.627.775-1.47 1.186-1.882.92-.412-.268-.238-1.113.389-1.888.627-.775 2.314-1.454 2.314-1.454s-.194 1.647-.82 2.422z" fill="#6C63FF"/><path d="M32.158 14.943a3.618 3.618 0 0 1-.127-2.779c.329-.91 1.011-1.685 1.923-2.184.304-.166.026-.594-.279-.428-1.046.56-1.827 1.442-2.194 2.482a4.024 4.024 0 0 0 .2 3.159c.14.292.616.04.477-.25z" fill="#3F3D56"/><path d="M32.316 15.609c-.746-1.183-.57-2.598-.302-3.877.28-1.335.648-2.69.33-4.049a3.584 3.584 0 0 0-.987-1.77c-.242-.235-.632.115-.391.35.938.911 1.047 2.234.895 3.409-.18 1.385-.689 2.736-.625 4.144.016.714.223 1.414.603 2.042a.277.277 0 0 0 .168.109c.07.015.144.005.206-.027a.254.254 0 0 0 .126-.147.224.224 0 0 0-.023-.184z" fill="#3F3D56"/><path d="M36.32 19.385h-9.403a.882.882 0 0 1-.586-.217.706.706 0 0 1-.243-.525v-2.471c0-.636.283-1.245.785-1.694a2.847 2.847 0 0 1 1.892-.702h1.379a.295.295 0 0 0 .195-.073.236.236 0 0 0 .081-.175v-1.154c0-.11.049-.215.135-.292a.49.49 0 0 1 .326-.12h1.475a.49.49 0 0 1 .326.12.392.392 0 0 1 .135.292v1.154c0 .066.03.129.081.175a.294.294 0 0 0 .196.073h1.379c.71 0 1.39.253 1.892.702.502.45.784 1.058.785 1.694v2.471a.706.706 0 0 1-.244.525.882.882 0 0 1-.586.217z" fill="#CCC"/><path d="M31.763 4.544c.198.94-.047 1.77-.547 1.855-.5.084-1.067-.61-1.265-1.55-.198-.94.411-2.504.411-2.504s1.203 1.258 1.401 2.199zM35.56 8.918c-.627.775-1.47 1.186-1.882.92-.412-.268-.238-1.113.389-1.888.626-.775 2.314-1.454 2.314-1.454s-.194 1.647-.821 2.422zM13.459 44.876h-7.56v2.474h7.56v-2.474zM13.459 52.96h-7.56v2.474h7.56V52.96z" fill="#6C63FF"/><path d="M62.5 19.048H.184v.33H62.5v-.33zM62.5 38.851H.184v.33H62.5v-.33zM62.5 58.654H.184v.33H62.5v-.33z" fill="#999CA0"/><path d="M12.906 59.064H6.637a.981.981 0 0 1-.651-.242.785.785 0 0 1-.27-.583V42.236c0-.219.097-.429.27-.583a.98.98 0 0 1 .651-.242h6.269a.98.98 0 0 1 .651.242c.173.154.27.364.27.583v16.003a.785.785 0 0 1-.27.583.981.981 0 0 1-.651.242zM6.637 41.741a.588.588 0 0 0-.39.145.47.47 0 0 0-.163.35v16.003a.47.47 0 0 0 .162.35.588.588 0 0 0 .391.145h6.269a.588.588 0 0 0 .39-.145.47.47 0 0 0 .163-.35V42.236a.47.47 0 0 0-.162-.35.588.588 0 0 0-.391-.145H6.637z" fill="#3F3D56"/><path d="M25.074 44.876h-7.56v2.474h7.56v-2.474zM25.074 52.96h-7.56v2.474h7.56V52.96z" fill="#6C63FF"/><path d="M24.52 59.064h-6.268a.981.981 0 0 1-.651-.242.785.785 0 0 1-.27-.583V42.236c0-.219.097-.429.27-.583a.98.98 0 0 1 .651-.242h6.269a.98.98 0 0 1 .651.242c.173.154.27.364.27.583v16.003a.785.785 0 0 1-.27.583.981.981 0 0 1-.651.242zm-6.268-17.323a.588.588 0 0 0-.39.145.47.47 0 0 0-.163.35v16.003a.47.47 0 0 0 .162.35.588.588 0 0 0 .391.145h6.269a.588.588 0 0 0 .39-.145.47.47 0 0 0 .163-.35V42.236a.47.47 0 0 0-.163-.35.588.588 0 0 0-.39-.145h-6.269z" fill="#3F3D56"/><path d="M43.51 24.912h-7.559v2.475h7.56v-2.475zM43.51 32.997h-7.559v2.474h7.56v-2.474z" fill="#6C63FF"/><path d="M42.957 39.101H36.69a.981.981 0 0 1-.652-.242.785.785 0 0 1-.27-.583V22.273c0-.219.097-.429.27-.583a.98.98 0 0 1 .652-.242h6.268a.98.98 0 0 1 .652.242c.172.154.27.364.27.583v16.003a.785.785 0 0 1-.27.583.981.981 0 0 1-.652.242zM36.69 21.778a.589.589 0 0 0-.391.145.47.47 0 0 0-.162.35v16.003a.47.47 0 0 0 .162.35.589.589 0 0 0 .39.145h6.27a.588.588 0 0 0 .39-.145.47.47 0 0 0 .162-.35V22.273a.47.47 0 0 0-.162-.35.59.59 0 0 0-.39-.145h-6.27z" fill="#3F3D56"/><path d="M55.125 24.912h-7.559v2.475h7.56v-2.475zM55.125 32.997h-7.559v2.474h7.56v-2.474z" fill="#6C63FF"/><path d="M54.572 39.101h-6.268a.981.981 0 0 1-.652-.242.785.785 0 0 1-.27-.583V22.273c0-.219.097-.429.27-.583a.98.98 0 0 1 .652-.242h6.268a.98.98 0 0 1 .652.242c.173.154.27.364.27.583v16.003a.785.785 0 0 1-.27.583.981.981 0 0 1-.652.242zm-6.268-17.323a.59.59 0 0 0-.391.145.47.47 0 0 0-.162.35v16.003a.47.47 0 0 0 .162.35.588.588 0 0 0 .39.145h6.27a.588.588 0 0 0 .39-.145.47.47 0 0 0 .162-.35V22.273a.47.47 0 0 0-.162-.35.59.59 0 0 0-.39-.145h-6.27z" fill="#3F3D56"/><path d="m34.345 43.398-7.075 2.379.972 2.316 7.076-2.379-.973-2.316zM37.523 50.965l-7.076 2.38.973 2.316 7.076-2.38-.973-2.316z" fill="#6C63FF"/><path d="M33.212 58.88a1 1 0 0 1-.524-.148.847.847 0 0 1-.338-.388l-6.29-14.98a.746.746 0 0 1 .023-.631.89.89 0 0 1 .515-.431l5.868-1.974a1.02 1.02 0 0 1 .705.021c.11.045.21.109.292.188.083.08.147.172.19.273l6.29 14.981a.746.746 0 0 1-.023.63.89.89 0 0 1-.515.432l-5.868 1.974a1.018 1.018 0 0 1-.325.053zm-.422-18.275a.608.608 0 0 0-.194.032l-5.868 1.973a.534.534 0 0 0-.31.26.448.448 0 0 0-.014.378l6.291 14.98c.026.061.064.117.114.164.05.048.11.086.175.113a.608.608 0 0 0 .423.013l5.868-1.974a.534.534 0 0 0 .309-.258.447.447 0 0 0 .014-.379l-6.29-14.98a.509.509 0 0 0-.203-.233.601.601 0 0 0-.315-.089z" fill="#3F3D56"/><path d="m8.903 23.764-7.076 2.38.973 2.316 7.076-2.379-.973-2.317zM12.08 31.332l-7.075 2.38.973 2.316 7.075-2.38-.972-2.316z" fill="#6C63FF"/><path d="M7.77 39.247a1 1 0 0 1-.525-.148.847.847 0 0 1-.338-.388l-6.29-14.98A.746.746 0 0 1 .64 23.1a.89.89 0 0 1 .514-.432l5.868-1.973a1.02 1.02 0 0 1 .706.021c.11.045.21.109.292.188.082.079.147.172.19.273l6.29 14.981a.746.746 0 0 1-.024.63.89.89 0 0 1-.514.432l-5.868 1.973a1.018 1.018 0 0 1-.325.054zm-.422-18.275a.614.614 0 0 0-.195.032l-5.868 1.973a.534.534 0 0 0-.309.26.448.448 0 0 0-.014.378l6.29 14.98a.49.49 0 0 0 .114.164c.05.048.11.086.176.113a.607.607 0 0 0 .423.013l5.868-1.974a.534.534 0 0 0 .309-.258.447.447 0 0 0 .014-.379l-6.29-14.98a.508.508 0 0 0-.203-.233.6.6 0 0 0-.315-.089z" fill="#3F3D56"/><path d="M115.597 41.246c3.157 0 5.715-2.29 5.715-5.115 0-2.824-2.558-5.114-5.715-5.114-3.156 0-5.715 2.29-5.715 5.114 0 2.825 2.559 5.115 5.715 5.115z" fill="#2F2E41"/><path d="M90.206 59.472a2.193 2.193 0 0 0 1.672-.101c.254-.125.474-.299.644-.508.17-.21.288-.45.344-.704l15.714-8.873-2.86-2.881-14.554 9.633a2.175 2.175 0 0 0-1.376.297c-.402.246-.69.615-.808 1.039-.118.423-.059.87.167 1.257.225.387.602.686 1.057.84z" fill="#FFB8B8"/><path d="M105.3 51.645a.916.916 0 0 1-.399-.09.808.808 0 0 1-.301-.25l-1.82-2.53a.683.683 0 0 1-.117-.54.737.737 0 0 1 .329-.464l6.09-3.939c.295-.191.631-.327.986-.4a3.038 3.038 0 0 1 1.082-.026c.36.057.702.177 1.009.354.306.177.569.407.774.677.205.27.348.574.42.894.071.32.07.65-.003.969-.073.32-.217.623-.424.892a2.61 2.61 0 0 1-.778.673l-6.403 3.664a.898.898 0 0 1-.445.116z" fill="#2F2E41"/><path d="M108.019 95.83h-2.261l-1.075-7.801h3.336v7.802z" fill="#FFB8B8"/><path d="M104.144 95.252h4.359v2.457h-7.104c0-.323.071-.642.209-.94.138-.298.34-.57.595-.797.255-.228.558-.41.891-.533a3.023 3.023 0 0 1 1.05-.187z" fill="#2F2E41"/><path d="m118.571 94.318-2.177.547-3.392-7.251 3.212-.807 2.357 7.511z" fill="#FFB8B8"/><path d="m114.665 94.699 4.197-1.054.742 2.364-6.839 1.719a2.196 2.196 0 0 1-.083-.956c.043-.32.156-.63.332-.911.177-.281.413-.529.697-.728.283-.2.607-.347.954-.434z" fill="#2F2E41"/><path d="m124.66 82.345-8.775-9.267 5.325-5.782a.822.822 0 0 1 .287-.2.92.92 0 0 1 .71.002.815.815 0 0 1 .286.202l8.058 8.848-5.891 6.197z" fill="#6C63FF"/><path d="M116.239 73.147c.13-.208.29-.4.477-.57l5.083-4.61c.199-.182.467-.29.751-.303.581-.024 1.533.028 1.799.599l-6.862 5.023-1.248-.14z" fill="#F2F2F2"/><path d="M124.965 84.306a2.285 2.285 0 0 1-1.098-.311l-.024-.022-8.037-11 1.334-.115 7.147-4.989a.869.869 0 0 1 .305-.134.923.923 0 0 1 .656.096.79.79 0 0 1 .241.214l7.813 10.582c.12.163.163.362.12.554a.745.745 0 0 1-.348.47l-7.56 4.563a1.627 1.627 0 0 1-.549.092z" fill="#6C63FF"/><path d="M122.123 76.782a.505.505 0 0 1-.217-.048.443.443 0 0 1-.166-.134l-.923-1.227a.38.38 0 0 1-.07-.31.41.41 0 0 1 .195-.263l4.736-2.853a.507.507 0 0 1 .346-.063c.12.021.226.084.294.174l.923 1.228c.068.09.094.202.07.31a.41.41 0 0 1-.195.262l-4.736 2.854a.499.499 0 0 1-.257.07z" fill="#3F3D56"/><path d="M104.325 94.65c-.252 0-.494-.086-.68-.238a.874.874 0 0 1-.322-.587c-.403-4.09-2.42-24.698-2.642-28.86-.246-4.624 4.055-11.94 4.098-12.013l.03-.05 2.126.237v.221l2.023.213 3.916.34 1.121 12.26.495 8.316 4.657 16.984a.67.67 0 0 1-.089.554.821.821 0 0 1-.498.34l-4.053.988a.92.92 0 0 1-.625-.07.764.764 0 0 1-.391-.443l-3.816-11.995a.254.254 0 0 0-.117-.14.304.304 0 0 0-.192-.037.286.286 0 0 0-.17.087.233.233 0 0 0-.064.165l.404 11.697a.792.792 0 0 1-.075.35.881.881 0 0 1-.223.295c-.929.781-3.384 1.198-4.765 1.377-.049.006-.098.01-.148.01z" fill="#2F2E41"/><path d="M116.504 43.125c-.643-.6-4.881.225-5.822 1.109l-6.441 9.421 10.653 1.774 2.353-11.971-.743-.333z" fill="#6C63FF"/><path d="M113.712 67.062a2.29 2.29 0 0 1-.674-.1 33.426 33.426 0 0 0-2.255-.59c-3.841-.885-5.197-3.715-4.03-8.412l.029-.119c1.095-4.456 3.16-8.675 6.076-12.417l.452-.58a4.812 4.812 0 0 1 2.195-1.558 5.403 5.403 0 0 1 2.791-.217c1.728.319 2.656.781 2.758 1.374.2 1.163-3.66 15.223-5.329 21.214a1.85 1.85 0 0 1-.736 1.013 2.232 2.232 0 0 1-1.277.392z" fill="#2F2E41"/><path d="M100.48 65.257c-.101 0-.2-.014-.296-.04l-1.245-.357a1.004 1.004 0 0 1-.348-.178.882.882 0 0 1-.24-.288.794.794 0 0 1-.01-.703l6.607-13.875c1.265-2.647 3.478-4.843 6.291-6.241a.372.372 0 0 1 .379.033.268.268 0 0 1 .075.091c.777 1.53-3.451 8.768-6.849 14.584-1.74 2.978-3.243 5.55-3.414 6.284a.856.856 0 0 1-.338.496 1.041 1.041 0 0 1-.612.194z" fill="#2F2E41"/><path d="M120.918 68.419c.232-.155.423-.354.56-.582.137-.228.216-.48.233-.74a1.616 1.616 0 0 0-.139-.757 1.786 1.786 0 0 0-.484-.635l-.053-16.627-4.248.638 1.39 16.152c-.31.337-.47.764-.45 1.2.019.436.216.85.554 1.165.338.314.793.507 1.279.541.486.035.969-.092 1.358-.355z" fill="#FFB8B8"/><path d="M117.459 53.203a.887.887 0 0 1-.567-.2.712.712 0 0 1-.26-.493l-.495-6.71a2.29 2.29 0 0 1 .671-1.767 2.862 2.862 0 0 1 1.871-.828c.37-.022.742.025 1.091.136.35.11.671.285.943.51.272.226.489.5.639.803.15.304.229.632.233.964l.067 6.8a.706.706 0 0 1-.238.527.88.88 0 0 1-.582.223l-3.363.035h-.01z" fill="#2F2E41"/><path d="M114.42 41.506c2.501 0 4.528-1.814 4.528-4.052 0-2.238-2.027-4.052-4.528-4.052-2.501 0-4.528 1.814-4.528 4.052 0 2.238 2.027 4.052 4.528 4.052z" fill="#FFB8B8"/><path d="M118.185 40.29c.338-.962.648-2.096-.021-2.908-.481-.585-1.346-.811-2.157-.844-.811-.032-1.624.09-2.433.033-.81-.057-1.665-.343-2.076-.97-.533-.812-.081-1.93.775-2.477.857-.547 1.989-.624 3.032-.496 1.32.14 2.561.636 3.557 1.423.97.801 1.602 1.955 1.573 3.135-.028 1.18-.767 2.356-1.946 2.886" fill="#2F2E41"/><path d="M117.056 31.435c-1.084-.299-1.584-1.581-1.1-2.499.485-.918 1.724-1.398 2.85-1.27 1.125.127 2.116.773 2.8 1.583.684.81 1.097 1.775 1.441 2.743.343.967.629 1.955 1.099 2.879.745 1.42 1.895 2.639 3.333 3.535a10.753 10.753 0 0 0 4.862 1.57c.761.05 1.551.014 2.245-.27.694-.286 1.276-.86 1.353-1.539.395 2.413-1.174 4.978-3.659 5.981-2.484 1.003-5.672.358-7.432-1.504-1.72-1.82-1.987-4.39-1.945-6.773.011-.654.038-1.32-.164-1.948-.202-.628-.679-1.225-1.375-1.425-.561-.161-1.169-.045-1.744.07-.576.113-1.187.223-1.744.051-.557-.172-1.005-.739-.781-1.227" fill="#2F2E41"/><path d="M134.971 98H86.298a.196.196 0 0 1-.13-.048.157.157 0 0 1-.054-.117c0-.044.02-.086.054-.117a.196.196 0 0 1 .13-.048h48.673c.049 0 .095.017.13.048a.155.155 0 0 1 .054.117.155.155 0 0 1-.054.117.196.196 0 0 1-.13.048zM53.65 78.78h-9.402a.883.883 0 0 1-.587-.218.706.706 0 0 1-.243-.525v-2.472c0-.635.283-1.243.785-1.693a2.849 2.849 0 0 1 1.892-.702h1.38a.294.294 0 0 0 .195-.073.235.235 0 0 0 .08-.174v-1.155c0-.11.05-.215.136-.292a.49.49 0 0 1 .326-.12h1.474a.49.49 0 0 1 .326.12.392.392 0 0 1 .135.292v1.155c0 .065.03.128.081.174a.294.294 0 0 0 .196.073h1.379c.71 0 1.39.253 1.892.702.502.45.784 1.058.785 1.694v2.471a.706.706 0 0 1-.243.525.883.883 0 0 1-.587.218z" fill="#CCC"/><path d="M62.5 78.457H.184v.33H62.5v-.33z" fill="#999CA0"/><path d="M59.55 97.835H3.134c-.83 0-1.627-.297-2.215-.822-.588-.526-.918-1.24-.919-1.983V2.805C0 2.06.331 1.348.919.822 1.507.297 2.303.001 3.134 0H59.55c.831 0 1.628.297 2.215.822.588.526.918 1.24.92 1.983V95.03c-.002.744-.332 1.457-.92 1.983-.587.525-1.384.821-2.215.822zM3.134.33c-.733 0-1.436.262-1.954.726C.66 1.52.37 2.149.369 2.805V95.03c0 .656.292 1.285.81 1.75a2.942 2.942 0 0 0 1.955.725H59.55c.733 0 1.436-.262 1.955-.726.518-.464.81-1.093.81-1.749V2.805c0-.656-.292-1.285-.81-1.75A2.942 2.942 0 0 0 59.55.33H3.134z" fill="#999CA0"/></g><defs><clipPath id="a"><path fill="#fff" d="M0 0h136v98H0z"/></clipPath></defs></svg>