<svg width="136" height="98" fill="none" xmlns="http://www.w3.org/2000/svg"><path d="M24.58 10.643a1.796 1.796 0 0 1-1.663-1.114 1.808 1.808 0 0 1 .39-1.965 1.798 1.798 0 0 1 3.072 1.275 1.808 1.808 0 0 1-1.8 1.804zm0-3.307a1.497 1.497 0 0 0-1.386.928 1.507 1.507 0 0 0 .325 1.638 1.499 1.499 0 0 0 2.56-1.063 1.506 1.506 0 0 0-1.5-1.503zM80.8 74.607a1.797 1.797 0 0 1-1.663-1.113 1.807 1.807 0 0 1 1.311-2.46 1.795 1.795 0 0 1 1.847.768 1.807 1.807 0 0 1-.224 2.276 1.799 1.799 0 0 1-1.272.53zm0-3.306a1.497 1.497 0 0 0-1.386.927 1.506 1.506 0 0 0 1.093 2.05 1.496 1.496 0 0 0 1.54-.64 1.506 1.506 0 0 0-.188-1.897 1.499 1.499 0 0 0-1.06-.44zM104.624 57.43h-2.96v-2.967h2.96v2.967zm-2.732-.228h2.504v-2.51h-2.504v2.51zM34.706 65.512l-2.019-2.17 2.165-2.023 2.019 2.17-2.165 2.023zm-1.697-2.158 1.708 1.836 1.832-1.713-1.708-1.836-1.832 1.713zM37.019 25.194 35 23.024 37.165 21l2.019 2.17-2.165 2.024zm-1.697-2.159 1.708 1.836 1.832-1.712-1.709-1.836-1.831 1.712z" fill="#3F3D56"/><path d="M101.724 84.925c-3.242-.509-6.36-.941-9.352-1.298l1.152-2.31c-.4-.134-2.133 1.202-2.133 1.202l1.466-6.682c-2 .267-2.933 7.083-2.933 7.083l-2.267-2.272 1.116 2.573c-9.157-.965-17.06-1.266-23.702-1.197l.987-1.977c-.4-.134-2.134 1.203-2.134 1.203l1.467-6.683c-2 .268-2.933 7.084-2.933 7.084l-2.267-2.272 1.182 2.724c-4.55.133-9.09.5-13.603 1.098.984-3.073 4.42-6.028 4.42-6.028-2.642.825-4.017 2.167-4.728 3.412a53.785 53.785 0 0 1 2.862-18.58s-5.333 12.028-4.533 20.047l.102 1.424c-4.64.726-6.969 1.449-6.969 1.449h62.8z" fill="#3F3D56"/><path opacity=".3" d="M68.843 62.77c11.511 0 20.843-9.354 20.843-20.892s-9.332-20.892-20.843-20.892c-11.51 0-20.842 9.354-20.842 20.892S57.332 62.77 68.843 62.77z" fill="#6C63FF"/><path d="M60.284 15.3 46.407 32.177l20.538 24.297 13.693-16.136L60.284 15.3zM21.12 34 15 41.39l9.058 10.637 6.038-7.065L21.12 34zM107.12 15 101 22.39l9.058 10.637 6.039-7.065L107.12 15z" fill="#575A89"/><path opacity=".1" d="M60.284 15.3 46.407 32.177l20.538 24.297 13.693-16.136L60.284 15.3zM21.12 34.526 15 41.97l9.058 10.715 6.038-7.116-8.976-11.043zM107.12 15.526 101 22.97l9.058 10.715 6.039-7.116-8.977-11.043z" fill="#000"/><path d="M46.962 32.363a6.99 6.99 0 0 1 1.131-1.514L60.84 17.896s4.441-.742 5.366 1.484L49.922 32.734l-2.96-.371zM15.262 41.469c.134-.244.3-.468.494-.667l5.565-5.697s1.94-.327 2.343.652l-7.109 5.875-1.293-.163zM101.262 22.469c.134-.244.301-.468.494-.666l5.565-5.698s1.939-.326 2.343.653l-7.109 5.874-1.293-.163z" fill="#F2F2F2"/><path d="m46.314 32.085 18.873 28.933s1.85 1.298 3.701.556L88.224 48.5l-20.539-31.16-18.503 14.468-2.868.278zM15 41.379l8.276 12.673s.812.568 1.623.243l8.48-5.727-9.007-13.647-8.114 6.336L15 41.38zM101 22.379l8.276 12.673s.812.568 1.623.243l8.479-5.727-9.006-13.647-8.114 6.336-1.258.122z" fill="#575A89"/><path d="m65.378 21.855-11.843 8.53.175.245 11.843-8.53-.175-.245zM23.36 36.874l-5.194 3.741.077.107 5.194-3.74-.077-.108zM109.36 17.875l-5.194 3.74.077.107 5.193-3.74-.076-.107zM53.378 33.578l-.25.166L68.67 57.299l.25-.166-15.543-23.555zM18.098 42.015l-.11.073 6.816 10.33.11-.073-6.817-10.33zM104.097 23.015l-.109.073 6.816 10.33.109-.073-6.816-10.33zM83.138 48.561l-12.58 9.278.178.242 12.58-9.277-.178-.243zM31.148 48.586l-5.516 4.068.077.106 5.517-4.068-.078-.106zM117.148 29.586l-5.516 4.068.078.106 5.516-4.068-.078-.106zM67.624 22.262l-.247.171 16.098 23.184.246-.172-16.097-23.183zM24.345 37.053l-.108.075 7.059 10.167.108-.076-7.06-10.166zM110.344 18.053l-.107.075 7.059 10.167.108-.076-7.06-10.166zM62.651 17.712l-14.642 13.47.126.137 14.641-13.47-.125-.137zM22.164 35.058l-6.42 5.907.054.06 6.42-5.907-.054-.06zM108.164 16.058l-6.421 5.907.055.06 6.421-5.907-.055-.06zM63.87 17.828l-15.302 13.54.123.14 15.302-13.541-.122-.14zM22.699 35.108l-6.71 5.939.053.06 6.71-5.938-.053-.06zM108.699 16.108l-6.71 5.939.053.06 6.711-5.938-.054-.06zM64.828 18.098 48.943 31.37l.118.143L64.947 18.24l-.119-.142zM23.119 35.227l-6.966 5.82.052.063 6.966-5.82-.052-.063zM109.119 16.227l-6.966 5.82.052.063 6.966-5.82-.052-.063z" fill="#3F3D56"/></svg>