<svg width="124" height="98" viewBox="0 0 124 98" fill="none" xmlns="http://www.w3.org/2000/svg">
<g clip-path="url(#clip0)">
<path opacity="0.1" d="M72.7217 16.5615C64.8756 16.2903 57.4017 13.7727 50.2661 11.0177C43.1304 8.26267 36.0626 5.20996 28.4045 3.7505C23.4788 2.81167 17.8452 2.6791 13.8773 5.30397C10.0573 7.83483 8.82321 12.1915 8.16007 16.2385C7.6606 19.2828 7.36722 22.4861 8.73592 25.3364C9.68516 27.3153 11.3715 28.9784 12.5365 30.8802C16.5941 37.4749 13.727 45.6074 9.32995 52.0467C7.26902 55.068 4.87471 57.952 3.28416 61.165C1.69361 64.378 0.95652 68.0646 2.34825 71.3451C3.72908 74.5991 7.01808 77.0384 10.5798 78.7558C17.8161 82.2447 26.3399 83.2426 34.6576 83.8079C53.0641 85.06 71.5676 84.5177 90.0226 83.9754C96.8527 83.7741 103.712 83.5704 110.431 82.5207C114.162 81.9374 118.014 81.0131 120.723 78.7787C124.161 75.9429 125.014 71.1403 122.71 67.585C118.844 61.6206 108.162 60.1394 105.457 53.7375C103.97 50.2148 105.498 46.2908 107.658 43.0223C112.294 36.013 120.064 29.863 120.473 21.851C120.755 16.347 117.018 10.8369 111.243 8.23254C105.19 5.49318 96.7933 5.84027 92.3296 10.3585C87.7301 15.0141 79.6488 16.8001 72.7217 16.5615Z" fill="#6C63FF"/>
<path d="M52.79 83.2173L11.2951 83.016L7.172 73.4024L21.7512 72.3502L19.2102 61.8098L48.0463 58.0942L20.4335 48.5517L22.8726 47.9756L67.2735 55.1765L64.8283 71.6259L61.3332 80.6659L52.79 83.2173Z" fill="#6C63FF"/>
<path d="M11.9315 78.9895C11.9315 78.9895 14.4774 78.5846 16.0049 80.3731C16.0049 80.3731 14.8847 81.2505 12.4746 80.0356L11.9315 78.9895Z" fill="#6C63FF"/>
<path d="M11.6649 78.9498C11.6649 78.9498 10.0404 80.9372 10.8405 83.1499C10.8405 83.1499 12.1644 82.6232 12.3086 79.9405L11.6649 78.9498Z" fill="#6C63FF"/>
<path d="M10.2052 75.6826C10.2052 75.6826 11.2236 73.8255 15.2969 76.425C15.2969 76.425 14.7538 77.6736 12.9548 77.5724C11.1557 77.4711 10.6805 76.6612 10.2052 75.6826Z" fill="#6C63FF"/>
<path d="M9.94217 75.5488C9.94217 75.5488 7.82912 75.3077 7.62424 80.1164C7.62424 80.1164 8.96384 80.3924 9.9155 78.8714C10.8672 77.3505 10.4768 76.4972 9.94217 75.5488Z" fill="#6C63FF"/>
<path d="M8.71167 71.7127C8.71167 71.7127 9.89973 68.4394 14.2107 70.7678C14.2107 70.7678 13.2263 73.7711 9.15295 72.8263L8.71167 71.7127Z" fill="#6C63FF"/>
<path d="M7.38782 66.8198C7.38782 66.8198 9.62817 63.5128 13.5997 66.5787C13.5997 66.5787 12.208 69.6833 7.72726 67.996L7.38782 66.8198Z" fill="#6C63FF"/>
<path d="M6.9126 62.163C6.9126 62.163 9.52634 59.1247 13.4591 62.163C13.4591 62.163 10.9811 64.8288 6.9126 62.9391V62.163Z" fill="#6C63FF"/>
<path d="M6.50525 57.6399C6.50525 57.6399 9.15294 54.4678 12.9208 57.4711C12.9208 57.4711 9.93366 60.272 6.50525 58.3822V57.6399Z" fill="#6C63FF"/>
<path d="M6.74286 53.6242C6.74286 53.6242 9.53117 49.5411 13.0566 52.3082C13.0566 52.3082 10.0694 55.8176 6.74286 54.4003V53.6242Z" fill="#6C63FF"/>
<path d="M7.38782 48.9337C7.38782 48.9337 10.341 44.8843 13.7694 47.9889C13.7694 47.9889 10.2731 51.4983 7.38782 49.6761V48.9337Z" fill="#6C63FF"/>
<path d="M8.37223 44.7409C8.37223 44.7409 11.8685 40.9349 14.9187 42.4511C14.9187 42.4511 11.2757 46.4932 8.21948 45.7508L8.37223 44.7409Z" fill="#6C63FF"/>
<path d="M9.59421 40.7662C9.59421 40.7662 13.6288 36.1046 15.9758 37.6617C15.9758 37.6617 13.0032 41.2772 9.30811 41.6388L9.59421 40.7662Z" fill="#6C63FF"/>
<path d="M11.3582 36.1565C11.3582 36.1565 14.8896 32.3505 17.4694 33.2954C17.4694 33.2954 14.4483 37.2435 10.8842 37.3448L11.3582 36.1565Z" fill="#6C63FF"/>
<path d="M12.9548 31.8443C12.9548 31.8443 16.8584 28.1999 18.5556 28.841C18.5556 28.841 15.7382 32.8904 12.785 32.6542L12.9548 31.8443Z" fill="#6C63FF"/>
<path d="M14.5162 27.8624C14.5162 27.8624 17.8767 23.5081 19.711 23.8456C19.711 23.8456 17.6731 27.7274 14.5162 28.3047V27.8624Z" fill="#6C63FF"/>
<path d="M16.211 22.4934C16.211 22.4934 19.1812 19.1562 20.7863 19.1635C20.7863 19.1635 18.4417 23.6226 16.0886 23.5816L16.211 22.4934Z" fill="#6C63FF"/>
<path d="M17.2148 18.9189L20.0844 11.9674C20.0844 11.9674 20.2274 18.2512 16.8499 20.2084L17.2148 18.9189Z" fill="#6C63FF"/>
<path d="M18.3798 11.2527C18.3798 11.2527 18.8551 5.4474 18.5496 4.97498C18.5496 4.97498 20.6008 9.8017 18.3604 13.8173L18.3798 11.2527Z" fill="#6C63FF"/>
<path d="M8.60013 71.6356C8.60013 71.6356 5.62512 69.8026 3.69876 74.287C3.69876 74.287 6.34645 76.0345 8.95049 72.7794L8.60013 71.6356Z" fill="#6C63FF"/>
<path d="M7.29208 66.6329C7.29208 66.6329 3.64302 64.9782 1.87305 69.6603C1.87305 69.6603 4.69167 71.5886 7.62425 67.8164L7.29208 66.6329Z" fill="#6C63FF"/>
<path d="M6.74289 62.4413C6.74289 62.4413 4.12915 59.403 0.196411 62.4413C0.196411 62.4413 2.67437 65.1071 6.74289 63.2174V62.4413Z" fill="#6C63FF"/>
<path d="M6.41555 57.6399C6.41555 57.6399 3.76786 54.4678 0 57.4711C0 57.4711 2.98713 60.272 6.41555 58.3822V57.6399Z" fill="#6C63FF"/>
<path d="M6.74289 53.7399C6.74289 53.7399 4.88563 49.1663 0.848633 51.1332C0.848633 51.1332 3.03079 55.1886 6.57801 54.4992L6.74289 53.7399Z" fill="#6C63FF"/>
<path d="M7.62178 48.9108C7.62178 48.9108 5.77543 44.2576 1.68146 46.4149C1.68146 46.4149 4.18852 50.68 7.43993 49.6291L7.62178 48.9108Z" fill="#6C63FF"/>
<path d="M8.76618 44.7638C8.76618 44.7638 8.03879 39.6623 4.64432 39.2056C4.64432 39.2056 5.36443 44.5855 8.30913 45.6834L8.76618 44.7638Z" fill="#6C63FF"/>
<path d="M9.68027 40.7759C9.68027 40.7759 9.39659 34.6296 6.59009 34.415C6.59009 34.415 6.68465 39.0803 9.36385 41.6461L9.68027 40.7759Z" fill="#6C63FF"/>
<path d="M11.6491 35.9841C11.6491 35.9841 10.8126 30.8729 8.13342 30.2487C8.13342 30.2487 8.4656 35.1983 11.3836 37.2387L11.6491 35.9841Z" fill="#6C63FF"/>
<path d="M13.2724 31.8865C13.2724 31.8865 13.2445 26.5621 11.6079 25.7799C11.6079 25.7799 10.5932 30.6006 12.7984 32.5662L13.2724 31.8865Z" fill="#6C63FF"/>
<path d="M14.6411 27.8022C14.6411 27.8022 14.412 22.3199 12.7172 21.5474C12.7172 21.5474 12.1377 25.886 14.3877 28.1614L14.6411 27.8022Z" fill="#6C63FF"/>
<path d="M16.4474 22.9309C16.4474 22.9309 16.4377 18.4718 15.2278 17.4257C15.2278 17.4257 14.0252 22.3102 15.8158 23.8275L16.4474 22.9309Z" fill="#6C63FF"/>
<path d="M17.073 18.6995L15.8958 11.2781C15.8958 11.2781 14.2968 17.3594 17.1287 20.0397L17.073 18.6995Z" fill="#6C63FF"/>
<path d="M17.3021 11.3226C17.3021 11.3226 14.281 6.33319 14.3428 5.77881C14.3428 5.77881 14.6641 11.0081 18.4647 13.6124L17.3021 11.3226Z" fill="#6C63FF"/>
<path d="M17.6561 9.84869C17.6561 9.84869 14.8048 2.76226 13.5149 2.1886C13.5149 2.1886 17.5882 4.24704 17.8937 9.64622L17.6561 9.84869Z" fill="#6C63FF"/>
<path d="M16.0741 23.6238L15.8789 23.5647C18.2853 15.7637 18.8854 10.7899 17.57 9.54254L17.7095 9.39551C19.1048 10.7116 18.5387 15.6311 16.0741 23.6238Z" fill="#444053"/>
<path d="M9.44749 41.8895L9.15897 41.7871C9.41476 41.0724 9.68996 40.3469 9.97849 39.6322C12.4904 33.4087 14.6289 27.619 16 23.1744L16.251 23.0538C14.8774 27.507 12.7765 33.5184 10.2622 39.7503C9.97485 40.4517 9.70087 41.1736 9.44749 41.8895Z" fill="#444053"/>
<path d="M15.5188 84.8274C15.48 84.7852 11.58 80.4189 8.86076 72.9649C7.26746 68.6009 6.38075 64.0132 6.23368 59.3729C6.04698 53.5724 7.27142 47.0958 9.36871 41.2122L9.59663 41.4773C4.88802 54.6824 6.75861 65.9978 9.24021 72.8118C11.9303 80.1983 15.7867 84.5165 15.8243 84.5599L15.5188 84.8274Z" fill="#444053"/>
<path d="M76.4641 75.5573C76.4641 75.5573 73.7158 78.892 75.8979 83.9332L53.9551 93.3938L51.8493 93.8325L50.8795 89.6144L51.5281 84.2912V81.3819L76.4641 75.5573Z" fill="#D5D6DB"/>
<path d="M7.172 73.4023L37.5428 67.8983L77.7855 74.2713L52.79 83.2173L7.172 73.4023Z" fill="#6C63FF"/>
<path d="M7.172 73.4023L37.5428 67.8983L77.7855 74.2713L52.79 83.2173L7.172 73.4023Z" fill="#6C63FF"/>
<path d="M7.17202 73.4011C7.17202 73.4011 4.33157 78.7509 7.60481 83.6921L52.6422 93.3938C52.6422 93.3938 49.8466 89.1323 52.7864 83.2173L7.17202 73.4011Z" fill="#6C63FF"/>
<path opacity="0.1" d="M7.17202 73.4011C7.17202 73.4011 4.33157 78.7509 7.60481 83.6921L52.6422 93.3938C52.6422 93.3938 49.8466 89.1323 52.7864 83.2173L7.17202 73.4011Z" fill="black"/>
<path opacity="0.1" d="M8.51406 75.256C8.51406 75.256 6.89078 79.1704 8.51406 81.7037V75.256Z" fill="black"/>
<path d="M52.6422 93.3938L77.7855 82.728C77.7855 82.728 79.1918 83.0293 78.2825 84.0537C77.3733 85.0781 53.1271 94.4182 53.1271 94.4182L7.60483 83.6922L52.6422 93.3938Z" fill="#6C63FF"/>
<path opacity="0.1" d="M52.6422 93.3938L77.7855 82.728C77.7855 82.728 79.1918 83.0293 78.2825 84.0537C77.3733 85.0781 53.1271 94.4182 53.1271 94.4182L7.60483 83.6922L52.6422 93.3938Z" fill="black"/>
<path opacity="0.1" d="M50.5812 84.2948C50.5812 84.2948 48.1566 87.1872 50.5812 91.5259V84.2948Z" fill="black"/>
<path opacity="0.1" d="M62.3197 84.2458L51.4442 87.8528L51.4825 87.9671L62.358 84.3601L62.3197 84.2458Z" fill="black"/>
<path opacity="0.1" d="M64.498 83.8869L51.4408 88.8229L51.4839 88.9355L64.5411 83.9995L64.498 83.8869Z" fill="black"/>
<path opacity="0.1" d="M66.4985 83.8696L51.5136 89.967L51.5595 90.0786L66.5445 83.9811L66.4985 83.8696Z" fill="black"/>
<path opacity="0.1" d="M68.674 83.3474L51.6885 90.9751L51.7384 91.0849L68.7239 83.4573L68.674 83.3474Z" fill="black"/>
<path opacity="0.1" d="M70.5016 83.35L51.8229 91.4663L51.8715 91.5767L70.5501 83.4604L70.5016 83.35Z" fill="black"/>
<path opacity="0.1" d="M74.4992 82.675L52.1046 92.2905L52.1527 92.4012L74.5473 82.7857L74.4992 82.675Z" fill="black"/>
<path opacity="0.3" d="M18.455 73.9905L39.7917 69.5314L52.7901 72.002L35.3061 77.606L18.455 73.9905Z" fill="white"/>
<path d="M77.7855 74.2714C77.7855 74.2714 78.8887 74.7137 78.2413 75.397C77.594 76.0803 52.7864 83.2174 52.7864 83.2174L77.7855 74.2714Z" fill="#6C63FF"/>
<path d="M88.5011 63.9658C88.5011 63.9658 85.754 67.2993 87.9362 72.3418L65.9934 81.8024L63.8876 82.2435L62.9177 78.0254L63.576 72.7033V69.7904L88.5011 63.9658Z" fill="#D5D6DB"/>
<path d="M19.2103 61.8098L49.5799 56.307L89.8237 62.68L64.8283 71.626L19.2103 61.8098Z" fill="#3A3768"/>
<path d="M19.2054 61.8098C19.2054 61.8098 16.3638 67.1596 19.637 72.1008L64.6744 81.8025C64.6744 81.8025 61.88 77.5373 64.8235 71.6248L19.2054 61.8098Z" fill="#3A3768"/>
<path opacity="0.1" d="M19.2054 61.8098C19.2054 61.8098 16.3638 67.1596 19.637 72.1008L64.6744 81.8025C64.6744 81.8025 61.88 77.5373 64.8235 71.6248L50.5812 68.56L19.2054 61.8098Z" fill="black"/>
<path opacity="0.1" d="M20.5511 63.6646C20.5511 63.6646 18.929 67.5778 20.5511 70.1122V63.6646Z" fill="black"/>
<path d="M64.6792 81.8024L89.8237 71.1366C89.8237 71.1366 91.2288 71.4379 90.3196 72.4623C89.4103 73.4867 65.1641 82.8268 65.1641 82.8268L19.6418 72.1007L64.6792 81.8024Z" fill="#3A3768"/>
<path opacity="0.1" d="M64.6792 81.8024L89.8237 71.1366C89.8237 71.1366 91.2288 71.4379 90.3196 72.4623C89.4103 73.4867 65.1641 82.8268 65.1641 82.8268L19.6418 72.1007L64.6792 81.8024Z" fill="black"/>
<path opacity="0.1" d="M62.6183 72.7034C62.6183 72.7034 60.1936 75.5958 62.6183 79.9344V72.7034Z" fill="black"/>
<path opacity="0.1" d="M74.3577 72.6558L63.4821 76.2628L63.5205 76.3771L74.396 72.7701L74.3577 72.6558Z" fill="black"/>
<path opacity="0.1" d="M76.5375 72.2962L63.4803 77.2322L63.5233 77.3448L76.5806 72.4088L76.5375 72.2962Z" fill="black"/>
<path opacity="0.1" d="M78.5362 72.2773L63.5513 78.3748L63.5972 78.4863L78.5821 72.3889L78.5362 72.2773Z" fill="black"/>
<path opacity="0.1" d="M80.7131 71.7554L63.7277 79.3831L63.7776 79.4929L80.763 71.8652L80.7131 71.7554Z" fill="black"/>
<path opacity="0.1" d="M82.539 71.7564L63.8604 79.8727L63.9089 79.9831L82.5875 71.8668L82.539 71.7564Z" fill="black"/>
<path opacity="0.1" d="M86.5375 71.0814L64.1429 80.6969L64.191 80.8075L86.5856 71.192L86.5375 71.0814Z" fill="black"/>
<path opacity="0.45" d="M30.4933 62.3991L51.83 57.9399L64.8283 60.4106L47.3444 66.0146L30.4933 62.3991Z" fill="white"/>
<path d="M89.8237 62.6799C89.8237 62.6799 90.9257 63.1222 90.2796 63.8044C89.6334 64.4865 64.8283 71.6247 64.8283 71.6247L89.8237 62.6799Z" fill="#3A3768"/>
<path d="M89.6407 50.7053C89.6407 50.7053 86.8924 56.6914 89.0745 61.7327L67.1317 68.5419L65.0308 68.9842L64.0609 64.7661L64.7095 59.4428V56.5299L89.6407 50.7053Z" fill="#D5D6DB"/>
<path d="M20.3535 48.5504L50.7243 43.0464L90.9682 49.4193L65.9715 58.3653L20.3535 48.5504Z" fill="#6C63FF"/>
<path d="M20.3535 48.5493C20.3535 48.5493 17.5082 53.8991 20.7814 58.8403L65.8188 68.542C65.8188 68.542 63.0232 64.2769 65.9667 58.3655L20.3535 48.5493Z" fill="#6C63FF"/>
<path opacity="0.1" d="M20.3535 48.5493C20.3535 48.5493 17.5082 53.8991 20.7814 58.8403L65.8188 68.542C65.8188 68.542 63.0232 64.2769 65.9667 58.3655L20.3535 48.5493Z" fill="black"/>
<path opacity="0.1" d="M21.6955 50.4041C21.6955 50.4041 20.0722 54.3185 21.6955 56.8517V50.4041Z" fill="black"/>
<path d="M65.8236 68.5419L90.9669 60.5275C90.9669 60.5275 92.3732 60.8287 91.464 61.8531C90.5547 62.8775 66.3085 69.5663 66.3085 69.5663L20.7863 58.8402L65.8236 68.5419Z" fill="#6C63FF"/>
<path opacity="0.1" d="M65.8236 68.5419L90.9669 60.5275C90.9669 60.5275 92.3732 60.8287 91.464 61.8531C90.5547 62.8775 66.3085 69.5663 66.3085 69.5663L20.7863 58.8402L65.8236 68.5419Z" fill="black"/>
<path opacity="0.1" d="M63.7627 59.4429C63.7627 59.4429 61.338 62.3353 63.7627 66.6739V59.4429Z" fill="black"/>
<path opacity="0.1" d="M75.5025 59.395L64.6269 63.002L64.6653 63.1163L75.5408 59.5093L75.5025 59.395Z" fill="black"/>
<path opacity="0.1" d="M77.6815 59.0361L64.6242 63.972L64.6673 64.0847L77.7246 59.1487L77.6815 59.0361Z" fill="black"/>
<path opacity="0.1" d="M79.6791 59.0177L64.6942 65.1151L64.7401 65.2266L79.725 59.1292L79.6791 59.0177Z" fill="black"/>
<path opacity="0.1" d="M81.8576 58.4947L64.8722 66.1223L64.9221 66.2321L81.9075 58.6045L81.8576 58.4947Z" fill="black"/>
<path opacity="0.1" d="M83.6841 58.4969L65.0055 66.6132L65.0541 66.7236L83.7327 58.6073L83.6841 58.4969Z" fill="black"/>
<path opacity="0.1" d="M87.6822 57.8227L65.2877 67.4382L65.3357 67.5489L87.7303 57.9333L87.6822 57.8227Z" fill="black"/>
<path opacity="0.3" d="M31.6364 49.1386L52.9731 44.6794L65.9715 47.1501L48.4876 52.7541L31.6364 49.1386Z" fill="white"/>
<path d="M90.967 49.4194C90.967 49.4194 92.0702 49.8617 91.4228 50.5451C90.7754 51.2284 65.9716 58.3654 65.9716 58.3654L90.967 49.4194Z" fill="#6C63FF"/>
<path d="M37.6326 12.8352C37.6326 12.8352 33.0258 12.5592 33.564 15.7722C33.564 15.7722 33.4561 16.3398 33.9738 16.5977C33.9738 16.5977 33.9823 16.3567 34.4466 16.4398C34.6123 16.4681 34.7808 16.4762 34.9485 16.4639C35.1745 16.4486 35.3894 16.3606 35.5607 16.2133C35.5607 16.2133 36.8567 15.6806 37.361 13.5739C37.361 13.5739 37.7344 13.1148 37.7247 12.9966L36.944 13.3269C36.944 13.3269 37.2095 13.8849 37.0009 14.3489C37.0009 14.3489 36.9755 13.3474 36.8252 13.3703C36.7949 13.3703 36.4215 13.5643 36.4215 13.5643C36.4215 13.5643 36.8785 14.5369 36.533 15.2431C36.533 15.2431 36.6639 14.0452 36.2784 13.6342L35.7304 13.9524C35.7304 13.9524 36.2651 14.9563 35.9026 15.7758C35.9026 15.7758 35.9959 14.5188 35.6153 14.0295L35.1182 14.4151C35.1182 14.4151 35.6213 15.4046 35.3146 16.0843C35.3146 16.0843 35.2746 14.6212 35.0115 14.5103C35.0115 14.5103 34.5763 14.8912 34.5109 15.0479C34.5109 15.0479 34.8552 15.771 34.6406 16.1458C34.6406 16.1458 34.5109 15.1708 34.3981 15.166C34.3981 15.166 33.9653 15.8119 33.9205 16.2506C33.9414 15.8416 34.0697 15.4453 34.2926 15.1009C34.0432 15.1478 33.8131 15.2664 33.6307 15.4419C33.6307 15.4419 33.6974 14.9852 34.4005 14.9454C34.4005 14.9454 34.7582 14.4549 34.8539 14.426C34.8539 14.426 34.1544 14.3669 33.7313 14.5537C33.7313 14.5537 34.1047 14.1235 34.9812 14.3127L35.4662 13.915C35.4662 13.915 34.5472 13.7945 34.1569 13.9282C34.1569 13.9282 34.6066 13.5474 35.5983 13.8246L36.1329 13.5076C36.1329 13.5076 35.3486 13.3401 34.8818 13.4004C34.8818 13.4004 35.374 13.1364 36.2893 13.4221L36.67 13.2521C36.67 13.2521 36.0966 13.1401 35.9281 13.122C35.7595 13.1039 35.7511 13.0581 35.7511 13.0581C36.115 12.9987 36.4884 13.0404 36.83 13.1786C36.83 13.1786 37.6483 12.8858 37.6326 12.8352Z" fill="#6C63FF"/>
<path opacity="0.1" d="M102.443 26.0415C102.443 26.0415 97.8359 25.7655 98.3742 28.9785C98.3742 28.9785 98.2663 29.5461 98.7839 29.804C98.7839 29.804 98.7924 29.563 99.2567 29.6461C99.4225 29.6738 99.591 29.6819 99.7586 29.6702C99.9826 29.6538 100.195 29.5659 100.365 29.4196C100.365 29.4196 101.662 28.8869 102.165 26.7802C102.165 26.7802 102.538 26.3211 102.529 26.2029L101.75 26.5332C101.75 26.5332 102.016 27.0912 101.807 27.5552C101.807 27.5552 101.782 26.5537 101.633 26.5766C101.603 26.5766 101.228 26.7706 101.228 26.7706C101.228 26.7706 101.685 27.7432 101.341 28.4494C101.341 28.4494 101.472 27.2514 101.085 26.8405L100.537 27.1586C100.537 27.1586 101.072 28.1626 100.709 28.9821C100.709 28.9821 100.802 27.7251 100.422 27.2358L99.9259 27.6214C99.9259 27.6214 100.428 28.6109 100.121 29.2906C100.121 29.2906 100.081 27.8275 99.818 27.7166C99.818 27.7166 99.384 28.0975 99.3173 28.2542C99.3173 28.2542 99.6616 28.9773 99.4483 29.3521C99.4483 29.3521 99.3173 28.3771 99.2058 28.3723C99.2058 28.3723 98.773 29.0182 98.7282 29.4569C98.7491 29.0478 98.8779 28.6513 99.1015 28.3072C98.8518 28.3542 98.6213 28.4728 98.4384 28.6482C98.4384 28.6482 98.5063 28.1915 99.2082 28.1517C99.2082 28.1517 99.5659 27.6612 99.6616 27.6311C99.6616 27.6311 98.9633 27.5732 98.539 27.76C98.539 27.76 98.9124 27.3298 99.7889 27.519L100.274 27.1213C100.274 27.1213 99.3537 27.0008 98.9646 27.1345C98.9646 27.1345 99.4131 26.7537 100.406 27.0309L100.939 26.7139C100.939 26.7139 100.155 26.5464 99.6883 26.6067C99.6883 26.6067 100.181 26.3427 101.096 26.6284L101.478 26.4584C101.478 26.4584 100.903 26.3464 100.735 26.3283C100.566 26.3102 100.558 26.2644 100.558 26.2644C100.921 26.2042 101.295 26.246 101.636 26.3849C101.636 26.3849 102.457 26.0921 102.443 26.0415Z" fill="#6C63FF"/>
<path opacity="0.1" d="M45.3914 32.6843C45.3914 32.6843 43.3838 28.547 40.8282 30.5861C40.8282 30.5861 40.2766 30.7693 40.3033 31.3442C40.3033 31.3442 40.5155 31.2345 40.667 31.678C40.7236 31.8348 40.7985 31.9845 40.8901 32.1239C41.0141 32.313 41.1967 32.4568 41.4101 32.5337C41.4101 32.5337 42.5097 33.399 44.6058 32.8085C44.6058 32.8085 45.1914 32.9085 45.2871 32.8386L44.6179 32.324C44.6179 32.324 44.2542 32.8266 43.7475 32.8711C43.7475 32.8711 44.6155 32.3614 44.5222 32.2432C44.5028 32.2191 44.1585 31.9865 44.1585 31.9865C44.1585 31.9865 43.5268 32.8579 42.7388 32.9025C42.7388 32.9025 43.8542 32.4325 44.0263 31.8962L43.4808 31.5756C43.4808 31.5756 42.8589 32.5301 41.963 32.6144C41.963 32.6144 43.1122 32.083 43.3559 31.5141L42.7764 31.2731C42.7764 31.2731 42.1521 32.1914 41.4053 32.2577C41.4053 32.2577 42.6709 31.5093 42.6394 31.2261C42.6394 31.2261 42.0927 31.0357 41.923 31.0537C41.923 31.0537 41.4599 31.7033 41.0234 31.7033C41.0234 31.7033 41.8151 31.114 41.7666 31.0188C41.7666 31.0188 40.9883 30.9585 40.5785 31.1393C40.9477 30.9569 41.3586 30.8738 41.7702 30.8983C41.6069 30.7047 41.3904 30.5627 41.1471 30.4897C41.1471 30.4897 41.5811 30.3258 41.9581 30.9151C41.9581 30.9151 42.5643 30.9862 42.6358 31.0549C42.6358 31.0549 42.3461 30.421 41.9763 30.145C41.9763 30.145 42.5364 30.2571 42.7922 31.1092L43.3802 31.3406C43.3802 31.3406 43.0419 30.4825 42.7304 30.2113C42.7304 30.2113 43.2832 30.415 43.5244 31.4165L44.0627 31.725C44.0627 31.725 43.8287 30.9621 43.5475 30.5873C43.5475 30.5873 44.019 30.8862 44.2142 31.819L44.55 32.0673C44.55 32.0673 44.3682 31.5141 44.3076 31.3599C44.247 31.2056 44.2773 31.1743 44.2773 31.1743C44.5079 31.4604 44.654 31.8046 44.6992 32.1685C44.6992 32.1685 45.3477 32.7205 45.3914 32.6843Z" fill="#6C63FF"/>
<path opacity="0.1" d="M91.9174 20.1963C91.9174 20.1963 89.911 16.0589 87.3542 18.0981C87.3542 18.0981 86.8038 18.2813 86.8293 18.8561C86.8293 18.8561 87.0427 18.7477 87.193 19.19C87.2495 19.3474 87.3248 19.4975 87.4173 19.6371C87.5408 19.8258 87.723 19.9693 87.9361 20.0457C87.9361 20.0457 89.0369 20.911 91.1318 20.3216C91.1318 20.3216 91.7173 20.4205 91.8143 20.3506L91.1488 19.8348C91.1488 19.8348 90.7851 20.3385 90.2795 20.3831C90.2795 20.3831 91.1463 19.8721 91.053 19.754C91.0336 19.7299 90.6893 19.4973 90.6893 19.4973C90.6893 19.4973 90.0589 20.3686 89.2697 20.4132C89.2697 20.4132 90.3862 19.9432 90.5584 19.4081L90.0043 19.09C90.0043 19.09 89.3836 20.0432 88.4865 20.1288C88.4865 20.1288 89.6358 19.5961 89.8807 19.0273L89.3 18.7862C89.3 18.7862 88.6756 19.7058 87.9301 19.7709C87.9301 19.7709 89.1945 19.0225 89.163 18.7405C89.163 18.7405 88.6174 18.5488 88.4477 18.5681C88.4477 18.5681 87.9846 19.2165 87.547 19.2165C87.547 19.2165 88.3398 18.6272 88.2913 18.532C88.2913 18.532 87.513 18.4717 87.1021 18.6525C87.4713 18.47 87.8822 18.3869 88.2938 18.4114C88.1311 18.2177 87.9149 18.0757 87.6718 18.0029C87.6718 18.0029 88.1059 17.839 88.4829 18.4283C88.4829 18.4283 89.089 18.5006 89.1606 18.5693C89.1606 18.5693 88.8708 17.9342 88.4999 17.6582C88.4999 17.6582 89.0599 17.7715 89.3157 18.6284L89.9049 18.8598C89.9049 18.8598 89.5667 18.0005 89.2551 17.7293C89.2551 17.7293 89.8079 17.933 90.048 18.9345L90.5875 19.243C90.5875 19.243 90.3523 18.4813 90.071 18.1053C90.071 18.1053 90.5438 18.4042 90.7378 19.337L91.0736 19.5853C91.0736 19.5853 90.893 19.0321 90.8311 18.8778C90.7693 18.7236 90.8008 18.6934 90.8008 18.6934C91.0308 18.9799 91.1764 19.324 91.2215 19.6877C91.2215 19.6877 91.8798 20.2349 91.9174 20.1963Z" fill="#6C63FF"/>
<path opacity="0.1" d="M98.3293 40.6614C98.3293 40.6614 96.3229 36.5228 93.7625 38.562C93.7625 38.562 93.2121 38.7451 93.2376 39.32C93.2376 39.32 93.4509 39.2115 93.6013 39.6538C93.6574 39.8112 93.7323 39.9613 93.8243 40.101C93.9479 40.2897 94.1301 40.4331 94.3432 40.5095C94.3432 40.5095 95.444 41.376 97.5401 40.7855C97.5401 40.7855 98.1244 40.8855 98.2214 40.8144L97.5522 40.2998C97.5522 40.2998 97.1885 40.8036 96.6818 40.8482C96.6818 40.8482 97.5486 40.3372 97.4552 40.2191C97.4358 40.195 97.0915 39.9624 97.0915 39.9624C97.0915 39.9624 96.4611 40.8337 95.6719 40.8795C95.6719 40.8795 96.7884 40.4083 96.9606 39.8732L96.4138 39.5526C96.4138 39.5526 95.7931 40.5071 94.896 40.5915C94.896 40.5915 96.0453 40.0588 96.2902 39.4899L95.7095 39.2489C95.7095 39.2489 95.0851 40.1672 94.3396 40.2335C94.3396 40.2335 95.6052 39.4851 95.5737 39.2019C95.5737 39.2019 95.027 39.0103 94.8572 39.0296C94.8572 39.0296 94.3941 39.6779 93.9565 39.6779C93.9565 39.6779 94.7493 39.0886 94.7008 38.9934C94.7008 38.9934 93.9225 38.9331 93.5116 39.1139C93.8813 38.9315 94.2925 38.8484 94.7045 38.8729C94.5416 38.6789 94.3249 38.5368 94.0814 38.4643C94.0814 38.4643 94.5154 38.2992 94.8924 38.8898C94.8924 38.8898 95.4985 38.9609 95.5701 39.0296C95.5701 39.0296 95.2803 38.3956 94.9106 38.1184C94.9106 38.1184 95.4707 38.2317 95.7265 39.0886L96.3144 39.32C96.3144 39.32 95.9762 38.4607 95.6646 38.1908C95.6646 38.1908 96.2174 38.3932 96.4575 39.3959L96.997 39.7033C96.997 39.7033 96.7618 38.9416 96.4805 38.5656C96.4805 38.5656 96.9533 38.8645 97.1485 39.7985L97.4843 40.0395C97.4843 40.0395 97.3025 39.4863 97.2419 39.3321C97.1812 39.1778 97.2115 39.1477 97.2115 39.1477C97.4421 39.4337 97.5877 39.7781 97.6322 40.1419C97.6322 40.1419 98.2917 40.6975 98.3293 40.6614Z" fill="#6C63FF"/>
<path opacity="0.1" d="M24.4826 94.505C26.0219 94.505 27.2697 94.3663 27.2697 94.1952C27.2697 94.0242 26.0219 93.8855 24.4826 93.8855C22.9434 93.8855 21.6955 94.0242 21.6955 94.1952C21.6955 94.3663 22.9434 94.505 24.4826 94.505Z" fill="#6C63FF"/>
<path opacity="0.1" d="M6.21188 89.2408C7.75115 89.2408 8.99898 89.1021 8.99898 88.9311C8.99898 88.76 7.75115 88.6213 6.21188 88.6213C4.6726 88.6213 3.42477 88.76 3.42477 88.9311C3.42477 89.1021 4.6726 89.2408 6.21188 89.2408Z" fill="#6C63FF"/>
<path opacity="0.1" d="M38.4096 98.0012C39.9489 98.0012 41.1967 97.8625 41.1967 97.6914C41.1967 97.5204 39.9489 97.3817 38.4096 97.3817C36.8704 97.3817 35.6225 97.5204 35.6225 97.6914C35.6225 97.8625 36.8704 98.0012 38.4096 98.0012Z" fill="#6C63FF"/>
<path opacity="0.1" d="M109.778 90.3857C111.318 90.3857 112.566 90.247 112.566 90.076C112.566 89.9049 111.318 89.7662 109.778 89.7662C108.239 89.7662 106.991 89.9049 106.991 90.076C106.991 90.247 108.239 90.3857 109.778 90.3857Z" fill="#6C63FF"/>
<path opacity="0.1" d="M86.5857 88.8829C88.1249 88.8829 89.3728 88.7442 89.3728 88.5732C89.3728 88.4021 88.1249 88.2634 86.5857 88.2634C85.0464 88.2634 83.7986 88.4021 83.7986 88.5732C83.7986 88.7442 85.0464 88.8829 86.5857 88.8829Z" fill="#6C63FF"/>
<path opacity="0.1" d="M71.5821 96.2127C73.4026 96.2127 74.8784 95.9607 74.8784 95.6499C74.8784 95.339 73.4026 95.087 71.5821 95.087C69.7616 95.087 68.2858 95.339 68.2858 95.6499C68.2858 95.9607 69.7616 96.2127 71.5821 96.2127Z" fill="#6C63FF"/>
<path d="M73.0526 89.9928C73.0526 89.9928 68.4628 92.3501 70.8341 95.1269C70.8341 95.1269 71.0572 95.7294 71.7021 95.6873C71.7021 95.6873 71.5736 95.4535 72.0658 95.2667C72.241 95.1994 72.4074 95.1116 72.5617 95.0051C72.7701 94.8619 72.9259 94.655 73.0054 94.4158C73.0054 94.4158 73.9437 93.1672 73.2163 90.8569C73.2163 90.8569 73.3109 90.2037 73.2284 90.0976L72.6708 90.8581C72.6708 90.8581 73.2466 91.2426 73.3133 91.8078C73.3133 91.8078 72.7071 90.8593 72.5859 90.9642C72.5592 90.9859 72.3095 91.38 72.3095 91.38C72.3095 91.38 73.3084 92.0536 73.3824 92.9286C73.3824 92.9286 72.8199 91.7029 72.2125 91.5282L71.8646 92.1452C71.8646 92.1452 72.9557 92.8057 73.0769 93.7987C73.0769 93.7987 72.4428 92.5393 71.7955 92.285L71.5397 92.937C71.5397 92.937 72.592 93.6023 72.6889 94.4291C72.6889 94.4291 71.8088 93.0467 71.4924 93.0901C71.4924 93.0901 71.2936 93.7023 71.3202 93.8915C71.3202 93.8915 72.0634 94.3857 72.0767 94.8714C72.0767 94.8714 71.3906 94.0097 71.2851 94.0663C71.2851 94.0663 71.2414 94.9328 71.4524 95.3836C71.4524 95.3836 71.0887 94.74 71.1481 94.0663C70.9355 94.2532 70.7825 94.4979 70.708 94.7701C70.708 94.7701 70.5104 94.2941 71.1614 93.8554C71.1614 93.8554 71.2233 93.1817 71.2984 93.0985C71.2984 93.0985 70.5941 93.4408 70.2946 93.8602C70.2946 93.8602 70.4049 93.2347 71.3603 92.9238L71.6027 92.2633C71.6027 92.2633 70.6474 92.6659 70.3528 93.0202C70.3528 93.0202 70.565 92.3995 71.6779 92.1019L72.0076 91.4993C72.0076 91.4993 71.159 91.7837 70.7444 92.1019C70.7444 92.1019 71.0657 91.568 72.1095 91.3221L72.3774 90.9425C72.3774 90.9425 71.7615 91.1606 71.5894 91.2389C71.4172 91.3173 71.3833 91.2787 71.3833 91.2787C71.698 91.0141 72.0802 90.8414 72.4877 90.7798C72.4877 90.7798 73.0951 90.0338 73.0526 89.9928Z" fill="#6C63FF"/>
<path d="M86.6754 45.47C85.8825 43.3284 81.5182 43.1272 79.6246 43.6731C78.2789 44.0624 75.4421 44.5011 73.9267 44.7216L73.8285 44.6288C74.0249 44.571 74.0298 44.4288 74.0055 44.2179C73.9914 43.9399 73.9955 43.6613 74.0176 43.3839C74.9463 43.6707 75.7731 42.9922 75.7731 42.9922C76.8641 42.5101 76.5708 40.4469 76.7793 39.8829C76.9357 39.461 77.1042 36.976 77.1794 35.7371H77.1951L77.2036 35.3213C77.2145 35.1417 77.2194 35.0368 77.2194 35.0368C77.2194 35.0368 77.326 32.007 77.5346 31.3936C77.7285 30.8296 77.8861 27.9878 77.9104 27.537C77.9104 27.4985 77.9104 27.478 77.9104 27.478L77.8946 27.2153C77.9055 27.0236 77.9104 26.8103 77.9092 26.5862C77.9092 25.5557 77.8013 24.2578 77.7879 24.0481C77.7879 24.0179 77.7879 23.9818 77.7879 23.9384C77.7964 23.4985 77.7407 21.2954 75.8555 20.4627C75.1609 20.1541 74.3256 19.7866 73.517 19.4286C73.3084 17.6389 72.832 15.8589 72.8732 14.056C72.8732 13.7848 72.8975 13.5136 72.9241 13.2437C72.9241 13.322 72.9157 13.4016 72.9144 13.4847C72.9144 13.6595 72.9144 13.8354 72.9144 14.0102C72.986 11.7553 73.8431 9.48835 73.7631 7.28167C73.7558 7.4974 73.74 7.71433 73.7194 7.93126C73.7613 7.18488 73.6827 6.43664 73.4867 5.71495C73.4139 5.46065 73.3157 5.19793 73.106 5.028C72.9077 4.89114 72.6804 4.80164 72.4416 4.76647C71.868 4.6205 71.2852 4.5126 70.6971 4.44349C70.6078 4.17157 70.4752 3.91564 70.3043 3.68543C69.0751 2.00783 67.2542 0.43146 65.1011 0.0699074C64.0209 -0.110869 62.7783 0.039778 62.0436 0.807474C61.9669 0.874915 61.8948 0.947387 61.8279 1.02441C61.4326 1.49322 61.2629 2.10906 60.858 2.57667C60.8313 2.60801 60.801 2.63693 60.7719 2.66706C59.9791 3.37209 58.7437 3.51912 57.8624 4.15183C57.7071 4.26542 57.5615 4.39159 57.4272 4.52905C57.072 4.87891 56.7536 5.26373 56.4767 5.67759C56.0803 6.23197 55.673 6.80925 55.5469 7.47089C55.2935 8.79658 56.2015 10.0536 56.37 11.3877C56.7459 14.3729 53.4229 17.0219 54.0521 19.9673C54.22 20.691 54.5907 21.3524 55.1214 21.8751C53.8254 23.0417 52.7222 24.1734 52.7222 24.1734V24.2409H52.5173L52.5379 24.4819H52.5173L52.6301 25.7895L52.5173 27.6937C52.5173 27.6937 52.5173 27.7142 52.5173 27.7528V27.7624V27.8142C52.5173 27.8142 52.5173 27.8347 52.5173 27.8733H52.5246C52.5622 28.5711 52.7113 31.0803 52.8883 31.6093C53.0968 32.2228 53.2023 35.2526 53.2023 35.2526C53.2023 35.2526 53.4326 39.5346 53.6435 40.101C53.8545 40.6674 53.555 42.7247 54.6498 43.2103C54.97 43.4546 55.3492 43.6108 55.7493 43.6635C55.6936 44.1142 55.7287 44.4408 55.9094 44.5433C55.9867 44.5885 56.0743 44.6133 56.1639 44.6156C56.0897 44.7251 56.0236 44.8399 55.9663 44.9591C55.5318 44.914 55.1049 44.8139 54.6958 44.6614C53.5199 44.1793 49.6175 43.0946 48.484 43.8575C47.3504 44.6204 44.6227 45.3122 45.8823 48.383C47.1419 51.4537 47.7287 51.5309 47.7287 51.5309C48.1164 51.8107 48.4565 52.1504 48.7361 52.5372C49.1144 53.1024 52.6385 54.3956 53.5199 54.3956C53.8945 54.3898 54.2691 54.4084 54.6413 54.451C54.6413 54.451 53.6848 55.285 53.8121 55.7695C53.9394 56.254 53.5211 60.1322 53.5211 60.1322C53.5211 60.1322 54.491 61.1036 54.9056 59.8297L54.9201 59.849C54.9977 59.9538 55.4172 60.4275 56.2064 59.8297C56.5294 59.5861 56.8725 59.37 57.232 59.1837L61.0532 58.6462C61.4516 58.6215 61.851 58.6186 62.2497 58.6378C62.8559 58.6872 63.4511 58.3305 63.8257 58.0545C64.6174 58.3534 65.5072 58.68 65.9303 58.7993C66.7886 59.0403 70.7335 60.0924 71.6561 59.7634C71.8478 59.6876 72.0184 59.5669 72.1531 59.4115L73.0333 59.4392L72.6211 59.5212C72.6211 59.5212 73.4236 59.5344 74.5147 59.5489L74.4686 59.5754L75.8373 59.5634C77.8401 59.5814 80.0901 59.5875 80.3859 59.5212C80.849 59.4187 83.2555 59.4911 83.9647 59.5212H84.1623C84.1623 59.5212 86.8063 58.9969 85.7152 56.3299C84.8763 54.2811 82.2977 53.6857 81.1533 53.5218C81.4758 53.4579 81.7534 53.4085 81.9377 53.3796C82.7366 53.2591 84.2883 52.536 84.4144 52.2889C84.5405 52.0419 85.8413 51.3248 86.1771 50.9162C86.5129 50.5077 87.4719 47.6116 86.6754 45.47ZM64.775 51.4634L64.6453 51.5056L64.558 51.5345L64.3907 51.6984C64.2573 51.6092 64.1143 51.5152 63.9652 51.4188C64.2282 51.4345 64.4986 51.4501 64.775 51.4634Z" fill="url(#paint0_linear)"/>
<path d="M72.5047 38.756C72.5047 38.756 74.3595 43.5767 75.4142 43.0946C76.4689 42.6126 76.1828 40.5638 76.3841 40.0021C76.5853 39.4405 76.8084 35.1815 76.8084 35.1815C76.8084 35.1815 76.9102 32.1685 77.1114 31.5587C77.2981 30.9983 77.4497 28.1722 77.4751 27.7274C77.4751 27.6889 77.4751 27.6684 77.4751 27.6684L77.2751 24.1734L76.1428 23.8926L73.5169 24.8567L73.1533 26.9212L73.0114 27.7274L72.9508 28.0709L72.5047 38.756Z" fill="#BE6F72"/>
<path opacity="0.1" d="M73.1157 37.9485C73.1157 37.9485 74.8856 39.3887 75.419 39.5152C75.9525 39.6418 76.2798 40.765 76.2798 40.765" fill="black"/>
<path d="M57.9994 38.9669C57.9994 38.9669 56.1445 43.7876 55.0898 43.3056C54.0351 42.8235 54.3212 40.7747 54.12 40.2131C53.9187 39.6515 53.6957 35.3924 53.6957 35.3924C53.6957 35.3924 53.5938 32.3795 53.3926 31.7696C53.2059 31.2092 53.0544 28.3831 53.0289 27.9384C53.0289 27.8998 53.0289 27.8793 53.0289 27.8793L53.2301 24.3843L54.3624 24.1035L56.9883 25.0677L57.352 27.1321L57.4939 27.9384L57.5545 28.2819L57.9994 38.9669Z" fill="#BE6F72"/>
<path d="M70.0776 13.1689H65.9376V19.5841H70.0776V13.1689Z" fill="#3E373A"/>
<path opacity="0.1" d="M70.0776 13.1689H65.9376V19.5841H70.0776V13.1689Z" fill="black"/>
<path d="M57.272 43.7683C57.272 43.7683 55.8572 45.3145 56.3821 45.5953C56.9071 45.8761 60.3028 51.1391 60.3028 51.1391C60.3028 51.1391 71.456 52.5046 73.5594 50.4558C75.6627 48.407 75.6203 44.7469 75.6203 44.7469C75.6203 44.7469 73.9303 45.1084 73.7461 44.912C73.5618 44.7155 72.5495 43.7683 72.5495 43.7683C72.5495 43.7683 58.2418 42.9054 57.272 43.7683Z" fill="#4B4B5B"/>
<path opacity="0.02" d="M57.272 43.7683C57.272 43.7683 55.8572 45.3145 56.3821 45.5953C56.9071 45.8761 60.3028 51.1391 60.3028 51.1391C60.3028 51.1391 71.456 52.5046 73.5594 50.4558C75.6627 48.407 75.6203 44.7469 75.6203 44.7469C75.6203 44.7469 73.9303 45.1084 73.7461 44.912C73.5618 44.7155 72.5495 43.7683 72.5495 43.7683C72.5495 43.7683 58.2418 42.9054 57.272 43.7683Z" fill="black"/>
<path d="M77.3503 24.2241L73.7134 27.1165L72.6138 27.196L72.2101 27.2249L65.4297 27.7191L58.3982 27.2081L57.352 27.1321L56.0185 27.0357L53.2302 24.3843C53.2302 24.3843 55.2038 22.2825 56.9326 20.864C57.6139 20.3036 58.2576 19.8505 58.7268 19.6721L58.8068 19.6444C59.1019 19.53 59.3654 19.3474 59.5754 19.1117C60.9405 17.7125 62.2025 14.2597 62.2025 14.2597C62.2025 14.2597 68.224 11.1672 67.4966 15.2238C66.7693 19.2804 70.2037 18.2777 70.2037 18.2777L71.336 18.7911L71.7834 18.9948L72.9242 19.5142L75.4979 20.6881C77.5176 21.6124 77.3503 24.2241 77.3503 24.2241Z" fill="#BE6F72"/>
<path opacity="0.1" d="M65.1472 17.563C68.138 17.563 70.5626 15.1527 70.5626 12.1795C70.5626 9.20624 68.138 6.79596 65.1472 6.79596C62.1563 6.79596 59.7318 9.20624 59.7318 12.1795C59.7318 15.1527 62.1563 17.563 65.1472 17.563Z" fill="black"/>
<path opacity="0.1" d="M77.3588 28.0588H53.0289C53.0289 28.0203 53.0289 27.9998 53.0289 27.9998L53.2301 24.5048C53.2301 24.5048 55.2038 22.403 56.9325 20.9845L72.2077 20.3819L72.9181 19.6371L75.4918 20.8109C77.5127 21.7341 77.3503 24.3457 77.3503 24.3457C77.3503 24.3457 77.6267 27.3719 77.3588 28.0588Z" fill="black"/>
<path d="M77.3588 27.9384H53.0289C53.0289 27.8998 53.0289 27.8793 53.0289 27.8793L53.2301 24.3843C53.2301 24.3843 55.2038 22.2825 56.9325 20.864L72.2077 20.2614L72.9181 19.5166L75.4918 20.6904C77.5127 21.6136 77.3503 24.2252 77.3503 24.2252C77.3503 24.2252 77.6267 27.2514 77.3588 27.9384Z" fill="#E7C7CA"/>
<path opacity="0.1" d="M61.2472 18.138C61.2472 18.138 65.0853 22.9996 70.1976 18.0379C75.31 13.0762 70.7638 29.105 70.7638 29.105L59.7318 30.4066L61.2472 18.138Z" fill="black"/>
<path d="M61.2472 18.3789C61.2472 18.3789 65.0853 23.2406 70.1976 18.2789C75.31 13.3172 70.7638 29.346 70.7638 29.346L59.7318 30.6476L61.2472 18.3789Z" fill="#E7C7CA"/>
<path opacity="0.1" d="M71.7773 19.2322L72.1834 25.3894L72.6186 27.4382L72.9508 29.0049C72.9508 29.0049 73.7994 41.0567 73.557 41.6593C73.3145 42.2619 73.6782 42.7439 73.7291 43.0645C73.78 43.3851 73.6782 44.1901 73.7182 44.5517C73.7582 44.9132 73.7182 45.0735 72.7896 44.9446C71.8609 44.8156 70.5662 44.5915 70.5662 44.5915C70.5662 44.5915 67.293 44.8325 66.1619 44.4312C65.0308 44.0299 62.8886 44.0286 62.8886 44.0286C62.8886 44.0286 59.6554 44.1094 58.6055 43.9889C57.5557 43.8684 56.9883 45.2748 56.3021 44.8723C55.616 44.4697 57.1095 40.5746 57.5945 39.449C58.0794 38.3234 56.9483 35.4719 56.9483 35.4719L58.4031 27.4491L58.7268 25.6305V19.9131L58.8068 19.8854C59.1019 19.771 59.3653 19.5884 59.5754 19.3527L59.9391 25.1062L71.3348 25.5087V19.0333" fill="black"/>
<path d="M71.7773 18.9911L72.1834 25.1483L72.6186 27.1971L72.9508 28.7639C72.9508 28.7639 73.7994 40.8156 73.557 41.4182C73.3145 42.0208 73.6782 42.5028 73.7291 42.8234C73.78 43.144 73.6782 43.9491 73.7182 44.3106C73.7582 44.6722 73.7182 44.8324 72.7896 44.7035C71.8609 44.5745 70.5662 44.3504 70.5662 44.3504C70.5662 44.3504 67.293 44.5914 66.1619 44.1901C65.0308 43.7888 62.8886 43.7876 62.8886 43.7876C62.8886 43.7876 59.6554 43.8683 58.6055 43.7478C57.5557 43.6273 56.9883 45.0337 56.3021 44.6312C55.616 44.2287 57.1095 40.3335 57.5945 39.2079C58.0794 38.0823 56.9483 35.2308 56.9483 35.2308L58.4031 27.208L58.7268 25.3894V19.672L58.8068 19.6443C59.1019 19.5299 59.3653 19.3473 59.5754 19.1116L59.9391 24.8651L71.3348 25.2676V18.7922" fill="#E7C7CA"/>
<path opacity="0.1" d="M73.0878 6.14156C73.0187 5.88968 72.9229 5.62816 72.7241 5.45943C72.5342 5.32391 72.315 5.23473 72.084 5.19911C71.531 5.05456 70.9688 4.94746 70.4013 4.87854C70.3202 4.61093 70.1975 4.35759 70.0376 4.12771C68.8495 2.45975 67.0917 0.886998 65.0235 0.531471C63.9409 0.344669 62.6861 0.512188 61.9927 1.36063C61.612 1.82703 61.4484 2.44529 61.0641 2.90325C60.3234 3.79267 58.9862 3.90234 58.0527 4.5905C57.5544 4.95205 57.1932 5.4763 56.8404 5.98489C56.4585 6.53565 56.0657 7.10932 55.9445 7.76734C55.702 9.08219 56.5761 10.3356 56.7373 11.6625C57.101 14.6308 53.9005 17.2641 54.5055 20.1927C54.8583 21.9004 56.4452 23.1032 58.0866 23.713C58.6649 23.9287 59.3256 24.1433 59.596 24.6952C59.7172 24.9363 59.7378 25.2147 59.8518 25.4581C60.2349 26.2704 61.4944 26.3017 62.1709 25.71C62.8474 25.1182 63.0608 24.1613 63.1408 23.2683C63.4657 19.3684 61.8945 15.5154 62.0776 11.6058C62.1321 10.4235 62.4667 9.08219 63.5323 8.54709C64.9665 7.82398 66.6916 9.02916 68.2701 8.79897C69.017 10.6057 69.1756 12.5997 68.7235 14.5007C68.4725 15.5407 68.0385 16.5494 68.007 17.6221C67.9597 19.2551 68.8459 20.7471 69.6121 22.1909C69.7765 22.4609 69.8864 22.7601 69.9358 23.0719C69.9478 23.3882 69.8886 23.7032 69.7624 23.9938C69.3296 25.152 68.5828 26.227 68.498 27.4599C68.4731 27.6038 68.5057 27.7517 68.5889 27.8721C68.6743 27.9524 68.7845 28.0017 68.9017 28.0119C70.211 28.2348 71.3433 27.0815 71.9822 25.9233C72.6945 24.6441 73.1095 23.2226 73.1969 21.763C73.329 19.3093 72.444 16.8953 72.4986 14.4392C72.5616 11.6468 73.8309 8.83512 73.0878 6.14156Z" fill="black"/>
<path d="M73.209 6.02108C73.1399 5.7692 73.0441 5.50767 72.8453 5.33895C72.6555 5.20343 72.4362 5.11425 72.2052 5.07863C71.6522 4.93408 71.0901 4.82698 70.5225 4.75805C70.4414 4.49045 70.3187 4.2371 70.1588 4.00723C68.9708 2.33927 67.2129 0.766514 65.1447 0.410988C64.0621 0.224185 62.8074 0.391704 62.1139 1.24015C61.7333 1.70655 61.5696 2.32481 61.1853 2.78277C60.4446 3.67219 59.1074 3.78186 58.1739 4.47002C57.6757 4.83157 57.3144 5.35582 56.9616 5.8644C56.5797 6.41517 56.1869 6.98883 56.0657 7.64686C55.8232 8.9617 56.6973 10.2151 56.8586 11.542C57.2222 14.5103 54.0217 17.1436 54.6267 20.0722C54.9795 21.7799 56.5664 22.9827 58.2079 23.5925C58.7861 23.8083 59.4468 24.0228 59.7172 24.5747C59.8384 24.8158 59.859 25.0942 59.973 25.3376C60.3561 26.1499 61.6157 26.1812 62.2921 25.5895C62.9686 24.9978 63.182 24.0409 63.262 23.1478C63.5869 19.2479 62.0157 15.3949 62.1988 11.4853C62.2533 10.3031 62.5879 8.9617 63.6536 8.42661C65.0877 7.7035 66.8128 8.90868 68.3913 8.67849C69.1382 10.4852 69.2968 12.4792 68.8447 14.3802C68.5937 15.4202 68.1597 16.429 68.1282 17.5016C68.0809 19.1346 68.9671 20.6266 69.7333 22.0704C69.8977 22.3404 70.0076 22.6396 70.057 22.9514C70.069 23.2677 70.0098 23.5827 69.8836 23.8733C69.4508 25.0315 68.704 26.1065 68.6192 27.3394C68.5943 27.4833 68.6269 27.6312 68.7101 27.7516C68.7955 27.8319 68.9057 27.8812 69.0229 27.8914C70.3322 28.1143 71.4645 26.961 72.1034 25.8028C72.8157 24.5236 73.2307 23.1021 73.3181 21.6426C73.4502 19.1888 72.5653 16.7749 72.6198 14.3187C72.6828 11.5263 73.9521 8.71464 73.209 6.02108Z" fill="#3E373A"/>
<path d="M70.531 59.3826L75.3402 59.5356L74.6504 55.99L70.9662 56.3383L70.531 59.3826Z" fill="#C3C7D9"/>
<path d="M85.4328 50.9789C85.1091 51.3802 83.8567 52.1033 83.7355 52.3444C83.6143 52.5854 82.1195 53.3085 81.3509 53.429C80.5823 53.5496 78.1589 54.0726 77.714 54.3534C77.3951 54.5559 74.836 55.197 73.1545 55.5525C72.699 55.6597 72.2381 55.7421 71.7737 55.7996C71.0463 55.8394 63.0862 53.1482 63.0862 53.1482L64.621 51.5815L64.7059 51.5526C65.1399 51.4068 67.1451 50.7331 68.258 50.4125C69.5115 50.0509 70.9663 48.565 70.9663 48.565C70.9663 48.565 73.1072 47.8418 73.3909 47.7611C73.6746 47.6804 72.6635 44.9494 72.6635 44.9494C72.6635 44.9494 77.3103 44.3083 79.1287 43.7647C80.9472 43.2212 85.1503 43.4225 85.9177 45.552C86.6851 47.6816 85.7613 50.5776 85.4328 50.9789Z" fill="#4B4B5B"/>
<path d="M64.2573 57.7676C64.2573 57.7676 63.3287 58.7318 62.3988 58.6523C61.469 58.5727 58.2176 58.8933 58.2176 58.8933C57.6284 59.1269 57.0766 59.4448 56.5798 59.8369C55.8196 60.4323 55.4159 59.9575 55.3408 59.8562L55.3274 59.8369C54.9225 61.1036 53.9939 60.1382 53.9939 60.1382C53.9939 60.1382 54.3976 56.2817 54.2739 55.7996C54.1503 55.3175 55.0728 54.4896 55.0728 54.4896L56.1639 54.2136L58.928 53.5098L62.8886 54.8752L64.2573 57.7676Z" fill="#E7C7CA"/>
<path opacity="0.1" d="M56.1591 54.2136L55.3408 59.8563L55.3274 59.837C54.9225 61.1036 53.9939 60.1383 53.9939 60.1383C53.9939 60.1383 54.3976 56.2817 54.2739 55.7996C54.1503 55.3176 55.0728 54.4896 55.0728 54.4896L56.1591 54.2136Z" fill="black"/>
<path opacity="0.1" d="M61.8788 38.1631C61.8788 38.1631 64.0197 38.8862 65.8794 38.1631H61.8788Z" fill="black"/>
<path opacity="0.1" d="M69.1878 39.5298C69.1878 39.5298 70.0764 39.9691 70.7638 39.5298H69.1878Z" fill="black"/>
<path opacity="0.1" d="M69.1878 40.5759C69.1878 40.5759 70.6826 40.7747 70.9662 40.3734L69.1878 40.5759Z" fill="black"/>
<path opacity="0.1" d="M68.7029 42.8235C68.7029 42.8235 71.5106 42.4619 72.2076 41.9799L68.7029 42.8235Z" fill="black"/>
<path opacity="0.1" d="M60.1355 41.9799C60.1355 41.9799 61.7115 42.8633 62.8838 42.8235L60.1355 41.9799Z" fill="black"/>
<path opacity="0.1" d="M73.1533 55.5526C72.6978 55.6597 72.2369 55.7422 71.7724 55.7996C71.0451 55.8394 63.085 53.1483 63.085 53.1483L64.6198 51.5815L64.7047 51.5526C64.9471 51.7225 65.1459 51.8684 65.2878 51.9792C65.9558 52.5023 66.6007 51.819 66.8432 51.819C67.0856 51.819 69.1866 53.546 69.1866 53.546C69.1866 53.546 71.1263 53.9883 71.45 54.3896C71.7737 54.7909 72.9047 54.7114 73.106 54.9922C73.1666 55.079 73.1739 55.2923 73.1533 55.5526Z" fill="black"/>
<path d="M58.2176 45.1133C58.2176 45.1133 56.2561 45.2253 55.125 44.7517C53.9939 44.2781 50.2357 43.185 49.1446 43.9527C48.0536 44.7204 45.4265 45.3989 46.6388 48.4528C47.8511 51.5067 48.4173 51.5863 48.4173 51.5863C48.7924 51.8659 49.1198 52.2036 49.3871 52.5865C49.7508 53.1494 53.1453 54.4341 53.9939 54.4341C54.8425 54.4341 56.3373 54.4341 58.4382 55.8803C60.5392 57.3265 62.4389 57.488 62.4389 57.488C62.4389 57.488 65.1059 58.5726 65.9364 58.8137C66.7668 59.0547 70.5613 60.0984 71.4512 59.7778C72.341 59.4572 72.906 57.447 72.906 57.447C72.906 57.447 73.3096 55.6393 73.1072 55.3584C72.9047 55.0776 71.7737 55.1572 71.4512 54.7559C71.1287 54.3545 69.1878 53.9122 69.1878 53.9122C69.1878 53.9122 67.0917 52.184 66.8492 52.184C66.6068 52.184 65.9618 52.8661 65.2938 52.3443C63.9632 51.3646 62.5652 50.4786 61.1102 49.6929C59.5754 48.8891 58.2176 45.1133 58.2176 45.1133Z" fill="#4B4B5B"/>
<path opacity="0.1" d="M54.2739 46.2788C54.6232 46.2078 54.9842 46.218 55.3288 46.3085C55.6735 46.399 55.9925 46.5674 56.2609 46.8006C57.2307 47.6045 60.4943 49.2182 60.4943 49.2182" fill="black"/>
<path opacity="0.1" d="M78.5226 46.2281C78.5226 46.2281 74.1982 46.8789 73.3908 47.7623L78.5226 46.2281Z" fill="black"/>
<path d="M83.4931 59.5356H83.3027C82.619 59.5115 80.3023 59.4392 79.8561 59.5356C79.3312 59.6561 72.3798 59.5356 72.3798 59.5356L73.7388 59.2548C73.7388 59.2548 73.2345 57.4977 73.5545 57.3519C73.5545 57.3519 71.7361 56.1611 73.1072 55.3573C74.4783 54.5534 75.9561 54.8921 75.9561 54.8921L79.3979 53.7327L80.0586 53.5098C80.0586 53.5098 83.938 53.711 84.9879 56.3624C86.0377 59.0138 83.4931 59.5356 83.4931 59.5356Z" fill="#E7C7CA"/>
<path opacity="0.1" d="M83.4931 59.5356H83.3027C84.4314 58.61 86.9845 55.7923 79.3979 53.7387L80.0586 53.5157C80.0586 53.5157 83.938 53.717 84.9879 56.3684C86.0377 59.0198 83.4931 59.5356 83.4931 59.5356Z" fill="black"/>
<path d="M76.361 56.4118C76.4782 56.4118 76.5732 56.3174 76.5732 56.2009C76.5732 56.0844 76.4782 55.99 76.361 55.99C76.2439 55.99 76.1489 56.0844 76.1489 56.2009C76.1489 56.3174 76.2439 56.4118 76.361 56.4118Z" fill="#4B4B5B"/>
<path d="M75.1281 56.7602C75.2453 56.7602 75.3403 56.6658 75.3403 56.5493C75.3403 56.4328 75.2453 56.3384 75.1281 56.3384C75.0109 56.3384 74.916 56.4328 74.916 56.5493C74.916 56.6658 75.0109 56.7602 75.1281 56.7602Z" fill="#4B4B5B"/>
<g opacity="0.1">
<path opacity="0.1" d="M69.1211 11.9805C69.1681 10.6549 68.9309 9.33451 68.4252 8.10704C66.8492 8.34085 65.1229 7.13206 63.6875 7.85516C62.6255 8.39026 62.2922 9.73162 62.2328 10.9139C62.2182 11.226 62.2158 11.5382 62.2218 11.8503C62.2218 11.7394 62.2218 11.6274 62.2328 11.5165C62.2885 10.3342 62.6219 8.99285 63.6875 8.45775C65.1229 7.73464 66.8468 8.93982 68.4252 8.70963C68.8535 9.74934 69.0892 10.8574 69.1211 11.9805Z" fill="black"/>
<path opacity="0.1" d="M56.9083 11.7601C56.929 11.4975 56.9238 11.2335 56.8925 10.9719C56.764 9.91136 56.1809 8.89781 56.0754 7.86377C55.9397 9.11112 56.7386 10.3091 56.8925 11.5745C56.9083 11.6396 56.9083 11.6974 56.9083 11.7601Z" fill="black"/>
<path opacity="0.1" d="M63.296 22.5753C63.2208 23.4695 63.0087 24.4252 62.3261 25.0182C61.6436 25.6111 60.3864 25.5786 60.007 24.7663C59.8858 24.5253 59.8676 24.2445 59.75 24.0034C59.4808 23.4515 58.8189 23.2369 58.2406 23.0212C56.598 22.4102 55.0135 21.2135 54.6607 19.5009C54.6292 19.3458 54.6077 19.1888 54.5964 19.0309C54.5666 19.3896 54.5883 19.7508 54.6607 20.1035C55.0135 21.8112 56.6004 23.0128 58.2406 23.6238C58.8189 23.8395 59.4808 24.054 59.75 24.606C59.8712 24.8471 59.8918 25.1254 60.007 25.3689C60.3889 26.1812 61.6485 26.2125 62.3261 25.6208C63.0038 25.029 63.2148 24.0721 63.296 23.1779C63.3329 22.7072 63.3454 22.235 63.3336 21.763C63.3336 22.0366 63.3178 22.3065 63.296 22.5753Z" fill="black"/>
<path opacity="0.1" d="M72.6599 13.7474C72.6599 13.9222 72.6599 14.0957 72.6599 14.2693C72.7277 12.0276 73.5545 9.77397 73.4733 7.57935C73.4103 9.60886 72.7059 11.6842 72.6599 13.7474Z" fill="black"/>
<path opacity="0.1" d="M70.0583 22.8151C70.0881 22.6721 70.0975 22.5257 70.0862 22.3801C70.0373 22.0682 69.9274 21.7688 69.7625 21.4991C69.0618 20.1734 68.2628 18.8164 68.1683 17.3448C68.1683 17.4075 68.1598 17.4654 68.1586 17.5329C68.1101 19.1647 68.9963 20.6579 69.7625 22.1017C69.8927 22.3253 69.9922 22.5652 70.0583 22.8151Z" fill="black"/>
<path opacity="0.1" d="M73.3569 21.0712C73.2664 22.5313 72.8485 23.9528 72.1337 25.2315C71.4936 26.3897 70.3625 27.543 69.052 27.3201C68.9346 27.31 68.8242 27.2602 68.7392 27.1791C68.7146 27.1515 68.6953 27.1196 68.6823 27.0851C68.6677 27.1791 68.6556 27.2743 68.6483 27.3707C68.6232 27.5142 68.6559 27.6618 68.7392 27.7817C68.8242 27.8628 68.9346 27.9126 69.052 27.9227C70.3625 28.1456 71.4936 26.9923 72.1337 25.8341C72.8485 24.5554 73.2664 23.1339 73.3569 21.6738C73.3715 21.3918 73.3727 21.111 73.3642 20.8302C73.3618 20.9109 73.3618 20.9905 73.3569 21.0712Z" fill="black"/>
</g>
<path opacity="0.1" d="M73.5545 57.3518C73.5545 57.3518 76.6229 58.6317 78.6462 55.7996" stroke="black" stroke-miterlimit="10"/>
<path opacity="0.1" d="M74.1583 59.5886C74.1583 59.5886 76.6641 57.9689 79.8561 59.5356" stroke="black" stroke-miterlimit="10"/>
<path opacity="0.1" d="M57.3847 59.2211C57.3847 59.2211 58.437 56.8614 61.2471 58.6607" stroke="black" stroke-miterlimit="10"/>
<path opacity="0.1" d="M53.9733 24.3241L56.1191 22.3958C56.1191 22.3958 64.4392 21.8535 64.7835 24.6652C64.7835 24.6652 67.733 21.3316 73.9364 22.074L76.5611 24.1518L69.3066 27.3165L62.257 29.7474L57.0647 27.4371L53.9733 24.3241Z" fill="black"/>
<path d="M53.9733 24.4446L56.1191 22.5163C56.1191 22.5163 64.4392 21.974 64.7835 24.7856C64.7835 24.7856 67.733 21.4521 73.9364 22.1945L76.5611 24.2722L69.3066 27.437L62.257 29.8679L57.0647 27.5575L53.9733 24.4446Z" fill="#D5D6DB"/>
<path opacity="0.1" d="M53.024 24.6855L53.9733 35.9744L64.0354 36.477L63.599 25.2363L63.5905 25.0471L53.024 24.6855Z" fill="black"/>
<path d="M53.024 24.4446L53.9733 35.7334L64.0354 36.236L63.599 24.9953L63.5905 24.8061L53.024 24.4446Z" fill="#6C63FF"/>
<path opacity="0.1" d="M77.0218 24.4446L66.6419 25.992V37.3315L76.7854 35.8745L77.0218 24.4446Z" fill="black"/>
<path d="M77.0218 24.2035L66.6419 25.7509V37.0904L76.7854 35.6334L77.0218 24.2035Z" fill="#6C63FF"/>
<path opacity="0.3" d="M74.5741 26.9706L68.9671 27.59L69.0895 29.4894L74.5704 28.894L74.5741 26.9706Z" fill="white"/>
<path d="M54.5188 41.7786L55.0898 43.3056C55.0898 43.3056 55.9384 44.0287 56.867 43.6671C57.7957 43.3056 58.6055 43.126 59.0092 42.7741C59.4129 42.4222 59.9791 40.6542 59.9791 40.6542C59.9791 40.6542 60.5452 38.7259 61.1101 38.2438C61.6751 37.7618 63.1711 31.1201 61.1101 31.7696C59.0492 32.4192 57.4732 38.4451 57.4732 38.4451C57.4732 38.4451 57.1095 38.8862 56.5846 38.9272C56.0596 38.9682 55.0086 38.8464 54.8061 39.2887C54.6037 39.731 53.9126 40.8952 54.5188 41.7786Z" fill="#BE6F72"/>
<path opacity="0.1" d="M66.6419 25.9908C66.1105 26.1098 65.5584 26.1036 65.0298 25.9726C64.5013 25.8416 64.0108 25.5894 63.5978 25.2363L64.0355 36.4758C64.0355 36.4758 65.0659 37.5846 66.6419 37.3315V25.9908Z" fill="black"/>
<path d="M66.6419 25.7498C66.1105 25.8688 65.5584 25.8626 65.0298 25.7316C64.5013 25.6006 64.0108 25.3485 63.5978 24.9954L64.0355 36.2348C64.0355 36.2348 65.0659 37.3436 66.6419 37.0905V25.7498Z" fill="#6C63FF"/>
<path opacity="0.1" d="M66.6419 25.7498C66.1105 25.8688 65.5584 25.8626 65.0298 25.7316C64.5013 25.6006 64.0108 25.3485 63.5978 24.9954L64.0355 36.2348C64.0355 36.2348 65.0659 37.3436 66.6419 37.0905V25.7498Z" fill="black"/>
<path opacity="0.1" d="M66.8844 24.4831C66.8844 24.4831 71.1069 23.1996 72.2077 23.3804L66.8844 24.4831Z" fill="black"/>
<path opacity="0.1" d="M62.1612 23.9227C62.1612 23.9227 58.0684 22.9585 57.3847 23.2321L62.1612 23.9227Z" fill="black"/>
<path opacity="0.1" d="M69.5466 24.6434C69.5466 24.6434 72.3701 23.6142 73.3909 24.1035L69.5466 24.6434Z" fill="black"/>
<path opacity="0.1" d="M68.1246 50.4619C68.5622 50.1353 69.0279 49.8477 69.5164 49.6026C70.2437 49.2543 71.5773 48.3505 71.5773 48.3505" fill="black"/>
<path opacity="0.1" d="M57.3847 38.1631C57.3847 38.1631 55.6136 39.6033 55.0814 39.7298C54.5491 39.8564 54.2206 40.9796 54.2206 40.9796" fill="black"/>
<path d="M75.9804 41.5641L75.4154 43.0947C75.4154 43.0947 74.5668 43.8178 73.637 43.4562C72.7071 43.0947 71.8997 42.9151 71.4948 42.5632C71.0899 42.2113 70.5249 40.4433 70.5249 40.4433C70.5249 40.4433 69.96 38.515 69.3939 38.0329C68.8277 37.5508 67.3329 30.9091 69.3939 31.5587C71.4548 32.2083 73.0308 38.2342 73.0308 38.2342C73.0308 38.2342 73.3945 38.6753 73.9194 38.7163C74.4444 38.7572 75.4954 38.6355 75.6979 39.0778C75.9003 39.5201 76.5865 40.6843 75.9804 41.5641Z" fill="#BE6F72"/>
<path opacity="0.1" d="M74.9899 38.7488C74.9899 38.7488 76.1476 39.4888 76.1428 40.3734L74.9899 38.7488Z" fill="black"/>
<path d="M65.1665 17.2991C68.1574 17.2991 70.5819 14.8888 70.5819 11.9156C70.5819 8.94233 68.1574 6.53204 65.1665 6.53204C62.1757 6.53204 59.7512 8.94233 59.7512 11.9156C59.7512 14.8888 62.1757 17.2991 65.1665 17.2991Z" fill="#BE6F72"/>
<path d="M61.766 10.4706C62.4231 10.3681 62.9989 9.98849 63.6269 9.77035C65.032 9.27984 66.5862 9.61609 68.0082 10.0584C68.5537 10.2283 69.1078 10.4199 69.68 10.4199C70.2522 10.4199 70.8596 10.1873 71.1517 9.69683C71.4209 9.2461 71.3687 8.66038 71.142 8.18675C70.9153 7.71311 70.5359 7.33228 70.1528 6.97314C68.892 5.78965 67.3281 4.6833 65.5981 4.80382C64.9023 4.85323 64.2367 5.10029 63.5966 5.37387C62.7906 5.71915 62.0061 6.11193 61.2471 6.55012C60.664 6.88636 59.5839 7.33589 59.248 7.95053C58.4843 9.33528 60.578 10.6562 61.766 10.4706Z" fill="#3E373A"/>
<path opacity="0.1" d="M71.1517 9.1907C70.8596 9.68121 70.2522 9.91381 69.68 9.91381C69.1078 9.91381 68.5537 9.72942 68.007 9.55949C66.5849 9.11719 65.032 8.77974 63.6257 9.27145C62.9989 9.48959 62.4219 9.87404 61.7648 9.97045C60.8071 10.1199 59.265 9.29073 59.0977 8.23621C58.9098 9.45464 60.698 10.4983 61.7648 10.332C62.4219 10.2296 62.9989 9.84993 63.6257 9.633C65.032 9.14129 66.5849 9.47874 68.007 9.92104C68.5537 10.091 69.1066 10.2826 69.68 10.2754C70.2534 10.2681 70.8596 10.044 71.1517 9.55226C71.3032 9.28476 71.3628 8.97547 71.3214 8.67127C71.3025 8.85442 71.2447 9.03147 71.1517 9.1907Z" fill="black"/>
<path d="M115.099 74.5051C115.099 74.5051 115.818 75.4391 114.767 76.8504C113.716 78.2617 112.85 79.4524 113.199 80.3321C113.199 80.3321 114.785 77.7121 116.075 77.6747C117.365 77.6374 116.516 76.0803 115.099 74.5051Z" fill="#6C63FF"/>
<path opacity="0.1" d="M115.099 74.5051C115.162 74.5953 115.211 74.6939 115.246 74.798C116.504 76.2683 117.176 77.641 115.965 77.6747C114.837 77.7073 113.486 79.7115 113.162 80.2165C113.172 80.2573 113.185 80.2975 113.199 80.337C113.199 80.337 114.785 77.7169 116.075 77.6796C117.365 77.6422 116.516 76.0803 115.099 74.5051Z" fill="black"/>
<path d="M116.433 75.6958C116.433 76.0248 116.395 76.2912 116.35 76.2912C116.305 76.2912 116.267 76.0248 116.267 75.6958C116.267 75.3668 116.313 75.5223 116.359 75.5223C116.405 75.5223 116.433 75.3668 116.433 75.6958Z" fill="#FFD037"/>
<path d="M116.892 76.0887C116.602 76.2454 116.349 76.3406 116.327 76.3008C116.305 76.261 116.522 76.1007 116.812 75.9392C117.102 75.7777 116.988 75.8958 117.01 75.9392C117.032 75.9826 117.183 75.9308 116.892 76.0887Z" fill="#FFD037"/>
<path d="M111.3 74.5051C111.3 74.5051 110.581 75.4391 111.632 76.8504C112.683 78.2617 113.549 79.4524 113.198 80.3321C113.198 80.3321 111.614 77.7121 110.323 77.6747C109.032 77.6374 109.886 76.0803 111.3 74.5051Z" fill="#6C63FF"/>
<path opacity="0.1" d="M111.3 74.5051C111.237 74.5953 111.188 74.6939 111.153 74.798C109.895 76.2683 109.223 77.641 110.434 77.6747C111.56 77.7073 112.913 79.7115 113.237 80.2165C113.227 80.2575 113.214 80.2977 113.198 80.337C113.198 80.337 111.614 77.7169 110.323 77.6796C109.032 77.6422 109.886 76.0803 111.3 74.5051Z" fill="black"/>
<path d="M109.964 75.6958C109.964 76.0248 110 76.2912 110.046 76.2912C110.092 76.2912 110.13 76.0248 110.13 75.6958C110.13 75.3668 110.083 75.5223 110.038 75.5223C109.993 75.5223 109.964 75.3668 109.964 75.6958Z" fill="#FFD037"/>
<path d="M109.506 76.0887C109.795 76.2454 110.049 76.3406 110.071 76.3008C110.092 76.261 109.875 76.1007 109.586 75.9392C109.296 75.7777 109.41 75.8958 109.388 75.9392C109.366 75.9826 109.215 75.9308 109.506 76.0887Z" fill="#FFD037"/>
<path opacity="0.1" d="M113.2 87.4812C117.351 87.4812 120.716 86.9681 120.716 86.3351C120.716 85.7021 117.351 85.189 113.2 85.189C109.048 85.189 105.683 85.7021 105.683 86.3351C105.683 86.9681 109.048 87.4812 113.2 87.4812Z" fill="#6C63FF"/>
<path d="M117.068 79.0728L117.032 79.3644L116.981 79.7766L116.96 79.9489L116.909 80.3611L116.887 80.5334L116.838 80.9444L116.262 85.6325C116.211 86.0507 115.524 86.3773 114.693 86.3773H111.705C110.874 86.3773 110.188 86.0507 110.136 85.6325L109.56 80.9444L109.509 80.5334L109.489 80.3611L109.438 79.9489L109.416 79.7766L109.366 79.3644L109.33 79.0728C109.302 78.8317 109.673 78.6365 110.143 78.6365H116.256C116.725 78.6365 117.097 78.8353 117.068 79.0728Z" fill="#65617D"/>
<path d="M117.032 79.3644L116.982 79.7766H109.417L109.366 79.3644H117.032Z" fill="#9D9CB5"/>
<path d="M116.96 79.9489L116.91 80.361H109.489L109.438 79.9489H116.96Z" fill="#9D9CB5"/>
<path d="M116.889 80.5334L116.838 80.9456H109.56L109.51 80.5334H116.889Z" fill="#9D9CB5"/>
</g>
<defs>
<linearGradient id="paint0_linear" x1="66.2698" y1="60.4901" x2="66.2698" y2="6.94308e-06" gradientUnits="userSpaceOnUse">
<stop stop-color="#808080" stop-opacity="0.25"/>
<stop offset="0.54" stop-color="#808080" stop-opacity="0.12"/>
<stop offset="1" stop-color="#808080" stop-opacity="0.1"/>
</linearGradient>
<clipPath id="clip0">
<rect width="124" height="98" fill="white"/>
</clipPath>
</defs>
</svg>
