<svg width="16" height="16" viewBox="0 0 16 16" fill="none" xmlns="http://www.w3.org/2000/svg">
<path d="M9.98867 8L15.5551 2.43359C15.8193 2.16988 15.9679 1.81202 15.9682 1.43874C15.9685 1.06546 15.8205 0.707343 15.5568 0.443162C15.2931 0.178982 14.9353 0.0303815 14.562 0.0300518C14.1887 0.0297221 13.8306 0.17769 13.5664 0.441404L8 6.00781L2.43359 0.441404C2.16941 0.177224 1.81111 0.0288086 1.4375 0.0288086C1.06389 0.0288086 0.705585 0.177224 0.441404 0.441404C0.177224 0.705585 0.0288086 1.06389 0.0288086 1.4375C0.0288086 1.81111 0.177224 2.16941 0.441404 2.43359L6.00781 8L0.441404 13.5664C0.177224 13.8306 0.0288086 14.1889 0.0288086 14.5625C0.0288086 14.9361 0.177224 15.2944 0.441404 15.5586C0.705585 15.8228 1.06389 15.9712 1.4375 15.9712C1.81111 15.9712 2.16941 15.8228 2.43359 15.5586L8 9.99219L13.5664 15.5586C13.8306 15.8228 14.1889 15.9712 14.5625 15.9712C14.9361 15.9712 15.2944 15.8228 15.5586 15.5586C15.8228 15.2944 15.9712 14.9361 15.9712 14.5625C15.9712 14.1889 15.8228 13.8306 15.5586 13.5664L9.98867 8Z" fill="#372F9D" />
</svg>