<svg width="20" height="20" viewBox="0 0 20 20" fill="none" xmlns="http://www.w3.org/2000/svg">
<path d="M11.3258 10L15.0367 6.28907C15.2128 6.11326 15.3119 5.87469 15.3121 5.62584C15.3123 5.37699 15.2137 5.13824 15.0379 4.96212C14.8621 4.786 14.6235 4.68693 14.3746 4.68671C14.1258 4.68649 13.887 4.78514 13.7109 4.96095L9.99998 8.67188L6.28904 4.96095C6.11292 4.78483 5.87405 4.68588 5.62498 4.68588C5.37591 4.68588 5.13704 4.78483 4.96092 4.96095C4.7848 5.13707 4.68585 5.37594 4.68585 5.62501C4.68585 5.87408 4.7848 6.11295 4.96092 6.28907L8.67185 10L4.96092 13.7109C4.7848 13.8871 4.68585 14.1259 4.68585 14.375C4.68585 14.6241 4.7848 14.863 4.96092 15.0391C5.13704 15.2152 5.37591 15.3141 5.62498 15.3141C5.87405 15.3141 6.11292 15.2152 6.28904 15.0391L9.99998 11.3281L13.7109 15.0391C13.887 15.2152 14.1259 15.3141 14.375 15.3141C14.6241 15.3141 14.8629 15.2152 15.039 15.0391C15.2152 14.863 15.3141 14.6241 15.3141 14.375C15.3141 14.1259 15.2152 13.8871 15.039 13.7109L11.3258 10Z" fill="#5D54CD"/>
</svg>