<svg width="136" height="108" fill="none" xmlns="http://www.w3.org/2000/svg"><g clip-path="url(#a)"><path d="M4.449 70.396a.206.206 0 0 1-.044-.086 64.955 64.955 0 0 1 1.38-35.455A65.014 65.014 0 0 1 25.59 5.403 65.113 65.113 0 0 1 57.928-9.275a65.144 65.144 0 0 1 35.235 4.468.207.207 0 1 1-.163.381c-22.716-9.65-48.492-5.716-67.27 10.264C7.065 21.72-.95 46.388 4.808 70.213a.207.207 0 0 1-.36.183zM42.388 114.888a.206.206 0 0 1 .102-.334.205.205 0 0 1 .136.008c22.63 9.468 48.283 5.483 66.947-10.399 18.955-16.13 27.004-40.926 21.007-64.71a.207.207 0 0 1 .368-.174.219.219 0 0 1 .035.072 64.109 64.109 0 0 1-1.066 35.056 65.468 65.468 0 0 1-20.075 30.071 65.122 65.122 0 0 1-67.376 10.467.209.209 0 0 1-.078-.057z" fill="#E6E6E6"/><path d="M37.592 118.568a.208.208 0 0 1 .023-.292l98.043-83.434a.207.207 0 1 1 .269.315l-98.043 83.435a.212.212 0 0 1-.229.027.215.215 0 0 1-.063-.051zM.05 74.542a.207.207 0 0 1 .023-.292L98.116-9.185a.208.208 0 0 1 .27.316L.341 74.565a.207.207 0 0 1-.292-.023z" fill="#E6E6E6"/><path d="M37.592 118.568a.208.208 0 0 1 .023-.292l98.043-83.434a.207.207 0 1 1 .269.315l-98.043 83.435a.212.212 0 0 1-.229.027.215.215 0 0 1-.063-.051z" fill="#E6E6E6"/><path d="M114.627 24.389H76.681v-.199a.583.583 0 0 0-.583-.583h-16.04a.584.584 0 0 0-.583.583v.199H21.373a2.568 2.568 0 0 0-2.567 2.564V78.86a2.563 2.563 0 0 0 2.567 2.564h93.254a2.567 2.567 0 0 0 2.567-2.564V26.953a2.565 2.565 0 0 0-2.567-2.564z" fill="#3F3D56"/><path d="M23.415 29.846a.241.241 0 0 0-.24.24v49.235a.24.24 0 0 0 .24.24h89.171a.24.24 0 0 0 .24-.24V30.086a.24.24 0 0 0-.24-.24H23.415z" fill="#6C63FF"/><path d="M33.92 57.054c-.324 0-.636-.042-.936-.126a2.16 2.16 0 0 1-.738-.366l.3-.672c.412.288.872.432 1.38.432.272 0 .48-.042.624-.126.148-.088.222-.21.222-.366 0-.136-.068-.242-.204-.318-.132-.08-.366-.156-.702-.228a3.899 3.899 0 0 1-.9-.276 1.243 1.243 0 0 1-.486-.402 1.1 1.1 0 0 1-.15-.594c0-.256.07-.486.21-.69.144-.204.344-.362.6-.474.256-.116.552-.174.888-.174.304 0 .596.044.876.132.28.088.504.208.672.36l-.3.672a1.996 1.996 0 0 0-1.242-.432c-.24 0-.432.048-.576.144a.447.447 0 0 0-.216.39c0 .096.026.176.078.24a.729.729 0 0 0 .276.174c.128.048.31.096.546.144.548.12.942.276 1.182.468.244.192.366.454.366.786 0 .4-.156.718-.468.954-.312.232-.746.348-1.302.348zm3.47-2.418v1.182c0 .168.045.292.133.372a.505.505 0 0 0 .342.114c.088 0 .188-.014.3-.042v.702a1.442 1.442 0 0 1-.522.084c-.376 0-.664-.106-.864-.318-.196-.212-.294-.51-.294-.894v-1.2h-.576v-.678h.576v-.714l.906-.294v1.008h.774v.678h-.774zm4.288-.678V57h-.894v-.45a.957.957 0 0 1-.39.366 1.21 1.21 0 0 1-.57.132c-.264 0-.498-.064-.702-.192-.2-.128-.358-.31-.474-.546a1.937 1.937 0 0 1-.168-.828c0-.312.056-.59.168-.834.116-.244.276-.432.48-.564.204-.136.436-.204.696-.204.212 0 .402.046.57.138a.999.999 0 0 1 .39.372v-.432h.894zm-1.59 2.4c.224 0 .396-.076.516-.228.12-.152.18-.372.18-.66 0-.288-.06-.508-.18-.66-.12-.156-.292-.234-.516-.234a.623.623 0 0 0-.522.24c-.124.16-.186.382-.186.666 0 .284.06.502.18.654.124.148.3.222.528.222zm4.091-2.472c.128 0 .236.02.324.06l-.006.828a1.056 1.056 0 0 0-.444-.102c-.24 0-.424.066-.552.198-.124.128-.186.308-.186.54V57h-.906v-2.172c0-.324-.016-.614-.048-.87h.852l.06.522a.881.881 0 0 1 .354-.438 1.01 1.01 0 0 1 .552-.156zm.69-1.302h.907V57h-.906v-4.416zm1.647 1.374h.906V57h-.906v-3.042zm.936-1.428v.852h-.966v-.852h.966zm2.589 1.35c.72 0 1.08.426 1.08 1.278V57h-.906v-1.8c0-.212-.04-.366-.12-.462-.076-.1-.198-.15-.366-.15-.2 0-.36.064-.48.192s-.18.3-.18.516V57h-.906v-2.172c0-.324-.016-.614-.048-.87h.852l.06.48c.108-.18.248-.318.42-.414a1.22 1.22 0 0 1 .594-.144zm4.88.078v2.904c0 .484-.14.852-.42 1.104-.28.252-.688.378-1.224.378-.484 0-.904-.094-1.26-.282l.138-.672c.368.184.732.276 1.092.276.26 0 .454-.062.582-.186.128-.12.192-.304.192-.552V56.4a1.15 1.15 0 0 1-.972.516c-.264 0-.498-.062-.702-.186a1.323 1.323 0 0 1-.48-.534 1.761 1.761 0 0 1-.174-.798c0-.3.058-.564.174-.792.116-.232.276-.41.48-.534.204-.128.438-.192.702-.192.212 0 .404.046.576.138a.989.989 0 0 1 .396.372v-.432h.9zm-1.608 2.268c.22 0 .392-.072.516-.216.128-.148.192-.352.192-.612 0-.256-.062-.456-.186-.6-.124-.148-.298-.222-.522-.222-.224 0-.4.074-.528.222-.128.144-.192.344-.192.6s.064.458.192.606c.128.148.304.222.528.222z" fill="#fff"/><path d="M67.922 27.514a.938.938 0 1 0 0-1.876.938.938 0 0 0 0 1.876z" fill="#6C63FF"/><path d="M118.903 77.926h-8.931v-.922c0-.05-.057-.091-.127-.091h-3.062c-.07 0-.128.04-.128.091v.922h-1.913v-.922c0-.05-.057-.091-.128-.091h-3.062c-.07 0-.127.04-.127.091v.922h-1.914v-.922c0-.05-.057-.091-.127-.091h-3.062c-.07 0-.128.04-.128.091v.922h-1.913v-.922c0-.05-.058-.091-.128-.091h-3.062c-.07 0-.127.04-.127.091v.922H89.05v-.922c0-.05-.057-.091-.128-.091h-3.061c-.07 0-.128.04-.128.091v.922h-1.914v-.922c0-.05-.057-.091-.127-.091H80.63c-.07 0-.128.04-.128.091v.922H78.59v-.922c0-.05-.057-.091-.128-.091H54.477c-.07 0-.127.04-.127.091v.922h-1.914v-.922c0-.05-.057-.091-.128-.091h-3.062c-.07 0-.127.04-.127.091v.922h-1.914v-.922c0-.05-.057-.091-.127-.091h-3.062c-.07 0-.128.04-.128.091v.922h-1.913v-.922c0-.05-.057-.091-.128-.091h-3.062c-.07 0-.127.04-.127.091v.922h-1.914v-.922c0-.05-.057-.091-.127-.091h-3.062c-.07 0-.128.04-.128.091v.922h-1.913v-.922c0-.05-.058-.091-.128-.091h-3.062c-.07 0-.128.04-.128.091v.922h-1.913v-.922c0-.05-.057-.091-.128-.091h-3.062c-.07 0-.127.04-.127.091v.922h-5.869c-1.69 0-3.061.984-3.061 2.199v.994c0 1.214 1.37 2.199 3.062 2.199h101.805c1.691 0 3.061-.985 3.061-2.2v-.993c0-1.215-1.37-2.2-3.061-2.2z" fill="#3F3D56"/><path d="M57.618 59.682H31.26a.209.209 0 0 1-.208-.207.207.207 0 0 1 .208-.207h26.357a.207.207 0 0 1 .08.399.209.209 0 0 1-.08.015z" fill="#F2F2F2"/><path d="M102.342 38.639H69.759a.622.622 0 0 0-.623.622v31.306c0 .343.279.622.623.622h32.583a.623.623 0 0 0 .623-.622V39.26a.622.622 0 0 0-.623-.622z" fill="#fff"/><path d="M86.668 63.67c4.753 0 8.606-3.842 8.606-8.582s-3.853-8.581-8.606-8.581c-4.754 0-8.607 3.842-8.607 8.581 0 4.74 3.853 8.582 8.606 8.582z" fill="#6C63FF"/><path d="M88.023 55.373v-4.734h-2.445v4.734h-1.142l1.182 2.041 1.182 2.042 1.183-2.042 1.182-2.041h-1.142z" fill="#fff"/></g><defs><clipPath id="a"><path fill="#fff" d="M0 0h136v108H0z"/></clipPath></defs></svg>