<svg width="136" height="108" fill="none" xmlns="http://www.w3.org/2000/svg"><g clip-path="url(#a)"><path d="M4.449 70.396a.206.206 0 0 1-.044-.086 64.955 64.955 0 0 1 1.38-35.455A65.014 65.014 0 0 1 25.59 5.403 65.113 65.113 0 0 1 57.928-9.275a65.144 65.144 0 0 1 35.235 4.468.207.207 0 1 1-.163.381c-22.716-9.65-48.492-5.716-67.27 10.264C7.065 21.72-.95 46.388 4.808 70.213a.207.207 0 0 1-.36.183ZM42.388 114.888a.206.206 0 0 1 .102-.334.205.205 0 0 1 .136.008c22.63 9.468 48.283 5.483 66.947-10.399 18.955-16.13 27.004-40.926 21.007-64.71a.207.207 0 0 1 .368-.174.219.219 0 0 1 .035.072 64.109 64.109 0 0 1-1.066 35.056 65.468 65.468 0 0 1-20.075 30.071 65.122 65.122 0 0 1-67.376 10.467.209.209 0 0 1-.078-.057Z" fill="#E6E6E6"/><path d="M37.592 118.568a.208.208 0 0 1 .023-.292l98.043-83.434a.207.207 0 1 1 .269.315l-98.043 83.435a.212.212 0 0 1-.229.027.215.215 0 0 1-.063-.051ZM.05 74.542a.207.207 0 0 1 .023-.292L98.116-9.185a.208.208 0 0 1 .27.316L.341 74.565a.207.207 0 0 1-.292-.023Z" fill="#E6E6E6"/><path d="M37.592 118.568a.208.208 0 0 1 .023-.292l98.043-83.434a.207.207 0 1 1 .269.315l-98.043 83.435a.212.212 0 0 1-.229.027.215.215 0 0 1-.063-.051Z" fill="#E6E6E6"/><path d="M114.627 24.389H76.681v-.199a.583.583 0 0 0-.583-.583h-16.04a.584.584 0 0 0-.583.583v.199H21.373a2.568 2.568 0 0 0-2.567 2.564V78.86a2.563 2.563 0 0 0 2.567 2.564h93.254a2.567 2.567 0 0 0 2.567-2.564V26.953a2.565 2.565 0 0 0-2.567-2.564Z" fill="#3F3D56"/><path d="M23.415 29.846a.241.241 0 0 0-.24.24v49.235a.24.24 0 0 0 .24.24h89.171a.24.24 0 0 0 .24-.24V30.086a.24.24 0 0 0-.24-.24H23.415Z" fill="#6C63FF"/><path d="M33.432 50v-4.23h1.974c.476 0 .836.116 1.08.348.248.228.372.542.372.942 0 .396-.124.712-.372.948-.244.232-.604.348-1.08.348h-1.038V50h-.936Zm.936-2.37h.918c.224 0 .39-.05.498-.15.112-.1.168-.24.168-.42s-.056-.318-.168-.414c-.108-.1-.274-.15-.498-.15h-.918v1.134Zm4.1 2.436c-.264 0-.496-.064-.696-.192-.2-.128-.356-.31-.468-.546a1.973 1.973 0 0 1-.168-.852c0-.328.056-.61.168-.846.112-.236.268-.416.468-.54.2-.128.432-.192.696-.192.244 0 .462.06.654.18a.812.812 0 0 1 .384.474h-.066l.072-.594h.87l-.036.402a6.447 6.447 0 0 0-.012.39V50h-.9l-.006-.57h.072a.845.845 0 0 1-.384.462 1.228 1.228 0 0 1-.648.174Zm.276-.684a.634.634 0 0 0 .504-.222c.128-.148.192-.376.192-.684 0-.308-.064-.534-.192-.678a.642.642 0 0 0-.504-.216.642.642 0 0 0-.504.216c-.128.144-.192.37-.192.678 0 .308.062.536.186.684a.64.64 0 0 0 .51.222Zm2.327.618v-2.238c0-.132-.004-.266-.012-.402a4.419 4.419 0 0 0-.03-.402h.87l.102.888h-.138a1.52 1.52 0 0 1 .192-.534.89.89 0 0 1 .336-.312c.136-.068.29-.102.462-.102a1.057 1.057 0 0 1 .312.042l-.006.798a1.062 1.062 0 0 0-.432-.084.837.837 0 0 0-.42.096.608.608 0 0 0-.246.282 1.162 1.162 0 0 0-.078.45V50h-.912Zm3.626.066c-.264 0-.496-.064-.696-.192-.2-.128-.356-.31-.468-.546a1.973 1.973 0 0 1-.168-.852c0-.328.056-.61.168-.846.112-.236.268-.416.468-.54.2-.128.432-.192.696-.192.244 0 .462.06.654.18a.812.812 0 0 1 .384.474h-.066l.072-.594h.87l-.036.402a6.447 6.447 0 0 0-.012.39V50h-.9l-.006-.57h.072a.845.845 0 0 1-.384.462 1.228 1.228 0 0 1-.648.174Zm.276-.684a.634.634 0 0 0 .504-.222c.128-.148.192-.376.192-.684 0-.308-.064-.534-.192-.678a.642.642 0 0 0-.504-.216.642.642 0 0 0-.504.216c-.128.144-.192.37-.192.678 0 .308.062.536.186.684a.64.64 0 0 0 .51.222Zm2.333.618v-4.416h.906V50h-.906Zm1.646 0v-4.416h.906V50h-.906Zm3.177.066c-.528 0-.94-.142-1.236-.426-.296-.284-.444-.67-.444-1.158 0-.316.062-.592.186-.828.128-.236.304-.42.528-.552.228-.136.494-.204.798-.204.3 0 .55.064.75.192.204.128.356.308.456.54.104.228.156.494.156.798v.21h-2.13v-.45h1.47l-.102.084c0-.252-.052-.442-.156-.57-.1-.132-.246-.198-.438-.198a.577.577 0 0 0-.492.234c-.112.156-.168.38-.168.672v.096c0 .296.072.516.216.66.148.144.36.216.636.216.164 0 .318-.02.462-.06.148-.044.288-.112.42-.204l.252.6a1.71 1.71 0 0 1-.528.258c-.196.06-.408.09-.636.09ZM53.897 50v-4.416h.906V50h-.906Zm-19.061 6.066c-.324 0-.608-.064-.852-.192a1.34 1.34 0 0 1-.564-.552 1.742 1.742 0 0 1-.198-.852c0-.332.066-.614.198-.846.136-.236.324-.416.564-.54.244-.124.528-.186.852-.186.204 0 .402.03.594.09a1.3 1.3 0 0 1 .48.252l-.264.624a.953.953 0 0 0-.348-.204 1.057 1.057 0 0 0-.372-.072c-.244 0-.434.076-.57.228-.136.152-.204.372-.204.66 0 .288.068.508.204.66.136.152.326.228.57.228.116 0 .238-.022.366-.066.132-.044.25-.11.354-.198l.264.618c-.128.108-.29.194-.486.258a1.96 1.96 0 0 1-.588.09Zm2.97 0c-.324 0-.606-.064-.846-.192a1.409 1.409 0 0 1-.552-.552 1.75 1.75 0 0 1-.192-.846c0-.324.064-.604.192-.84.132-.236.316-.418.552-.546.24-.128.522-.192.846-.192.324 0 .606.064.846.192s.424.31.552.546c.132.236.198.516.198.84 0 .328-.066.61-.198.846-.128.236-.312.42-.552.552-.24.128-.522.192-.846.192Zm0-.684a.6.6 0 0 0 .492-.222c.124-.148.186-.376.186-.684 0-.308-.062-.534-.186-.678a.606.606 0 0 0-.492-.216.624.624 0 0 0-.498.216c-.12.144-.18.37-.18.678 0 .308.06.536.18.684.124.148.29.222.498.222Zm2.175.618v-2.238c0-.132-.004-.266-.012-.402a4.419 4.419 0 0 0-.03-.402h.87l.102.888h-.138a1.52 1.52 0 0 1 .192-.534.89.89 0 0 1 .336-.312c.136-.068.29-.102.462-.102a1.057 1.057 0 0 1 .312.042l-.006.798a1.062 1.062 0 0 0-.432-.084.837.837 0 0 0-.42.096.608.608 0 0 0-.246.282 1.162 1.162 0 0 0-.078.45V56h-.912Zm2.473 1.296V53.75a6.447 6.447 0 0 0-.048-.792h.87l.072.594h-.066c.06-.2.186-.358.378-.474.192-.12.412-.18.66-.18.264 0 .496.064.696.192.2.124.356.304.468.54a1.9 1.9 0 0 1 .174.846c0 .332-.058.616-.174.852a1.282 1.282 0 0 1-.468.546c-.2.128-.432.192-.696.192a1.24 1.24 0 0 1-.654-.174.85.85 0 0 1-.378-.462h.072v1.866h-.906Zm1.59-1.914a.64.64 0 0 0 .51-.222c.128-.148.192-.376.192-.684 0-.308-.064-.534-.192-.678a.649.649 0 0 0-.51-.216.66.66 0 0 0-.51.216c-.128.144-.192.37-.192.678 0 .308.064.536.192.684a.652.652 0 0 0 .51.222Zm3.641.684c-.324 0-.606-.064-.846-.192a1.409 1.409 0 0 1-.552-.552 1.75 1.75 0 0 1-.192-.846c0-.324.064-.604.192-.84.132-.236.316-.418.552-.546.24-.128.522-.192.846-.192.324 0 .606.064.846.192s.424.31.552.546c.132.236.198.516.198.84 0 .328-.066.61-.198.846-.128.236-.312.42-.552.552-.24.128-.522.192-.846.192Zm0-.684a.6.6 0 0 0 .492-.222c.124-.148.186-.376.186-.684 0-.308-.062-.534-.186-.678a.606.606 0 0 0-.492-.216.624.624 0 0 0-.498.216c-.12.144-.18.37-.18.678 0 .308.06.536.18.684.124.148.29.222.498.222ZM49.86 56v-2.238c0-.132-.004-.266-.012-.402a4.419 4.419 0 0 0-.03-.402h.87l.102.888h-.138a1.52 1.52 0 0 1 .192-.534.89.89 0 0 1 .336-.312c.136-.068.29-.102.462-.102a1.057 1.057 0 0 1 .312.042l-.006.798a1.062 1.062 0 0 0-.432-.084.837.837 0 0 0-.42.096.608.608 0 0 0-.246.282 1.162 1.162 0 0 0-.078.45V56h-.912Zm3.626.066c-.264 0-.496-.064-.696-.192-.2-.128-.356-.31-.468-.546a1.973 1.973 0 0 1-.168-.852c0-.328.056-.61.168-.846.112-.236.268-.416.468-.54.2-.128.432-.192.696-.192.244 0 .462.06.654.18a.812.812 0 0 1 .384.474h-.066l.072-.594h.87l-.036.402a6.447 6.447 0 0 0-.012.39V56h-.9l-.006-.57h.072a.845.845 0 0 1-.384.462 1.228 1.228 0 0 1-.648.174Zm.276-.684a.634.634 0 0 0 .504-.222c.128-.148.192-.376.192-.684 0-.308-.064-.534-.192-.678a.642.642 0 0 0-.504-.216.642.642 0 0 0-.504.216c-.128.144-.192.37-.192.678 0 .308.062.536.186.684a.64.64 0 0 0 .51.222Z" fill="#fff"/><path d="M67.922 27.514a.938.938 0 1 0 0-1.876.938.938 0 0 0 0 1.876Z" fill="#6C63FF"/><path d="M118.903 77.926h-8.931v-.922c0-.05-.057-.091-.127-.091h-3.062c-.07 0-.128.04-.128.091v.922h-1.913v-.922c0-.05-.057-.091-.128-.091h-3.062c-.07 0-.127.04-.127.091v.922h-1.914v-.922c0-.05-.057-.091-.127-.091h-3.062c-.07 0-.128.04-.128.091v.922h-1.913v-.922c0-.05-.058-.091-.128-.091h-3.062c-.07 0-.127.04-.127.091v.922H89.05v-.922c0-.05-.057-.091-.128-.091h-3.061c-.07 0-.128.04-.128.091v.922h-1.914v-.922c0-.05-.057-.091-.127-.091H80.63c-.07 0-.128.04-.128.091v.922H78.59v-.922c0-.05-.057-.091-.128-.091H54.477c-.07 0-.127.04-.127.091v.922h-1.914v-.922c0-.05-.057-.091-.128-.091h-3.062c-.07 0-.127.04-.127.091v.922h-1.914v-.922c0-.05-.057-.091-.127-.091h-3.062c-.07 0-.128.04-.128.091v.922h-1.913v-.922c0-.05-.057-.091-.128-.091h-3.062c-.07 0-.127.04-.127.091v.922h-1.914v-.922c0-.05-.057-.091-.127-.091h-3.062c-.07 0-.128.04-.128.091v.922h-1.913v-.922c0-.05-.058-.091-.128-.091h-3.062c-.07 0-.128.04-.128.091v.922h-1.913v-.922c0-.05-.057-.091-.128-.091h-3.062c-.07 0-.127.04-.127.091v.922h-5.869c-1.69 0-3.061.984-3.061 2.199v.994c0 1.214 1.37 2.199 3.062 2.199h101.805c1.691 0 3.061-.985 3.061-2.2v-.993c0-1.215-1.37-2.2-3.061-2.2Z" fill="#3F3D56"/><path d="M57.618 59.682H31.26a.209.209 0 0 1-.208-.207.207.207 0 0 1 .208-.207h26.357a.207.207 0 0 1 .08.399.209.209 0 0 1-.08.015Z" fill="#F2F2F2"/><path d="M102.342 38.639H69.759a.622.622 0 0 0-.623.622v31.306c0 .343.279.622.623.622h32.583a.623.623 0 0 0 .623-.622V39.26a.622.622 0 0 0-.623-.622Z" fill="#fff"/><path d="M86.668 63.67c4.753 0 8.606-3.842 8.606-8.582s-3.853-8.581-8.606-8.581c-4.754 0-8.607 3.842-8.607 8.581 0 4.74 3.853 8.582 8.606 8.582Z" fill="#6C63FF"/><path d="M88.023 55.373v-4.734h-2.445v4.734h-1.142l1.182 2.041 1.182 2.042 1.183-2.042 1.182-2.041h-1.142Z" fill="#fff"/></g><defs><clipPath id="a"><path fill="#fff" d="M0 0h136v108H0z"/></clipPath></defs></svg>