<svg width="136" height="108" fill="none" xmlns="http://www.w3.org/2000/svg"><g clip-path="url(#a)"><path d="M4.449 70.396a.206.206 0 0 1-.044-.086 64.955 64.955 0 0 1 1.38-35.455A65.014 65.014 0 0 1 25.59 5.403 65.113 65.113 0 0 1 57.928-9.275a65.144 65.144 0 0 1 35.235 4.468.207.207 0 1 1-.163.381c-22.716-9.65-48.492-5.716-67.27 10.264C7.065 21.72-.95 46.388 4.808 70.213a.207.207 0 0 1-.36.183zM42.388 114.888a.206.206 0 0 1 .102-.334.205.205 0 0 1 .136.008c22.63 9.468 48.283 5.483 66.947-10.399 18.955-16.13 27.004-40.926 21.007-64.71a.207.207 0 0 1 .368-.174.219.219 0 0 1 .035.072 64.109 64.109 0 0 1-1.066 35.056 65.468 65.468 0 0 1-20.075 30.071 65.122 65.122 0 0 1-67.376 10.467.209.209 0 0 1-.078-.057z" fill="#E6E6E6"/><path d="M37.592 118.568a.208.208 0 0 1 .023-.292l98.043-83.434a.207.207 0 1 1 .269.315l-98.043 83.435a.212.212 0 0 1-.229.027.215.215 0 0 1-.063-.051zM.05 74.542a.207.207 0 0 1 .023-.292L98.116-9.185a.208.208 0 0 1 .27.316L.341 74.565a.207.207 0 0 1-.292-.023z" fill="#E6E6E6"/><path d="M37.592 118.568a.208.208 0 0 1 .023-.292l98.043-83.434a.207.207 0 1 1 .269.315l-98.043 83.435a.212.212 0 0 1-.229.027.215.215 0 0 1-.063-.051z" fill="#E6E6E6"/><path d="M114.627 24.389H76.681v-.199a.583.583 0 0 0-.583-.583h-16.04a.584.584 0 0 0-.583.583v.199H21.373a2.568 2.568 0 0 0-2.567 2.564V78.86a2.563 2.563 0 0 0 2.567 2.564h93.254a2.567 2.567 0 0 0 2.567-2.564V26.953a2.565 2.565 0 0 0-2.567-2.564z" fill="#3F3D56"/><path d="M23.415 29.846a.241.241 0 0 0-.24.24v49.235a.24.24 0 0 0 .24.24h89.171a.24.24 0 0 0 .24-.24V30.086a.24.24 0 0 0-.24-.24H23.415z" fill="#6C63FF"/><path d="M34.426 52.728h1.65c.468 0 .87.084 1.206.252.336.168.592.412.768.732.18.32.27.702.27 1.146 0 .448-.088.832-.264 1.152-.176.32-.432.566-.768.738-.336.168-.74.252-1.212.252h-1.65v-4.272zm1.59 3.516c.912 0 1.368-.462 1.368-1.386 0-.916-.456-1.374-1.368-1.374h-.654v2.76h.654zm2.979-2.286h.906V57h-.906v-3.042zm.936-1.428v.852h-.966v-.852h.966zm3.758 1.428V57h-.894v-.45a.957.957 0 0 1-.39.366 1.21 1.21 0 0 1-.57.132c-.264 0-.498-.064-.702-.192-.2-.128-.358-.31-.474-.546a1.937 1.937 0 0 1-.168-.828c0-.312.056-.59.168-.834.116-.244.276-.432.48-.564.204-.136.436-.204.696-.204.212 0 .402.046.57.138a.999.999 0 0 1 .39.372v-.432h.894zm-1.59 2.4c.224 0 .396-.076.516-.228.12-.152.18-.372.18-.66 0-.288-.06-.508-.18-.66-.12-.156-.292-.234-.516-.234a.623.623 0 0 0-.522.24c-.124.16-.186.382-.186.666 0 .284.06.502.18.654.124.148.3.222.528.222zm2.322-3.774h.906V57h-.906v-4.416zm4.376 2.97h-2.004c.016.284.09.492.222.624.132.128.328.192.588.192a1.492 1.492 0 0 0 .9-.306l.24.612a1.633 1.633 0 0 1-.54.276 2.21 2.21 0 0 1-.642.096c-.512 0-.914-.14-1.206-.42-.292-.284-.438-.67-.438-1.158 0-.308.062-.582.186-.822.128-.244.306-.432.534-.564.228-.136.486-.204.774-.204.428 0 .766.14 1.014.42.248.276.372.65.372 1.122v.132zm-1.362-1.038a.594.594 0 0 0-.42.15c-.104.1-.172.246-.204.438h1.206c-.048-.392-.242-.588-.582-.588zm5.033-.558a6.135 6.135 0 0 0-.054.87v3.468h-.906v-1.728a.93.93 0 0 1-.39.354c-.164.084-.35.126-.558.126-.264 0-.498-.064-.702-.192-.2-.128-.358-.31-.474-.546a1.937 1.937 0 0 1-.168-.828c0-.312.056-.59.168-.834.116-.244.276-.432.48-.564.204-.136.436-.204.696-.204.228 0 .43.052.606.156.18.104.31.244.39.42l.06-.498h.852zm-1.644 2.4c.224 0 .396-.076.516-.228.12-.152.18-.372.18-.66 0-.288-.06-.508-.18-.66-.12-.156-.292-.234-.516-.234a.623.623 0 0 0-.522.24c-.124.16-.186.382-.186.666 0 .284.06.502.18.654.124.148.3.222.528.222zm3.461-1.722v1.182c0 .168.044.292.132.372a.505.505 0 0 0 .342.114c.088 0 .188-.014.3-.042v.702a1.442 1.442 0 0 1-.522.084c-.376 0-.664-.106-.864-.318-.196-.212-.294-.51-.294-.894v-1.2h-.576v-.678h.576v-.714l.906-.294v1.008h.774v.678h-.774z" fill="#fff"/><path d="M67.922 27.514a.938.938 0 1 0 0-1.876.938.938 0 0 0 0 1.876z" fill="#6C63FF"/><path d="M118.903 77.926h-8.931v-.922c0-.05-.057-.091-.127-.091h-3.062c-.07 0-.128.04-.128.091v.922h-1.913v-.922c0-.05-.057-.091-.128-.091h-3.062c-.07 0-.127.04-.127.091v.922h-1.914v-.922c0-.05-.057-.091-.127-.091h-3.062c-.07 0-.128.04-.128.091v.922h-1.913v-.922c0-.05-.058-.091-.128-.091h-3.062c-.07 0-.127.04-.127.091v.922H89.05v-.922c0-.05-.057-.091-.128-.091h-3.061c-.07 0-.128.04-.128.091v.922h-1.914v-.922c0-.05-.057-.091-.127-.091H80.63c-.07 0-.128.04-.128.091v.922H78.59v-.922c0-.05-.057-.091-.128-.091H54.477c-.07 0-.127.04-.127.091v.922h-1.914v-.922c0-.05-.057-.091-.128-.091h-3.062c-.07 0-.127.04-.127.091v.922h-1.914v-.922c0-.05-.057-.091-.127-.091h-3.062c-.07 0-.128.04-.128.091v.922h-1.913v-.922c0-.05-.057-.091-.128-.091h-3.062c-.07 0-.127.04-.127.091v.922h-1.914v-.922c0-.05-.057-.091-.127-.091h-3.062c-.07 0-.128.04-.128.091v.922h-1.913v-.922c0-.05-.058-.091-.128-.091h-3.062c-.07 0-.128.04-.128.091v.922h-1.913v-.922c0-.05-.057-.091-.128-.091h-3.062c-.07 0-.127.04-.127.091v.922h-5.869c-1.69 0-3.061.984-3.061 2.199v.994c0 1.214 1.37 2.199 3.062 2.199h101.805c1.691 0 3.061-.985 3.061-2.2v-.993c0-1.215-1.37-2.2-3.061-2.2z" fill="#3F3D56"/><path d="M57.618 59.682H31.26a.209.209 0 0 1-.208-.207.207.207 0 0 1 .208-.207h26.357a.207.207 0 0 1 .08.399.209.209 0 0 1-.08.015z" fill="#F2F2F2"/><path d="M102.342 38.639H69.759a.622.622 0 0 0-.623.622v31.306c0 .343.279.622.623.622h32.583a.623.623 0 0 0 .623-.622V39.26a.622.622 0 0 0-.623-.622z" fill="#fff"/><path d="M86.668 63.67c4.753 0 8.606-3.842 8.606-8.582s-3.853-8.581-8.606-8.581c-4.754 0-8.607 3.842-8.607 8.581 0 4.74 3.853 8.582 8.606 8.582z" fill="#6C63FF"/><path d="M88.023 55.373v-4.734h-2.445v4.734h-1.142l1.182 2.041 1.182 2.042 1.183-2.042 1.182-2.041h-1.142z" fill="#fff"/></g><defs><clipPath id="a"><path fill="#fff" d="M0 0h136v108H0z"/></clipPath></defs></svg>