<svg width="136" height="98" fill="none" xmlns="http://www.w3.org/2000/svg"><g clip-path="url(#a)"><path d="M41.528 13.866c.514-1.637 1.68-3.139 3.295-3.692 1.615-.554 3.98.29 5.193 1.5 2.22 2.214 2.762 9.822 1.236 12.226-.303-.016-1.35-.028-1.657-.04l-.434-1.448v1.434c-2.397-.074-4.893-.027-7.39.02-.223-1.701-.756-8.363-.243-10z" fill="#2F2E41"/><path d="M65.256 39.2a1.489 1.489 0 0 1-1.22-1.93l-4.23-3.177 2.587-.928 3.62 3.159a1.497 1.497 0 0 1-.757 2.875z" fill="#9E616A"/><path d="m48.45 22.552.405-1.434s1.01-.329 2.732.921c1.722 1.25 12.354 12.41 12.354 12.41l-3.165.443-9.674-6.917-2.652-5.424z" fill="#E6E6E6"/><path d="M114.687 87.292c6.475-3.31 11.63-9.944 11.488-17.218a33.483 33.483 0 0 1-21.617 7.856c-3.049-.018-6.439-.355-8.808 1.565-1.475 1.195-2.248 3.088-2.476 4.973-.23 1.885.028 3.791.284 5.672l-.16.447c7.254.498 14.814.014 21.289-3.295z" fill="#F0F0F0"/><path d="M126.023 70.056c-2.82 5.248-7.334 9.629-12.715 12.2-1.164.557-2.392 1.02-3.677 1.188a7.066 7.066 0 0 1-3.683-.534c-1.089-.448-2.151-1.033-3.331-1.208-1.242-.185-2.431.222-3.394 1.008-1.18.962-1.943 2.29-2.644 3.616-.779 1.47-1.565 3.011-2.94 4.017-.167.121.032.373.198.251 2.393-1.748 2.97-4.9 4.93-7.015.914-.987 2.131-1.704 3.514-1.593 1.21.097 2.306.699 3.405 1.162 1.154.486 2.324.756 3.582.656 1.287-.102 2.536-.517 3.709-1.041a27.772 27.772 0 0 0 7.241-4.792 29.149 29.149 0 0 0 6.103-7.798c.098-.181-.201-.297-.298-.117z" fill="#fff"/><path d="M115.101 81.513a4.295 4.295 0 0 0 5.346 1.538c.187-.085.063-.381-.125-.296a3.974 3.974 0 0 1-4.969-1.44c-.114-.173-.365.026-.252.198zM106.47 83.21a8.286 8.286 0 0 1 3.22-5.107c.166-.122-.032-.374-.198-.252a8.62 8.62 0 0 0-3.34 5.321c-.038.203.28.24.318.038zM122.295 75.563a2.44 2.44 0 0 1-.677-2.208c.041-.202-.277-.239-.318-.038a2.734 2.734 0 0 0 .743 2.444.167.167 0 0 0 .225.027.162.162 0 0 0 .027-.225z" fill="#fff"/><path d="m106.903 54.748-.09.378a32.122 32.122 0 0 1-1.607 4.943c-.05.125-.102.25-.155.373a33.802 33.802 0 0 1-6.93 10.326 32.79 32.79 0 0 1-3.754 3.276c-1.84 1.375-3.945 2.719-5.188 4.567-.132.191-.251.39-.359.597l4.047 11.15c.022.02.041.042.063.063l.141.453c.073-.047.147-.097.22-.143l.124-.083c.028-.019.056-.038.082-.053a.413.413 0 0 0 .025-.018c.026-.015.049-.032.072-.046.415-.278.828-.558 1.24-.842l.004-.005c3.133-2.172 6.113-4.626 8.625-7.454.076-.085.154-.171.228-.261a31.306 31.306 0 0 0 3.046-4.1c.492-.794.943-1.612 1.352-2.452a23.045 23.045 0 0 0 2.087-6.886c.658-4.766-.214-9.69-3.054-13.495a14.612 14.612 0 0 0-.219-.288z" fill="#F0F0F0"/><path d="M106.77 54.824c.906 5.89-.063 12.107-2.813 17.403-.594 1.145-1.296 2.255-2.221 3.163a7.07 7.07 0 0 1-3.262 1.793c-1.14.299-2.339.472-3.386 1.043-1.103.6-1.807 1.642-2.103 2.85-.363 1.479-.174 3 .063 4.48.264 1.644.563 3.347.07 4.979-.06.197.25.279.31.081.858-2.838-.577-5.701-.285-8.57.136-1.34.676-2.646 1.848-3.391 1.024-.652 2.261-.832 3.417-1.124 1.214-.307 2.311-.797 3.255-1.634.966-.857 1.714-1.941 2.335-3.066a27.836 27.836 0 0 0 2.899-8.19c.624-3.266.686-6.616.182-9.903-.031-.204-.34-.116-.309.086z" fill="#fff"/><path d="M104.942 70.553a4.29 4.29 0 0 0 5.193-1.993c.099-.181-.178-.343-.277-.161a3.974 3.974 0 0 1-4.835 1.844c-.194-.07-.274.24-.081.31zM99.072 77.108a8.292 8.292 0 0 1-.502-6.017c.06-.198-.25-.28-.31-.082a8.625 8.625 0 0 0 .535 6.26c.091.186.368.024.277-.16zM107.107 61.467a2.426 2.426 0 0 1-1.869-1.355c-.089-.186-.365-.023-.277.162a2.728 2.728 0 0 0 2.064 1.503.165.165 0 0 0 .196-.114.166.166 0 0 0-.017-.122.16.16 0 0 0-.097-.074z" fill="#fff"/><path d="M36.81 24.675c-5.547-4.704-13.651-6.907-20.304-3.972a33.513 33.513 0 0 1 15.576 16.934c1.159 2.822 2.154 6.082 4.838 7.53 1.67.902 3.713.886 5.54.37 1.825-.514 3.484-1.486 5.12-2.448l.473-.026c-2.337-6.89-5.697-13.684-11.243-18.388z" fill="#F0F0F0"/><path d="M16.549 20.85c5.925.581 11.704 3.061 16.15 7.039.96.86 1.86 1.816 2.511 2.938a7.082 7.082 0 0 1 .928 3.607c.006 1.178-.123 2.385.17 3.541.308 1.219 1.142 2.16 2.238 2.746 1.341.718 2.86.911 4.352 1.048 1.657.152 3.38.284 4.837 1.167.177.107.332-.173.156-.28-2.535-1.536-5.662-.854-8.368-1.848-1.262-.464-2.393-1.312-2.824-2.632-.377-1.155-.244-2.399-.24-3.592.003-1.253-.2-2.438-.777-3.561-.59-1.15-1.454-2.143-2.389-3.023a27.774 27.774 0 0 0-7.21-4.84 29.121 29.121 0 0 0-9.541-2.631c-.205-.02-.197.3.007.32z" fill="#fff"/><path d="M31.322 26.52a4.302 4.302 0 0 0-.642-5.53c-.151-.14-.376.088-.225.229a3.982 3.982 0 0 1 .587 5.145c-.116.17.165.326.28.156zM36.213 33.836a8.273 8.273 0 0 1-5.95-1.005c-.177-.107-.332.174-.156.28a8.606 8.606 0 0 0 6.194 1.033c.202-.043.113-.351-.088-.308zM23.063 22.17a2.434 2.434 0 0 1-1.774 1.475c-.203.04-.114.349.087.309a2.723 2.723 0 0 0 1.967-1.629.166.166 0 0 0-.062-.218.161.161 0 0 0-.218.063z" fill="#fff"/><path d="M9.804 44.407c.128-.021.255-.043.384-.063a31.988 31.988 0 0 1 5.177-.421 33.736 33.736 0 0 1 12.595 2.42 32.77 32.77 0 0 1 4.468 2.203c1.976 1.17 4.027 2.595 6.21 3.03.227.048.457.082.688.101l8.72-8.034.035-.083.362-.305-.215-.147-.125-.083c-.028-.019-.056-.037-.08-.055a.435.435 0 0 0-.026-.017l-.071-.049c-.416-.276-.834-.549-1.254-.82-.002-.002-.002-.002-.006-.002-3.21-2.056-6.621-3.861-10.197-5.092-.108-.037-.217-.076-.329-.109a31.257 31.257 0 0 0-4.954-1.233 27.622 27.622 0 0 0-2.782-.303 22.98 22.98 0 0 0-7.153.727c-4.648 1.229-8.851 3.932-11.265 8.02a17.04 17.04 0 0 0-.182.315z" fill="#F0F0F0"/><path d="M9.926 44.5c5.081-3.107 11.187-4.608 17.13-4.11 1.284.107 2.578.328 3.772.831a7.072 7.072 0 0 1 2.91 2.321c.715.938 1.337 1.979 2.267 2.726.98.787 2.21 1.035 3.44.843 1.502-.234 2.831-.996 4.105-1.785 1.414-.877 2.87-1.81 4.564-1.983.205-.02.16-.339-.045-.318-2.948.301-5.034 2.73-7.793 3.567-1.287.39-2.7.395-3.838-.4-.995-.695-1.638-1.768-2.353-2.723-.751-1.003-1.625-1.826-2.762-2.376-1.162-.562-2.45-.834-3.726-.974a27.755 27.755 0 0 0-8.668.48 29.125 29.125 0 0 0-9.202 3.649c-.175.107.024.358.199.252z" fill="#fff"/><path d="M25.133 40.126a4.3 4.3 0 0 0-3.84-4.028c-.205-.021-.247.297-.041.318a3.976 3.976 0 0 1 3.563 3.754c.011.206.328.16.317-.044zM33.439 43.02a8.277 8.277 0 0 1-5.355 2.782c-.205.022-.16.34.044.318a8.61 8.61 0 0 0 5.567-2.907c.135-.156-.121-.349-.256-.193zM15.921 41.629a2.436 2.436 0 0 1-.529 2.247c-.137.154.12.347.256.194a2.729 2.729 0 0 0 .59-2.486.166.166 0 0 0-.18-.136.16.16 0 0 0-.137.18zM95.738 62.83a1.717 1.717 0 0 0-1.523-1.609l-24.79-2.8a1.716 1.716 0 0 0-.706.068l-5.687 1.782-3.262 1.023-6.022 1.887a1.72 1.72 0 0 0-1.203 1.729l1.017 24.18a1.73 1.73 0 0 0 1.444 1.61l25.31.056a1.714 1.714 0 0 0 .872-.086l14.833-.102a1.712 1.712 0 0 0 1.118-1.714L95.738 62.83z" fill="#fff"/><path d="m55.245 89.214 25.31.054a.214.214 0 0 0 .11-.01l14.83-.102a.213.213 0 0 0 .14-.214l-1.398-26.025a.218.218 0 0 0-.19-.201l-.167-.02-24.623-2.778a.21.21 0 0 0-.089.008l-13.87 4.347-1.1.344a.217.217 0 0 0-.15.216l1.016 24.178a.215.215 0 0 0 .18.203z" fill="#6C63FF"/><path d="m55.298 64.273 13.87-4.347a.211.211 0 0 1 .089-.008l24.623 2.778-5.93 1.931-2.22.722-6.315 2.055a.457.457 0 0 1-.057.012.891.891 0 0 0-.039-.003l-24.02-3.14z" fill="#2F2E41"/><path d="m55.006 90.702 25.31.054c.12.02.24.025.36.017.176-.008.35-.042.514-.102l14.83-.102a1.716 1.716 0 0 0 1.119-1.715L95.737 62.83a1.732 1.732 0 0 0-.355-.953 1.719 1.719 0 0 0-1.167-.656l-.03-.004-24.758-2.796c-.101-.01-.203-.013-.304-.009-.138.01-.273.036-.405.078l-5.686 1.78-3.262 1.025-6.023 1.886a1.705 1.705 0 0 0-1.095 1.041 1.722 1.722 0 0 0-.106.686l1.014 24.18a1.733 1.733 0 0 0 1.446 1.614zm-2.032-25.814a1.276 1.276 0 0 1 .166-.693 1.278 1.278 0 0 1 .735-.603l10.14-3.176 4.832-1.517c.033-.01.064-.017.094-.025a1.21 1.21 0 0 1 .227-.031.99.99 0 0 1 .208.005l24.788 2.8.057.008c.227.034.44.13.617.276a1.266 1.266 0 0 1 .471.92l1.4 26.027a1.289 1.289 0 0 1-.837 1.285l-14.832.102a1.3 1.3 0 0 1-.656.063l-25.31-.052a1.298 1.298 0 0 1-1.083-1.208l-1.017-24.181z" fill="#3F3D56"/><path d="M80.753 90.822a.215.215 0 0 1-.225-.202l-1.395-23.407a.215.215 0 0 1 .202-.228h.002a.216.216 0 0 1 .225.202l1.395 23.407a.215.215 0 0 1-.202.228h-.002zM89.504 89.238l-2.428-.016-2.305-24.013s2.917-1.195 3.045-.991c.078.12 1.68 24.871 1.688 25.02zM94.965 62.137l-.176-.144a1.2 1.2 0 0 0-.632-.266l-24.788-2.8a1.248 1.248 0 0 0-.41.023l-.092.023-.02-.371 4.112-4.552a2.366 2.366 0 0 1 1.954-.767l16.758 1.484a2.344 2.344 0 0 1 2.093 1.846l1.2 5.524z" fill="#3F3D56"/><path d="M57.498 80.451a.357.357 0 0 1 .08-.004l7.63.463a.36.36 0 0 1-.044.72l-7.629-.462a.36.36 0 0 1-.036-.717zM57.626 83.133a.363.363 0 0 1 .08-.004l7.63.463a.36.36 0 0 1-.044.72l-7.63-.462a.361.361 0 0 1-.036-.717zM94.117 51.106 79.4 59.125 73.354 48.01l14.717-8.019 6.046 11.114z" fill="#fff"/><path d="M94.117 51.106 79.4 59.125 73.354 48.01l14.717-8.019 6.046 11.114zm-14.593 7.6 14.175-7.724-5.752-10.571-14.175 7.723 5.752 10.572z" fill="#E6E6E6"/><path d="M87.776 44.077 76.942 49.98l.393.723 10.834-5.904-.393-.722zM88.956 46.245l-10.834 5.903.393.723 10.834-5.903-.393-.723zM90.136 48.413l-10.834 5.904.393.723 10.834-5.904-.393-.723z" fill="#6C63FF"/><path d="M60.582 31.312c-.152-.17-.204-.188-.258-.15l-8.374 5.782c-.054.037-.057.091.047.292.273.424.608.924.974 1.456L63.746 54.32c1.01 1.465 1.887 2.618 1.956 2.571l8.374-5.783c.069-.047-.697-1.277-1.707-2.742l-10.775-15.63c-.366-.53-.714-1.02-1.012-1.425z" fill="#fff"/><path d="M61.697 32.775c-.19-.267-.371-.515-.533-.73a18.032 18.032 0 0 0-.477-.611 3.496 3.496 0 0 0-.105-.122c-.152-.17-.204-.188-.258-.15l-8.374 5.782c-.054.037-.057.091.047.292.02.04.047.09.078.145.094.165.228.387.401.662.29.458.67 1.03 1.07 1.611l10.232 14.842c.465.674.915 1.3 1.269 1.761.588.77.63.74.696.695l8.375-5.783c.065-.045.108-.075-.402-.898a46.85 46.85 0 0 0-1.195-1.812L62.289 33.617c-.2-.29-.4-.576-.592-.842zm-8.03 6.796c-.4-.58-.78-1.15-1.067-1.605a16.407 16.407 0 0 1-.397-.657 2 2 0 0 1-.136-.269l8.305-5.735c.073.07.14.143.203.223.06.072.13.158.209.26.079.1.166.216.264.344.323.43.72.988 1.121 1.568l10.232 14.842c.971 1.409 1.53 2.337 1.6 2.53l-8.306 5.736c-.157-.133-.826-.986-1.797-2.395L53.666 39.571z" fill="#E4E4E4"/><path d="m58.791 36.12-1.585 1.094a.365.365 0 0 0-.093.507l.947 1.375a.365.365 0 0 0 .507.093l1.586-1.095a.366.366 0 0 0 .093-.507l-.948-1.375a.365.365 0 0 0-.507-.093z" fill="#6C63FF"/><path d="m62.741 37.631-5.526 3.816a.165.165 0 1 0 .188.273l5.526-3.816a.165.165 0 0 0-.004-.275.165.165 0 0 0-.184.002zM59.755 40.636l-2.1 1.45a.165.165 0 1 0 .188.272l2.1-1.45a.166.166 0 0 0-.188-.272z" fill="#E4E4E4"/><path d="m62.887 42.06-1.585 1.096a.365.365 0 0 0-.093.507l.947 1.374a.365.365 0 0 0 .507.093l1.586-1.095a.366.366 0 0 0 .093-.507l-.948-1.374a.365.365 0 0 0-.507-.093z" fill="#6C63FF"/><path d="m66.838 43.573-5.526 3.816a.165.165 0 0 0 .187.272l5.526-3.815a.166.166 0 0 0 .043-.23.167.167 0 0 0-.171-.068.167.167 0 0 0-.06.025zM63.85 46.578l-2.098 1.45a.165.165 0 0 0 .188.272l2.099-1.45a.166.166 0 0 0-.188-.272z" fill="#E4E4E4"/><path d="m66.984 48.002-1.586 1.095a.365.365 0 0 0-.093.507l.948 1.375a.365.365 0 0 0 .506.093l1.586-1.095a.366.366 0 0 0 .093-.507l-.948-1.375a.364.364 0 0 0-.506-.093z" fill="#6C63FF"/><path d="m70.934 49.515-5.526 3.815a.166.166 0 0 0-.043.23.167.167 0 0 0 .171.069.167.167 0 0 0 .06-.026l5.525-3.816a.165.165 0 1 0-.187-.272zM67.947 52.52l-2.099 1.449a.165.165 0 1 0 .188.272l2.099-1.449a.165.165 0 0 0-.188-.273z" fill="#E4E4E4"/><path d="M85.525 48.29c-.033-.814-.083-1.339-.142-1.339h-21.37c-.059 0-.11.525-.142 1.338a54.116 54.116 0 0 0-.037 2.04v14.903l.087.01 3.514.459 3.661.48 1.673.218 3.578.468 2.972.388.04.003.055-.01 1.17-.382 1.349-.439 3.542-1.153.087-.028V50.33c0-.766-.015-1.474-.037-2.04z" fill="#fff"/><path d="M85.596 47.937a13.29 13.29 0 0 0-.035-.518 2.69 2.69 0 0 0-.06-.422c-.034-.133-.074-.133-.118-.133h-21.37c-.045 0-.084 0-.119.133a3.11 3.11 0 0 0-.06.442 18.15 18.15 0 0 0-.033.498c-.035.64-.053 1.49-.053 2.393v14.889l.086.013.087.01V50.33c0-.787.014-1.453.035-1.98.004-.44.04-.879.106-1.314h21.274c.067.435.102.873.106 1.313.019.526.033 1.193.033 1.98v14.945l.173-.057V50.33c0-.904-.019-1.753-.052-2.393z" fill="#E4E4E4"/><path d="M70.58 51.494h-2.726a.516.516 0 0 0-.516.515v2.363a.516.516 0 0 0 .516.517h2.726a.516.516 0 0 0 .516-.517V52.01a.517.517 0 0 0-.516-.515z" fill="#6C63FF"/><path d="M81.824 52.408h-9.501a.233.233 0 1 0 0 .468h9.501a.234.234 0 0 0 0-.468zM75.93 53.506h-3.607a.234.234 0 0 0 0 .468h3.608a.233.233 0 1 0 0-.468z" fill="#E4E4E4"/><path d="M70.58 58.488h-2.726a.516.516 0 0 0-.516.517v2.363a.517.517 0 0 0 .516.516h2.726a.517.517 0 0 0 .516-.516v-2.363a.518.518 0 0 0-.516-.517z" fill="#6C63FF"/><path d="M81.824 59.403h-9.501a.234.234 0 1 0 0 .469h9.501a.234.234 0 0 0 0-.47zM75.93 60.5h-3.608a.234.234 0 1 0 0 .47h3.609a.234.234 0 0 0 0-.47z" fill="#E4E4E4"/><path d="M71.022 65.736a.514.514 0 0 0-.442-.252h-2.726a.512.512 0 0 0-.42.217l3.662.48v-.182a.504.504 0 0 0-.074-.263z" fill="#6C63FF"/><path d="M81.824 56.399H72.77l3.578.468h4.237l1.349-.44a.211.211 0 0 0-.109-.028z" fill="#E4E4E4"/><path d="M95.137 62.28a.26.26 0 0 1-.055.026l-.784.255-6.348 2.067-2.22.72-.082.028-.173.056-3.542 1.153-1.35.44-1.169.38c-.017.005-.036.008-.055.011l-.04-.003-2.972-.388-3.578-.468-1.673-.218-3.661-.48-3.514-.458-.087-.011-.086-.013-10.482-1.37-.088-.012a.218.218 0 0 1-.142-.347c.009-.01.017-.02.026-.027.008-.005.018-.015.027-.02a.208.208 0 0 1 .145-.034l.524.07 9.99 1.306.086.01.087.012 5.176.677 1.925.252 5.068.663 3.237.423 1.302-.423 4.142-1.347.704-.23.087-.028.086-.028 2.167-.705 6.446-2.099.578-.188.112-.036a.215.215 0 0 1 .186.384z" fill="#3F3D56"/><path d="M73.342 77.134c-.139 0-.277-.01-.414-.032l-15.847-2.477a2.719 2.719 0 0 1-2.234-2.13l-1.769-8.592.11.014 26.491 3.204-3.873 8.435a2.722 2.722 0 0 1-2.464 1.578z" fill="#3F3D56"/><path d="m45.834 77.087 1.93-.403-.634-7.641-2.848.594 1.552 7.45z" fill="#9E616A"/><path d="m44.981 76.27.577 4.692.001.01.045-.01 1.325-.277-.025-1.345.895 1.164.857-.178v-.001l1.73-.361.14-.029.535-.111.37-.078a.834.834 0 0 0 .487-1.331.858.858 0 0 0-.242-.21l-.036-.02h-.001a.763.763 0 0 0-.055-.026l-.032-.014-.566-.239h-.002l-1.495-.63-1.222-.516-.272-1.308-.326.09-2.042.553-.646.176z" fill="#2F2E41"/><path d="m32.57 70.849 1.5 1.281 5.652-5.175-2.211-1.891-4.94 5.785z" fill="#9E616A"/><path d="m30.396 73.917 1.048-.843-.372 1.42 2.82 2.412a.816.816 0 0 0 .523.2.835.835 0 0 0 .826-1.048l-.923-3.483.868-1.016-.27-.203-1.687-1.278-.534-.404-3.362 3.332 1.063.91z" fill="#2F2E41"/><path d="m40.152 40.338 9.29-.358.35-9.434-7.85.252-1.79 9.54zM47.098 19.293a3.54 3.54 0 0 0 3.538-3.541 3.54 3.54 0 0 0-3.538-3.541 3.54 3.54 0 0 0-3.538 3.54 3.54 3.54 0 0 0 3.538 3.542z" fill="#9E616A"/><path d="m44.045 12.642 4.074-2.041a5.121 5.121 0 0 1 2.999 4.245l.101 1.218-1.706-.435-.187-1.556-.29 1.435-.787-.2.008-2.417-.788 2.414-2.812-.646-.612-2.017zM49.621 37.834s3.096 5.385.107 13.554l-4.226 10.785-7.343 7.437-3.946-2.335 7.337-6.225-3.272-11.1a19.306 19.306 0 0 1-.682-7.768c.235-1.952 1.996-3.476 3.2-5.318 4.02 2.596 8.652 2.178 8.825.97z" fill="#2F2E41"/><path d="m45.507 59.446 2.755 12.808-3.985.752-2.27-10.767 3.5-2.793z" fill="#2F2E41"/><path d="m44.505 20.477 4.575.06 1.489 1.893a3.726 3.726 0 0 1 2.816 2.994l.14.812a7.28 7.28 0 0 1-.87 4.886L49.86 33.76l.122.22a.504.504 0 0 1-.152.656c.085.217.095.456.028.678l-.06.196s1.567.416-8.093-1.019a.952.952 0 0 1-.804-.819.712.712 0 0 1-.132-.82l.02-.039-.1-.117a.766.766 0 0 1-.038-.941l-.026-5.54a3.543 3.543 0 0 1 2.452-3.87l1.427-1.868z" fill="#E6E6E6"/><path d="M57.517 44.16a1.49 1.49 0 0 0-1.765-1.447l-2.633-4.59-1.236 2.456 2.69 3.982a1.497 1.497 0 0 0 2.944-.4z" fill="#9E616A"/><path d="m43.06 25.434-1.472.227s-.45.963.58 2.826c1.03 1.864 10.799 13.787 10.799 13.787l.826-3.09-5.679-10.454-5.055-3.296z" fill="#E6E6E6"/><path d="M135.812 91H.188a.188.188 0 0 1 0-.376h135.624a.187.187 0 0 1 .188.188.19.19 0 0 1-.188.188z" fill="#CCC"/></g><defs><clipPath id="a"><path fill="#fff" d="M0 0h136v98H0z"/></clipPath></defs></svg>