<svg width="136" height="90" fill="none" xmlns="http://www.w3.org/2000/svg"><g clip-path="url(#a)"><path d="M136 .08H.058V90H136V.08z" fill="#E6E6E6"/><path d="M132.113 11.358H3.945V84.68h128.168V11.358z" fill="#fff"/><path d="M135.942 0H0v5.965h135.942V0z" fill="#6C63FF"/><path d="M4.292 4.155c.59 0 1.07-.495 1.07-1.105 0-.611-.48-1.106-1.07-1.106-.591 0-1.07.495-1.07 1.106 0 .61.479 1.105 1.07 1.105zM8.355 4.155c.59 0 1.07-.495 1.07-1.105 0-.611-.48-1.106-1.07-1.106-.591 0-1.07.495-1.07 1.106 0 .61.479 1.105 1.07 1.105zM12.418 4.155c.59 0 1.07-.495 1.07-1.105 0-.611-.48-1.106-1.07-1.106-.591 0-1.07.495-1.07 1.106 0 .61.479 1.105 1.07 1.105z" fill="#fff"/><path d="M42.782 17.389H21.715a2 2 0 0 0-2 2v24.088a2 2 0 0 0 2 2h21.067a2 2 0 0 0 2-2V19.39a2 2 0 0 0-2-2zM78.563 17H57.495a2 2 0 0 0-2 2v24.089a2 2 0 0 0 2 2h21.068a2 2 0 0 0 2-2V19a2 2 0 0 0-2-2zM114.343 17H93.275a2 2 0 0 0-2 2v24.089a2 2 0 0 0 2 2h21.068a2 2 0 0 0 2-2V19a2 2 0 0 0-2-2zM42.782 50.562H21.715a2 2 0 0 0-2 2V76.65a2 2 0 0 0 2 2h21.067a2 2 0 0 0 2-2V52.561a2 2 0 0 0-2-2zM78.563 50.562H57.495a2 2 0 0 0-2 2V76.65a2 2 0 0 0 2 2h21.068a2 2 0 0 0 2-2V52.561a2 2 0 0 0-2-2zM114.343 50.562H93.275a2 2 0 0 0-2 2V76.65a2 2 0 0 0 2 2h21.068a2 2 0 0 0 2-2V52.561a2 2 0 0 0-2-2z" fill="#F5F5F5"/><path d="M29.452 34.373c2.34 0 4.237-1.96 4.237-4.376 0-2.418-1.897-4.377-4.237-4.377s-4.237 1.96-4.237 4.377c0 2.416 1.897 4.376 4.237 4.376z" fill="#FFB9B9"/><path d="M27.797 33.347s.53 2.599.53 2.872c0 .274 2.515 1.505 2.515 1.505l2.251-.41.795-2.462s-1.324-2.052-1.324-2.872l-4.767 1.367z" fill="#FFB9B9"/><path d="M25.777 26.47s1.346-3.01 3.924-2.315c2.579.694 4.036 1.736 4.148 2.779.113 1.042-.056 2.605-.056 2.605s-.28-2.142-2.074-1.679c-1.794.463-4.596.116-4.596.116l-.449 4.168s-.504-.752-1.065-.29c-.56.464-1.626-4.457.168-5.383z" fill="#2F2E41"/><path d="m42.892 44.425-1.058-4.924c-.531-1.642-1.854-3.008-1.854-3.008l-6.53-2.372h-.002a2.892 2.892 0 0 1-.556 1.648 2.743 2.743 0 0 1-1.386.999c-1.987.682-3.355-1.617-3.355-1.617l-5.52 4.35s-1.721 1.506-1.588 4.378l-.183 1.598H43.4l-.509-1.052z" fill="#6C63FF"/><path d="M65.136 36.554c3.177 0 5.752-2.823 5.752-6.306 0-3.482-2.575-6.306-5.752-6.306-3.176 0-5.751 2.824-5.751 6.306 0 3.483 2.575 6.306 5.751 6.306z" fill="#2F2E41"/><path d="M70.24 39.79c1.67 0 3.025-1.399 3.025-3.124 0-1.726-1.355-3.125-3.026-3.125-1.67 0-3.025 1.399-3.025 3.125 0 1.725 1.354 3.125 3.025 3.125z" fill="#2F2E41"/><path d="m68.132 32.48 1.621 4.353-4.106 1.786-.36-.844-1.261-2.95 4.106-2.345z" fill="#9F616A"/><path d="M64.89 35.326c2 0 3.62-1.674 3.62-3.739 0-2.064-1.62-3.738-3.62-3.738-1.999 0-3.62 1.674-3.62 3.738 0 2.065 1.621 3.74 3.62 3.74z" fill="#9F616A"/><path d="M61.931 31.177c2.276-1.568 2.956-1.943 5.564-1.337l.156-3.93-6.74 1.46 1.02 3.807z" fill="#2F2E41"/><path d="m76.56 40.068-.1.012a.063.063 0 0 0-.008-.01c-.396-.41-2.287-1.153-3.696-1.669h-.002c-.895-.328-1.596-.564-1.596-.564l-1.704-1.81c-.43.499-1.336.884-2.198 1.155-.66.207-1.332.372-2.01.495h-.002l-.353 1.164s-4 3.127-4.322 3.46h-.002v.003a.186.186 0 0 0-.03.131v.009a15.632 15.632 0 0 0-.31 3.033h17.415v-1.055c0-1.45-1.082-4.354-1.082-4.354z" fill="#575A89"/><path d="M108.582 45.477h-8.61l-.474-4.831-.029-.294-.058-.583-.238-2.435-.298 2.615-.629 5.528h-1.564l.058-1.72.058-1.745.025-.703.322-9.563a6.98 6.98 0 0 1 1.32-4.21 5.189 5.189 0 0 1 1.84-1.547 5.014 5.014 0 0 1 2.318-.53 5.163 5.163 0 0 1 2.36.563 5.336 5.336 0 0 1 1.87 1.59 7.063 7.063 0 0 1 1.383 4.273l.148 5.789.198 7.803z" fill="#2F2E41"/><path d="M102.623 35.168c2.092 0 3.787-1.751 3.787-3.912 0-2.16-1.695-3.911-3.787-3.911-2.092 0-3.787 1.751-3.787 3.911s1.695 3.912 3.787 3.912z" fill="#FBBEBE"/><path d="M100.729 34.05s1.083 3.772 0 4.89c-1.082 1.118-1.352 1.537-1.352 1.537l3.111 4.33 5.41-6.845s-3.787-1.118-2.84-4.191l-4.329.28zM112.413 45.477h-3.195l-.053-.565-.048-.523 1.471-.19 1.774-.23.02.587.031.921z" fill="#FBBEBE"/><path d="M112.633 44.528s-.541-3.492-.947-4.89c-.406-1.396-.812-1.396-.812-1.396-.478-.494-1.626-.582-2.49-.568-.605.007-1.071.062-1.071.062l-4.825 5.256-2.429-3.336v-.002a4.203 4.203 0 0 0-1.184.296 7.327 7.327 0 0 0-2.052 1.36h-.001c-.35.324-.556.563-.556.563a16.723 16.723 0 0 0-1.202 3.604h15.461l.035-.718v-.002l2.073-.229z" fill="#6C63FF"/><path d="M99.445 30.628c2.446-1.362 3.45-1.305 6.492 0l.812-2.043a1.48 1.48 0 0 0-.412-1.025 1.383 1.383 0 0 0-.993-.425h-5.442c-.372 0-.73.153-.993.425s-.41.641-.411 1.026l.947 2.042zM31.917 57.36a.972.972 0 0 0-.578.133c-.167.147-.3.33-.392.534a6.321 6.321 0 0 1-1.683 1.964c-.5.379-1.136.85-1.05 1.548.044.23.127.452.243.654.461.962 1.72 1.706 1.597 2.803.458-.792-.155-1.184.304-1.977.218-.378.597-.804.927-.567.11.08.183.222.298.292.274.166.566-.152.808-.377.837-.776 2.028-.573 3.07-.33.491.113 1.031.263 1.322.749.382.638-.363 1.327-.552 2.049a.406.406 0 0 0 .08.355.38.38 0 0 0 .329.134c.313-.032.683-.058.701-.2.393.015.875-.031 1.044-.454a1.83 1.83 0 0 0 .08-.517c.063-.71.354-1.359.548-2.035.193-.676.277-1.468-.05-2.068a2.38 2.38 0 0 0-.427-.536c-1.852-1.852-4.287-2.157-6.619-2.154z" fill="#2F2E41"/><path d="M30.456 66.383s.403 3.467-1.074 3.744c-1.477.277 1.343 4.992 1.343 4.992l6.713.832-1.611-5.547s-1.074-.416-.403-3.189-4.968-.832-4.968-.832z" fill="#9F616A"/><path d="M33.477 68.671c2.225 0 4.028-1.862 4.028-4.16 0-2.297-1.803-4.16-4.028-4.16-2.224 0-4.027 1.863-4.027 4.16 0 2.298 1.803 4.16 4.027 4.16z" fill="#9F616A"/><path d="M26.545 78.65c.712-2.893 1.695-6.79 1.695-6.79s.383.082.986.173c.88.135 1.767.218 2.656.249 1.138.033 2.336-.045 3.263-.376.35-.116.676-.296.964-.532.121-.1.23-.216.323-.345 1.61-2.219 2.281 6.24 2.281 6.24l.125 1.381H26.545z" fill="#6C63FF"/><path d="M39.414 87.588c-.053 0-.107.002-.16.005l.077-.148c.026.047.053.095.083.143z" fill="#FFB8B8"/><path d="M32.113 58.449a.89.89 0 0 0-.47.094c-.133.1-.242.228-.32.377a4.714 4.714 0 0 1-1.37 1.388c-.407.268-.925.601-.855 1.094.038.166.105.322.199.462.377.687.527 1.482.427 2.265l1.12-1.68c.177-.268.486-.569.755-.401.09.056.148.157.242.206.223.117.46-.107.658-.267.682-.548 1.65-.404 2.499-.233.4.08.84.186 1.076.53.394.57-.017 1.393.212 2.052a.599.599 0 0 0 .243-.4c.32.01.712-.022.85-.32.041-.118.063-.242.065-.366.05-.502.288-.96.445-1.438.158-.478.226-1.038-.04-1.462a1.743 1.743 0 0 0-.347-.38c-1.508-1.308-3.49-1.523-5.389-1.521zM31.732 71.998c-.919-1.084-1.465-2.666-1.49-2.736v-.002s-1.464-.866-1.867-.034c-.402.832-4.162 2.912-4.565 2.912a.052.052 0 0 1-.01.003c-.16.055-2.16.806-2.674 3.603-.14.962-.214 1.933-.223 2.906h10.949c.113-1.225.198-2.372.231-3.362.048-1.38.002-2.453-.201-3.006a.886.886 0 0 0-.15-.284zM41.146 72.779l-.016-.086a.648.648 0 0 0-.092-.212c-.775-1.24-5.763-2.95-5.763-2.95l-.186.666s.023.657.056 1.709c.033.984.073 2.315.112 3.776.026.954.05 1.964.071 2.968h7.46a46.13 46.13 0 0 0-1.642-5.871z" fill="#2F2E41"/><path d="m110.949 78.65.571-2.88.531-.233.003.002c.048.019.626.272.626 1.229 0 .192-.029.885-.075 1.882h-1.656z" fill="#575A89"/><path d="M104.953 68.588c2.561 0 4.636-2.143 4.636-4.788 0-2.644-2.075-4.787-4.636-4.787-2.56 0-4.635 2.143-4.635 4.787 0 2.645 2.075 4.788 4.635 4.788z" fill="#FFB8B8"/><path d="m107.851 66.593-.387 8.18-5.987-3.591.772-4.589h5.602z" fill="#FFB8B8"/><path d="m109.589 75.171-.393 3.48h-3.143l-3.412-6.771-.962-1.906-.461-.312.535-.125.421.314 4.711 3.526.755-2.343.02-.06.19-.59 1.739 4.787z" fill="#6C63FF"/><path d="M102.153 59.112s.579-2.992 3.863-2.394l-.387.2s3.091-.4 2.705 1.396c0 0 2.511 1.596 1.931 3.392a20.877 20.877 0 0 0-.773 3.191l-.579-.598s-.579-3.99-4.056-3.59c-2.608.298-3.67 1.57-3.942 2.487-.125.43-.285.85-.477 1.253l-.217.05s-1.159-4.39 1.932-5.387zM112.054 75.54l-.003-.003-2.462-2.361V71.58l-1.9-1.547-.028.94-.197 6.392-3.16-4.49-2.13-3.024-.383-.542.093-.507-1.18 1.38-4.27 3.309-.366.284c-.42.434-.807.9-1.158 1.395-.115.177-.638 1.587-1.318 3.48h19.013c.047-.998.075-1.69.075-1.883 0-.957-.578-1.21-.626-1.229zM67.647 58.541c-3.141 0-5.688 2.919-5.688 6.52v4.574h1.363l.788-1.695-.197 1.695h8.756l.717-1.54-.18 1.54h.986v-3.592c0-4.143-2.93-7.502-6.545-7.502z" fill="#2F2E41"/><path d="M63.057 78.65h-3.7l-.035-3.116-.001-.096.74-.862.014-.015 2.827 1.85.155 2.24z" fill="#D0CDE1"/><path d="M67.144 68.996c2.236 0 4.05-1.872 4.05-4.182 0-2.31-1.814-4.182-4.05-4.182-2.236 0-4.05 1.872-4.05 4.182 0 2.31 1.814 4.182 4.05 4.182z" fill="#FBBEBE"/><path d="M64.823 67.323s1.187 6.357.647 7.026c-.54.67 5.723-1.227 5.723-1.227s-2.051-4.35-.972-6.802l-5.398 1.003z" fill="#FBBEBE"/><path d="M75.808 71.622h-.002a.944.944 0 0 0-.464-.468 32.72 32.72 0 0 0-2.04-.811 4.187 4.187 0 0 0-3.332.229s-3.96.778-4.43.68a1.15 1.15 0 0 0-.107-.015 1.816 1.816 0 0 0-.214-.02 4.625 4.625 0 0 0-2.63.675c-1.3.778-3.227 2.159-3.266 3.503l-.037.043.037 3.212H76.7c.035-3.078.055-5.392.055-5.548 0-.487-.947-1.48-.947-1.48z" fill="#6C63FF"/><path d="M69.264 60.337a3.01 3.01 0 0 0-1.036-.904 2.905 2.905 0 0 0-1.317-.336h-.112c-2.153 0-3.899 2.012-3.899 4.494h.722l.116-.916.171.916h4.279l.358-.775-.09.775h.843c.392 2.015-.172 4.03-1.694 6.044h1.434l.717-1.55-.179 1.55h2.734l.537-3.564c0-2.67-1.502-4.934-3.584-5.734z" fill="#2F2E41"/><path d="M70.05 60.712c1.177 0 2.13-.985 2.13-2.2 0-1.215-.953-2.2-2.13-2.2-1.176 0-2.13.985-2.13 2.2 0 1.215.954 2.2 2.13 2.2z" fill="#2F2E41"/></g><defs><clipPath id="a"><path fill="#fff" d="M0 0h136v90H0z"/></clipPath></defs></svg>