<svg width="136" height="108" fill="none" xmlns="http://www.w3.org/2000/svg"><path d="m21 19.654 3.88-3.904s4.268-6.134 7.372-4.46c3.104 1.672-4.462 5.576-4.462 5.576L23.91 23 21 19.654z" fill="#A0616A"/><path d="M8.601 98s-2.99 5.924-.797 6.332c2.192.409 12.958 1.022 13.157.409.2-.613 1.794-2.656.598-3.473-1.196-.817-5.98-1.43-5.98-1.43l-1.595-1.634L8.6 98z" fill="#2F2E41"/><path d="M7.137 44.326S.934 52.06 5.974 59.984l1.163 13.339s-2.133 18.365.581 24.55L8.106 100h6.784l-1.745-16.238s.194-1.933.776-2.32C14.502 81.055 24 60.178 24 60.178s-1.55-2.9-.97-3.48c.582-.58-.58-12.178-1.162-12.565-.582-.387-14.731.193-14.731.193z" fill="#2F2E41"/><path d="M16.5 18a5.5 5.5 0 1 0 0-11 5.5 5.5 0 0 0 0 11z" fill="#A0616A"/><path d="M11.563 13 11 20.059 17 23s-1.031-6.569-.281-8.333L11.562 13z" fill="#A0616A"/><path d="m18.17 22.314-.59-2.362L9.507 17s-.788 0-.591 1.378c.197 1.377.197 1.18.197 1.18s-2.757 1.181-2.954 3.15c-.197 1.968-3.347 2.558-3.15 5.51.197 2.952 1.181 4.527 1.181 4.527s-.984 2.362.591 3.74c0 0 1.575 2.755.788 4.723-.788 1.968-1.773 5.314.393 4.723 2.166-.59 17.131-1.574 17.131-1.574s2.166-8.07-.197-11.022c0 0 0-1.771-1.772-5.314a199.254 199.254 0 0 0-2.953-5.707z" fill="#575A89"/><path d="M7 44.569s2.758 10.787 6.153 11.964c0 0 .637 7.845 4.244 7.453 3.607-.392 0-7.453 0-7.453L13.365 43 7 44.569z" fill="#A0616A"/><path d="M17 23.22s2.855-4.953 3.616-4.127c.761.825 4.567 3.302 4.377 4.953-.19 1.652-1.903 1.652-1.903 1.652L19.093 29 17 23.22z" fill="#575A89"/><path d="m22.105 58 2.337 1.671L26 76.214s-5.648 22.476-7.206 22.67c-1.558.194-7.984.194-7.79-.387.195-.582 1.169-2.907 1.169-3.488s2.031-5.23 2.031-5.23l2.643-10.852-.584-8.526L22.105 58z" fill="#2F2E41"/><path d="M19.046 99.23s-8.358-2.774-8.756-2.134c-.398.64-3.052 7.092.663 7.813 3.715.722 17.047 2.002 17.047.082 0-1.921-.398-3.201-1.592-3.201s-6.567-2.774-6.964-3.414c-.398-.64-.398.854-.398.854zM10.774 12.753c-.246-.504.3-1.053.79-.777l.01.006a1.02 1.02 0 0 1 .48 1.018c.712-.706.188-2.122.956-2.765.355-.298.932-.364 1.115-.79.106-.247.034-.54.128-.793.139-.375.583-.532.98-.591 1.25-.185 2.514.13 3.738.443.45.115.923.243 1.251.571.345.345.465.847.677 1.286.212.44 1.6.4 2.085.337.169-.477-1.077-.513-1.179-1.008-.278-1.354.69-2.795.215-4.093-.286-.783-1.034-1.301-1.786-1.665a9.524 9.524 0 0 0-6.71-.57c-.227.05-.44.152-.62.298-.286.266-.34.694-.53 1.035-.435.776-1.466.96-2.16 1.518-1.054.845-1.172 2.37-1.206 3.716-.018.678-.03 1.382.25 2 .278.618.939 1.122 1.607.993a1.947 1.947 0 0 1-.091-.17z" fill="#2F2E41"/><path d="M13.845 27.855a4.694 4.694 0 0 0-5.78.298c-1.532 1.317-3.18 3.204-3.059 5.158.222 3.6 1.556 18.445 3.334 18.67 1.777.225 8.222-1.575 8.222-2.7 0-1.124-1.556-2.474-1.556-2.474l1.89-11.47c.466-2.835-.648-5.731-2.952-7.41a12.705 12.705 0 0 0-.1-.072z" fill="#575A89"/><path d="M52.519 35.14c7.587 0 13.738-6.107 13.738-13.64 0-7.532-6.15-13.638-13.738-13.638-7.588 0-13.739 6.106-13.739 13.638 0 7.533 6.151 13.64 13.739 13.64z" fill="#F5F5F5"/><path d="M60.076 22.844c0 4.537-3.283 6.77-7.546 6.77-4.264 0-7.892-2.233-7.892-6.77 0-4.536 3.456-8.214 7.72-8.214 4.262 0 7.718 3.678 7.718 8.214z" fill="#333"/><path d="M52.53 35.193c2.684.004 5.31-.776 7.551-2.243-.506-2.747-2.432-2.904-2.432-2.904H47.026s-1.818.149-2.386 2.675a13.744 13.744 0 0 0 7.89 2.472z" fill="#6C63FF"/><path d="M50.628 26.54h3.484a.384.384 0 0 1 .383.38v3.112c0 .528-.212 1.035-.588 1.408a2.014 2.014 0 0 1-1.418.584h-.237c-.533 0-1.043-.21-1.419-.584a1.984 1.984 0 0 1-.587-1.408V26.92a.378.378 0 0 1 .382-.38z" fill="#FDA57D"/><path d="M52.386 28.571c3.363 0 6.09-2.707 6.09-6.046 0-3.339-2.727-6.046-6.09-6.046-3.364 0-6.09 2.707-6.09 6.046 0 3.34 2.726 6.046 6.09 6.046z" fill="#FDA57D"/><path d="M45.366 22.844s3.792-.456 6.666-4.107c0 0 3.792 4.146 6.436 3.69 0 0 1.532-1.598 0-3.195-1.533-1.598-2.72-3.613-4.75-3.347-2.031.266-4.521.38-5.594 1.33-1.072.952-2.758 5.63-2.758 5.63z" fill="#333"/><path d="M46.293 23.574c.313 0 .566-.472.566-1.054 0-.583-.253-1.055-.566-1.055-.313 0-.567.472-.567 1.055 0 .582.254 1.054.567 1.054zM58.475 23.574c.313 0 .567-.472.567-1.054 0-.583-.254-1.055-.567-1.055-.313 0-.566.472-.566 1.055 0 .582.253 1.054.566 1.054z" fill="#FDA57D"/><path d="M111.954 36.133c7.588 0 13.739-6.106 13.739-13.639 0-7.532-6.151-13.639-13.739-13.639-7.587 0-13.738 6.107-13.738 13.64 0 7.532 6.151 13.638 13.738 13.638z" fill="#F5F5F5"/><path d="M111.965 36.187a13.746 13.746 0 0 0 7.552-2.244c-.506-2.746-2.433-2.903-2.433-2.903h-10.622s-1.818.149-2.386 2.675a13.744 13.744 0 0 0 7.889 2.472z" fill="#6C63FF"/><path d="M111.821 28.79c3.663 0 6.631-2.947 6.631-6.583s-2.968-6.583-6.631-6.583c-3.662 0-6.631 2.947-6.631 6.583s2.969 6.583 6.631 6.583z" fill="#72351C"/><path d="M110.064 27.534h3.483a.384.384 0 0 1 .383.38v3.112c0 .528-.211 1.035-.588 1.408a2.012 2.012 0 0 1-1.418.584h-.237c-.532 0-1.042-.21-1.419-.584a1.985 1.985 0 0 1-.587-1.408v-3.112a.384.384 0 0 1 .383-.38z" fill="#FDA57D"/><path d="M111.821 29.565c3.364 0 6.09-2.707 6.09-6.046 0-3.34-2.726-6.046-6.09-6.046-3.363 0-6.09 2.707-6.09 6.046 0 3.34 2.727 6.046 6.09 6.046z" fill="#FDA57D"/><path d="M107.483 17.944s2.567 5.172 9.807 2.167l-1.685-2.624-2.989-1.065-5.133 1.521z" fill="#72351C"/><path d="M107.46 17.594a3.489 3.489 0 0 1 .872-1.408c1.199-1.176 3.162-1.424 4.17-2.764a.785.785 0 0 1 .066.631.778.778 0 0 1-.428.473c.964-.006 2.084-.09 2.629-.88a1.778 1.778 0 0 1-.304 1.893c.855.039 1.768.615 1.823 1.463.037.565-.32 1.1-.787 1.425-.487.3-1.027.501-1.591.595-1.627.355-7.511 1.847-6.45-1.428zM117.911 23.572h-.161l-3.141 2.776c-3.027-1.407-5.249 0-5.249 0l-3.294-2.662-.332.042a6.024 6.024 0 0 0 1.87 4.191 6.116 6.116 0 0 0 4.296 1.684 6.113 6.113 0 0 0 4.25-1.793 6.023 6.023 0 0 0 1.761-4.238zm-6.099 3.841c-1.185 0-2.145-.238-2.145-.532 0-.294.96-.533 2.145-.533s2.145.239 2.145.533c0 .294-.96.532-2.145.532z" fill="#72351C"/><path d="M105.729 24.568c.312 0 .566-.472.566-1.055 0-.582-.254-1.054-.566-1.054-.313 0-.567.472-.567 1.054 0 .583.254 1.055.567 1.055zM117.911 24.568c.313 0 .566-.472.566-1.055 0-.582-.253-1.054-.566-1.054-.313 0-.567.472-.567 1.054 0 .583.254 1.055.567 1.055z" fill="#FDA57D"/><path d="M82.21 59.004c7.588 0 13.74-6.106 13.74-13.639 0-7.532-6.152-13.639-13.74-13.639-7.587 0-13.738 6.107-13.738 13.64 0 7.532 6.151 13.638 13.739 13.638z" fill="#F5F5F5"/><path d="M76.849 45.487s-1.558 7.617-2.408 7.196c0 0 8.2 7.03 15.438 0 0 0-1.274-5.368-3.116-7.196H76.85z" fill="#333"/><path d="M82.25 59.045c2.684.004 5.31-.776 7.55-2.244-.505-2.746-2.432-2.903-2.432-2.903H76.746s-1.818.148-2.386 2.675a13.743 13.743 0 0 0 7.89 2.472z" fill="#6C63FF"/><path d="M82.105 51.11c3.364 0 6.09-2.706 6.09-6.045 0-3.34-2.726-6.046-6.09-6.046-3.363 0-6.09 2.707-6.09 6.046 0 3.339 2.727 6.046 6.09 6.046z" fill="#333"/><path d="M80.348 50.392h3.483a.379.379 0 0 1 .383.38v3.112c0 .528-.211 1.035-.588 1.408a2.013 2.013 0 0 1-1.418.584h-.237c-.532 0-1.042-.21-1.419-.584a1.984 1.984 0 0 1-.587-1.408v-3.112a.379.379 0 0 1 .383-.38z" fill="#BE7C5E"/><path d="M82.105 52.423c3.364 0 6.09-2.707 6.09-6.046 0-3.339-2.726-6.046-6.09-6.046-3.363 0-6.09 2.707-6.09 6.046 0 3.34 2.727 6.046 6.09 6.046z" fill="#BE7C5E"/><path d="M76.282 44.08h11.614s-.991-4.655-5.382-4.358c-4.39.297-6.231 4.359-6.231 4.359z" fill="#333"/><path d="M76.14 47.174c.314 0 .567-.472.567-1.055 0-.582-.253-1.054-.566-1.054-.313 0-.567.472-.567 1.054 0 .583.254 1.055.567 1.055zM88.038 47.174c.313 0 .567-.472.567-1.055 0-.582-.254-1.054-.567-1.054-.313 0-.567.472-.567 1.054 0 .583.254 1.055.567 1.055z" fill="#BE7C5E"/><path opacity=".1" d="M76.282 44.237h11.614s-.991-4.656-5.382-4.359c-4.39.297-6.231 4.359-6.231 4.359z" fill="#000"/><path d="M82.21 32.742c2.53 0 5.004.745 7.108 2.14a12.72 12.72 0 0 1 4.71 5.7 12.613 12.613 0 0 1 .729 7.337 12.67 12.67 0 0 1-3.501 6.502 12.82 12.82 0 0 1-6.55 3.475c-2.48.49-5.053.239-7.39-.722a12.773 12.773 0 0 1-5.741-4.678 12.62 12.62 0 0 1-1.182-11.915 12.694 12.694 0 0 1 2.773-4.12 12.8 12.8 0 0 1 4.15-2.752 12.873 12.873 0 0 1 4.895-.967zm0-3.136c-3.154 0-6.238.929-8.86 2.669a15.861 15.861 0 0 0-5.876 7.107 15.73 15.73 0 0 0-.907 9.149 15.8 15.8 0 0 0 4.365 8.107 15.987 15.987 0 0 0 8.167 4.334 16.06 16.06 0 0 0 9.216-.901 15.926 15.926 0 0 0 7.158-5.832 15.753 15.753 0 0 0 2.689-8.798 15.795 15.795 0 0 0-4.678-11.192 16.028 16.028 0 0 0-11.273-4.643z" fill="#CCC"/><path d="M83.588 25.904H79.85v3.908h3.74v-3.908zM90.257 27.488l-2.027 3.349 3.205 1.912 2.027-3.35-3.205-1.912zM98.221 33.887 94.78 35.78l1.813 3.247 3.442-1.895-1.813-3.246zM96.815 51.67l-1.982 3.148 3.338 2.07 1.982-3.147-3.338-2.07zM66.2 33.887l-1.812 3.246 3.442 1.895 1.813-3.247-3.442-1.894zM67.607 51.67l-3.338 2.071 1.981 3.148 3.338-2.07-1.981-3.149zM74.165 27.488l-3.205 1.911 2.027 3.35 3.205-1.912-2.027-3.35zM83.588 61.07H79.85v3.908h3.74v-3.907zM91.435 58.134l-3.205 1.912 2.027 3.349 3.205-1.912-2.027-3.349zM72.987 58.134l-2.027 3.35 3.205 1.911 2.027-3.35-3.205-1.911zM66.664 43.878h-4.526V47.2h4.526v-3.322zM97.758 47.2h4.526v-3.322h-4.526V47.2zM111.927 9.884c2.53 0 5.003.745 7.107 2.14a12.72 12.72 0 0 1 4.711 5.7 12.62 12.62 0 0 1 .728 7.337 12.673 12.673 0 0 1-3.501 6.502 12.82 12.82 0 0 1-6.55 3.475c-2.481.49-5.053.239-7.39-.723a12.772 12.772 0 0 1-5.741-4.677 12.633 12.633 0 0 1-2.156-7.055c0-3.368 1.348-6.598 3.747-8.98a12.838 12.838 0 0 1 9.045-3.719zm0-3.136c-3.155 0-6.239.929-8.862 2.669a15.86 15.86 0 0 0-5.875 7.106 15.728 15.728 0 0 0-.907 9.15 15.8 15.8 0 0 0 4.365 8.107 15.99 15.99 0 0 0 8.167 4.334 16.06 16.06 0 0 0 9.216-.901 15.926 15.926 0 0 0 7.158-5.832 15.75 15.75 0 0 0 2.688-8.798 15.789 15.789 0 0 0-4.677-11.192 16.026 16.026 0 0 0-11.273-4.643z" fill="#CCC"/><path d="M113.304 3.046h-3.739v3.908h3.739V3.046zM119.973 4.63l-2.027 3.349 3.205 1.912 2.027-3.35-3.205-1.912zM127.937 11.028l-3.442 1.895 1.813 3.246 3.442-1.894-1.813-3.247zM126.531 28.812l-1.982 3.148 3.338 2.07 1.982-3.147-3.338-2.07zM95.916 11.029l-1.812 3.246 3.442 1.894 1.813-3.246-3.442-1.894zM97.323 28.812l-3.338 2.07 1.981 3.149 3.338-2.07-1.981-3.149zM103.881 4.63l-3.205 1.911 2.027 3.35 3.205-1.912-2.027-3.35zM113.304 38.213h-3.739v3.907h3.739v-3.907zM121.151 35.276l-3.205 1.911 2.027 3.35 3.205-1.912-2.027-3.35zM102.703 35.276l-2.027 3.35 3.205 1.911 2.027-3.35-3.205-1.911zM96.38 21.02h-4.526v3.322h4.526V21.02zM127.474 24.342H132V21.02h-4.526v3.322zM52.487 8.907a12.834 12.834 0 0 1 9.284 3.955 12.649 12.649 0 0 1 3.513 8.96 12.655 12.655 0 0 1-3.819 8.837 12.84 12.84 0 0 1-9.414 3.639 12.834 12.834 0 0 1-8.832-3.948 12.649 12.649 0 0 1-3.514-8.96 12.655 12.655 0 0 1 3.82-8.837 12.84 12.84 0 0 1 8.962-3.646zm0-3.136v3.136-3.136a16.01 16.01 0 0 0-11.177 4.545 15.78 15.78 0 0 0-4.764 11.02 15.772 15.772 0 0 0 4.382 11.174 16.003 16.003 0 0 0 11.575 4.931 16.01 16.01 0 0 0 11.177-4.545 15.78 15.78 0 0 0 4.763-11.019 15.772 15.772 0 0 0-4.381-11.174 16.003 16.003 0 0 0-11.574-4.932z" fill="#CCC"/><path d="m50.817 2-.136 3.905 3.737.129.136-3.905L50.817 2zM61.163 3.94l-2.142 3.278 3.136 2.021L64.3 5.962 61.164 3.94zM68.9 10.61l-3.507 1.775 1.698 3.307 3.507-1.775-1.699-3.307zM66.872 28.335l-2.09 3.078 3.263 2.184 2.09-3.078-3.263-2.184zM36.898 9.507l-1.925 3.183 3.374 2.011 1.925-3.182-3.374-2.012zM37.682 27.329l-3.408 1.954 1.87 3.214 3.408-1.954-1.87-3.214zM45.081 3.386l-3.27 1.8 1.91 3.418 3.27-1.8-1.91-3.418zM49.589 37.145l-.137 3.905 3.737.129.136-3.905-3.736-.129zM61.27 34.61 58 36.41l1.908 3.417 3.27-1.8-1.909-3.418zM42.833 33.974 40.69 37.25l3.136 2.021 2.143-3.277-3.136-2.021zM37.012 19.509l-4.524-.156-.116 3.32 4.524.155.116-3.32zM67.97 23.9l4.524.155.117-3.32-4.524-.155-.116 3.32z" fill="#CCC"/></svg>