<svg width="136" height="101" fill="none" xmlns="http://www.w3.org/2000/svg"><g clip-path="url(#a)"><path d="M125.292 24.552C109.856 3.076 77.249-5.635 45.181 3.747c-16.954 4.96-33.3 14.899-41.4 34.143-14.482 34.4 15.923 45.387 35.805 48.888 9.613 1.693 18.668 4.537 26.942 8.41 14.885 6.966 41.234 13.14 61.102-15.88 14.401-21.033 7.944-40.452-2.338-54.756z" fill="#F2F2F2"/><path d="M35.8 28.8a3.973 3.973 0 0 0-.259-.994.451.451 0 0 0-.229-.282.472.472 0 0 0-.227-.002l-1.166.178a.447.447 0 0 0-.266.103c-.152.16-.002.417-.007.637-.005.248-.225.45-.464.516-.244.049-.495.046-.737-.01l-1.63-.253c.48-.153.907-.438 1.233-.823.214-.254.328-.728.018-.849a.762.762 0 0 0-.283-.022c-.739.006-1.32-.611-2.011-.87a2.224 2.224 0 0 0-2.503.745l.868.042a.386.386 0 0 1 .232.062c.19.156-.047.456-.02.701.035.318.457.386.776.418.318.032.722.291.569.572-1.6.551-3.23-1.077-4.91-.877-.425.051-.827.218-1.242.323-2.538.642-5.16-1.07-7.753-.708a9.842 9.842 0 0 0-1.692.446c-.353.116-.72.241-.977.51-.256.268-.354.728-.11 1.009a5.679 5.679 0 0 1-1.99-.19 1.114 1.114 0 0 1 .572.983c-1.045.17-2.062.48-3.024.922.18.299.39.578.626.834l-1.323.85c.447.112.678.721.418 1.102.463-.206.75-.74 1.246-.848.325-.07.655.062.963.187.308.125.647.246.966.152.318-.093.553-.507.35-.77a16.5 16.5 0 0 1 4.191-.655c.11-.013.22.008.318.06.184.129.136.405.126.63-.01.225.165.52.366.419-.237.204-.035.59.192.805.227.215.5.512.361.793-.036.073-.098.131-.133.205-.102.218.061.472.253.616.193.145.429.246.563.446.134.2.073.55-.166.579l-.68-.863a1.77 1.77 0 0 0-.46.87c.721.59.83 1.789.226 2.498-.308.362-.747.582-1.13.865-.383.282-.737.685-.736 1.16.002.822-.065 1.586.243 2.348a36.165 36.165 0 0 0 1.963 4.097c.195.347.446.728.84.788a48.381 48.381 0 0 1-1.344-3.689c.26.001.56.022.711.232.126.174.099.41.138.621.05.205.133.4.246.578l2.375 4.23c.197.35.423.727.799.869.24.09.519.074.74.204.174.103.29.285.468.381.5.273 1.196-.25 1.664.075.133.094.218.242.342.348.431.374 1.14.124 1.638.403.322.18.488.54.66.865.429.816 1.123 1.616 2.043 1.68.29.021.585-.034.867.03.283.065.56.311.515.597-.077.49.165 1.028.1 1.52-.119.897-1.39 1.291-1.5 2.189-.024.197.013.4-.033.592-.058.236-.235.428-.298.662-.12.444.2.886.549 1.185.35.3.767.557.958.975.202.443.103.958.168 1.44.144 1.052 1.052 1.831 1.988 2.334.284.153.59.301.775.567.24.347.216.804.297 1.219.197 1.014 1.051 1.85 1.075 2.884.017.734-.39 1.4-.635 2.094a4.883 4.883 0 0 0 .399 4.05c.182.308.4.599.53.933.23.596.155 1.273.368 1.876.28.796 1.052 1.454.979 2.296.35.727 1.123 1.085 1.901 1.301l1.395.388c.266.075.545.15.817.096.272-.054.532-.28.525-.557-.684-.154-1.39-.318-1.953-.734-.564-.417-.95-1.159-.736-1.826.099-.31.31-.667.11-.922-.116-.147-.325-.185-.455-.318-.202-.209-.133-.559.013-.81.145-.251.355-.476.413-.76a.794.794 0 0 0-.371-.825 1.97 1.97 0 0 0 .69-.442c.181-.208.265-.527.122-.763.424.054.925.08 1.203-.244.222-.259.207-.646.12-.975-.089-.33-.237-.65-.242-.991.978.046 1.958.013 2.93-.1a1.9 1.9 0 0 0-.89-1.115c.44-.075.841-.602.98-1.026.14-.425.104-.887.018-1.325a.71.71 0 0 1-.013-.347c.05-.159.205-.255.349-.337l2.186-1.256c.13-.065.249-.152.35-.258.229-.269.195-.675.077-1.008-.117-.333-.305-.647-.35-.997-.135-1.048.987-1.8 1.366-2.786.148-.387.178-.808.207-1.222.031-.444.033-.96-.308-1.246-.327-.275-.838-.214-1.18-.469-.314-.234-.422-.688-.765-.877-.311-.172-.701-.063-1.048-.144-.61-.142-.993-.844-1.615-.91-.352-.036-.75.136-1.037-.069-.254-.18-.264-.542-.312-.85a2.373 2.373 0 0 0-1.916-1.921c-.362-.058-.756-.036-1.064-.235-.312-.202-.455-.579-.7-.858-.395-.45-1.017-.61-1.6-.746l-2.37-.557c-.421-.1-.963-.152-1.19.217-.066.14-.113.289-.14.442a1.37 1.37 0 0 1-1.288.97 1.523 1.523 0 0 0-.898-.696c-.24-.066-.498-.074-.727-.172a1.022 1.022 0 0 1-.443-1.416 1.27 1.27 0 0 0-.217-1.529c-.403-.362-.986-.449-1.527-.413-.141-.309.095-.657.35-.881.255-.225.565-.445.62-.78.088-.528-.585-.928-1.096-.77-.51.156-.836.652-1.052 1.141-.123.28-.229.576-.424.813-.195.236-.509.406-.806.33-.42-.108-.583-.607-.676-1.031-.125-.569-.25-1.146-.224-1.727.026-.582.222-1.18.651-1.573.7-.642 1.772-.579 2.715-.477-.223-.25-.167-.674.071-.91a1.036 1.036 0 0 1 .939-.23c.284.058.54.211.727.434.268.327.344.768.547 1.139.203.37.658.687 1.031.488.323-.172.374-.618.294-.974-.08-.357-.251-.703-.222-1.067.055-.695.776-1.113 1.41-1.399.636-.286 1.364-.67 1.465-1.36.003-.135.029-.268.075-.395a.774.774 0 0 1 .285-.267c1.854-1.226 3.74-2.466 5.859-3.136.11-.034.123.004.235-.023.158-.09.053-.342-.097-.444-.151-.1-.353-.178-.39-.356-.03-.13.048-.259.068-.39.049-.325-.34-.625-.64-.495-.17-.225.166-.487.438-.562a11.925 11.925 0 0 1 2.505-.41.451.451 0 0 1 .285.05c.142.098.124.324.023.464-.1.14-.257.23-.383.348a1.047 1.047 0 0 0-.271 1.052c.442.225.923.457 1.413.378.49-.08.924-.63.694-1.07-.215-.409-.858-.5-.97-.95-.129-.524.615-.991.447-1.506-.073-.225-.298-.358-.47-.52a1.412 1.412 0 0 1-.31-1.566 1.782 1.782 0 0 1-1.562-.49c-.374-.377-.672-.971-1.203-.955-.487.016-.907.584-1.363.41-.112-.042-.23-.129-.338-.078a.28.28 0 0 0-.127.21c-.116.553.084 1.184-.218 1.662-.328.52-1.088.592-1.486 1.062-.216.254-.3.598-.498.866-.198.269-.62.44-.858.205a1.182 1.182 0 0 0-.322-1.438 3.159 3.159 0 0 0-.71-.345 4.207 4.207 0 0 1-.792-.442.781.781 0 0 1-.292-.311.71.71 0 0 1 .02-.493 2.014 2.014 0 0 1 1.603-1.328c.318-.043.687-.028.897-.27.11-.128.17-.321.33-.373a.488.488 0 0 1 .306.038l1.184.416a.83.83 0 0 0 .422.07.285.285 0 0 0 .247-.3c-.038-.197-.34-.291-.313-.49a.326.326 0 0 1 .1-.166 4.233 4.233 0 0 1 3.357-1.326c.15.245-.087.536-.283.746-.197.21-.355.584-.117.745.097.05.206.074.315.07.292.04.575.126.84.255.408.178.81.373 1.203.585-.034-.26-.068-.533.03-.776.1-.242.379-.432.623-.338.235.091.356.403.606.431.335.038.467-.456.327-.762s-.416-.562-.44-.898c-.015-.226.071-.507-.11-.644a.493.493 0 0 0-.213-.075l-4.518-.831c-.268-.05-.655-.012-.667.26-.007.153.129.303.069.443-.064.15-.276.136-.43.188-.238.082-.357.365-.334.616.041.25.138.487.282.695-.293-.123-.738-.146-1.032-.269zM32.196 24.966a1.463 1.463 0 0 0-1.607.481c-.074.098-.136.233-.074.34.09.151.316.091.484.037a1.22 1.22 0 0 1 .766-.018c.157.054.298.15.456.201a.46.46 0 0 0 .469-.068c.108-.111.115-.283.115-.438a.351.351 0 0 0-.09-.29.46.46 0 0 0-.207-.06.715.715 0 0 1-.418-.245M33.825 24.513a.372.372 0 0 0-.36.524c.196.053.4.067.602.039a.514.514 0 0 0 .42-.385.968.968 0 0 1-.685-.131M39.29 23.756a6.914 6.914 0 0 0-1.542.523 1.158 1.158 0 0 1 .74 1.164.606.606 0 0 0 .008.288c.056.137.22.188.364.224.26.079.53.113.801.102a.815.815 0 0 0 .663-.405c.04-.111.085-.22.138-.326.346-.526 1.373.11 1.744-.399.131-.179.12-.449.29-.59a.65.65 0 0 1 .297-.114 20.905 20.905 0 0 1 2.26-.322c.36-.031.828-.16.83-.521a6.26 6.26 0 0 0-3.992.537c-.445.223-1.034.692-1.462.396-.16-.11-.153-.408-.374-.533-.226-.127-.525-.075-.764-.024z" fill="#3F3D56"/><path d="m43.717 24.583.636.122a.823.823 0 0 0-.857.893c.595.198 1.244.005 1.87.031.627.027 1.357.474 1.25 1.092-.033.187-.14.374-.084.555.039.127.15.217.214.334.132.244.026.552-.14.774-.166.221-.39.398-.536.633-.363.586-.157 1.343.06 1.997.062.247.178.478.338.676.32.34.843.37 1.31.377.341.005.731-.012.947-.276.28-.344.084-.881.27-1.285.167-.367.596-.525.983-.636.711-.205 1.435-.379 2.108-.688.834-.383 1.614-.981 2.53-1.03.258-.015.522.016.77-.055.247-.07.483-.285.464-.542-.016-.219-.202-.38-.347-.546-.145-.165-.26-.42-.126-.595l2.404-.449c-.17-.464-.303-1.075.089-1.378.14-.109.33-.152.45-.284.205-.225.102-.612-.135-.803-.236-.19-.556-.235-.86-.26-1.053-.088-2.113-.03-3.17.028l-6.193.34c-.415.022-.895-.013-1.276.129-.323.12-.552.34-.921.418-.681.142-1.431.046-2.048.428zM55.1 29.605a.256.256 0 0 0-.184.042.233.233 0 0 0-.06.143.942.942 0 0 0 .137.674.659.659 0 0 0 .604.29c.286-.037.497-.281.76-.4.405-.184 2.127-.47.936-1.113-.41-.222-.676-.026-1 .12-.367.188-.78.273-1.192.244zM65.533 24.22a.68.68 0 0 0-.331.288.29.29 0 0 0 .109.386.435.435 0 0 0 .162.025l.565.017c.24.008.54.059.605.29.048.172-.06.393.07.516a.365.365 0 0 0 .193.075c.186.047.38.054.57.018.41-.11.195-.361.324-.585.199-.342.164-.135.514-.331.258-.145.591-.407.376-.776-.375-.642-2.605-.198-3.157.077zM76.694 23.897l-.329.044c-.74.099-1.485.199-2.198.421.309.122.632.202.963.236.181.01.362.035.539.077.315.094.632.336.937.212.188-.077.25-.274.406-.378.108-.072.517-.188.563-.26.37-.587-.597-.39-.882-.352zM78.135 25.39a6.16 6.16 0 0 0-1.211.887c-.155.145-.312.325-.298.536.018.281.317.444.577.553l1.05.445c.127-.18.01-.427-.121-.604-.132-.176-.288-.38-.23-.592.066-.242.361-.325.609-.367.403-.068 1.492-.062 1.361-.712-.154-.766-1.332-.373-1.737-.147zM77.924 68.74c-.1.29-.11.63.064.883.194.283.582.39.918.317.334-.089.632-.28.852-.548.2-.224.366-.477.49-.751.173-.428.295-.874.364-1.33l.325-1.71c.073-.383.07-1.555-.632-1.173-.193.104-.637.928-.838 1.162-.363.42-.41.83-.602 1.34-.239.638-.72 1.17-.94 1.81zM115.049 77.495a5.068 5.068 0 0 1-.668-.318 5.64 5.64 0 0 0-.339 1.845l1.574-.89c.237-.134.505-.32.5-.592a.188.188 0 0 0-.087-.17.21.21 0 0 0-.11-.013c-.234.02-.446.134-.667.214-.22.08-.477.122-.679.003M123.351 78.024a3.393 3.393 0 0 0-.505.18c-.361.184-.607.534-.932.776-.311.231-.685.358-1.053.482-.108.095-.058.288.059.372a.73.73 0 0 0 .416.093c.382.009.784.012 1.118-.172a3.52 3.52 0 0 0 .527-.418c.391-.326.861-.541 1.326-.75a1.53 1.53 0 0 0 .462-.276c.292-.287.312-.731-.109-.83-.34-.078-.985.438-1.309.543zM127.019 75.628a1.305 1.305 0 0 0-.402-1.075c-.004.396-.016.818-.239 1.145-.159.234-.407.391-.581.614-.174.222-.252.574-.048.77.131.099.29.153.454.156.406.047.876.074 1.161-.22.155-.16.231-.397.42-.514a.51.51 0 0 0 .185-.133c.078-.124-.046-.288-.186-.333-.14-.045-.295-.023-.435-.066-.141-.043-.27-.2-.198-.329M120.5 61.105a1.83 1.83 0 0 1-.652.039c-.361-.067-.643-.34-.935-.563a4.124 4.124 0 0 0-2.409-.842c-.793-.014-1.594.2-2.373.05.051.284.293.496.551.622.259.126.544.19.804.313.416.2.746.543.929.967.084.195.136.407.263.578.259.348.75.425 1.183.396.565-.037 1.155-.2 1.68.011.402.161.69.513 1.026.786.336.274.808.477 1.194.28a1.974 1.974 0 0 1-1.366-1.9c.378.036 1.467.022 1.408-.62-.049-.544-.979-.176-1.303-.117zM115.554 65.533c.067-.368.434-.693.32-1.049-.079-.246-.365-.368-.623-.374-.259-.006-.513.07-.772.078a3.767 3.767 0 0 0-.505.007c-.514.085-.83.623-1.314.814-.294.117-.625.094-.931.175-.695.182-1.134.839-1.62 1.368a5.775 5.775 0 0 1-2.934 1.71c-.395.092-.819.15-1.133.407-.416.34-.518.922-.611 1.45a23.953 23.953 0 0 1-1.166 4.282l1.649.21c.314.04.639.08.941-.013.219-.083.427-.194.619-.33a6.17 6.17 0 0 1 2.413-.87c.432-.06.885-.07 1.29.09s.753.525.787.96a1.015 1.015 0 0 1 1.013.245c.258.264.427.601.483.966.044.225.087.495.297.59.171.077.367-.006.553-.02.635-.052 1.161.688 1.784.56.669-.136.833-1.137 1.485-1.338.375-.115.9.025 1.079-.323.158-.307-.157-.661-.124-1.005.04-.424.539-.603.924-.784 1.327-.623 1.957-2.409 1.314-3.726-.381-.78-1.131-1.395-1.269-2.253-.107-.66.153-1.429-.268-1.948-.214-.264-.576-.41-.703-.725-.08-.198-.048-.424-.091-.633-.043-.21-.226-.429-.433-.375-.601.158-.793 2.014-1.115 2.465-.489.685-1.493.234-1.339-.61zM104.447 61.807c-.205-.058-.429-.115-.626-.032-.197.082-.312.37-.154.514 1.235-.048 2.478-.096 3.703.072 1.412.193 2.809.672 4.226.531a21.52 21.52 0 0 0-2.465-.572l-1.388-.265a10.71 10.71 0 0 0-1.127-.174c-.791-.065-1.39.144-2.169-.074zM105.684 57.504c-.103-.008-.23-.015-.283.073-.05.084.008.195-.02.29-.037.129-.206.162-.339.144-.133-.018-.277-.06-.395.005a.334.334 0 0 0-.13.38.967.967 0 0 0 .229.364c.174.22.373.42.592.595.425.313 1 .464 1.268.919a.597.597 0 0 0 .169.228c.128.08.296.019.434-.044l.484-.221a.545.545 0 0 0 .227-.154c.111-.15.043-.364-.05-.526-.093-.162-.212-.33-.192-.515.035-.33.461-.457.636-.74.176-.285.061-.652.081-.987.024-.392.27-.9-.126-1.193-.336-.249-.657-.019-.899.255-.509.579-.75 1.206-1.686 1.127zM108.625 51.657c.165.316.51.505.691.814.195.334.173.766.385 1.09.218.332.656.509.778.887.133.413-.169.914.072 1.275a.533.533 0 0 0 .785.072.576.576 0 0 0-.024-.803c-.142-.13-.347-.187-.466-.339a.69.69 0 0 1-.121-.294 1.924 1.924 0 0 1 .03-.923.407.407 0 0 0 .023-.242c-.053-.156-.265-.167-.413-.239-.336-.164-.328-.639-.269-1.009-.039.247-.916-.172-1.008-.311-.183-.277-.083-.812-.119-1.118-.394.19-.546.752-.344 1.14zM99.79 56.529c-.162-.181-.406-.37-.623-.262-.165.084-.21.313-.146.486.08.17.2.314.353.421.452.373.939.71 1.334 1.143.706.776 1.08 1.823 1.848 2.538.154.165.359.276.582.314.223.021.475-.122.5-.345.021-.184-.107-.349-.232-.485-.298-.324-.625-.623-.906-.962a.81.81 0 0 1-.232-.483c-.001-.183.165-.374.342-.329-.215-.055-.375-.413-.69-.48-.264-.057-.328.107-.642-.028-.599-.257-1.069-1.059-1.488-1.528zM113.861 38.889a4.893 4.893 0 0 1-.506-.181c-.445-.134-1.033.193-.974.654.039.305.324.511.481.777.233.393.171.892.049 1.333-.03.136-.088.265-.168.38-.114.12-.249.217-.399.286a5.33 5.33 0 0 0-1.559 1.324.379.379 0 0 0-.094.177c-.021.156.135.27.223.399.196.288.055.675.074 1.023a.293.293 0 0 0 .122.254c.118.06.258-.042.322-.158.213-.385.053-1.004.452-1.19.076-.035.167-.05.217-.116.08-.105.003-.261.044-.387.06-.189.319-.197.517-.189.341.015.683-.03 1.008-.134a.671.671 0 0 0 .334-.193c.119-.15.109-.36.085-.55a7.432 7.432 0 0 0-.881-2.687c.351.045.732.084 1.035-.099.169-.102.372-.408.288-.616-.132-.33-.373-.052-.67-.108zM68.915 44.078c.042.225.083.462.01.679-.074.216-.306.397-.525.331-.17-.052-.269-.222-.39-.353-.67-.724-2.185-.305-2.6-1.201-.17-.366-.054-.804-.17-1.19a1.06 1.06 0 0 0-1.073-.73c-.214.031-.422.093-.618.185-1.31.525-2.688.869-4.092 1.023-.266.016-.53.064-.786.143-.576.209-.97.743-1.25 1.289-.281.545-.488 1.135-.864 1.62-.395.509-.948.865-1.465 1.251a1.494 1.494 0 0 0-.483.506c-.112.23-.105.497-.097.753l.106 3.102c.013.399.03.812.209 1.17.223.445.664.737.97 1.131.311.405.474.905.46 1.416-.007.205-.028.448.132.577a.585.585 0 0 0 .328.094l4.197.344c.738.06 1.556.16 2.038.722.228.265.41.647.759.675.15.013.295-.049.444-.06.377-.03.709.256.918.571.316.48.46 1.054.407 1.627-.034.36-.145.71-.17 1.07-.091 1.371 1.072 2.563 1.094 3.937.014.809-.37 1.564-.744 2.28.604.915.109 2.134.35 3.203.228 1.015 1.074 1.809 1.285 2.827.096.467.102 1.04.513 1.28.18.088.38.128.58.117a7.657 7.657 0 0 0 3.487-.794c.509-.252 1.036-.629 1.124-1.19.072-.451-.157-.957.076-1.35.275-.465.98-.428 1.384-.785.656-.578.145-1.682.41-2.516.24-.75 1.063-1.147 1.47-1.82.161-.289.276-.601.342-.925.187-.775.303-1.565.347-2.36.011-.484.047-.967.107-1.447.44-2.731 3.141-4.56 4.018-7.185.084-.25.123-.584-.1-.726a.638.638 0 0 0-.424-.044l-1.935.243c-.24.03-.495.059-.716-.04-.22-.1-.379-.38-.262-.592.329-.595-.347-1.347-.647-1.957a28.876 28.876 0 0 0-2.877-4.663.474.474 0 0 1-.126-.274l.55.018c-.186-.665-.492-1.393-1.138-1.636-.364-.137-.768-.09-1.156-.068-1.113.06-2.306-.108-3.407-.278z" fill="#3F3D56"/><path d="M72.323 29.093c.291.309.617.637 1.039.69.744.096 1.279-.674 1.62-1.342a.656.656 0 0 0 .684.607c.184-.031.36-.1.515-.201a10.146 10.146 0 0 1 4.806-1.243.52.52 0 0 1 .396-.57c.342-.068.65.228.815.534.164.307.267.662.529.892.262.23.769.22.872-.113.1-.319-.233-.591-.51-.78-.276-.188-.567-.536-.381-.814 1.412-.312 2.832-.626 4.276-.688a1.79 1.79 0 0 0 .72-.124c.22-.108.396-.353.337-.591a1.63 1.63 0 0 1-1.702-.642c2.005-.165 4.137-.306 5.913.637.213.457-.873.838-.583 1.25.093.132.279.148.44.15 1.234.024 2.476.046 3.696-.14.446-.068.897-.164 1.344-.11.746.093 1.384.59 2.118.752.299.067.634.069.885-.105.252-.174.36-.569.154-.795.691-.677 1.838-.509 2.749-.185s1.775.847 2.74.92c.691.051 1.393-.135 2.076-.017.43.075.829.265 1.249.383.794.222 1.634.175 2.459.186 2.103.028 4.184.441 6.138 1.22.254.082.487.22.682.402.182.195.275.498.153.734l-2.02-.295c.19.375.683.439 1.082.568.4.129.815.57.575.915-.434-.138-.826.295-1.045.694-.219.398-.485.875-.939.9-.407.021-.899-.325-1.163-.016.366.462.679.963.934 1.494.262.545.448 1.232.094 1.723a.445.445 0 0 1-.238.185c-.289.073-.477-.28-.684-.495-.261-.27-.656-.346-1.01-.473-.353-.126-.726-.375-.754-.75-.017-.233.106-.45.197-.665a2.57 2.57 0 0 0 .195-1.149c-.02-.316-.109-.645-.336-.866-.227-.22-.619-.29-.863-.088-.114.094-.205.245-.352.25-.261.01-.462-.444-.672-.289a.707.707 0 0 1-.097.477c-.626.545-1.589.314-2.397.507-.384.11-.751.27-1.093.477a.703.703 0 0 0-.313.263c-.1.196.011.446.188.577.189.115.401.188.621.211.984.187 1.983.475 2.761 1.108.777.632 1.287 1.678 1.041 2.649l-1.942-1.855c.074.779.116 1.56.126 2.343.012.153-.009.307-.062.45-.138.306-.514.41-.842.477a.656.656 0 0 0-.532.57.656.656 0 0 0 .025.275c.117.38.408.678.675.973.267.296.529.632.564 1.029.035.397-.264.844-.662.816-.301-.02-.524-.29-.653-.563-.128-.274-.205-.578-.398-.81-.584-.703-1.897-.402-2.42-1.15a1.19 1.19 0 0 0-.245 1.126c.244-.153.577-.011.76.21.183.222.269.506.413.754.194.336.502.634.529 1.02a3.38 3.38 0 0 0 .008.439c.048.234.246.402.383.598.32.456.304 1.082.098 1.599-.206.517-.576.949-.942 1.367-.64.732-1.294 1.46-2.052 2.067-.217.173-.448.343-.583.586-.135.242-.142.582.066.767-.149.007-.415.08-.563.087a13.183 13.183 0 0 1-.034-1.788c-.585-.281-1.215.471-1.14 1.116.076.644.542 1.162.874 1.72.243.407.423.883.342 1.35-.081.468-.498.9-.971.858-.752-.066-1.067-1.145-1.812-1.269a.306.306 0 0 0-.196.02c-.11.06-.13.208-.136.334-.03.618-.057 1.261.185 1.831.353.834 1.265 1.534 1.074 2.42-1.031-.48-1.567-1.636-1.81-2.746-.244-1.11-.284-2.275-.72-3.325-.332.425-1.028.074-1.33-.371-.287-.423-.464-.91-.742-1.339-.279-.428-.705-.81-1.215-.834-.535-.025-.998.342-1.406.689-.335.285-.68.58-.876.975-.285.573-.21 1.249-.224 1.89-.015.691-.162 1.421-.633 1.928-.472.507-1.343.683-1.863.227-.272-.239-.404-.595-.52-.937a45.832 45.832 0 0 1-1.41-5.028c-.087.388-.428.889-.754.66a.676.676 0 0 1-.174-.224c-.608-1.03-1.733-1.648-2.87-2.018-1.138-.37-2.334-.543-3.459-.95a8.757 8.757 0 0 1-1.794-.894 1.41 1.41 0 0 0-.086 1.443c.25.442.814.697 1.297.543.25-.08.46-.253.709-.339.247-.085.58-.043.688.195.104.229-.053.505.025.744.118.363.667.391.858.722.143.246.026.572-.178.77-.204.2-.475.308-.724.446-.806.448-1.38 1.214-2.084 1.81-.705.595-1.7 1.03-2.54.647.201-1.013-1.007-1.757-1.229-2.766-.073-.332-.035-.685-.14-1.009-.15-.468-.566-.79-.907-1.145a4.494 4.494 0 0 1-1.234-3.272c.019-.417.095-.84 0-1.247-.095-.407-.431-.8-.849-.782-.952.043-2.152.113-2.652-.698-.178-.29-.256-.715.002-.937.182-.156.45-.141.69-.118l2.146.211c.502.05 1.044.09 1.475-.172.43-.262.617-.959.219-1.268-.292-.225-.814-.213-.899-.572-.07-.298.26-.637.082-.887-.128-.179-.416-.129-.59.005-.175.134-.302.33-.497.432-.342.178-.752.009-1.12-.106-.368-.116-.862-.126-1.041.217-.2.382.177.884-.021 1.267-.262.507-1.15.218-1.519.654-.422.5.288 1.247.145 1.886a1.174 1.174 0 0 1-1.157-.065 1.124 1.124 0 0 1-.485-1.046c.035-.287.185-.58.085-.852-.082-.22-.302-.351-.507-.464l-2.086-1.153c-.194.36.051.805.357 1.075.307.27.69.472.891.827a1.086 1.086 0 0 1-.409 1.433.251.251 0 0 1-.207.036.288.288 0 0 1-.134-.18c-.368-.942-.92-1.87-1.803-2.362-.884-.492-2.153-.39-2.732.438-.138.197-.23.421-.35.63-.637 1.105-2.002 1.628-3.277 1.594a.65.65 0 0 1-.358-.084c-.206-.142-.197-.444-.165-.693l.134-1.054c.027-.212.066-.446.233-.578.236-.187.577-.069.878-.073a1.113 1.113 0 0 0 1.01-.78 1.252 1.252 0 0 0-.349-1.246c-.138-.13-.323-.293-.25-.467a.385.385 0 0 1 .27-.182c.541-.157 1.112-.199 1.644-.384.531-.185 1.047-.564 1.172-1.112.039-.168.056-.372.207-.455a.621.621 0 0 1 .24-.05 1.165 1.165 0 0 0 1-1.213c.254-.178.61-.047.857.142.246.19.464.44.764.52.559.153 1.099-.342 1.678-.344.243 0 .495.085.724.003.233-.084.371-.315.55-.486.178-.17.49-.275.655-.09l-.14-1.039a2.041 2.041 0 0 0 1.661-.3l-1.811-.612a.394.394 0 0 1-.17-.09c-.132-.142 0-.363.106-.525.257-.385.3-1.02-.122-1.212-.287-.131-.617.026-.893.18l-1.323.737c-.041.251.266.394.456.563a.764.764 0 0 1-.498 1.335.951.951 0 0 1 .17.807l-.89.064c-.1.02-.203 0-.288-.056-.095-.085-.082-.233-.104-.358-.054-.303-.35-.515-.652-.569-.302-.054-.612.015-.91.084a.544.544 0 0 1-.393-.009.39.39 0 0 1-.154-.195c-.132-.319-.009-.692.202-.964.21-.273.5-.471.758-.698a4.419 4.419 0 0 0 1.315-2.038c.49-.205.996-.484 1.486-.69a4.55 4.55 0 0 1 2.445-.473l1.658.032c.491.01.996.021 1.45.209.454.187.853.591.884 1.082a.333.333 0 0 1-.106.303.392.392 0 0 1-.21.047c-.458.016-.653.13-1.111.147zM59.104 34.29a.485.485 0 0 0 .132-.489.908.908 0 0 0-.94.177c-.098.1-.183.212-.252.333-.217.356-.41.78-.284 1.178a.334.334 0 0 0 .153.21.402.402 0 0 0 .179.027c.24 0 .48-.015.718-.044.146-.018.316-.06.373-.195.074-.18-.106-.382-.053-.568a.62.62 0 0 1 .153-.22.29.29 0 0 0 .09-.243c-.02-.088-.155-.138-.203-.061" fill="#3F3D56"/><path d="M60.349 32.675a2.008 2.008 0 0 0-.651-.04.284.284 0 0 0-.139.031.232.232 0 0 0-.085.124.615.615 0 0 0 .358.753.768.768 0 0 1 .222.09c.184.142.066.434.101.664.04.259.29.476.244.734-.036.202-.253.363-.218.566.037.213.306.277.522.294a.657.657 0 0 0 .37-.043c.116-.08.2-.2.233-.337.088-.262.125-.54.109-.815a.772.772 0 0 0-.092-.36 2.008 2.008 0 0 0-.215-.246c-.412-.48.022-1.195-.76-1.415z" fill="#3F3D56"/><path opacity=".8" d="M114.566 70.238s-31.578-18.123-45.173-14.69c0 0-28.812 3.1-32.151 9.92 0 0-9.159-28.615-12.498-29.569" stroke="#6C63FF" stroke-miterlimit="10"/><path opacity=".8" d="M37.242 65.468c5.295-14.117 52.996-29.76 52.996-29.76-6.773 1.717-20.845 19.84-20.845 19.84S39.627 33.896 24.744 35.9c0 0 65.542 2.146 89.822 34.338" stroke="#6C63FF" stroke-miterlimit="10"/><path d="M24.744 37.282a1.383 1.383 0 1 0 0-2.766 1.383 1.383 0 0 0 0 2.766zM37.242 66.852a1.383 1.383 0 1 0 0-2.767 1.383 1.383 0 0 0 0 2.767zM90.238 37.092a1.383 1.383 0 1 0 0-2.767 1.383 1.383 0 0 0 0 2.767zM114.566 71.62a1.383 1.383 0 1 0 0-2.765 1.383 1.383 0 0 0 0 2.766zM69.393 56.932a1.383 1.383 0 1 0 0-2.767 1.383 1.383 0 0 0 0 2.767z" fill="#6C63FF"/></g><defs><clipPath id="a"><path fill="#fff" d="M0 0h136v101H0z"/></clipPath></defs></svg>