<svg width="136" height="97" fill="none" xmlns="http://www.w3.org/2000/svg"><g clip-path="url(#a)"><path opacity=".1" d="M125.365 96.638c1.014-1.005-.16-3.796-2.622-6.235-2.462-2.44-5.28-3.602-6.294-2.598-1.014 1.005.16 3.797 2.622 6.236 2.462 2.439 5.28 3.602 6.294 2.597z" fill="#6C63FF"/><path d="M121.353 92.63c.77 0 1.394-.81 1.394-1.809 0-.998-.624-1.808-1.394-1.808-.77 0-1.394.81-1.394 1.808 0 .999.624 1.809 1.394 1.809z" fill="#3F3D56"/><path d="M121.353 90.42c.77 0 1.394-.81 1.394-1.808 0-1-.624-1.809-1.394-1.809-.77 0-1.394.81-1.394 1.809 0 .998.624 1.808 1.394 1.808z" fill="#3F3D56"/><path d="M121.353 88.21c.77 0 1.394-.81 1.394-1.808 0-.999-.624-1.808-1.394-1.808-.77 0-1.394.81-1.394 1.808s.624 1.808 1.394 1.808z" fill="#3F3D56"/><path d="M121.353 86c.77 0 1.394-.81 1.394-1.808 0-.999-.624-1.808-1.394-1.808-.77 0-1.394.81-1.394 1.808 0 .999.624 1.808 1.394 1.808z" fill="#3F3D56"/><path d="M121.353 83.79c.77 0 1.394-.809 1.394-1.808 0-.998-.624-1.808-1.394-1.808-.77 0-1.394.81-1.394 1.808 0 .999.624 1.809 1.394 1.809z" fill="#3F3D56"/><path d="M121.353 81.58c.77 0 1.394-.809 1.394-1.807 0-.999-.624-1.808-1.394-1.808-.77 0-1.394.809-1.394 1.808 0 .998.624 1.808 1.394 1.808z" fill="#3F3D56"/><path d="M121.353 79.371c.77 0 1.394-.81 1.394-1.808 0-.999-.624-1.808-1.394-1.808-.77 0-1.394.81-1.394 1.808 0 .999.624 1.808 1.394 1.808z" fill="#3F3D56"/><path d="M126.571 62.441a6.64 6.64 0 0 0 .52-.757l-3.663-.595 3.961.028a6.578 6.578 0 0 0 .13-5.242l-5.314 2.732 4.899-3.57a6.64 6.64 0 0 0-1.815-2.012 6.697 6.697 0 0 0-2.473-1.127 6.742 6.742 0 0 0-5.241.971 6.637 6.637 0 0 0-1.895 1.937 6.549 6.549 0 0 0-.818 5.22c.233.88.646 1.701 1.213 2.415a6.567 6.567 0 0 0-.761 1.206l4.754 2.445-5.066-1.686a6.571 6.571 0 0 0 1.077 6.212 6.565 6.565 0 0 0-.758 6.98 6.64 6.64 0 0 0 2.463 2.717 6.724 6.724 0 0 0 7.086 0 6.64 6.64 0 0 0 2.463-2.717 6.566 6.566 0 0 0-.758-6.98 6.575 6.575 0 0 0 1.429-4.09 6.575 6.575 0 0 0-1.429-4.09l-.004.003z" fill="#6C63FF"/><path opacity=".1" d="M114.646 66.531a6.548 6.548 0 0 0 1.429 4.09 6.565 6.565 0 0 0-.758 6.98 6.64 6.64 0 0 0 2.463 2.717 6.726 6.726 0 0 0 7.086 0 6.634 6.634 0 0 0 2.463-2.717 6.557 6.557 0 0 0-.758-6.98c.895-1.125-11.925-4.832-11.925-4.09z" fill="#000"/><path d="M118.02 0v92.662l-31.695-4.376-38.53 7.787-.31.063-30.656-8.365V7.207L48.654 0l34.813 7.207 1.324-.277L118.02 0z" fill="#444053"/><path d="M112.694 5.06v82.908l-28.358-3.915-34.474 6.968-.278.055-27.43-7.483V11.508L50.632 5.06l31.147 6.448 1.185-.247 29.731-6.2z" fill="#fff"/><path opacity=".1" d="m86.325 88.286-38.53 7.787L48.656 0l34.812 7.207 1.324-.277 1.534 81.356z" fill="#000"/><g opacity=".3" stroke="#444053" stroke-miterlimit="10"><path opacity=".3" d="M104.238 17.76v61.903M31.11 79.663V17.76M53.424 17.76v61.903M63.856 17.889v61.903M74.248 18.275v61.903M83.601 18.275v61.903M93.733 18.275v61.903M19.561 33.333l95.086.386M19.561 45.044l95.086.386M19.431 56.755l95.086.386M19.431 68.467l95.086.386M41.163 17.872v61.791"/></g><path opacity=".1" d="M75.188 96.017c2.204-.94 3.673-2.432 3.282-3.331-.39-.9-2.495-.867-4.698.074-2.205.94-3.674 2.432-3.283 3.331.39.9 2.495.867 4.699-.074z" fill="#6C63FF"/><path d="M74.429 94.933c.53 0 .96-.558.96-1.246s-.43-1.245-.96-1.245c-.531 0-.962.557-.962 1.245 0 .688.43 1.246.962 1.246z" fill="#3F3D56"/><path d="M74.429 93.41c.53 0 .96-.558.96-1.246s-.43-1.246-.96-1.246c-.531 0-.962.558-.962 1.246s.43 1.245.962 1.245z" fill="#3F3D56"/><path d="M74.429 91.887c.53 0 .96-.558.96-1.246s-.43-1.246-.96-1.246c-.531 0-.962.558-.962 1.246s.43 1.246.962 1.246z" fill="#3F3D56"/><path d="M74.429 90.364c.53 0 .96-.557.96-1.245 0-.688-.43-1.246-.96-1.246-.531 0-.962.558-.962 1.246s.43 1.245.962 1.245z" fill="#3F3D56"/><path d="M74.429 88.84c.53 0 .96-.557.96-1.245 0-.688-.43-1.246-.96-1.246-.531 0-.962.558-.962 1.246s.43 1.246.962 1.246z" fill="#3F3D56"/><path d="M74.429 87.318c.53 0 .96-.558.96-1.246s-.43-1.246-.96-1.246c-.531 0-.962.558-.962 1.246s.43 1.246.962 1.246z" fill="#3F3D56"/><path d="M74.429 85.796c.53 0 .96-.558.96-1.246s-.43-1.246-.96-1.246c-.531 0-.962.558-.962 1.246s.43 1.246.962 1.246z" fill="#3F3D56"/><path d="M70.832 74.127a4.634 4.634 0 0 1-.359-.515L73 73.2l-2.728.02a4.538 4.538 0 0 1-.088-3.612l3.663 1.877-3.378-2.461a4.576 4.576 0 0 1 1.25-1.386 4.622 4.622 0 0 1 3.581-.814 4.626 4.626 0 0 1 1.736.707 4.58 4.58 0 0 1 1.306 1.335 4.533 4.533 0 0 1 .564 3.597 4.543 4.543 0 0 1-.836 1.664c.202.258.376.536.52.831l-3.276 1.687 3.495-1.158a4.522 4.522 0 0 1-.742 4.282 4.523 4.523 0 0 1 .523 4.811 4.574 4.574 0 0 1-1.698 1.873 4.634 4.634 0 0 1-4.884 0 4.575 4.575 0 0 1-1.698-1.873 4.524 4.524 0 0 1 .523-4.811 4.534 4.534 0 0 1-.985-2.82c0-1.022.347-2.015.985-2.818v-.004z" fill="#6C63FF"/><path opacity=".1" d="M79.05 76.941a4.514 4.514 0 0 1-.984 2.82 4.523 4.523 0 0 1 .523 4.811 4.575 4.575 0 0 1-1.698 1.873 4.634 4.634 0 0 1-4.884 0 4.576 4.576 0 0 1-1.698-1.873 4.524 4.524 0 0 1 .523-4.811c-.617-.772 8.219-3.327 8.219-2.82z" fill="#000"/><path opacity=".1" d="M18.718 93.806c1.014-1.004-.16-3.796-2.621-6.235-2.462-2.439-5.28-3.602-6.294-2.597-1.014 1.004.16 3.796 2.621 6.235 2.462 2.44 5.28 3.602 6.294 2.597z" fill="#6C63FF"/><path d="M14.707 89.798c.77 0 1.394-.81 1.394-1.808 0-.999-.624-1.808-1.394-1.808-.77 0-1.394.81-1.394 1.808 0 .999.624 1.808 1.394 1.808z" fill="#3F3D56"/><path d="M14.707 87.588c.77 0 1.394-.81 1.394-1.808s-.624-1.808-1.394-1.808c-.77 0-1.394.81-1.394 1.808 0 .999.624 1.808 1.394 1.808z" fill="#3F3D56"/><path d="M14.707 85.379c.77 0 1.394-.81 1.394-1.809 0-.998-.624-1.808-1.394-1.808-.77 0-1.394.81-1.394 1.808 0 1 .624 1.809 1.394 1.809z" fill="#3F3D56"/><path d="M14.707 83.169c.77 0 1.394-.81 1.394-1.808 0-.999-.624-1.809-1.394-1.809-.77 0-1.394.81-1.394 1.809 0 .998.624 1.808 1.394 1.808z" fill="#3F3D56"/><path d="M14.707 80.96c.77 0 1.394-.81 1.394-1.809 0-.998-.624-1.808-1.394-1.808-.77 0-1.394.81-1.394 1.808 0 .999.624 1.808 1.394 1.808z" fill="#3F3D56"/><path d="M14.707 78.75c.77 0 1.394-.81 1.394-1.809 0-.998-.624-1.808-1.394-1.808-.77 0-1.394.81-1.394 1.808 0 .999.624 1.808 1.394 1.808z" fill="#3F3D56"/><path d="M14.707 76.54c.77 0 1.394-.81 1.394-1.808 0-.999-.624-1.808-1.394-1.808-.77 0-1.394.809-1.394 1.808 0 .998.624 1.808 1.394 1.808z" fill="#3F3D56"/><path d="M19.925 59.61c.19-.24.364-.493.52-.757l-3.664-.596 3.962.029a6.583 6.583 0 0 0 .13-5.242l-5.314 2.732 4.898-3.57a6.637 6.637 0 0 0-1.814-2.012 6.739 6.739 0 0 0-7.715-.156 6.644 6.644 0 0 0-1.895 1.937 6.579 6.579 0 0 0-.818 5.22A6.593 6.593 0 0 0 9.43 59.61a6.573 6.573 0 0 0-.761 1.206l4.754 2.445-5.066-1.686a6.563 6.563 0 0 0 1.077 6.212 6.562 6.562 0 0 0-.758 6.98 6.636 6.636 0 0 0 2.463 2.717 6.723 6.723 0 0 0 7.085 0 6.636 6.636 0 0 0 2.463-2.717 6.561 6.561 0 0 0-.758-6.98 6.577 6.577 0 0 0 1.43-4.09 6.578 6.578 0 0 0-1.43-4.09l-.003.003z" fill="#6C63FF"/><path opacity=".1" d="M8 63.7a6.546 6.546 0 0 0 1.429 4.09 6.562 6.562 0 0 0-.758 6.98 6.636 6.636 0 0 0 2.463 2.716 6.723 6.723 0 0 0 7.086 0 6.636 6.636 0 0 0 2.463-2.717 6.561 6.561 0 0 0-.758-6.98C20.82 66.666 8 62.958 8 63.7z" fill="#000"/><path d="m30.059 41.528 5.885 2.724" stroke="#999CA0"/><path transform="matrix(.92098 -.38962 .39579 .91834 24.497 49.548)" stroke="#999CA0" d="M0-.5h12.222"/><path transform="matrix(.79027 .61275 -.61986 .78471 35.669 44.915)" stroke="#999CA0" d="M0-.5h3.781"/><path stroke="#999CA0" d="M35.669 44.286h4.416"/><path transform="matrix(.92188 .38748 -.39363 .91927 38.656 47.232)" stroke="#999CA0" d="M0-.5h35.232"/><path transform="matrix(.6042 -.79683 .8022 .59706 71.13 60.868)" stroke="#999CA0" d="M0-.5h11.622"/><path transform="matrix(.87658 -.48125 .48814 .87277 78.145 51.562)" stroke="#999CA0" d="M0-.5h25.846"/><path transform="matrix(.93733 .34845 -.35418 .93518 76.943 48.934)" stroke="#999CA0" d="M0-.5h3.893"/><path transform="rotate(14.028 -164.092 351.68) skewX(-.016)" stroke="#999CA0" d="M0-.5h3.638"/><ellipse cx="30.066" cy="41.445" rx=".89" ry=".882" fill="#FFB8B8"/><ellipse cx="23.89" cy="49.382" rx=".89" ry=".882" fill="#FFD037"/><ellipse cx="35.361" cy="44.091" rx=".89" ry=".882" fill="#009688"/><ellipse cx="40.655" cy="44.091" rx=".89" ry=".882" fill="#979797"/><ellipse cx="71.111" cy="60.597" rx=".89" ry=".882" fill="#1B75BB"/><ellipse cx="77.086" cy="48.628" rx=".89" ry=".882" fill="#7B68F5"/><ellipse cx="77.714" cy="51.145" rx=".89" ry=".882" fill="#76C3C6"/><circle cx="83.882" cy="50.264" fill="#B44F63" r=".882"/><ellipse cx="80.361" cy="49.382" rx=".89" ry=".882" fill="#F17D4E"/><ellipse cx="100.655" cy="38.8" rx=".89" ry=".882" fill="#73BDF7"/><ellipse cx="38.896" cy="47.084" rx=".89" ry=".882" fill="#5D54CD"/></g><defs><clipPath id="a"><path fill="#fff" d="M0 0h136v97H0z"/></clipPath></defs></svg>