<svg width="188" height="136" fill="none" xmlns="http://www.w3.org/2000/svg"><g clip-path="url(#a)"><path d="M119.804 101.955v32.784h-82.3c-9.378 0-17.007-7.354-17.007-16.392s7.63-16.392 17.006-16.392h82.301z" fill="#F2F2F2"/><path d="M121.825 134.487a1.262 1.262 0 0 1-1.263 1.261H36.038c-4.591 0-8.994-1.82-12.24-5.06a17.256 17.256 0 0 1-5.07-12.215 17.26 17.26 0 0 1 5.07-12.215 17.326 17.326 0 0 1 12.24-5.06h84.524a1.262 1.262 0 0 1 .893 2.153 1.266 1.266 0 0 1-.893.369H36.038a14.8 14.8 0 0 0-10.453 4.321 14.738 14.738 0 0 0-4.33 10.432c0 3.913 1.558 7.665 4.33 10.432a14.796 14.796 0 0 0 10.453 4.321h84.524a1.266 1.266 0 0 1 1.263 1.261z" fill="#6C63FF"/><path d="M119.803 109.521h-88.44a.254.254 0 0 1-.253-.253.252.252 0 0 1 .253-.252h88.44a.254.254 0 0 1 .253.252.254.254 0 0 1-.253.253zM119.803 115.573h-88.44a.254.254 0 0 1-.253-.252.25.25 0 0 1 .074-.178.25.25 0 0 1 .179-.074h88.44a.252.252 0 1 1 0 .504zM119.803 121.625h-88.44a.253.253 0 0 1-.18-.073.25.25 0 0 1 0-.357.254.254 0 0 1 .18-.074h88.44a.254.254 0 0 1 .253.252.256.256 0 0 1-.074.179.253.253 0 0 1-.179.073zM119.803 127.678h-88.44a.254.254 0 0 1-.253-.252c0-.067.027-.131.074-.179a.253.253 0 0 1 .179-.073h88.44c.067 0 .132.026.179.073a.252.252 0 0 1-.179.431z" fill="#CCC"/><path d="m183.409 108.126-20.611 25.528L98.713 82.12c-7.302-5.871-8.62-16.375-2.937-23.413 5.682-7.038 16.246-7.987 23.547-2.115l64.086 51.534z" fill="#F2F2F2"/><path d="M164.531 134.724a1.265 1.265 0 0 1-1.777.191L96.937 81.988a17.25 17.25 0 0 1-2.618-24.29 17.333 17.333 0 0 1 24.338-2.613l65.817 52.927a1.263 1.263 0 0 1 .421 1.337 1.267 1.267 0 0 1-2.006.627l-65.817-52.927a14.799 14.799 0 0 0-10.858-3.185 14.801 14.801 0 0 0-9.932 5.413 14.743 14.743 0 0 0-3.187 10.837 14.732 14.732 0 0 0 5.427 9.91l65.818 52.927a1.26 1.26 0 0 1 .191 1.773z" fill="#CCC"/><path d="m178.653 114.017-68.867-55.379a.25.25 0 0 1-.084-.267.254.254 0 0 1 .314-.171c.032.01.061.025.087.045l68.867 55.38a.243.243 0 0 1 .093.169.233.233 0 0 1-.009.098.26.26 0 0 1-.121.151.278.278 0 0 1-.094.029.248.248 0 0 1-.186-.055zM174.848 118.73l-68.867-55.379a.253.253 0 0 1-.038-.354.253.253 0 0 1 .355-.039l68.867 55.38a.259.259 0 0 1 .093.169.27.27 0 0 1-.009.098.235.235 0 0 1-.046.087.238.238 0 0 1-.075.063.27.27 0 0 1-.095.03.27.27 0 0 1-.098-.009.243.243 0 0 1-.087-.046zM171.042 123.443l-68.867-55.379a.251.251 0 0 1-.038-.355.252.252 0 0 1 .355-.038l68.867 55.379a.26.26 0 0 1 .064.076.24.24 0 0 1 .029.094.258.258 0 0 1-.054.185.256.256 0 0 1-.268.084.265.265 0 0 1-.088-.046zM167.238 128.156l-68.867-55.38a.254.254 0 0 1-.084-.266.253.253 0 0 1 .4-.126l68.868 55.379a.256.256 0 0 1 .084.268.252.252 0 0 1-.401.125zM187.747 136H.253a.254.254 0 0 1-.253-.252.25.25 0 0 1 .074-.178.25.25 0 0 1 .179-.074h187.494a.252.252 0 1 1 0 .504z" fill="#CCC"/><path d="m85.429 98.51-2.89-.001-1.373-11.12h4.264l-.001 11.12z" fill="#FFB8B8"/><path d="M80.477 97.685h5.571v3.501H76.97a3.495 3.495 0 0 1 2.166-3.234 3.512 3.512 0 0 1 1.342-.267z" fill="#2F2E41"/><path d="m55.916 98.51-2.889-.001-1.374-11.12h4.264l-.001 11.12z" fill="#FFB8B8"/><path d="M50.964 97.685h5.571v3.501h-9.079a3.493 3.493 0 0 1 1.027-2.476 3.508 3.508 0 0 1 2.48-1.025zM65.565 16.022v-1.26c0-2.158.859-4.226 2.387-5.752a8.158 8.158 0 0 1 11.525 0 8.125 8.125 0 0 1 2.387 5.751v1.261a5.857 5.857 0 0 1-1.72 4.146 5.881 5.881 0 0 1-4.155 1.718H71.44a5.884 5.884 0 0 1-4.154-1.718 5.862 5.862 0 0 1-1.72-4.146z" fill="#2F2E41"/><path d="M73.714 22.32c3.428 0 6.206-2.774 6.206-6.195 0-3.42-2.778-6.194-6.206-6.194-3.427 0-6.206 2.774-6.206 6.194 0 3.421 2.779 6.194 6.206 6.194zM39.956 37.413a2.37 2.37 0 0 1 3.609.423l5.32-1.004 1.4 3.078-7.533 1.313a2.386 2.386 0 0 1-3.093-.666 2.374 2.374 0 0 1 .297-3.144z" fill="#FFB8B8"/><path d="m68.876 26.22.07.105-8.725 5.736L45.5 36.753a.886.886 0 0 0-.61.942l.322 2.76a.882.882 0 0 0 1.063.762l13.855-2.964a5.01 5.01 0 0 0 1.863-.818l9.801-6.96a2.527 2.527 0 0 0 1.051-2.256 2.512 2.512 0 0 0-1.41-2.056 2.524 2.524 0 0 0-2.49.162l-.07-.105z" fill="#CCC"/><path d="M82.592 95.353a1.144 1.144 0 0 1-1.046-.68L68.303 62.013a.379.379 0 0 0-.71.04L56.788 93.848a1.133 1.133 0 0 1-1.03.8 1.14 1.14 0 0 1-.456-.071l-3.623-1.356a1.134 1.134 0 0 1-.732-.934c-1.63-14.171 12.584-49.94 12.728-50.3l.04-.1 12.957 2.86.027.03c5.169 5.628 9.418 41.127 10.218 48.186a1.128 1.128 0 0 1-.751 1.197l-3.198 1.129c-.121.043-.248.064-.376.064z" fill="#2F2E41"/><path d="M71.428 45.9c-3.14 0-6.64-.625-7.716-3.204l-.025-.059.033-.055c.85-1.392 1.974-3.768 1.37-4.214-1.19-.878-1.767-2.322-1.716-4.293.111-4.279 3.033-8.077 7.269-9.453a32.297 32.297 0 0 1 3.604-.926 6.146 6.146 0 0 1 5.087 1.254 6.187 6.187 0 0 1 2.299 4.759c.044 4.572-.661 10.94-4.274 15.313-.169.203-.405.34-.665.386a30.95 30.95 0 0 1-5.266.491z" fill="#CCC"/><path d="M70.26 45.728a2.419 2.419 0 0 1 2.951-1.68c.126.034.248.08.366.135l4.04-3.67 2.809 1.89-5.777 5.102a2.409 2.409 0 0 1-2.732 1.156 2.376 2.376 0 0 1-1.731-2.006 2.364 2.364 0 0 1 .074-.927z" fill="#FFB8B8"/><path d="M76.977 45.775c-.262 0-.517-.09-.72-.256l-1.592-1.3a1.135 1.135 0 0 1 .027-1.779l6.682-5.114a.379.379 0 0 0 .071-.528l-4.124-5.442a3.346 3.346 0 0 1 .225-4.316 3.35 3.35 0 0 1 4.52-.36l.026.027 4.306 6.154a3.833 3.833 0 0 1 1.47 3.072 3.825 3.825 0 0 1-1.561 3.027l-8.653 6.592a1.14 1.14 0 0 1-.677.223z" fill="#CCC"/><path d="M68.217 14.383V11.31l5.498-2.396 5.242 2.396v3.073a.504.504 0 0 1-.506.504h-9.728a.506.506 0 0 1-.506-.504z" fill="#2F2E41"/><path d="M73.462 7.036c-.808-2.582.89-5.541 3.399-6.563 2.51-1.022 5.512-.308 7.63 1.38 2.117 1.69 3.431 4.218 4.127 6.833.696 2.614.828 5.34.957 8.042 3.083.566 5.18 4.215 4.113 7.157-1.069 2.941-5.022 4.403-7.752 2.865-2.73-1.537-3.522-5.67-1.55-8.103a6.643 6.643 0 0 0 .147-8.172 6.677 6.677 0 0 0-7.902-2.145c-1.52.634-3.427-1.014-3.169-1.294z" fill="#2F2E41"/><path d="M38.817 25.492a26.437 26.437 0 0 1-10.701-2.34 1.13 1.13 0 0 1-.67-1.034v-9.184a1.135 1.135 0 0 1 1.137-1.135H49.05a1.14 1.14 0 0 1 1.137 1.135v9.184a1.126 1.126 0 0 1-.67 1.035 26.437 26.437 0 0 1-10.701 2.339z" fill="#6C63FF"/><path d="M38.814 18.051a1.14 1.14 0 0 1-.442-.088l-16.23-6.834a1.137 1.137 0 0 1-.695-1.067 1.133 1.133 0 0 1 .733-1.04l16.23-6.145c.262-.1.551-.099.812.002l16.014 6.145a1.137 1.137 0 0 1 .546 1.675c-.122.19-.3.339-.507.428L39.26 17.96c-.141.06-.293.091-.447.091z" fill="#6C63FF"/><path d="M29.341 23.778c.838 0 1.517-.678 1.517-1.513 0-.836-.68-1.514-1.517-1.514a1.515 1.515 0 1 0 0 3.026z" fill="#3F3D56"/><path opacity=".2" d="m55.33 10.156-16.014 6.835a1.013 1.013 0 0 1-.79.001l-16.23-6.834a.991.991 0 0 1-.484-.423 1.008 1.008 0 0 0 .483 1.432l16.23 6.834a1.01 1.01 0 0 0 .791-.002l16.014-6.834a1.01 1.01 0 0 0 .608-1.028 1.007 1.007 0 0 0-.13-.402.992.992 0 0 1-.478.421z" fill="#000"/><path d="M29.468 22.259a.253.253 0 0 0 .252-.253v-8.438l8.334-3.03a.253.253 0 0 0 .185-.428.253.253 0 0 0-.177-.077l-8.334 3.03a.496.496 0 0 0-.474.31.5.5 0 0 0-.04.195v8.438a.252.252 0 0 0 .254.253z" fill="#3F3D56"/></g><defs><clipPath id="a"><path fill="#fff" d="M0 0h188v136H0z"/></clipPath></defs></svg>