<svg width="136" height="98" fill="none" xmlns="http://www.w3.org/2000/svg"><g clip-path="url(#a)"><path fill="#fff" d="M0 0h136v98H0z"/><path d="M5.5 49a.523.523 0 0 1-.354-.135A.441.441 0 0 1 5 48.54V32.46c0-.122.053-.24.146-.325A.523.523 0 0 1 5.5 32c.133 0 .26.048.354.135A.441.441 0 0 1 6 32.46v16.08a.441.441 0 0 1-.146.325A.523.523 0 0 1 5.5 49zM8.5 52a.511.511 0 0 1-.354-.14.47.47 0 0 1-.146-.34V29.48a.47.47 0 0 1 .146-.34.511.511 0 0 1 .708 0 .47.47 0 0 1 .146.34v22.04a.47.47 0 0 1-.146.34.511.511 0 0 1-.354.14zM11.5 53a.527.527 0 0 1-.354-.133.435.435 0 0 1-.146-.322v-24.09c0-.121.053-.237.146-.322A.527.527 0 0 1 11.5 28c.133 0 .26.048.354.133.093.085.146.201.146.322v24.09c0 .121-.053.237-.146.322A.526.526 0 0 1 11.5 53zM15.5 57a.528.528 0 0 1-.354-.132.432.432 0 0 1-.146-.32V24.452c0-.12.053-.235.146-.32A.528.528 0 0 1 15.5 24c.133 0 .26.048.354.132.093.085.146.2.146.32v32.096c0 .12-.053.235-.146.32A.528.528 0 0 1 15.5 57zM18.5 64a.517.517 0 0 1-.354-.138.456.456 0 0 1-.146-.332V17.47c0-.125.053-.244.146-.332A.517.517 0 0 1 18.5 17c.133 0 .26.05.354.138a.456.456 0 0 1 .146.332v46.06a.456.456 0 0 1-.146.332.516.516 0 0 1-.354.138zM21.5 57a.528.528 0 0 1-.354-.132.432.432 0 0 1-.146-.32V24.452c0-.12.053-.235.146-.32A.528.528 0 0 1 21.5 24c.133 0 .26.048.354.132.093.085.146.2.146.32v32.096c0 .12-.053.235-.146.32A.528.528 0 0 1 21.5 57zM24.5 60a.528.528 0 0 1-.354-.133.434.434 0 0 1-.146-.32V21.453c0-.12.053-.236.146-.321A.528.528 0 0 1 24.5 21c.133 0 .26.048.354.133.093.085.146.2.146.32v38.094c0 .12-.053.235-.146.32A.527.527 0 0 1 24.5 60zM28.5 53a.51.51 0 0 1-.354-.14.472.472 0 0 1-.146-.34V28.48c0-.127.053-.249.146-.34a.51.51 0 0 1 .707 0c.094.091.147.213.147.34v24.04c0 .127-.053.249-.146.34a.51.51 0 0 1-.354.14zM31.5 54a.53.53 0 0 1-.354-.132.429.429 0 0 1-.146-.318v-26.1c0-.12.053-.234.146-.318A.53.53 0 0 1 31.5 27a.53.53 0 0 1 .354.132.428.428 0 0 1 .146.318v26.1c0 .12-.053.234-.146.318A.53.53 0 0 1 31.5 54zM34.5 49a.523.523 0 0 1-.354-.135.441.441 0 0 1-.146-.325V32.46c0-.122.053-.24.146-.325A.523.523 0 0 1 34.5 32c.133 0 .26.048.353.135a.441.441 0 0 1 .147.325v16.08a.441.441 0 0 1-.147.325.523.523 0 0 1-.353.135zM37.5 49a.523.523 0 0 1-.354-.135.441.441 0 0 1-.146-.325V32.46c0-.122.053-.24.146-.325A.523.523 0 0 1 37.5 32c.133 0 .26.048.353.135a.441.441 0 0 1 .147.325v16.08a.441.441 0 0 1-.147.325.523.523 0 0 1-.353.135zM40.5 52a.511.511 0 0 1-.354-.14.47.47 0 0 1-.146-.34V29.48a.47.47 0 0 1 .146-.34.512.512 0 0 1 .707 0 .47.47 0 0 1 .147.34v22.04a.469.469 0 0 1-.147.34.51.51 0 0 1-.353.14zM43.5 53a.527.527 0 0 1-.354-.133.435.435 0 0 1-.146-.322v-24.09c0-.121.053-.237.146-.322A.527.527 0 0 1 43.5 28c.133 0 .26.048.353.133.094.085.147.201.147.322v24.09c0 .121-.053.237-.147.322A.526.526 0 0 1 43.5 53zM47.5 57a.528.528 0 0 1-.354-.132.432.432 0 0 1-.146-.32V24.452c0-.12.053-.235.146-.32A.528.528 0 0 1 47.5 24c.133 0 .26.048.353.132.094.085.147.2.147.32v32.096c0 .12-.053.235-.147.32A.528.528 0 0 1 47.5 57zM50.5 71a.522.522 0 0 1-.354-.135.445.445 0 0 1-.146-.327V10.462c0-.122.053-.24.146-.327A.522.522 0 0 1 50.5 10c.133 0 .26.049.353.135a.445.445 0 0 1 .147.327v60.076c0 .122-.053.24-.147.327A.521.521 0 0 1 50.5 71zM53.5 57a.528.528 0 0 1-.354-.132.432.432 0 0 1-.146-.32V24.452c0-.12.053-.235.146-.32A.528.528 0 0 1 53.5 24c.133 0 .26.048.353.132.094.085.147.2.147.32v32.096c0 .12-.053.235-.147.32A.528.528 0 0 1 53.5 57zM56.5 60a.528.528 0 0 1-.354-.133.434.434 0 0 1-.146-.32V21.453c0-.12.053-.236.146-.321A.528.528 0 0 1 56.5 21c.133 0 .26.048.353.133.094.085.147.2.147.32v38.094c0 .12-.053.235-.147.32A.527.527 0 0 1 56.5 60zM63.5 54a.53.53 0 0 1-.354-.132.429.429 0 0 1-.146-.318v-26.1c0-.12.053-.234.146-.318A.53.53 0 0 1 63.5 27a.53.53 0 0 1 .353.132.428.428 0 0 1 .147.318v26.1c0 .12-.053.234-.147.318A.53.53 0 0 1 63.5 54zM66.5 49a.523.523 0 0 1-.354-.135.441.441 0 0 1-.146-.325V32.46c0-.122.053-.24.146-.325A.523.523 0 0 1 66.5 32c.133 0 .26.048.353.135a.441.441 0 0 1 .147.325v16.08a.441.441 0 0 1-.147.325.523.523 0 0 1-.353.135zM69.5 49a.523.523 0 0 1-.354-.135.441.441 0 0 1-.146-.325V32.46c0-.122.053-.24.146-.325A.523.523 0 0 1 69.5 32c.133 0 .26.048.353.135a.441.441 0 0 1 .147.325v16.08a.441.441 0 0 1-.147.325.523.523 0 0 1-.353.135zM72.5 52a.511.511 0 0 1-.354-.14.47.47 0 0 1-.146-.34V29.48a.47.47 0 0 1 .146-.34.512.512 0 0 1 .707 0 .47.47 0 0 1 .147.34v22.04a.469.469 0 0 1-.147.34.51.51 0 0 1-.353.14zM75.5 53a.527.527 0 0 1-.354-.133.435.435 0 0 1-.146-.322v-24.09c0-.121.053-.237.146-.322A.527.527 0 0 1 75.5 28c.133 0 .26.048.353.133.094.085.147.201.147.322v24.09c0 .121-.053.237-.147.322A.526.526 0 0 1 75.5 53zM82.5 64a.517.517 0 0 1-.354-.138.456.456 0 0 1-.146-.332V17.47c0-.125.053-.244.146-.332A.517.517 0 0 1 82.5 17c.133 0 .26.05.353.138a.456.456 0 0 1 .147.332v46.06a.456.456 0 0 1-.147.332.516.516 0 0 1-.353.138zM85.5 57a.528.528 0 0 1-.354-.132.432.432 0 0 1-.146-.32V24.452c0-.12.053-.235.146-.32A.528.528 0 0 1 85.5 24c.133 0 .26.048.353.132.094.085.147.2.147.32v32.096c0 .12-.053.235-.147.32A.528.528 0 0 1 85.5 57zM88.5 60a.528.528 0 0 1-.354-.133.434.434 0 0 1-.146-.32V21.453c0-.12.053-.236.146-.321A.528.528 0 0 1 88.5 21c.133 0 .26.048.353.133.094.085.147.2.147.32v38.094c0 .12-.053.235-.147.32A.527.527 0 0 1 88.5 60zM91.5 53a.51.51 0 0 1-.354-.14.472.472 0 0 1-.146-.34V28.48c0-.127.053-.249.146-.34a.51.51 0 0 1 .707 0c.094.091.147.213.147.34v24.04c0 .127-.053.249-.147.34a.51.51 0 0 1-.353.14zM95.5 54a.53.53 0 0 1-.354-.132.429.429 0 0 1-.146-.318v-26.1c0-.12.053-.234.146-.318A.53.53 0 0 1 95.5 27a.53.53 0 0 1 .353.132.428.428 0 0 1 .147.318v26.1c0 .12-.053.234-.147.318A.53.53 0 0 1 95.5 54zM98.5 49a.523.523 0 0 1-.354-.135.441.441 0 0 1-.146-.325V32.46c0-.122.053-.24.146-.325A.523.523 0 0 1 98.5 32c.133 0 .26.048.353.135a.441.441 0 0 1 .147.325v16.08a.441.441 0 0 1-.147.325.523.523 0 0 1-.353.135zM101.5 49a.524.524 0 0 1-.354-.135.444.444 0 0 1-.146-.325V32.46c0-.122.053-.24.146-.325A.524.524 0 0 1 101.5 32c.133 0 .26.048.354.135a.444.444 0 0 1 .146.325v16.08a.444.444 0 0 1-.146.325.524.524 0 0 1-.354.135zM104.5 52a.512.512 0 0 1-.354-.14.472.472 0 0 1-.146-.34V29.48c0-.128.053-.25.146-.34a.512.512 0 0 1 .708 0c.093.09.146.212.146.34v22.04a.472.472 0 0 1-.146.34.512.512 0 0 1-.354.14zM107.5 53a.528.528 0 0 1-.354-.133.437.437 0 0 1-.146-.322v-24.09c0-.121.053-.237.146-.322A.528.528 0 0 1 107.5 28c.133 0 .26.048.354.133.093.085.146.201.146.322v24.09c0 .121-.053.237-.146.322a.528.528 0 0 1-.354.133zM110.5 57a.529.529 0 0 1-.354-.132.434.434 0 0 1-.146-.32V24.452c0-.12.053-.235.146-.32A.529.529 0 0 1 110.5 24c.133 0 .26.048.354.132.093.085.146.2.146.32v32.096c0 .12-.053.235-.146.32a.529.529 0 0 1-.354.132zM114.5 71a.522.522 0 0 1-.354-.135.447.447 0 0 1-.146-.327V10.462c0-.122.053-.24.146-.327A.523.523 0 0 1 114.5 10c.133 0 .26.049.354.135a.448.448 0 0 1 .146.327v60.076c0 .122-.053.24-.146.327a.522.522 0 0 1-.354.135zM117.5 57a.529.529 0 0 1-.354-.132.434.434 0 0 1-.146-.32V24.452c0-.12.053-.235.146-.32A.529.529 0 0 1 117.5 24c.133 0 .26.048.354.132.093.085.146.2.146.32v32.096c0 .12-.053.235-.146.32a.529.529 0 0 1-.354.132zM120.5 60a.528.528 0 0 1-.354-.133.436.436 0 0 1-.146-.32V21.453c0-.12.053-.236.146-.321A.528.528 0 0 1 120.5 21c.133 0 .26.048.354.133.093.085.146.2.146.32v38.094c0 .12-.053.235-.146.32a.528.528 0 0 1-.354.133zM123.5 53a.511.511 0 0 1-.354-.14.474.474 0 0 1-.146-.34V28.48c0-.127.053-.249.146-.34a.51.51 0 0 1 .708 0c.093.091.146.213.146.34v24.04c0 .127-.053.249-.146.34a.511.511 0 0 1-.354.14zM127.5 54a.53.53 0 0 1-.354-.132.43.43 0 0 1-.146-.318v-26.1a.43.43 0 0 1 .146-.318.53.53 0 0 1 .354-.132.53.53 0 0 1 .354.132.43.43 0 0 1 .146.318v26.1a.43.43 0 0 1-.146.318.53.53 0 0 1-.354.132zM130.5 49a.524.524 0 0 1-.354-.135.444.444 0 0 1-.146-.325V32.46c0-.122.053-.24.146-.325A.524.524 0 0 1 130.5 32c.133 0 .26.048.354.135a.444.444 0 0 1 .146.325v16.08a.444.444 0 0 1-.146.325.524.524 0 0 1-.354.135z" fill="#F5F5F5"/><path d="M58.679 65.552H20.826c-1.014-.001-1.987-.368-2.704-1.02-.717-.653-1.12-1.538-1.122-2.46V16.48c.001-.922.405-1.807 1.122-2.46.717-.652 1.69-1.019 2.704-1.02H58.68c1.014.001 1.987.368 2.704 1.02.717.653 1.12 1.538 1.122 2.46v45.591c-.001.923-.405 1.808-1.122 2.46-.717.653-1.69 1.02-2.704 1.02zM114.679 65.552H76.826c-1.014-.001-1.987-.368-2.704-1.02-.717-.653-1.12-1.538-1.122-2.46V16.48c.001-.922.405-1.807 1.122-2.46.717-.652 1.69-1.019 2.704-1.02h37.853c1.014.001 1.987.368 2.704 1.02.717.653 1.121 1.538 1.122 2.46v45.591c-.001.923-.405 1.808-1.122 2.46-.717.653-1.69 1.02-2.704 1.02z" fill="#E6E6E6"/><path d="M44.231 62.73H23.487a3.671 3.671 0 0 1-2.462-.93c-.654-.594-1.021-1.4-1.022-2.24V18.99c.001-.84.368-1.645 1.021-2.239a3.67 3.67 0 0 1 2.463-.93h32.53c.925.002 1.81.336 2.463.93.653.594 1.02 1.4 1.022 2.24V48.84c-.005 3.682-1.615 7.213-4.478 9.817-2.863 2.604-6.744 4.069-10.793 4.073zM100.231 62.73H79.487a3.671 3.671 0 0 1-2.462-.93c-.654-.594-1.021-1.4-1.022-2.24V18.99c.001-.84.368-1.645 1.022-2.239a3.67 3.67 0 0 1 2.462-.93h32.531c.924.002 1.809.336 2.462.93.653.594 1.021 1.4 1.022 2.24V48.84c-.005 3.682-1.615 7.213-4.478 9.817-2.863 2.604-6.744 4.069-10.793 4.073z" fill="#fff"/><path d="M35.602 23.5H23.399a.247.247 0 0 1-.153-.057.5.5 0 0 1-.13-.162.966.966 0 0 1-.086-.244 1.35 1.35 0 0 1 0-.574.966.966 0 0 1 .087-.244.5.5 0 0 1 .13-.162.247.247 0 0 1 .151-.057h12.204c.052 0 .104.02.152.057a.5.5 0 0 1 .13.162c.036.07.066.153.086.244a1.35 1.35 0 0 1 0 .574.962.962 0 0 1-.087.244.5.5 0 0 1-.13.162.247.247 0 0 1-.151.057z" fill="#6C63FF"/><path d="M91.602 23.5H79.398a.247.247 0 0 1-.152-.057.5.5 0 0 1-.13-.162.966.966 0 0 1-.086-.244 1.35 1.35 0 0 1 0-.574.966.966 0 0 1 .087-.244.5.5 0 0 1 .13-.162.247.247 0 0 1 .151-.057h12.204c.052 0 .104.02.152.057a.5.5 0 0 1 .13.162c.036.07.066.153.086.244a1.35 1.35 0 0 1 0 .574.962.962 0 0 1-.087.244.5.5 0 0 1-.13.162.247.247 0 0 1-.151.057z" fill="#575A89"/><path d="M41.847 23.5h-4.694c-.02 0-.04-.02-.058-.057a.699.699 0 0 1-.05-.162 2.149 2.149 0 0 1-.033-.244 3.446 3.446 0 0 1 0-.574c.007-.091.019-.174.033-.244a.699.699 0 0 1 .05-.162c.018-.038.038-.057.058-.057h4.694c.02 0 .04.02.058.057a.699.699 0 0 1 .05.162c.014.07.026.153.033.244a3.446 3.446 0 0 1 0 .574 2.149 2.149 0 0 1-.033.244.699.699 0 0 1-.05.162c-.018.038-.038.057-.058.057zM97.847 23.5h-4.694c-.02 0-.04-.02-.058-.057a.699.699 0 0 1-.05-.162 2.149 2.149 0 0 1-.033-.244 3.446 3.446 0 0 1 0-.574c.007-.091.019-.174.033-.244a.699.699 0 0 1 .05-.162c.018-.038.038-.057.058-.057h4.694c.02 0 .04.02.058.057a.699.699 0 0 1 .05.162c.014.07.026.153.033.244a3.446 3.446 0 0 1 0 .574 2.149 2.149 0 0 1-.033.244.699.699 0 0 1-.05.162c-.018.038-.038.057-.058.057z" fill="#FF6584"/><path d="M55.719 23.5H43.516a.247.247 0 0 1-.153-.057.5.5 0 0 1-.129-.162.962.962 0 0 1-.087-.244 1.35 1.35 0 0 1 0-.574.962.962 0 0 1 .087-.244.5.5 0 0 1 .13-.162.247.247 0 0 1 .152-.057h12.203c.052 0 .104.02.152.057a.5.5 0 0 1 .13.162c.036.07.066.153.086.244a1.343 1.343 0 0 1 0 .574.962.962 0 0 1-.087.244.5.5 0 0 1-.129.162.247.247 0 0 1-.152.057z" fill="#6C63FF"/><path d="M111.719 23.5H99.516a.247.247 0 0 1-.153-.057.5.5 0 0 1-.129-.162.962.962 0 0 1-.087-.244 1.35 1.35 0 0 1 0-.574.962.962 0 0 1 .087-.244.5.5 0 0 1 .13-.162.247.247 0 0 1 .152-.057h12.203c.052 0 .104.02.152.057a.505.505 0 0 1 .129.162c.037.07.067.153.087.244a1.35 1.35 0 0 1 0 .574.962.962 0 0 1-.087.244.505.505 0 0 1-.129.162.246.246 0 0 1-.152.057z" fill="#575A89"/><path d="M35.602 26.5H23.398c-.105 0-.207-.079-.281-.22a1.162 1.162 0 0 1-.117-.53c0-.199.042-.39.117-.53.074-.141.175-.22.281-.22h12.204c.106 0 .207.079.281.22.075.14.117.331.117.53s-.042.39-.117.53c-.074.141-.175.22-.281.22z" fill="#6C63FF"/><path d="M91.602 26.5H79.398c-.105 0-.207-.079-.281-.22a1.162 1.162 0 0 1-.117-.53c0-.199.042-.39.117-.53.074-.141.175-.22.281-.22h12.204c.105 0 .207.079.281.22.075.14.117.331.117.53s-.042.39-.117.53c-.074.141-.175.22-.281.22z" fill="#575A89"/><path d="M41.847 26.5h-4.694c-.04 0-.08-.079-.108-.22a2.807 2.807 0 0 1-.045-.53c0-.199.016-.39.045-.53.029-.141.067-.22.108-.22h4.694c.04 0 .08.079.108.22.029.14.045.331.045.53s-.016.39-.045.53c-.029.141-.067.22-.108.22zM97.847 26.5h-4.694c-.04 0-.08-.079-.108-.22a2.807 2.807 0 0 1-.045-.53c0-.199.016-.39.045-.53.028-.141.067-.22.108-.22h4.694c.04 0 .08.079.108.22.029.14.045.331.045.53s-.016.39-.045.53c-.028.141-.067.22-.108.22z" fill="#FF6584"/><path d="M55.72 26.5H43.514c-.105 0-.207-.079-.281-.22a1.162 1.162 0 0 1-.117-.53c0-.199.042-.39.117-.53.074-.141.176-.22.281-.22H55.72c.106 0 .207.079.282.22.074.14.116.331.116.53s-.042.39-.116.53c-.075.141-.176.22-.282.22z" fill="#6C63FF"/><path d="M111.719 26.5H99.515c-.105 0-.207-.079-.281-.22a1.162 1.162 0 0 1-.117-.53c0-.199.042-.39.117-.53.074-.141.176-.22.281-.22h12.204c.106 0 .207.079.282.22.074.14.116.331.116.53s-.042.39-.116.53c-.075.141-.176.22-.282.22z" fill="#575A89"/><path d="M35.02 29.67H23.732a.91.91 0 0 1-.6-.22.708.708 0 0 1-.25-.53c0-.199.09-.39.25-.53a.91.91 0 0 1 .6-.22H35.02a.91.91 0 0 1 .6.22c.16.14.25.331.25.53 0 .2-.09.39-.25.53a.91.91 0 0 1-.6.22z" fill="#6C63FF"/><path d="M91.02 29.67H79.732a.91.91 0 0 1-.6-.22.708.708 0 0 1-.25-.53c0-.199.09-.39.25-.53a.91.91 0 0 1 .6-.22H91.02a.91.91 0 0 1 .6.22c.16.14.25.331.25.53 0 .2-.09.39-.25.53a.91.91 0 0 1-.6.22z" fill="#575A89"/><path d="M41.673 29.5h-4.346c-.087 0-.17-.079-.231-.22a1.377 1.377 0 0 1-.096-.53c0-.199.035-.39.096-.53.061-.141.144-.22.231-.22h4.346c.087 0 .17.079.231.22.062.14.096.331.096.53s-.034.39-.096.53c-.061.141-.144.22-.231.22zM97.673 29.5h-4.346c-.087 0-.17-.079-.231-.22a1.377 1.377 0 0 1-.096-.53c0-.199.034-.39.096-.53.061-.141.144-.22.231-.22h4.346c.087 0 .17.079.231.22.062.14.096.331.096.53s-.034.39-.096.53c-.061.141-.144.22-.231.22z" fill="#FF6584"/><path d="M55.137 29.67H43.85a.91.91 0 0 1-.6-.22.708.708 0 0 1-.249-.53c0-.199.09-.39.249-.53a.91.91 0 0 1 .6-.22h11.288a.91.91 0 0 1 .6.22c.16.14.25.331.25.53 0 .2-.09.39-.25.53a.91.91 0 0 1-.6.22z" fill="#6C63FF"/><path d="M111.137 29.67H99.849a.91.91 0 0 1-.6-.22.708.708 0 0 1-.249-.53c0-.199.09-.39.249-.53a.91.91 0 0 1 .6-.22h11.288c.226 0 .442.08.601.22a.71.71 0 0 1 .249.53.71.71 0 0 1-.249.53.909.909 0 0 1-.601.22z" fill="#575A89"/><path d="M35.602 36.5H23.399a.247.247 0 0 1-.153-.057.5.5 0 0 1-.13-.162.967.967 0 0 1-.086-.244 1.35 1.35 0 0 1 0-.574.966.966 0 0 1 .087-.244.5.5 0 0 1 .13-.162.247.247 0 0 1 .151-.057h12.204c.052 0 .104.02.152.057a.5.5 0 0 1 .13.162c.036.07.066.153.086.244a1.35 1.35 0 0 1 0 .574.963.963 0 0 1-.087.244.5.5 0 0 1-.13.162.247.247 0 0 1-.151.057z" fill="#6C63FF"/><path d="M91.602 36.5H79.398a.247.247 0 0 1-.152-.057.5.5 0 0 1-.13-.162.967.967 0 0 1-.086-.244 1.35 1.35 0 0 1 0-.574.966.966 0 0 1 .087-.244.5.5 0 0 1 .13-.162.247.247 0 0 1 .151-.057h12.204c.052 0 .104.02.152.057a.5.5 0 0 1 .13.162c.036.07.066.153.086.244a1.35 1.35 0 0 1 0 .574.963.963 0 0 1-.087.244.5.5 0 0 1-.13.162.247.247 0 0 1-.151.057z" fill="#575A89"/><path d="M41.847 36.5h-4.694c-.02 0-.04-.02-.058-.057a.699.699 0 0 1-.05-.162 2.152 2.152 0 0 1-.033-.244 3.446 3.446 0 0 1 0-.574c.007-.091.019-.174.033-.244a.699.699 0 0 1 .05-.162c.018-.038.038-.057.058-.057h4.694c.02 0 .04.02.058.057a.699.699 0 0 1 .05.162c.014.07.026.153.033.244a3.446 3.446 0 0 1 0 .574 2.152 2.152 0 0 1-.033.244.699.699 0 0 1-.05.162c-.018.038-.038.057-.058.057zM97.847 36.5h-4.694c-.02 0-.04-.02-.058-.057a.699.699 0 0 1-.05-.162 2.152 2.152 0 0 1-.033-.244 3.446 3.446 0 0 1 0-.574c.007-.091.019-.174.033-.244a.699.699 0 0 1 .05-.162c.018-.038.038-.057.058-.057h4.694c.02 0 .04.02.058.057a.699.699 0 0 1 .05.162c.014.07.026.153.033.244a3.446 3.446 0 0 1 0 .574 2.152 2.152 0 0 1-.033.244.699.699 0 0 1-.05.162c-.018.038-.038.057-.058.057z" fill="#FF6584"/><path d="M55.719 36.5H43.516a.247.247 0 0 1-.153-.057.5.5 0 0 1-.129-.162.963.963 0 0 1-.087-.244 1.35 1.35 0 0 1 0-.574.962.962 0 0 1 .087-.244.5.5 0 0 1 .13-.162.247.247 0 0 1 .152-.057h12.203c.052 0 .104.02.152.057a.5.5 0 0 1 .13.162c.036.07.066.153.086.244a1.343 1.343 0 0 1 0 .574.963.963 0 0 1-.087.244.5.5 0 0 1-.129.162.247.247 0 0 1-.152.057z" fill="#6C63FF"/><path d="M111.719 36.5H99.516a.247.247 0 0 1-.153-.057.5.5 0 0 1-.129-.162.963.963 0 0 1-.087-.244 1.35 1.35 0 0 1 0-.574.962.962 0 0 1 .087-.244.5.5 0 0 1 .13-.162.247.247 0 0 1 .152-.057h12.203c.052 0 .104.02.152.057a.505.505 0 0 1 .129.162c.037.07.067.153.087.244a1.35 1.35 0 0 1 0 .574.964.964 0 0 1-.087.244.505.505 0 0 1-.129.162.246.246 0 0 1-.152.057z" fill="#575A89"/><path d="M35.602 39.5H23.398c-.105 0-.207-.079-.281-.22a1.162 1.162 0 0 1-.117-.53c0-.199.042-.39.117-.53.074-.141.175-.22.281-.22h12.204c.106 0 .207.079.281.22.075.14.117.331.117.53s-.042.39-.117.53c-.074.141-.175.22-.281.22z" fill="#6C63FF"/><path d="M91.602 39.5H79.398c-.105 0-.207-.079-.281-.22a1.162 1.162 0 0 1-.117-.53c0-.199.042-.39.117-.53.074-.141.175-.22.281-.22h12.204c.105 0 .207.079.281.22.075.14.117.331.117.53s-.042.39-.117.53c-.074.141-.175.22-.281.22z" fill="#575A89"/><path d="M41.847 39.5h-4.694c-.04 0-.08-.079-.108-.22a2.807 2.807 0 0 1-.045-.53c0-.199.016-.39.045-.53.029-.141.067-.22.108-.22h4.694c.04 0 .08.079.108.22.029.14.045.331.045.53s-.016.39-.045.53c-.029.141-.067.22-.108.22zM97.847 39.5h-4.694c-.04 0-.08-.079-.108-.22a2.807 2.807 0 0 1-.045-.53c0-.199.016-.39.045-.53.028-.141.067-.22.108-.22h4.694c.04 0 .08.079.108.22.029.14.045.331.045.53s-.016.39-.045.53c-.028.141-.067.22-.108.22z" fill="#FF6584"/><path d="M55.72 39.5H43.514c-.105 0-.207-.079-.281-.22a1.162 1.162 0 0 1-.117-.53c0-.199.042-.39.117-.53.074-.141.176-.22.281-.22H55.72c.106 0 .207.079.282.22.074.14.116.331.116.53s-.042.39-.116.53c-.075.141-.176.22-.282.22z" fill="#6C63FF"/><path d="M111.719 39.5H99.515c-.105 0-.207-.079-.281-.22a1.162 1.162 0 0 1-.117-.53c0-.199.042-.39.117-.53.074-.141.176-.22.281-.22h12.204c.106 0 .207.079.282.22.074.14.116.331.116.53s-.042.39-.116.53c-.075.141-.176.22-.282.22z" fill="#575A89"/><path d="M35.02 42.169H23.732a.91.91 0 0 1-.6-.22.709.709 0 0 1-.25-.53c0-.199.09-.39.25-.53a.91.91 0 0 1 .6-.22H35.02a.91.91 0 0 1 .6.22c.16.14.25.331.25.53s-.09.39-.25.53a.91.91 0 0 1-.6.22z" fill="#6C63FF"/><path d="M91.02 42.169H79.732a.91.91 0 0 1-.6-.22.709.709 0 0 1-.25-.53c0-.199.09-.39.25-.53a.91.91 0 0 1 .6-.22H91.02a.91.91 0 0 1 .6.22c.16.14.25.331.25.53s-.09.39-.25.53a.91.91 0 0 1-.6.22z" fill="#575A89"/><path d="M41.673 42.5h-4.346c-.087 0-.17-.079-.231-.22a1.377 1.377 0 0 1-.096-.53c0-.199.035-.39.096-.53.061-.141.144-.22.231-.22h4.346c.087 0 .17.079.231.22.062.14.096.331.096.53s-.034.39-.096.53c-.061.141-.144.22-.231.22zM97.673 42.5h-4.346c-.087 0-.17-.079-.231-.22a1.377 1.377 0 0 1-.096-.53c0-.199.034-.39.096-.53.061-.141.144-.22.231-.22h4.346c.087 0 .17.079.231.22.062.14.096.331.096.53s-.034.39-.096.53c-.061.141-.144.22-.231.22z" fill="#FF6584"/><path d="M55.137 42.169H43.85a.91.91 0 0 1-.6-.22.709.709 0 0 1-.249-.53c0-.199.09-.39.249-.53a.91.91 0 0 1 .6-.22h11.288a.91.91 0 0 1 .6.22c.16.14.25.331.25.53s-.09.39-.25.53a.91.91 0 0 1-.6.22z" fill="#6C63FF"/><path d="M111.137 42.169H99.849a.91.91 0 0 1-.6-.22.709.709 0 0 1-.249-.53c0-.199.09-.39.249-.53a.91.91 0 0 1 .6-.22h11.288a.91.91 0 0 1 .601.22.71.71 0 0 1 .249.53.71.71 0 0 1-.249.53.909.909 0 0 1-.601.22z" fill="#575A89"/><path d="M35.602 48.5H23.399a.247.247 0 0 1-.153-.057.5.5 0 0 1-.13-.162.966.966 0 0 1-.086-.244 1.35 1.35 0 0 1 0-.574.966.966 0 0 1 .087-.244.5.5 0 0 1 .13-.162.247.247 0 0 1 .151-.057h12.204c.052 0 .104.02.152.057a.5.5 0 0 1 .13.162c.036.07.066.153.086.244a1.35 1.35 0 0 1 0 .574.962.962 0 0 1-.087.244.5.5 0 0 1-.13.162.247.247 0 0 1-.151.057z" fill="#6C63FF"/><path d="M91.602 48.5H79.398a.247.247 0 0 1-.152-.057.5.5 0 0 1-.13-.162.966.966 0 0 1-.086-.244 1.35 1.35 0 0 1 0-.574.966.966 0 0 1 .087-.244.5.5 0 0 1 .13-.162.247.247 0 0 1 .151-.057h12.204c.052 0 .104.02.152.057a.5.5 0 0 1 .13.162c.036.07.066.153.086.244a1.35 1.35 0 0 1 0 .574.962.962 0 0 1-.087.244.5.5 0 0 1-.13.162.247.247 0 0 1-.151.057z" fill="#575A89"/><path d="M41.847 48.5h-4.694c-.02 0-.04-.02-.058-.057a.699.699 0 0 1-.05-.162 2.149 2.149 0 0 1-.033-.244 3.446 3.446 0 0 1 0-.574c.007-.091.019-.174.033-.244a.699.699 0 0 1 .05-.162c.018-.038.038-.057.058-.057h4.694c.02 0 .04.02.058.057a.699.699 0 0 1 .05.162c.014.07.026.153.033.244a3.446 3.446 0 0 1 0 .574 2.149 2.149 0 0 1-.033.244.699.699 0 0 1-.05.162c-.018.038-.038.057-.058.057zM97.847 48.5h-4.694c-.02 0-.04-.02-.058-.057a.699.699 0 0 1-.05-.162 2.149 2.149 0 0 1-.033-.244 3.446 3.446 0 0 1 0-.574c.007-.091.019-.174.033-.244a.699.699 0 0 1 .05-.162c.018-.038.038-.057.058-.057h4.694c.02 0 .04.02.058.057a.699.699 0 0 1 .05.162c.014.07.026.153.033.244a3.446 3.446 0 0 1 0 .574 2.149 2.149 0 0 1-.033.244.699.699 0 0 1-.05.162c-.018.038-.038.057-.058.057z" fill="#FF6584"/><path d="M55.719 48.5H43.516a.247.247 0 0 1-.153-.057.5.5 0 0 1-.129-.162.962.962 0 0 1-.087-.244 1.35 1.35 0 0 1 0-.574.962.962 0 0 1 .087-.244.5.5 0 0 1 .13-.162.247.247 0 0 1 .152-.057h12.203c.052 0 .104.02.152.057a.5.5 0 0 1 .13.162c.036.07.066.153.086.244a1.343 1.343 0 0 1 0 .574.962.962 0 0 1-.087.244.5.5 0 0 1-.129.162.247.247 0 0 1-.152.057z" fill="#6C63FF"/><path d="M111.719 48.5H99.516a.247.247 0 0 1-.153-.057.5.5 0 0 1-.129-.162.962.962 0 0 1-.087-.244 1.35 1.35 0 0 1 0-.574.962.962 0 0 1 .087-.244.5.5 0 0 1 .13-.162.247.247 0 0 1 .152-.057h12.203c.052 0 .104.02.152.057a.505.505 0 0 1 .129.162c.037.07.067.153.087.244a1.35 1.35 0 0 1 0 .574.962.962 0 0 1-.087.244.505.505 0 0 1-.129.162.246.246 0 0 1-.152.057z" fill="#575A89"/><path d="M35.602 51.5H23.398c-.105 0-.207-.079-.281-.22a1.162 1.162 0 0 1-.117-.53c0-.199.042-.39.117-.53.074-.141.175-.22.281-.22h12.204c.106 0 .207.079.281.22.075.14.117.331.117.53s-.042.39-.117.53c-.074.141-.175.22-.281.22z" fill="#6C63FF"/><path d="M91.602 51.5H79.398c-.105 0-.207-.079-.281-.22a1.162 1.162 0 0 1-.117-.53c0-.199.042-.39.117-.53.074-.141.175-.22.281-.22h12.204c.105 0 .207.079.281.22.075.14.117.331.117.53s-.042.39-.117.53c-.074.141-.175.22-.281.22z" fill="#575A89"/><path d="M41.847 51.5h-4.694c-.04 0-.08-.079-.108-.22a2.807 2.807 0 0 1-.045-.53c0-.199.016-.39.045-.53.029-.141.067-.22.108-.22h4.694c.04 0 .08.079.108.22.029.14.045.331.045.53s-.016.39-.045.53c-.029.141-.067.22-.108.22zM97.847 51.5h-4.694c-.04 0-.08-.079-.108-.22a2.807 2.807 0 0 1-.045-.53c0-.199.016-.39.045-.53.028-.141.067-.22.108-.22h4.694c.04 0 .08.079.108.22.029.14.045.331.045.53s-.016.39-.045.53c-.028.141-.067.22-.108.22z" fill="#FF6584"/><path d="M55.72 51.5H43.514c-.105 0-.207-.079-.281-.22a1.162 1.162 0 0 1-.117-.53c0-.199.042-.39.117-.53.074-.141.176-.22.281-.22H55.72c.106 0 .207.079.282.22.074.14.116.331.116.53s-.042.39-.116.53c-.075.141-.176.22-.282.22z" fill="#6C63FF"/><path d="M111.719 51.5H99.515c-.105 0-.207-.079-.281-.22a1.162 1.162 0 0 1-.117-.53c0-.199.042-.39.117-.53.074-.141.176-.22.281-.22h12.204c.106 0 .207.079.282.22.074.14.116.331.116.53s-.042.39-.116.53c-.075.141-.176.22-.282.22z" fill="#575A89"/><path d="M35.02 54.667H23.732a.909.909 0 0 1-.6-.22.708.708 0 0 1-.248-.53c0-.198.09-.389.249-.53a.91.91 0 0 1 .6-.22H35.02c.225 0 .441.08.6.22.16.141.248.332.248.53 0 .2-.089.39-.248.53a.909.909 0 0 1-.6.22z" fill="#6C63FF"/><path d="M91.02 54.667H79.732a.909.909 0 0 1-.6-.22.708.708 0 0 1-.248-.53c0-.198.09-.389.249-.53a.91.91 0 0 1 .6-.22H91.02c.225 0 .441.08.6.22.16.141.248.332.248.53 0 .2-.089.39-.248.53a.909.909 0 0 1-.6.22z" fill="#575A89"/><path d="M41.673 54.5h-4.346c-.087 0-.17-.08-.231-.22a1.379 1.379 0 0 1-.096-.53c0-.199.034-.39.096-.53.06-.14.144-.22.23-.22h4.347c.087 0 .17.08.231.22.062.14.096.331.096.53s-.034.39-.096.53c-.06.14-.144.22-.23.22zM97.673 54.5h-4.346c-.087 0-.17-.08-.231-.22a1.379 1.379 0 0 1-.096-.53c0-.199.034-.39.096-.53.06-.14.144-.22.23-.22h4.347c.087 0 .17.08.231.22.062.14.096.331.096.53s-.034.39-.096.53c-.06.14-.144.22-.23.22z" fill="#FF6584"/><path d="M55.138 54.667H43.85a.909.909 0 0 1-.6-.22.708.708 0 0 1-.248-.53c0-.198.089-.389.248-.53a.91.91 0 0 1 .6-.22h11.288c.225 0 .44.08.6.22.158.141.248.332.248.53 0 .2-.09.39-.249.53a.909.909 0 0 1-.6.22z" fill="#6C63FF"/><path d="M111.138 54.667H99.85a.909.909 0 0 1-.6-.22.708.708 0 0 1-.249-.53c0-.198.09-.389.249-.53a.91.91 0 0 1 .6-.22h11.288c.225 0 .44.08.599.22a.71.71 0 0 1 .249.53.71.71 0 0 1-.249.53.907.907 0 0 1-.599.22z" fill="#575A89"/><path d="M69.057 86c7.212 0 13.057-5.82 13.057-13s-5.846-13-13.057-13S56 65.82 56 73s5.846 13 13.057 13z" fill="#6C63FF"/><path d="M74.48 71.908h-4.44v-4.42a1.047 1.047 0 0 0-2.09 0v4.42h-4.439c-.277 0-.542.11-.738.305a1.038 1.038 0 0 0 0 1.47c.196.196.461.305.738.305h4.44v4.42c0 .276.11.54.306.736a1.047 1.047 0 0 0 1.783-.735v-4.42h4.44c.277 0 .542-.11.738-.305a1.038 1.038 0 0 0 0-1.47 1.047 1.047 0 0 0-.738-.306z" fill="#fff"/></g><defs><clipPath id="a"><path fill="#fff" d="M0 0h136v98H0z"/></clipPath></defs></svg>