<svg width="136" height="80" fill="none" xmlns="http://www.w3.org/2000/svg"><g clip-path="url(#a)"><path fill="#fff" d="M0 0h136v80H0z"/><path d="M3.084 79.875c0 .033.005.065.015.096.01.03.026.058.045.081a.21.21 0 0 0 .067.054.175.175 0 0 0 .08.019H51.84a.19.19 0 0 0 .145-.073.28.28 0 0 0 .06-.177.28.28 0 0 0-.06-.177.19.19 0 0 0-.145-.073H3.29a.175.175 0 0 0-.079.019.21.21 0 0 0-.067.054.258.258 0 0 0-.045.081.296.296 0 0 0-.015.096z" fill="#CCC"/><path d="M86.921 53.952c-13.99 0-26.164-9.493-27.962-22.442l.343-.04c1.776 12.79 13.801 22.166 27.62 22.167 1.173 0 2.346-.067 3.51-.202 15.241-1.75 26.074-14.454 24.148-28.316l.344-.04c1.949 14.035-9.018 26.896-24.448 28.67a31.15 31.15 0 0 1-3.555.203zM98.078 12.705a8.104 8.104 0 0 1 .23-6.76c1.06-2.136 3.009-3.802 5.419-4.631 2.41-.83 5.083-.754 7.432.21 2.348.963 4.18 2.736 5.092 4.928l-.324.112c-.88-2.114-2.646-3.824-4.911-4.753a10.227 10.227 0 0 0-7.166-.203c-2.324.8-4.204 2.407-5.225 4.467a7.815 7.815 0 0 0-.223 6.519l-.324.111z" fill="#3F3D56"/><path d="M126.22 28.129h-17.61c-.472 0-.924-.172-1.258-.475a1.555 1.555 0 0 1-.522-1.145V5.3c.001-.428.189-.84.522-1.144a1.876 1.876 0 0 1 1.258-.474h17.61c.472 0 .924.17 1.258.474.334.304.521.716.522 1.145v21.21c-.001.429-.188.84-.522 1.144a1.876 1.876 0 0 1-1.258.475z" fill="#E6E6E6"/><path d="M119.223 26.858h-9.375c-.442 0-.866-.16-1.178-.445a1.453 1.453 0 0 1-.489-1.072V6.468c.001-.402.176-.788.489-1.072a1.755 1.755 0 0 1 1.178-.445h15.134c.442 0 .866.16 1.178.445.313.284.489.67.489 1.072v13.635c-.002 1.79-.785 3.508-2.177 4.774s-3.28 1.979-5.249 1.98z" fill="#fff"/><path d="M59.221 27.418c-1.526-3.675-1.385-7.75.392-11.33 1.776-3.58 5.043-6.373 9.082-7.763a17.784 17.784 0 0 1 12.456.351c3.937 1.614 7.008 4.585 8.538 8.258l-.324.112a14.373 14.373 0 0 0-3.293-4.802 16.003 16.003 0 0 0-5.062-3.29 17.268 17.268 0 0 0-6.06-1.276 17.374 17.374 0 0 0-6.137.93 16.255 16.255 0 0 0-5.278 2.997 14.615 14.615 0 0 0-3.614 4.606 13.424 13.424 0 0 0-1.401 5.514c-.065 1.903.284 3.8 1.025 5.581l-.324.112z" fill="#3F3D56"/><path d="M89.502 3.26c.913 0 1.654-.674 1.654-1.505 0-.83-.74-1.504-1.654-1.504-.913 0-1.653.674-1.653 1.504s.74 1.504 1.653 1.504zM91.754 46.587c.913 0 1.653-.673 1.653-1.504 0-.83-.74-1.504-1.653-1.504s-1.654.674-1.654 1.504c0 .831.74 1.504 1.654 1.504zM49.317 10.822c.913 0 1.653-.673 1.653-1.504 0-.83-.74-1.504-1.653-1.504s-1.654.673-1.654 1.504c0 .83.74 1.504 1.654 1.504z" fill="#6C63FF"/><path d="M101.31 37.267H82.14a2.042 2.042 0 0 1-1.37-.517 1.688 1.688 0 0 1-.567-1.246V12.416c0-.467.205-.915.568-1.246.363-.33.856-.516 1.37-.517h19.169c.514 0 1.006.187 1.369.517.364.33.568.779.569 1.246v23.088a1.687 1.687 0 0 1-.569 1.246 2.04 2.04 0 0 1-1.369.517z" fill="#E6E6E6"/><path d="M94.204 35.876H83.488c-.48 0-.939-.173-1.277-.482a1.574 1.574 0 0 1-.53-1.161V13.687c0-.435.19-.853.53-1.162a1.904 1.904 0 0 1 1.277-.482h16.474c.479 0 .939.174 1.277.482.339.309.53.726.53 1.162v15.307c-.002 1.825-.8 3.574-2.218 4.864-1.419 1.29-3.342 2.016-5.347 2.018z" fill="#fff"/><path d="M98.319 16.027H85.13a.453.453 0 0 1-.304-.115.374.374 0 0 1-.126-.276c0-.104.046-.204.126-.277a.453.453 0 0 1 .304-.115H98.32c.114 0 .223.042.304.115.08.073.126.173.126.277a.374.374 0 0 1-.126.276.452.452 0 0 1-.304.115zM98.319 17.573H85.13a.453.453 0 0 1-.303-.115.374.374 0 0 1-.126-.276c0-.104.045-.203.126-.277a.452.452 0 0 1 .303-.115H98.32c.114 0 .223.042.303.115.08.073.126.173.126.276a.374.374 0 0 1-.126.277.453.453 0 0 1-.303.115zM90.848 19.119H85.13a.453.453 0 0 1-.303-.115.374.374 0 0 1-.126-.277c0-.103.045-.203.126-.276a.452.452 0 0 1 .303-.115h5.717c.114 0 .223.042.303.115.08.073.126.173.126.276a.374.374 0 0 1-.126.277.453.453 0 0 1-.303.115z" fill="#E4E4E4"/><path d="M98.319 22.356H85.13a.453.453 0 0 1-.304-.114.374.374 0 0 1-.126-.277c0-.104.046-.203.126-.276a.453.453 0 0 1 .304-.115H98.32c.114 0 .223.041.304.115.08.073.126.172.126.276a.374.374 0 0 1-.126.277.452.452 0 0 1-.304.114zM94.855 23.902H85.13a.453.453 0 0 1-.304-.114.374.374 0 0 1-.126-.277c0-.104.046-.203.126-.277a.453.453 0 0 1 .304-.114h9.724c.114 0 .223.04.304.114.08.074.126.173.126.277a.374.374 0 0 1-.126.277.453.453 0 0 1-.304.114zM90.848 25.448H85.13a.452.452 0 0 1-.303-.115.374.374 0 0 1-.126-.276c0-.104.045-.203.126-.277a.452.452 0 0 1 .303-.114h5.717c.114 0 .223.041.303.114.08.074.126.173.126.277a.374.374 0 0 1-.126.276.452.452 0 0 1-.303.115z" fill="#6C63FF"/><path d="M98.319 28.686H85.13a.453.453 0 0 1-.304-.115.374.374 0 0 1-.126-.277c0-.103.046-.203.126-.276a.453.453 0 0 1 .304-.115H98.32c.114 0 .223.042.304.115.08.073.126.173.126.276a.374.374 0 0 1-.126.277.453.453 0 0 1-.304.115zM98.319 30.232H85.13a.453.453 0 0 1-.304-.115.374.374 0 0 1-.126-.277c0-.103.046-.203.126-.276a.453.453 0 0 1 .304-.115H98.32c.114 0 .223.041.304.115.08.073.126.173.126.276a.374.374 0 0 1-.126.277.452.452 0 0 1-.304.115zM90.848 31.778H85.13a.452.452 0 0 1-.303-.115.374.374 0 0 1-.126-.277c0-.103.045-.203.126-.276a.452.452 0 0 1 .303-.115h5.717c.114 0 .223.042.303.115.08.073.126.173.126.276a.374.374 0 0 1-.126.277.452.452 0 0 1-.303.115z" fill="#E4E4E4"/><path d="M14 70.241a14.651 14.651 0 0 0 4.327 2.186c3.51 1.095 7.348 1.072 11.162.502.266-.038.532-.081.797-.125l1.913-1.424-.037-.189v-.001l-.042-.218-.005-.027.019.016.3.244.94-.699c.003-.158.005-.314.005-.471 0-.23-.006-.458-.019-.684a8.817 8.817 0 0 0-.167-1.303l-.108-.016-.51-1.227-.58.31-.624-2.032a3.862 3.862 0 0 0-.202-.127c-.871-.5-1.885-.604-2.946-.535-1.093.069-2.236.323-3.321.51-.51.086-1.022.159-1.532.213l-.001-.002a22.494 22.494 0 0 1-2.013.127c-2.92.064-5.78-.401-8.43-1.372h-.001a6.603 6.603 0 0 1-.257-.095v-.001a20.69 20.69 0 0 1-3.157-1.51v-.002c-.075-.043-.147-.087-.22-.13a6.837 6.837 0 0 0 .019.246c.284 3.196 2.122 5.933 4.69 7.836z" fill="#6C63FF"/><path d="M17.709 68.579a3.401 3.401 0 0 1-1.578 1.46 3.154 3.154 0 0 1-2.085.202c-.137-.036-.067-.25.07-.214a2.921 2.921 0 0 0 1.941-.188 3.149 3.149 0 0 0 1.464-1.365c.07-.13.257-.024.188.105zM23.86 68.715a5.017 5.017 0 0 0-2.55-3.069c-.123-.063.002-.256.126-.193a5.217 5.217 0 0 1 2.645 3.199c.038.132-.183.194-.221.063zM12.323 65.406a1.82 1.82 0 0 0 .375-.759 1.597 1.597 0 0 0-.025-.809c-.04-.131.181-.193.221-.062.084.285.094.592.027.894a2.037 2.037 0 0 1-.41.84.132.132 0 0 1-.071.052.116.116 0 0 1-.085-.007.098.098 0 0 1-.048-.065.112.112 0 0 1 .016-.084z" fill="#fff"/><path d="M23.369 65.142v.002a18.91 18.91 0 0 0 2.37 2.408v.001c.057.053.116.1.174.15a27.218 27.218 0 0 0 4.378 2.95 34.059 34.059 0 0 0 1.703.88l.205-.153-.037-.189v-.001l-.042-.218-.005-.027.019.016.3.244 1.987-1.479.163-.588.236-.857-1.368-.196-.225-.033-.034-.004-.108-.016-.51-1.227-.58.31-.624-2.032-.294-.962-.074-.241-.43-1.406 1.346-.686-.267-.764a20.162 20.162 0 0 1-2.623-1.663l-.02-.013a20.365 20.365 0 0 1-5.445-6.152l-.001-.002a6.561 6.561 0 0 1-.129-.234l-.002-.002a19.394 19.394 0 0 1-1.407-3.144c-.03-.082-.057-.164-.085-.245l-.135.216v.002l-.003.002c-.072.116-.14.235-.206.354-1.59 2.812-1.87 6.076-1.174 9.081l.005.024a14.034 14.034 0 0 0 1.855 4.4c.334.518.697 1.017 1.087 1.494z" fill="#6C63FF"/><path d="M22.039 49.605a18.22 18.22 0 0 0-.045 1.77 18.181 18.181 0 0 0 .29 2.939 17.493 17.493 0 0 0 1.994 5.545c.224.396.464.78.721 1.155a7.453 7.453 0 0 0 1.738 1.873 4.162 4.162 0 0 0 1.033.544c.19.07.386.126.587.169a4.956 4.956 0 0 0 .592.1c.06.004.12.01.179.016.622.051 1.264.05 1.875.163l.074.242c-.607-.134-1.26-.132-1.884-.179a6.196 6.196 0 0 1-1.144-.185c-.05-.015-.1-.028-.15-.044a4.124 4.124 0 0 1-.735-.295 4.19 4.19 0 0 1-.348-.197 6.912 6.912 0 0 1-1.81-1.795 14.837 14.837 0 0 1-.997-1.563 17.709 17.709 0 0 1-1.503-3.622 18.66 18.66 0 0 1-.739-4.984 18.61 18.61 0 0 1 .05-1.674c.01-.14.231-.119.222.022z" fill="#fff"/><path d="M24.213 60a3.198 3.198 0 0 1-2.08.318 2.684 2.684 0 0 1-1.677-1.055.102.102 0 0 1-.015-.08.123.123 0 0 1 .046-.072.123.123 0 0 1 .082-.026.102.102 0 0 1 .073.036c.365.51.919.858 1.56.983a2.964 2.964 0 0 0 1.936-.304c.133-.07.207.13.075.2zM28.704 63.735c.537-1.37.54-2.84.01-4.117-.053-.127.16-.218.213-.092.55 1.331.542 2.861-.02 4.285-.054.136-.257.059-.203-.076zM22.179 54.125a1.928 1.928 0 0 0 1.234-1.132c.052-.136.255-.059.203.076-.114.293-.298.56-.535.78a2.163 2.163 0 0 1-.827.475.119.119 0 0 1-.086.002.1.1 0 0 1-.058-.056.108.108 0 0 1 .005-.084.127.127 0 0 1 .064-.061z" fill="#fff"/><path d="M72.145 71.12H34.293c-1.015-.002-1.987-.369-2.705-1.021-.717-.653-1.12-1.537-1.122-2.46V22.048c.002-.923.405-1.808 1.122-2.46.718-.652 1.69-1.02 2.705-1.02h37.852c1.014 0 1.987.367 2.704 1.02.718.652 1.121 1.537 1.122 2.46v45.59c0 .924-.404 1.808-1.122 2.46-.717.653-1.69 1.02-2.704 1.021z" fill="#E6E6E6"/><path d="M57.698 68.297H36.953a3.672 3.672 0 0 1-2.462-.93c-.653-.593-1.02-1.399-1.022-2.239v-40.57c.001-.84.369-1.645 1.022-2.24a3.67 3.67 0 0 1 2.462-.929h32.531c.924.001 1.81.335 2.463.93.653.594 1.02 1.399 1.021 2.24v29.848c-.004 3.683-1.615 7.213-4.477 9.817-2.863 2.604-6.745 4.069-10.793 4.073z" fill="#fff"/><path d="M66.24 29.178H40.198a.923.923 0 0 1-.326-.059.862.862 0 0 1-.276-.167.772.772 0 0 1-.184-.25.712.712 0 0 1 0-.593.77.77 0 0 1 .184-.25.86.86 0 0 1 .276-.168.924.924 0 0 1 .326-.058h26.04c.112 0 .222.02.325.058a.86.86 0 0 1 .277.168.773.773 0 0 1 .184.25.713.713 0 0 1 0 .592.775.775 0 0 1-.184.251.861.861 0 0 1-.276.167.923.923 0 0 1-.326.059zM66.24 32.23H40.198a.894.894 0 0 1-.601-.226.739.739 0 0 1-.249-.546c0-.205.09-.401.249-.546a.894.894 0 0 1 .6-.227H66.24c.225 0 .441.082.6.227.16.145.25.341.25.546 0 .205-.09.401-.25.546a.894.894 0 0 1-.6.226zM51.486 35.283H40.2a.894.894 0 0 1-.601-.226.739.739 0 0 1-.249-.547c0-.204.09-.401.249-.546a.894.894 0 0 1 .6-.226h11.288c.226 0 .442.081.601.226.16.145.249.342.249.546 0 .205-.09.402-.249.547a.894.894 0 0 1-.6.226z" fill="#6C63FF"/><path d="M66.24 41.676H40.198a.926.926 0 0 1-.326-.058.862.862 0 0 1-.276-.168.772.772 0 0 1-.184-.25.712.712 0 0 1 0-.592.772.772 0 0 1 .184-.25.862.862 0 0 1 .276-.168.926.926 0 0 1 .326-.059h26.04c.112 0 .222.02.325.059a.861.861 0 0 1 .277.167.775.775 0 0 1 .184.251.713.713 0 0 1 0 .592.775.775 0 0 1-.184.25.861.861 0 0 1-.276.168.925.925 0 0 1-.326.058zM66.24 44.729H40.198a.894.894 0 0 1-.601-.227.739.739 0 0 1-.249-.546c0-.205.09-.401.249-.546a.894.894 0 0 1 .6-.226H66.24c.225 0 .441.081.6.226.16.145.25.341.25.546 0 .205-.09.401-.25.546a.894.894 0 0 1-.6.227zM51.486 47.781H40.2a.894.894 0 0 1-.601-.226.739.739 0 0 1-.249-.546c0-.205.09-.401.249-.546a.894.894 0 0 1 .6-.227h11.288c.226 0 .442.082.601.227.16.145.249.341.249.546 0 .205-.09.401-.249.546a.894.894 0 0 1-.6.226zM66.24 54.175H40.198a.926.926 0 0 1-.326-.059.862.862 0 0 1-.276-.167.772.772 0 0 1-.184-.251.712.712 0 0 1 0-.592.772.772 0 0 1 .184-.25.862.862 0 0 1 .276-.168.926.926 0 0 1 .326-.058h26.04c.112 0 .222.02.325.058a.861.861 0 0 1 .277.167.775.775 0 0 1 .184.251.713.713 0 0 1 0 .592.775.775 0 0 1-.184.25.861.861 0 0 1-.276.168.925.925 0 0 1-.326.059zM66.24 57.227H40.198a.894.894 0 0 1-.601-.226.739.739 0 0 1-.249-.546c0-.205.09-.402.249-.547a.894.894 0 0 1 .6-.226H66.24c.225 0 .441.081.6.226.16.145.25.342.25.547 0 .205-.09.401-.25.546a.894.894 0 0 1-.6.226zM51.486 60.28H40.2a.894.894 0 0 1-.6-.227.739.739 0 0 1-.248-.546c0-.204.089-.4.248-.545a.894.894 0 0 1 .6-.227h11.288c.225 0 .44.082.6.227a.74.74 0 0 1 .248.545c0 .205-.09.401-.249.546a.894.894 0 0 1-.6.227z" fill="#E4E4E4"/><path d="M116.609 23.259h-5.251a.419.419 0 0 1-.28-.106.343.343 0 0 1-.115-.254c0-.095.041-.187.115-.254a.419.419 0 0 1 .28-.105h5.251c.105 0 .206.038.28.105a.343.343 0 0 1 .115.254.343.343 0 0 1-.115.254.417.417 0 0 1-.28.106zM113.253 21.838h-1.895a.416.416 0 0 1-.279-.105.343.343 0 0 1-.115-.254c0-.095.041-.186.115-.254a.416.416 0 0 1 .279-.105h1.895c.105 0 .205.037.279.105a.344.344 0 0 1 .116.254.344.344 0 0 1-.116.254.414.414 0 0 1-.279.105z" fill="#6C63FF"/><path d="M123.473 14.416h-12.115a.414.414 0 0 1-.279-.105.344.344 0 0 1-.116-.254c0-.096.042-.187.116-.255a.414.414 0 0 1 .279-.105h12.115c.104 0 .205.038.279.106a.344.344 0 0 1 .116.254.344.344 0 0 1-.116.254.416.416 0 0 1-.279.105zM123.472 15.836h-12.114a.416.416 0 0 1-.279-.105.343.343 0 0 1-.115-.254c0-.095.041-.187.115-.254a.416.416 0 0 1 .279-.106h12.114c.105 0 .206.038.28.106a.344.344 0 0 1 .116.254.344.344 0 0 1-.116.254.417.417 0 0 1-.28.105zM116.609 17.256h-5.251a.419.419 0 0 1-.28-.105.343.343 0 0 1-.115-.254c0-.095.041-.187.115-.254a.419.419 0 0 1 .28-.105h5.251c.105 0 .206.038.28.105a.343.343 0 0 1 .115.254.343.343 0 0 1-.115.254.417.417 0 0 1-.28.105zM123.473 8.617h-12.115a.414.414 0 0 1-.279-.106.344.344 0 0 1-.116-.254c0-.095.042-.186.116-.254a.414.414 0 0 1 .279-.105h12.115c.104 0 .205.038.279.105a.344.344 0 0 1 .116.254.344.344 0 0 1-.116.254.416.416 0 0 1-.279.106zM123.472 10.037h-12.114a.419.419 0 0 1-.28-.105.343.343 0 0 1-.115-.254c0-.096.041-.187.115-.255a.419.419 0 0 1 .28-.105h12.114c.105 0 .206.038.28.105a.344.344 0 0 1 .116.255.344.344 0 0 1-.116.254.417.417 0 0 1-.28.105zM116.609 11.457h-5.251a.416.416 0 0 1-.279-.105.343.343 0 0 1-.115-.254c0-.096.041-.187.115-.254a.416.416 0 0 1 .279-.106h5.251c.105 0 .205.038.279.106a.344.344 0 0 1 .116.254.344.344 0 0 1-.116.254.416.416 0 0 1-.279.105z" fill="#E4E4E4"/><path d="M123.473 20.419h-12.115a.414.414 0 0 1-.279-.106.344.344 0 0 1-.116-.254c0-.095.042-.187.116-.254a.414.414 0 0 1 .279-.105h12.115c.104 0 .205.038.279.105a.344.344 0 0 1 .116.254.344.344 0 0 1-.116.254.416.416 0 0 1-.279.106z" fill="#6C63FF"/><path d="M9.31 62.405a17.462 17.462 0 0 0 2.989 3.184c.514.43 1.054.83 1.618 1.2 1.1.725 2.284 1.33 3.534 1.809.068.025.134.05.203.074l.002.001c.526.194 1.064.361 1.613.5.851.239 1.752.33 2.662.27a5.529 5.529 0 0 0 2.1-.654c.126-.064.25-.135.375-.208.496-.293.986-.627 1.507-.878.262-.13.536-.232.816-.303.964-.236 1.86.105 2.555.664.123.097.239.201.35.31.852.828 1.413 1.93 2.2 2.81.085.092.173.184.262.272l.103-.076-.037-.189v-.001a6.744 6.744 0 0 1-.138-.147c-.378-.439-.728-.9-1.048-1.383-.15-.212-.302-.425-.46-.633a9.403 9.403 0 0 0-.399-.485v-.002a7.084 7.084 0 0 0-.266-.281 4.612 4.612 0 0 0-.935-.728 2.835 2.835 0 0 0-1.165-.4 3.18 3.18 0 0 0-1.274.117c-.253.081-.5.183-.739.304-.525.266-1.021.603-1.529.899a3.533 3.533 0 0 1-.163.091c-.069.038-.137.073-.206.109a5.229 5.229 0 0 1-2.186.591 8.532 8.532 0 0 1-2.646-.371 17.14 17.14 0 0 1-1.326-.432h-.002l-.062-.023-.003-.001a17.878 17.878 0 0 1-5.085-2.927l-.164-.137a17.387 17.387 0 0 1-2.855-3.06v-.002c-.04-.053-.077-.106-.115-.16-.079-.111-.281.003-.203.113a3.837 3.837 0 0 0 .116.162z" fill="#fff"/><path d="M29.654 68.341c-.745 1.263-2.004 1.933-3.525 1.877-.151-.006-.06.29.091.295 1.582.056 2.89-.645 3.663-1.963.073-.126-.155-.334-.229-.209z" fill="#fff"/><path opacity=".1" d="M122.185 64.1c-4.103-.123-8.011-1.267-11.743-2.519-3.731-1.252-7.427-2.639-11.432-3.302-2.576-.426-5.522-.486-7.597.706-1.997 1.15-2.643 3.13-2.99 4.968-.26 1.383-.414 2.839.302 4.134.496.899 1.378 1.654 1.987 2.519 2.122 2.996.623 6.69-1.677 9.617-1.077 1.372-2.33 2.683-3.161 4.142-.832 1.46-1.217 3.135-.49 4.626.722 1.478 2.442 2.586 4.305 3.367 3.784 1.585 8.241 2.038 12.591 2.295 9.625.569 19.301.322 28.952.076 3.572-.091 7.159-.184 10.672-.66 1.951-.266 3.965-.686 5.382-1.701 1.798-1.288 2.244-3.47 1.039-5.086-2.021-2.71-7.607-3.383-9.022-6.291-.777-1.6.021-3.384 1.151-4.869 2.424-3.184 6.487-5.979 6.702-9.619.147-2.5-1.807-5.004-4.827-6.187-3.166-1.245-7.556-1.087-9.891.966-2.405 2.115-6.631 2.926-10.253 2.818z" fill="#6C63FF"/></g><defs><clipPath id="a"><path fill="#fff" d="M0 0h136v80H0z"/></clipPath></defs></svg>