<svg width="18" height="18" fill="none" xmlns="http://www.w3.org/2000/svg"><path d="M15.75 1.688H2.25c-.621 0-1.125.503-1.125 1.125v.562c0 .621.504 1.125 1.125 1.125h13.5c.621 0 1.125-.504 1.125-1.125v-.563c0-.62-.504-1.124-1.125-1.124zM2.617 5.625a.281.281 0 0 0-.28.31l.924 8.88v.007a1.688 1.688 0 0 0 1.677 1.49h8.124a1.688 1.688 0 0 0 1.676-1.49v-.007l.923-8.88a.281.281 0 0 0-.28-.31H2.616zm8.75 6.352a.562.562 0 1 1-.796.796L9 11.202l-1.571 1.57a.563.563 0 0 1-.796-.795l1.571-1.57-1.57-1.572a.563.563 0 0 1 .795-.795L9 9.61l1.57-1.57a.562.562 0 0 1 .796.795l-1.57 1.571 1.57 1.571z" fill="#DB4E4E"/></svg>