<svg width="18" height="18" fill="none" xmlns="http://www.w3.org/2000/svg"><path d="M9 10.688a1.688 1.688 0 1 0 0-3.376 1.688 1.688 0 0 0 0 3.375z" fill="#5D54CD"/><path d="m16.537 10.547-.016-.014-1.11-.87a.566.566 0 0 1-.214-.468v-.407a.562.562 0 0 1 .215-.464l1.109-.87.016-.014a.938.938 0 0 0 .208-1.198l-1.502-2.598a.944.944 0 0 0-1.145-.405l-.013.005-1.304.525a.56.56 0 0 1-.509-.046 6.33 6.33 0 0 0-.351-.206.56.56 0 0 1-.288-.415l-.197-1.392-.004-.025a.957.957 0 0 0-.929-.77H7.497a.946.946 0 0 0-.93.786l-.003.02-.196 1.395a.562.562 0 0 1-.286.415c-.12.064-.237.133-.352.205a.56.56 0 0 1-.507.044l-1.305-.527-.012-.005a.945.945 0 0 0-1.142.399l-.005.007-1.504 2.6a.939.939 0 0 0 .208 1.2l.016.012 1.11.87a.566.566 0 0 1 .214.47v.406a.563.563 0 0 1-.214.464l-1.11.87-.016.014a.938.938 0 0 0-.208 1.198l1.502 2.598a.944.944 0 0 0 1.145.405l.013-.005 1.303-.525a.561.561 0 0 1 .509.046c.115.073.232.141.351.206a.56.56 0 0 1 .288.415l.196 1.392.004.025a.957.957 0 0 0 .93.77h3.007a.946.946 0 0 0 .93-.786l.003-.02.196-1.395a.561.561 0 0 1 .288-.415c.12-.065.237-.133.351-.205a.56.56 0 0 1 .508-.044l1.305.525.012.005a.944.944 0 0 0 1.147-.406l1.501-2.598a.938.938 0 0 0-.207-1.2zM11.81 9.132a2.812 2.812 0 1 1-2.94-2.941 2.82 2.82 0 0 1 2.94 2.941z" fill="#5D54CD"/></svg>