<svg width="18" height="18" viewBox="0 0 18 18" fill="none" xmlns="http://www.w3.org/2000/svg">
<path d="M16.3807 4.21032L13.7897 1.6193C13.6334 1.4621 13.4474 1.33747 13.2426 1.25262C13.0378 1.16778 12.8182 1.1244 12.5965 1.12501H3.375C2.77826 1.12501 2.20597 1.36206 1.78401 1.78402C1.36205 2.20597 1.125 2.77827 1.125 3.37501V14.625C1.125 15.2217 1.36205 15.794 1.78401 16.216C2.20597 16.638 2.77826 16.875 3.375 16.875H14.625C15.2217 16.875 15.794 16.638 16.216 16.216C16.6379 15.794 16.875 15.2217 16.875 14.625V5.40352C16.8756 5.18183 16.8322 4.96222 16.7474 4.7574C16.6625 4.55259 16.5379 4.36664 16.3807 4.21032ZM4.21875 3.93751H10.4062C10.4808 3.93751 10.5524 3.96714 10.6051 4.01988C10.6579 4.07263 10.6875 4.14416 10.6875 4.21876V5.90626C10.6875 5.98085 10.6579 6.05239 10.6051 6.10513C10.5524 6.15788 10.4808 6.18751 10.4062 6.18751H4.21875C4.14416 6.18751 4.07262 6.15788 4.01988 6.10513C3.96713 6.05239 3.9375 5.98085 3.9375 5.90626V4.21876C3.9375 4.14416 3.96713 4.07263 4.01988 4.01988C4.07262 3.96714 4.14416 3.93751 4.21875 3.93751ZM9.13184 15.1843C8.56496 15.211 8.00329 15.0655 7.52063 14.767C7.03797 14.4685 6.65689 14.031 6.42748 13.5119C6.19807 12.9928 6.13105 12.4165 6.23523 11.8586C6.3394 11.3008 6.60991 10.7875 7.01119 10.3862C7.41248 9.98491 7.92577 9.71441 8.48363 9.61023C9.04149 9.50605 9.61782 9.57307 10.1369 9.80249C10.6559 10.0319 11.0935 10.413 11.392 10.8956C11.6905 11.3783 11.836 11.94 11.8093 12.5068C11.776 13.2062 11.4832 13.8681 10.9881 14.3631C10.4931 14.8582 9.83121 15.151 9.13184 15.1843Z" fill="#999CA0"/>
<path d="M9 14.0625C9.93198 14.0625 10.6875 13.307 10.6875 12.375C10.6875 11.443 9.93198 10.6875 9 10.6875C8.06802 10.6875 7.3125 11.443 7.3125 12.375C7.3125 13.307 8.06802 14.0625 9 14.0625Z" fill="#999CA0"/>
</svg>