<svg width="18" height="18" viewBox="0 0 18 18" fill="none" xmlns="http://www.w3.org/2000/svg">
<path d="M12.3555 4.05599L13.944 5.64374M13.377 2.65724L9.08175 6.95249C8.85982 7.17412 8.70846 7.45648 8.64675 7.76399L8.25 9.74999L10.236 9.35249C10.5435 9.29099 10.8255 9.14024 11.0475 8.91824L15.3428 4.62299C15.4718 4.49392 15.5742 4.34069 15.6441 4.17205C15.7139 4.0034 15.7499 3.82265 15.7499 3.64012C15.7499 3.45758 15.7139 3.27683 15.6441 3.10819C15.5742 2.93955 15.4718 2.78632 15.3428 2.65724C15.2137 2.52817 15.0604 2.42578 14.8918 2.35593C14.7232 2.28608 14.5424 2.25012 14.3599 2.25012C14.1773 2.25012 13.9966 2.28608 13.8279 2.35593C13.6593 2.42578 13.5061 2.52817 13.377 2.65724V2.65724Z" stroke="#999CA0" stroke-width="2" stroke-linecap="round" stroke-linejoin="round"/>
<path d="M14.25 11.25V13.5C14.25 13.8978 14.092 14.2794 13.8107 14.5607C13.5294 14.842 13.1478 15 12.75 15H4.5C4.10218 15 3.72064 14.842 3.43934 14.5607C3.15804 14.2794 3 13.8978 3 13.5V5.25C3 4.85218 3.15804 4.47064 3.43934 4.18934C3.72064 3.90804 4.10218 3.75 4.5 3.75H6.75" stroke="#999CA0" stroke-width="2" stroke-linecap="round" stroke-linejoin="round"/>
</svg>