<svg width="18" height="18" viewBox="0 0 18 18" fill="none" xmlns="http://www.w3.org/2000/svg">
<path d="M0 2.25C0 1.00723 0.895313 0 2 0H7V4.5C7 5.12227 7.44688 5.625 8 5.625H12V6.98203C9.69063 7.7168 8 10.1039 8 12.9375C8 15.0152 8.90938 16.8504 10.3031 17.9754C10.2063 17.9895 10.1031 18 10 18H2C0.895313 18 0 16.991 0 15.75V2.25ZM8 4.5V0L12 4.5H8ZM9 12.9375C9 10.1426 11.0156 7.875 13.5 7.875C15.9844 7.875 18 10.1426 18 12.9375C18 15.7324 15.9844 18 13.5 18C11.0156 18 9 15.7324 9 12.9375ZM14 10.6559C14 10.3781 13.775 10.0934 13.5 10.0934C13.225 10.0934 13 10.3781 13 10.6559V12.3434H11.5C11.225 12.3434 11 12.6281 11 12.9059C11 13.2469 11.225 13.4684 11.5 13.4684H13V15.1559C13 15.4969 13.225 15.7184 13.5 15.7184C13.775 15.7184 14 15.4969 14 15.1559V13.4684H15.5C15.775 13.4684 16 13.2469 16 12.9059C16 12.6281 15.775 12.3434 15.5 12.3434H14V10.6559Z" fill="#F3AA18"/>
</svg>