<svg width="20" height="20" fill="none" xmlns="http://www.w3.org/2000/svg"><path d="M16.875 6.875H12.5V2.5A1.875 1.875 0 0 0 10.625.625h-7.5A1.875 1.875 0 0 0 1.25 2.5v16.25a.625.625 0 0 0 .625.625h4.063a.312.312 0 0 0 .312-.313v-2.794c0-.337.259-.625.595-.642a.623.623 0 0 1 .655.624v2.813a.313.313 0 0 0 .313.312h10.312a.624.624 0 0 0 .625-.625v-10a1.875 1.875 0 0 0-1.875-1.875zM3.831 16.87a.625.625 0 1 1-.162-1.239.625.625 0 0 1 .162 1.239zm0-3.125a.625.625 0 1 1-.162-1.239.625.625 0 0 1 .162 1.239zm0-3.125A.625.625 0 1 1 3.67 9.38a.625.625 0 0 1 .162 1.239zm0-3.125a.625.625 0 1 1-.162-1.24.625.625 0 0 1 .162 1.24zm0-3.125a.625.625 0 1 1-.162-1.24.625.625 0 0 1 .162 1.24zm3.125 9.375a.625.625 0 1 1-.162-1.239.625.625 0 0 1 .162 1.239zm0-3.125a.625.625 0 1 1-.162-1.239.625.625 0 0 1 .162 1.239zm0-3.125a.625.625 0 1 1-.162-1.24.625.625 0 0 1 .162 1.24zm0-3.125a.625.625 0 1 1-.162-1.24.625.625 0 0 1 .162 1.24zm3.125 12.5a.624.624 0 1 1-.162-1.238.624.624 0 0 1 .162 1.238zm0-3.125a.624.624 0 1 1-.162-1.238.624.624 0 0 1 .162 1.238zm0-3.125a.624.624 0 1 1-.162-1.238.624.624 0 0 1 .162 1.238zm0-3.125a.625.625 0 1 1-.162-1.24.625.625 0 0 1 .162 1.24zm0-3.125a.625.625 0 1 1-.162-1.24.625.625 0 0 1 .162 1.24zm7.263 13.755H12.5v-10h4.375a.625.625 0 0 1 .625.625v9.219a.156.156 0 0 1-.156.156z" fill="#5D54CD"/><path d="M15.625 15.625a.625.625 0 1 0 0 1.25.625.625 0 0 0 0-1.25zM15.625 12.5a.625.625 0 1 0 0 1.25.625.625 0 0 0 0-1.25zM15.625 9.375a.625.625 0 1 0 0 1.25.625.625 0 0 0 0-1.25zM13.125 15.625a.625.625 0 1 0 0 1.25.625.625 0 0 0 0-1.25zM13.125 12.5a.625.625 0 1 0 0 1.25.625.625 0 0 0 0-1.25zM13.125 9.375a.625.625 0 1 0 0 1.25.625.625 0 0 0 0-1.25z" fill="#5D54CD"/></svg>