<svg width="18" height="18" viewBox="0 0 18 18" fill="none" xmlns="http://www.w3.org/2000/svg">
<path d="M5.53111 12.5858L6.46861 11.4143L3.45061 9.00005L6.46861 6.5858L5.53111 5.4143L1.78111 8.4143C1.69325 8.48456 1.62231 8.57369 1.57357 8.67508C1.52482 8.77648 1.49951 8.88754 1.49951 9.00005C1.49951 9.11255 1.52482 9.22362 1.57357 9.32501C1.62231 9.42641 1.69325 9.51554 1.78111 9.5858L5.53111 12.5858ZM12.4686 5.4143L11.5311 6.5858L14.5491 9.00005L11.5311 11.4143L12.4686 12.5858L16.2186 9.5858C16.3065 9.51554 16.3774 9.42641 16.4262 9.32501C16.4749 9.22362 16.5002 9.11255 16.5002 9.00005C16.5002 8.88754 16.4749 8.77648 16.4262 8.67508C16.3774 8.57369 16.3065 8.48456 16.2186 8.4143L12.4686 5.4143ZM11.2319 2.41205L8.23186 15.912L6.76711 15.5865L9.76711 2.08655L11.2319 2.41205Z" fill="#999CA0"/>
</svg>