<svg width="10" height="10" viewBox="0 0 10 10" fill="none" xmlns="http://www.w3.org/2000/svg">
<path d="M7.5 9.5L6.125 8L6.705 7.42L7.5 8.215L9.295 6.42L9.875 7.125M5.4 9.5H1.5C1.23478 9.5 0.98043 9.39464 0.792893 9.20711C0.605357 9.01957 0.5 8.76522 0.5 8.5V1.5C0.5 0.945 0.945 0.5 1.5 0.5H8.5C8.76522 0.5 9.01957 0.605357 9.20711 0.792893C9.39464 0.98043 9.5 1.23478 9.5 1.5V5.4C9.06 5.145 8.545 5 8 5L7.5 5.04V4.5H2.5V5.5H6.345C5.9313 5.77272 5.59182 6.14393 5.35706 6.58029C5.1223 7.01665 4.99961 7.5045 5 8C5 8.545 5.145 9.06 5.4 9.5ZM5 6.5H2.5V7.5H5M7.5 2.5H2.5V3.5H7.5" fill="#57B894"/>
</svg>