<svg width="18" height="18" fill="none" xmlns="http://www.w3.org/2000/svg"><g clip-path="url(#a)"><path d="M.002 3.375a2.25 2.25 0 0 1 2.25-2.25h13.5a2.25 2.25 0 0 1 2.25 2.25v11.25a2.25 2.25 0 0 1-2.25 2.25h-13.5a2.25 2.25 0 0 1-2.25-2.25V3.375zM1.127 13.5v1.125a1.125 1.125 0 0 0 1.125 1.125h13.5a1.125 1.125 0 0 0 1.125-1.125v-3.938l-4.249-2.19a.562.562 0 0 0-.649.105l-4.174 4.173-2.992-1.993a.563.563 0 0 0-.709.07L1.127 13.5zm5.625-7.313a1.687 1.687 0 1 0-3.375 0 1.687 1.687 0 0 0 3.375 0z" fill="#999CA0"/></g><defs><clipPath id="a"><path fill="#fff" d="M0 0h18v18H0z"/></clipPath></defs></svg>