<svg width="13" height="12" viewBox="0 0 13 12" fill="none" xmlns="http://www.w3.org/2000/svg">
<path d="M9.33333 12L7.5 10L8.27333 9.22667L9.33333 10.2867L11.7267 7.89333L12.5 8.83333M6.53333 12H1.33333C0.979711 12 0.640573 11.8595 0.390524 11.6095C0.140476 11.3594 0 11.0203 0 10.6667V1.33333C0 0.593333 0.593333 0 1.33333 0H10.6667C11.0203 0 11.3594 0.140476 11.6095 0.390524C11.8595 0.640573 12 0.979711 12 1.33333V6.53333C11.4133 6.19333 10.7267 6 10 6L9.33333 6.05333V5.33333H2.66667V6.66667H7.79333C7.24173 7.0303 6.7891 7.52525 6.47608 8.10706C6.16307 8.68887 5.99948 9.33933 6 10C6 10.7267 6.19333 11.4133 6.53333 12ZM6 8H2.66667V9.33333H6M9.33333 2.66667H2.66667V4H9.33333" fill="#57B894"/>
</svg>