<svg width="20" height="20" fill="none" xmlns="http://www.w3.org/2000/svg"><path d="M18.2 4.678 15.323 1.8a1.863 1.863 0 0 0-1.326-.549H3.75a2.5 2.5 0 0 0-2.5 2.5v12.5a2.5 2.5 0 0 0 2.5 2.5h12.5a2.5 2.5 0 0 0 2.5-2.5V6.004a1.862 1.862 0 0 0-.55-1.326zM4.689 4.375h6.875a.313.313 0 0 1 .312.313v1.875a.313.313 0 0 1-.313.312H4.689a.313.313 0 0 1-.313-.312V4.688a.312.312 0 0 1 .313-.313zm5.458 12.497a3.125 3.125 0 1 1-.293-6.243 3.125 3.125 0 0 1 .293 6.243z" fill="#57B894"/><path d="M10 15.625a1.875 1.875 0 1 0 0-3.75 1.875 1.875 0 0 0 0 3.75z" fill="#57B894"/></svg>