<svg width="16" height="16" viewBox="0 0 16 16" fill="none" xmlns="http://www.w3.org/2000/svg">
<path d="M8.6 3.61537C8.6 3.284 8.33137 3.01537 8 3.01537C7.66863 3.01537 7.4 3.284 7.4 3.61537H8.6ZM8 8.54806H7.4C7.4 8.72613 7.47909 8.895 7.61589 9.009L8 8.54806ZM10.9043 11.7494C11.1589 11.9615 11.5373 11.9271 11.7494 11.6726C11.9615 11.418 11.9271 11.0397 11.6726 10.8275L10.9043 11.7494ZM14.525 8C14.525 11.6037 11.6037 14.525 8 14.525V15.725C12.2664 15.725 15.725 12.2664 15.725 8H14.525ZM8 14.525C4.39634 14.525 1.475 11.6037 1.475 8H0.275C0.275 12.2664 3.7336 15.725 8 15.725V14.525ZM1.475 8C1.475 4.39634 4.39634 1.475 8 1.475V0.275C3.7336 0.275 0.275 3.7336 0.275 8H1.475ZM8 1.475C11.6037 1.475 14.525 4.39634 14.525 8H15.725C15.725 3.7336 12.2664 0.275 8 0.275V1.475ZM7.4 3.61537V8.54806H8.6V3.61537H7.4ZM7.61589 9.009L10.9043 11.7494L11.6726 10.8275L8.38411 8.08713L7.61589 9.009Z" fill="#999CA0"/>
</svg>