<svg width="10" height="14" viewBox="0 0 10 14" fill="none" xmlns="http://www.w3.org/2000/svg">
<path d="M8.77332 6.05335L3.11999 0.400013C2.99603 0.275042 2.84857 0.175849 2.68609 0.108157C2.52361 0.0404659 2.34933 0.00561523 2.17332 0.00561523C1.9973 0.00561523 1.82303 0.0404659 1.66055 0.108157C1.49807 0.175849 1.3506 0.275042 1.22665 0.400013C0.978317 0.64983 0.838928 0.987765 0.838928 1.34001C0.838928 1.69226 0.978317 2.0302 1.22665 2.28001L5.94665 7.00001L1.22665 11.72C0.978317 11.9698 0.838928 12.3078 0.838928 12.66C0.838928 13.0123 0.978317 13.3502 1.22665 13.6C1.35124 13.7236 1.49899 13.8214 1.66144 13.8877C1.82389 13.9541 1.99784 13.9877 2.17332 13.9867C2.34879 13.9877 2.52274 13.9541 2.68519 13.8877C2.84764 13.8214 2.9954 13.7236 3.11999 13.6L8.77332 7.94668C8.89829 7.82273 8.99748 7.67526 9.06517 7.51278C9.13286 7.3503 9.16772 7.17603 9.16772 7.00001C9.16772 6.824 9.13286 6.64972 9.06517 6.48724C8.99748 6.32476 8.89829 6.1773 8.77332 6.05335Z" fill="white"/>
</svg>