<svg width="18" height="18" fill="none" xmlns="http://www.w3.org/2000/svg"><path d="M5.344 9a2.531 2.531 0 1 0 0-5.063 2.531 2.531 0 0 0 0 5.063zM8.227 10.406a6.665 6.665 0 0 0-2.883-.703c-1.568 0-4.782.961-4.782 2.883v1.476h5.274v-.564c0-.668.281-1.338.773-1.896.393-.446.943-.86 1.618-1.196z" fill="#5D54CD"/><path d="M11.953 10.125c-1.83 0-5.484 1.13-5.484 3.375v1.688h10.968V13.5c0-2.244-3.653-3.375-5.484-3.375zM11.953 9a3.094 3.094 0 1 0 0-6.187 3.094 3.094 0 0 0 0 6.187z" fill="#5D54CD"/></svg>