<svg width="20" height="20" fill="none" xmlns="http://www.w3.org/2000/svg"><path d="M17.966 2.08a.628.628 0 0 0-.907-.022l-.483.481a.312.312 0 0 0 0 .442l.443.442a.314.314 0 0 0 .443 0l.471-.469a.635.635 0 0 0 .033-.874zM15.6 3.516l-7.052 7.039a.352.352 0 0 0-.09.153l-.327.972a.153.153 0 0 0 .19.19l.97-.327a.352.352 0 0 0 .154-.09l7.04-7.052a.352.352 0 0 0 0-.495l-.39-.39a.352.352 0 0 0-.496 0z" fill="#BCB7EA"/><path d="m15.091 7.565-4.76 4.77c-.185.185-.411.322-.66.4l-1.012.338a1.403 1.403 0 0 1-1.731-1.732l.338-1.011c.078-.249.214-.475.398-.66l4.771-4.761a.313.313 0 0 0-.22-.534H4.063a2.188 2.188 0 0 0-2.188 2.188v9.375a2.187 2.187 0 0 0 2.188 2.187h9.375a2.188 2.188 0 0 0 2.187-2.188V7.787a.313.313 0 0 0-.534-.221z" fill="#BCB7EA"/></svg>