<svg width="20" height="20" fill="none" xmlns="http://www.w3.org/2000/svg"><path d="M10 12.5a2.5 2.5 0 1 0 0-5 2.5 2.5 0 0 0 0 5z" fill="#BCB7EA"/><path d="M19.174 9.32c-1.034-1.598-2.375-2.956-3.878-3.927-1.663-1.075-3.5-1.643-5.31-1.643-1.66 0-3.293.475-4.854 1.41C3.542 6.116 2.1 7.51.848 9.305a1.247 1.247 0 0 0-.025 1.388c1.032 1.615 2.36 2.974 3.84 3.932 1.665 1.08 3.458 1.626 5.324 1.626 1.824 0 3.664-.564 5.32-1.63 1.502-.967 2.84-2.33 3.87-3.942a1.258 1.258 0 0 0-.003-1.358zM10 13.75a3.75 3.75 0 1 1 0-7.5 3.75 3.75 0 0 1 0 7.5z" fill="#BCB7EA"/></svg>