<svg width="20" height="20" viewBox="0 0 20 20" fill="none" xmlns="http://www.w3.org/2000/svg">
<path d="M17.5 1.875H2.5C1.80964 1.875 1.25 2.43464 1.25 3.125V3.75C1.25 4.44036 1.80964 5 2.5 5H17.5C18.1904 5 18.75 4.44036 18.75 3.75V3.125C18.75 2.43464 18.1904 1.875 17.5 1.875Z" fill="#999CA0"/>
<path d="M2.90821 6.25C2.8643 6.24977 2.82083 6.25879 2.78063 6.27648C2.74044 6.29417 2.70442 6.32014 2.67494 6.35268C2.64545 6.38523 2.62316 6.42362 2.60951 6.46536C2.59586 6.5071 2.59115 6.55125 2.59571 6.59493L3.62345 16.4606C3.62324 16.4634 3.62324 16.4663 3.62345 16.4691C3.67715 16.9255 3.89652 17.3462 4.23993 17.6514C4.58334 17.9567 5.02688 18.1252 5.48634 18.125H14.5133C14.9726 18.125 15.416 17.9564 15.7592 17.6512C16.1025 17.3459 16.3217 16.9253 16.3754 16.4691V16.4609L17.4016 6.59493C17.4061 6.55125 17.4014 6.5071 17.3878 6.46536C17.3741 6.42362 17.3518 6.38523 17.3223 6.35268C17.2929 6.32014 17.2568 6.29417 17.2167 6.27648C17.1765 6.25879 17.133 6.24977 17.0891 6.25H2.90821ZM12.6293 13.3082C12.6887 13.3659 12.7361 13.4349 12.7686 13.5111C12.8011 13.5873 12.8182 13.6692 12.8188 13.752C12.8193 13.8349 12.8035 13.917 12.772 13.9937C12.7406 14.0703 12.6942 14.1399 12.6356 14.1985C12.577 14.2571 12.5074 14.3034 12.4307 14.3348C12.354 14.3662 12.2719 14.3821 12.1891 14.3814C12.1062 14.3808 12.0243 14.3637 11.9482 14.3312C11.872 14.2986 11.803 14.2512 11.7453 14.1918L10 12.4465L8.25431 14.1918C8.13655 14.3062 7.97852 14.3697 7.81434 14.3685C7.65017 14.3674 7.49304 14.3016 7.37693 14.1856C7.26081 14.0695 7.19502 13.9124 7.19379 13.7483C7.19255 13.5841 7.25596 13.426 7.37032 13.3082L9.11602 11.5625L7.37032 9.8168C7.25596 9.699 7.19255 9.54093 7.19379 9.37676C7.19502 9.21259 7.26081 9.05549 7.37693 8.93942C7.49304 8.82336 7.65017 8.75764 7.81434 8.75648C7.97852 8.75532 8.13655 8.8188 8.25431 8.93321L10 10.6785L11.7453 8.93321C11.8631 8.8188 12.0211 8.75532 12.1853 8.75648C12.3495 8.75764 12.5066 8.82336 12.6227 8.93942C12.7388 9.05549 12.8046 9.21259 12.8058 9.37676C12.8071 9.54093 12.7437 9.699 12.6293 9.8168L10.8836 11.5625L12.6293 13.3082Z" fill="#999CA0"/>
</svg>