<svg width="20" height="20" viewBox="0 0 20 20" fill="none" xmlns="http://www.w3.org/2000/svg">
<path d="M13.7123 6.21248C13.8884 6.04484 14.1227 5.95217 14.3659 5.95401C14.609 5.95585 14.8419 6.05206 15.0154 6.22234C15.1889 6.39263 15.2895 6.62366 15.2959 6.8667C15.3024 7.10974 15.2141 7.34577 15.0498 7.52498L10.0623 13.7625C9.97657 13.8549 9.87306 13.929 9.758 13.9804C9.64293 14.0319 9.51867 14.0596 9.39265 14.062C9.26662 14.0643 9.14142 14.0412 9.02453 13.994C8.90764 13.9469 8.80145 13.8766 8.71233 13.7875L5.40483 10.48C5.31272 10.3942 5.23884 10.2907 5.1876 10.1757C5.13636 10.0607 5.10881 9.93652 5.10659 9.81064C5.10437 9.68476 5.12753 9.55972 5.17468 9.44299C5.22183 9.32625 5.29201 9.22021 5.38103 9.13119C5.47006 9.04216 5.5761 8.97198 5.69283 8.92483C5.80957 8.87768 5.93461 8.85452 6.06048 8.85674C6.18636 8.85896 6.3105 8.88652 6.4255 8.93776C6.5405 8.989 6.644 9.06287 6.72983 9.15498L9.34733 11.7712L13.6886 6.23998C13.6964 6.23036 13.7047 6.22118 13.7136 6.21248H13.7123Z" fill="#999CA0"/>
</svg>