<svg width="18" height="18" viewBox="0 0 18 18" fill="none" xmlns="http://www.w3.org/2000/svg">
<g clip-path="url(#clip0_4789_11173)">
<path fill-rule="evenodd" clip-rule="evenodd" d="M9.9 14.4C10.3774 14.4 10.8352 14.5896 11.1728 14.9272C11.5104 15.2648 11.7 15.7226 11.7 16.2C11.7 16.6774 11.5104 17.1352 11.1728 17.4728C10.8352 17.8104 10.3774 18 9.9 18C9.42261 18 8.96477 17.8104 8.62721 17.4728C8.28964 17.1352 8.1 16.6774 8.1 16.2C8.1 15.7226 8.28964 15.2648 8.62721 14.9272C8.96477 14.5896 9.42261 14.4 9.9 14.4ZM4.2669 11.7C4.86364 11.7 5.43593 11.9371 5.85789 12.359C6.27985 12.781 6.5169 13.3533 6.5169 13.95C6.5169 14.5467 6.27985 15.119 5.85789 15.541C5.43593 15.9629 4.86364 16.2 4.2669 16.2C3.67016 16.2 3.09787 15.9629 2.67591 15.541C2.25395 15.119 2.0169 14.5467 2.0169 13.95C2.0169 13.3533 2.25395 12.781 2.67591 12.359C3.09787 11.9371 3.67016 11.7 4.2669 11.7ZM14.6871 12.15C15.1645 12.15 15.6223 12.3396 15.9599 12.6772C16.2975 13.0148 16.4871 13.4726 16.4871 13.95C16.4871 14.4274 16.2975 14.8852 15.9599 15.2228C15.6223 15.5604 15.1645 15.75 14.6871 15.75C14.2097 15.75 13.7519 15.5604 13.4143 15.2228C13.0767 14.8852 12.8871 14.4274 12.8871 13.95C12.8871 13.4726 13.0767 13.0148 13.4143 12.6772C13.7519 12.3396 14.2097 12.15 14.6871 12.15ZM16.65 8.3871C17.008 8.3871 17.3514 8.52933 17.6046 8.78251C17.8578 9.03568 18 9.37906 18 9.7371C18 10.0951 17.8578 10.4385 17.6046 10.6917C17.3514 10.9449 17.008 11.0871 16.65 11.0871C16.292 11.0871 15.9486 10.9449 15.6954 10.6917C15.4422 10.4385 15.3 10.0951 15.3 9.7371C15.3 9.37906 15.4422 9.03568 15.6954 8.78251C15.9486 8.52933 16.292 8.3871 16.65 8.3871ZM2.25 5.4C2.84674 5.4 3.41903 5.63705 3.84099 6.05901C4.26295 6.48097 4.5 7.05326 4.5 7.65C4.5 8.24674 4.26295 8.81903 3.84099 9.24099C3.41903 9.66295 2.84674 9.9 2.25 9.9C1.65326 9.9 1.08097 9.66295 0.65901 9.24099C0.237053 8.81903 0 8.24674 0 7.65C0 7.05326 0.237053 6.48097 0.65901 6.05901C1.08097 5.63705 1.65326 5.4 2.25 5.4ZM16.0074 4.6863C16.2461 4.6863 16.475 4.78112 16.6438 4.9499C16.8126 5.11869 16.9074 5.3476 16.9074 5.5863C16.9074 5.82499 16.8126 6.05391 16.6438 6.2227C16.475 6.39148 16.2461 6.4863 16.0074 6.4863C15.7687 6.4863 15.5398 6.39148 15.371 6.2227C15.2022 6.05391 15.1074 5.82499 15.1074 5.5863C15.1074 5.3476 15.2022 5.11869 15.371 4.9499C15.5398 4.78112 15.7687 4.6863 16.0074 4.6863ZM7.2 0C7.91608 0 8.60284 0.284463 9.10919 0.790812C9.61554 1.29716 9.9 1.98392 9.9 2.7C9.9 3.41608 9.61554 4.10284 9.10919 4.60919C8.60284 5.11554 7.91608 5.4 7.2 5.4C6.48392 5.4 5.79716 5.11554 5.29081 4.60919C4.78446 4.10284 4.5 3.41608 4.5 2.7C4.5 1.98392 4.78446 1.29716 5.29081 0.790812C5.79716 0.284463 6.48392 0 7.2 0V0ZM13.95 2.7C14.0693 2.7 14.1838 2.74741 14.2682 2.8318C14.3526 2.91619 14.4 3.03065 14.4 3.15C14.4 3.26935 14.3526 3.38381 14.2682 3.4682C14.1838 3.55259 14.0693 3.6 13.95 3.6C13.8307 3.6 13.7162 3.55259 13.6318 3.4682C13.5474 3.38381 13.5 3.26935 13.5 3.15C13.5 3.03065 13.5474 2.91619 13.6318 2.8318C13.7162 2.74741 13.8307 2.7 13.95 2.7Z" fill="#5D54CD"/>
</g>
<defs>
<clipPath id="clip0_4789_11173">
<rect width="18" height="18" fill="white"/>
</clipPath>
</defs>
</svg>
