<svg width="20" height="20" fill="none" xmlns="http://www.w3.org/2000/svg"><path d="M9.107 14.067a.615.615 0 0 1-.478-.223.625.625 0 0 1-.14-.315c-.084-.586-.78-1.268-1.43-1.4a.626.626 0 0 1-.34-1.03l8.245-9.183a2.21 2.21 0 0 1 3.144-.025 2.207 2.207 0 0 1 .005 3.117l-8.555 8.867a.625.625 0 0 1-.45.192zM4.683 18.754c-1.255 0-2.556-.66-3.314-1.68a.625.625 0 0 1 .502-.997c.208 0 .781-.19.781-.804 0-1.526 1.227-2.768 2.734-2.768 1.508 0 2.735 1.242 2.735 2.768 0 1.92-1.542 3.481-3.438 3.481z" fill="#BCB7EA"/></svg>