<svg width="136" height="108" fill="none" xmlns="http://www.w3.org/2000/svg"><path d="M75.83 108c27.23 0 49.303-3.892 49.303-8.693s-22.073-8.693-49.302-8.693-49.302 3.892-49.302 8.693S48.602 108 75.83 108z" fill="#575A89"/><path d="M43.02 54.021a23.396 23.396 0 0 0-3.593-30.33 23.506 23.506 0 0 0-30.584-1.019 23.423 23.423 0 0 0-8.38 13.974 23.393 23.393 0 0 0 2.77 16.05 23.466 23.466 0 0 0 12.58 10.372 23.519 23.519 0 0 0 16.315-.318 7.596 7.596 0 0 0 8.694 5.408 7.6 7.6 0 0 0 5.61-4.496 7.568 7.568 0 0 0-3.412-9.64z" fill="#F5F5F5"/><path d="M36.38 36.256H10.654a1.1 1.1 0 1 0 0 2.2H36.38a1.1 1.1 0 0 0 0-2.2zM36.38 39.924H10.654a1.1 1.1 0 1 0 0 2.2H36.38a1.1 1.1 0 0 0 0-2.2zM36.38 43.591H10.654a1.1 1.1 0 1 0 0 2.2H36.38a1.1 1.1 0 0 0 0-2.2z" fill="#6C63FF"/><path d="M92.98 36.592A23.397 23.397 0 0 1 96.573 6.26a23.509 23.509 0 0 1 30.584-1.019 23.43 23.43 0 0 1 8.38 13.975 23.396 23.396 0 0 1-2.769 16.05 23.47 23.47 0 0 1-12.581 10.372 23.52 23.52 0 0 1-16.315-.317 7.58 7.58 0 0 1-4.992 5.172 7.607 7.607 0 0 1-7.075-1.307A7.58 7.58 0 0 1 89 42.574a7.569 7.569 0 0 1 3.98-5.982z" fill="#F5F5F5"/><path d="M99.62 21.027h25.726a1.1 1.1 0 1 0 0-2.2H99.62a1.1 1.1 0 0 0 0 2.2zM99.62 24.694h25.726a1.1 1.1 0 1 0 0-2.2H99.62a1.1 1.1 0 0 0 0 2.2zM99.62 28.362h25.726a1.1 1.1 0 1 0 0-2.2H99.62a1.1 1.1 0 0 0 0 2.2z" fill="#6C63FF"/><path d="M106.151 92c-.032-.043-.799-1.07-1.065-3.204-.244-1.957-.087-5.256 2.045-9.859 4.039-8.718-.931-15.753-.982-15.823l.246-.114c.013.018 1.295 1.811 2.053 4.667 1.001 3.787.636 7.724-1.051 11.35-4.032 8.704-1.035 12.824-1.004 12.865l-.242.118z" fill="#3F3D56"/><path d="M104.078 63.147a2.075 2.075 0 0 0 2.077-2.073c0-1.146-.93-2.074-2.077-2.074A2.076 2.076 0 0 0 102 61.074c0 1.145.93 2.073 2.078 2.073z" fill="#6C63FF"/><path d="M110.078 67.147a2.075 2.075 0 0 0 2.077-2.073c0-1.146-.93-2.074-2.077-2.074A2.076 2.076 0 0 0 108 65.074c0 1.145.93 2.073 2.078 2.073z" fill="#3F3D56"/><path d="M106.078 73.147a2.075 2.075 0 0 0 2.077-2.073c0-1.146-.93-2.074-2.077-2.074A2.076 2.076 0 0 0 104 71.074c0 1.145.93 2.073 2.078 2.073zM111.078 78.147a2.075 2.075 0 0 0 2.077-2.073c0-1.146-.93-2.074-2.077-2.074A2.076 2.076 0 0 0 109 76.074c0 1.145.93 2.073 2.078 2.073z" fill="#6C63FF"/><path d="M104.078 82.147a2.075 2.075 0 0 0 2.077-2.073c0-1.146-.93-2.074-2.077-2.074A2.076 2.076 0 0 0 102 80.074c0 1.145.93 2.073 2.078 2.073zM107.394 92.05s-2.078-5.105 4.155-8.933l-4.155 8.932zM104.839 91.957s-.946-5.428-8.264-5.381l8.264 5.38z" fill="#3F3D56"/><g clip-path="url(#a)"><path fill-rule="evenodd" clip-rule="evenodd" d="M91.572 79.918c0 11.364-9.23 20.577-20.615 20.577-11.385 0-20.616-9.213-20.616-20.577 0-11.363 9.23-20.576 20.616-20.576 11.385 0 20.615 9.213 20.615 20.576zm-19.877-5.385c-2.005.831-6.013 2.555-12.022 5.168-.976.387-1.488.766-1.534 1.137-.08.627.707.874 1.776 1.209.146.046.297.092.452.144 1.053.34 2.469.74 3.204.756.668.013 1.414-.261 2.237-.823 5.614-3.785 8.512-5.697 8.694-5.738.13-.029.308-.067.428.041.12.107.108.31.096.364-.079.33-3.16 3.193-4.758 4.674-.499.461-.85.789-.923.864-.161.167-.326.326-.484.479-.98.94-1.712 1.646.04 2.798.843.554 1.516 1.012 2.188 1.468.733.499 1.465.996 2.414 1.617.24.158.47.32.695.48.854.609 1.622 1.154 2.57 1.068.55-.051 1.12-.567 1.41-2.109.681-3.645 2.025-11.54 2.336-14.794.019-.27.007-.542-.035-.81a.867.867 0 0 0-.295-.557c-.246-.2-.627-.243-.799-.24-.775.014-1.964.427-7.69 2.804z" fill="#4D9DD1"/></g><defs><clipPath id="a"><path fill="#fff" transform="translate(50.34 59.342)" d="M0 0h41.231v41.153H0z"/></clipPath></defs></svg>