<svg width="447" height="395" fill="none" xmlns="http://www.w3.org/2000/svg"><g clip-path="url(#a)"><path d="m173.442 10.172 1.758-2.72a40.945 40.945 0 0 0-1.804-4.224l-1.136.918.9-1.392A36.659 36.659 0 0 0 171.627 0s-3.525 5.56-4.703 11.447l2.256 3.489-2.497-2.019a16.436 16.436 0 0 0-.137 2.068c0 6.972 2.275 12.624 5.081 12.624 2.806 0 5.081-5.652 5.081-12.624a21.701 21.701 0 0 0-1.162-6.514l-2.104 1.7z" fill="#E6E6E6"/><path d="m185.883 16.216 3.164-.679a41.049 41.049 0 0 0 1.71-4.263l-1.453-.155 1.62-.347c.587-1.802.862-3.033.862-3.033s-6.421 1.437-11.412 4.766l-.87 4.063-.34-3.194a16.63 16.63 0 0 0-1.558 1.365c-4.925 4.93-7.309 10.536-5.325 12.523 1.984 1.986 7.586-.4 12.511-5.33a21.724 21.724 0 0 0 3.781-5.43l-2.69-.286z" fill="#E6E6E6"/><path d="M187.039 43.193c-7.337.47-15.33-.027-23.834 0V23.706c7.493 1.168 15.484 1.048 23.834 0v19.487zM239.523 58.39l1.146-1.774c-.34-.94-.733-1.86-1.176-2.755l-.741.599.586-.908a23.861 23.861 0 0 0-.999-1.796 25.505 25.505 0 0 0-3.067 7.465l1.471 2.275-1.628-1.316a10.86 10.86 0 0 0-.09 1.348c0 4.547 1.484 8.233 3.314 8.233s3.314-3.686 3.314-8.233a14.194 14.194 0 0 0-.758-4.248l-1.372 1.11z" fill="#E6E6E6"/><path d="m247.637 62.33 2.063-.442c.424-.905.796-1.833 1.115-2.78l-.947-.101 1.056-.227c.383-1.175.562-1.977.562-1.977a25.44 25.44 0 0 0-7.442 3.108l-.567 2.65-.222-2.084c-.357.275-.696.573-1.016.89-3.212 3.216-4.767 6.872-3.473 8.167 1.295 1.295 4.947-.261 8.16-3.476a14.172 14.172 0 0 0 2.465-3.54l-1.754-.187z" fill="#E6E6E6"/><path d="M248.39 79.923c-4.785.307-9.998-.017-15.543 0V67.215a55.97 55.97 0 0 0 15.543 0v12.708zM245.435 117.586c-4.224.27-8.827-.016-13.724 0v-11.222c4.553.639 9.172.639 13.724 0v11.222zM269.541 41.823H84.861v5.164h184.68v-5.164z" fill="#E6E6E6"/><path d="M269.541 78.483H84.861v5.164h184.68v-5.164zM269.541 115.143H84.861v5.163h184.68v-5.163zM238.589 110.496c5.698 0 10.317-4.623 10.317-10.327 0-5.703-4.619-10.326-10.317-10.326s-10.318 4.623-10.318 10.326c0 5.704 4.62 10.327 10.318 10.327z" fill="#E6E6E6"/><path d="M238.59 108.431c4.558 0 8.254-3.699 8.254-8.261 0-4.563-3.696-8.262-8.254-8.262-4.559 0-8.254 3.699-8.254 8.262 0 4.562 3.695 8.261 8.254 8.261z" fill="#fff"/><path d="M238.589 102.234c1.14 0 2.063-.924 2.063-2.065a2.064 2.064 0 1 0-4.127 0c0 1.141.924 2.065 2.064 2.065z" fill="#E6E6E6"/><path d="M245.812 100.685v-1.033h-8.254v1.033h8.254z" fill="#E6E6E6"/><path d="M238.073 101.202h1.031v-8.261h-1.031v8.261zM178.933 53.294h-6.827V80.34h6.827V53.294z" fill="#E6E6E6"/><path d="M178.933 57.565h-6.827v3.131h6.827v-3.131zM178.933 71.23h-6.827v3.131h6.827V71.23z" fill="#CCC"/><path d="M168.409 53.294h-6.827V80.34h6.827V53.294z" fill="#E6E6E6"/><path d="M168.409 57.565h-6.827v3.131h6.827v-3.131zM168.409 71.23h-6.827v3.131h6.827V71.23z" fill="#CCC"/><path d="m184.815 53.182-6.118 3.032 11.99 24.238 6.117-3.032-11.989-24.238z" fill="#E6E6E6"/><path d="m186.708 57.01-6.118 3.031 1.388 2.806 6.118-3.031-1.388-2.807zM192.765 69.255l-6.118 3.032 1.389 2.807 6.117-3.032-1.388-2.806z" fill="#CCC"/><path d="M118.061 89.954h-6.827V117h6.827V89.954z" fill="#E6E6E6"/><path d="M118.061 94.225h-6.827v3.131h6.827v-3.131zM118.061 107.89h-6.827v3.131h6.827v-3.131z" fill="#CCC"/><path d="M107.536 89.954h-6.826V117h6.826V89.954z" fill="#E6E6E6"/><path d="M107.536 94.225h-6.826v3.131h6.826v-3.131zM107.536 107.89h-6.826v3.131h6.826v-3.131z" fill="#CCC"/><path d="m123.942 89.842-6.118 3.032 11.989 24.238 6.118-3.031-11.989-24.239z" fill="#E6E6E6"/><path d="m125.836 93.67-6.118 3.031 1.388 2.807 6.118-3.032-1.388-2.806zM131.892 105.916l-6.118 3.031 1.389 2.807 6.117-3.032-1.388-2.806z" fill="#CCC"/><path d="M182.028 89.954h-6.827V117h6.827V89.954z" fill="#E6E6E6"/><path d="M182.028 94.225h-6.827v3.131h6.827v-3.131zM182.028 107.89h-6.827v3.131h6.827v-3.131z" fill="#CCC"/><path d="M171.503 89.954h-6.826V117h6.826V89.954z" fill="#E6E6E6"/><path d="M171.503 94.225h-6.826v3.131h6.826v-3.131zM171.503 107.89h-6.826v3.131h6.826v-3.131z" fill="#CCC"/><path d="m187.91 89.842-6.118 3.032 11.989 24.238 6.118-3.031-11.989-24.239z" fill="#E6E6E6"/><path d="m189.803 93.67-6.117 3.031 1.388 2.807 6.118-3.032-1.389-2.806zM195.86 105.916l-6.118 3.031 1.388 2.807 6.118-3.032-1.388-2.806z" fill="#CCC"/><path d="M255.097 16.554h-27.131V43.71h27.131V16.554z" fill="#E6E6E6"/><path d="M249.671 21.985h-16.279V38.28h16.279V21.985z" fill="#CCC"/><path d="m238.104 27.454 3.452 5.984 3.451 5.984H231.2l3.452-5.984 3.452-5.984z" fill="#E6E6E6"/><path d="m244.102 28.597 3.452 5.983 3.451 5.984H237.198l3.452-5.983 3.452-5.984zM246.529 26.845a2 2 0 1 0 0-4 2 2 0 0 0 0 4zM117.876 16.554H90.744V43.71h27.132V16.554z" fill="#E6E6E6"/><path d="M112.45 21.985H96.17V38.28h16.28V21.985z" fill="#CCC"/><path d="m100.883 27.454 3.451 5.984 3.452 5.984H93.98l3.451-5.984 3.452-5.984z" fill="#E6E6E6"/><path d="m106.881 28.597 3.452 5.983 3.451 5.984H99.978l3.451-5.983 3.452-5.984zM109.308 26.845a2 2 0 0 0 1.999-2.001 2 2 0 1 0-1.999 2z" fill="#E6E6E6"/><path d="m36.22 201.731 1.758-2.719a40.866 40.866 0 0 0-1.803-4.225l-1.137.919.9-1.392c-.858-1.69-1.532-2.754-1.532-2.754s-3.526 5.56-4.703 11.446l2.255 3.489-2.497-2.018a16.498 16.498 0 0 0-.137 2.068c0 6.971 2.275 12.623 5.082 12.623 2.806 0 5.08-5.652 5.08-12.623a21.728 21.728 0 0 0-1.162-6.515l-2.104 1.701z" fill="#6C63FF"/><path d="m48.661 207.777 3.164-.679a40.747 40.747 0 0 0 1.71-4.264l-1.453-.154 1.62-.348c.587-1.802.862-3.032.862-3.032s-6.42 1.436-11.412 4.765l-.87 4.064-.34-3.195c-.547.422-1.067.878-1.557 1.366-4.926 4.929-7.31 10.536-5.325 12.522 1.984 1.986 7.585-.4 12.51-5.33a21.724 21.724 0 0 0 3.78-5.429l-2.689-.286z" fill="#6C63FF"/><path d="M49.818 234.753c-7.336.47-15.33-.027-23.834 0v-19.487c7.494 1.167 15.485 1.047 23.834 0v19.487z" fill="#3F3D56"/><path d="M352.853 240.87h-99.046v128.567h99.046V240.87zM52.103 247.583h-5.159v121.855h5.159V247.583z" fill="#E6E6E6"/><path d="M352.854 232.092H0v10.326h352.854v-10.326zM54.683 242.419H44.365v10.327h10.318v-10.327z" fill="#E6E6E6"/><path d="m311.133 248.356-.58 2.324h-14.444l-.871-2.324H258.45v23.752h89.761v-23.752h-37.078zM311.133 278.304l-.58 2.323h-14.444l-.871-2.323H258.45v23.751h89.761v-23.751h-37.078zM311.133 308.252l-.58 2.323h-14.444l-.871-2.323H258.45v23.751h89.761v-23.751h-37.078zM311.133 338.199l-.58 2.324h-14.444l-.871-2.324H258.45v23.751h89.761v-23.751h-37.078z" fill="#3F3D56"/><path d="M191.387 230.543h-30.436l1.032-13.425h28.372l1.032 13.425z" fill="#E6E6E6"/><path d="M193.451 228.994h-34.048v3.098h34.048v-3.098z" fill="#E6E6E6"/><path d="M234.463 130.633H118.134a3.098 3.098 0 0 0-3.095 3.098v70.996h122.519v-70.996a3.098 3.098 0 0 0-3.095-3.098z" fill="#3F3D56"/><path d="M115.039 204.727v11.617a3.098 3.098 0 0 0 3.095 3.098h116.329a3.093 3.093 0 0 0 3.095-3.098v-11.617H115.039z" fill="#E6E6E6"/><path d="M231.624 137.087H121.229v61.96h110.395v-61.96z" fill="#fff"/><path d="M176.427 215.053a3.096 3.096 0 0 0 3.095-3.098 3.096 3.096 0 1 0-6.19 0 3.097 3.097 0 0 0 3.095 3.098zM438.23 368.662c-11.274.722-23.558-.042-36.626 0v-29.947c11.515 1.794 23.795 1.61 36.626 0v29.947z" fill="#3F3D56"/><path d="M421.207 341.404h-3.096l1.032-60.518h1.032l1.032 60.518zM435.134 341.814h-3.095l1.032-60.519h1.031l1.032 60.519zM408.826 341.814h-3.096l1.032-60.519h1.032l1.032 60.519z" fill="#3F3D56"/><path d="m423.787 242.161 4.996-7.729a115.973 115.973 0 0 0-5.126-12.011l-3.231 2.612 2.558-3.957c-2.438-4.803-4.356-7.83-4.356-7.83s-10.021 15.805-13.369 32.54l6.412 9.918-7.098-5.739a46.796 46.796 0 0 0-.389 5.879c0 19.819 6.466 35.885 14.444 35.885 7.977 0 14.444-16.066 14.444-35.885 0-6.144-1.389-12.572-3.304-18.519l-5.981 4.836z" fill="#E6E6E6"/><path d="m437.714 243.193 4.997-7.729a115.864 115.864 0 0 0-5.126-12.01l-3.231 2.611 2.558-3.957c-2.438-4.803-4.356-7.83-4.356-7.83s-10.021 15.806-13.369 32.54l6.412 9.918-7.098-5.738a46.958 46.958 0 0 0-.39 5.878c0 19.819 6.467 35.885 14.445 35.885 7.977 0 14.444-16.066 14.444-35.885 0-6.144-1.389-12.572-3.304-18.518l-5.982 4.835z" fill="#6C63FF"/><path d="m411.405 243.193 4.996-7.729a115.648 115.648 0 0 0-5.126-12.01l-3.231 2.611 2.558-3.957c-2.438-4.803-4.356-7.83-4.356-7.83s-10.021 15.806-13.369 32.54l6.412 9.918-7.098-5.738a46.768 46.768 0 0 0-.389 5.878c0 19.819 6.467 35.885 14.444 35.885 7.977 0 14.444-16.066 14.444-35.885 0-6.144-1.388-12.572-3.304-18.518l-5.981 4.835z" fill="#6C63FF"/><path d="M186.795 154.576h-29.766v1.71h29.766v-1.71z" fill="#3F3D56"/><path d="M202.995 160.814h-45.966v1.711h45.966v-1.711zM194.49 166.692h-37.461v1.711h37.461v-1.711z" fill="#6C63FF"/><path d="M178.898 172.548h-21.869v1.71h21.869v-1.71zM190.035 178.402h-33.006v1.711h33.006v-1.711zM147.107 153.969h-3.645v3.648h3.645v-3.648z" fill="#3F3D56"/><path d="M147.107 159.846h-3.645v3.648h3.645v-3.648zM147.107 165.724h-3.645v3.648h3.645v-3.648z" fill="#6C63FF"/><path d="M147.107 171.602h-3.645v3.648h3.645v-3.648zM147.107 177.479h-3.645v3.648h3.645v-3.648z" fill="#3F3D56"/><path d="M226.51 151.338h-15.62a54.729 54.729 0 0 1 0-18.641h15.62a33.584 33.584 0 0 0 0 18.641z" fill="#6C63FF"/><path d="m112.853 188.7-6.426-1.568a16.534 16.534 0 0 1-12.819-6.065 16.565 16.565 0 0 1-3.418-13.773 21.653 21.653 0 0 1 6.314-15.312 21.615 21.615 0 0 1 15.283-6.359 21.617 21.617 0 0 1 15.299 6.32 21.654 21.654 0 0 1 6.352 15.297c3.644 12.69-7.768 24.587-20.585 21.46z" fill="#2F2E41"/><path d="M119.872 190.963c8.776 0 15.889-7.12 15.889-15.903 0-8.784-7.113-15.904-15.889-15.904-8.775 0-15.889 7.12-15.889 15.904 0 8.783 7.114 15.903 15.889 15.903z" fill="#FFB8B8"/><path d="M109.51 183.356s-4.836 16.595-7.599 17.978c-2.764 1.383 22.106 3.457 22.106 3.457s-.691-15.903.691-17.286c1.381-1.383-15.198-4.149-15.198-4.149z" fill="#FFB8B8"/><path d="M134.38 285.691s31.087-2.766 35.232 7.606-2.764 71.911-2.764 71.911h-13.125v-50.476s-55.966-15.923-55.966-21.454c0-5.532 36.623-7.587 36.623-7.587z" fill="#2F2E41"/><path d="m164.776 362.442 6.908 2.766s8.29-.691 4.836 5.532a13.69 13.69 0 0 1-9.672 6.914s-13.125 4.84-13.816 0c-.691-4.84 3.454-14.52 3.454-14.52l8.29-.692zM117.11 285.691s31.087-2.766 35.232 7.606-2.763 71.911-2.763 71.911h-13.126v-50.476s-39.727-9.21-39.727-14.742c0-2.599-2.707-15.806 2.063-18.588 5.385-3.14 18.321 4.289 18.321 4.289z" fill="#2F2E41"/><path d="m147.505 362.442 6.909 2.766s8.289-.691 4.835 5.532a13.676 13.676 0 0 1-9.671 6.914s-13.126 4.84-13.817 0c-.691-4.84 3.454-14.52 3.454-14.52l8.29-.692z" fill="#2F2E41"/><path d="m102.602 199.26 20.76 2.258a15.288 15.288 0 0 1 13.308 12.052l8.072 38.24s2.763 38.03-2.763 40.104c-5.527 2.074-13.126-8.298-23.488-6.915-10.363 1.383-23.834 4.495-23.834 4.495s-2.139-68.072-2.418-73.639c-.557-11.131 10.363-16.595 10.363-16.595z" fill="#575A89"/><path d="m151.779 287.667 8.523 5.024s15.291-2.196 14.813 3.183c-.477 5.379-17.168 4.34-17.168 4.34l-10.271-6.335 4.103-6.212z" fill="#FFB8B8"/><path d="M89.032 162.125c5.669 0 10.264-4.599 10.264-10.273 0-5.674-4.595-10.273-10.264-10.273-5.668 0-10.263 4.599-10.263 10.273 0 5.674 4.595 10.273 10.263 10.273z" fill="#2F2E41"/><path d="M98.502 146.33a10.274 10.274 0 0 0-7.785-9.958c-1.474-.366-3.01-.4-4.498-.101a10.243 10.243 0 0 1 8.424-.154 10.262 10.262 0 0 1 5.698 6.212 10.27 10.27 0 0 1-7.724 13.294 10.268 10.268 0 0 0 5.885-9.293zM107.308 152.156l13.837-2.551 10.641 6.676a16.155 16.155 0 0 1 7.435 15.767l-10.657-2.704-2.387-5.989-2.842 4.663-14.861 19.141-8.343-5.318-7.439-11.667 14.616-18.018z" fill="#2F2E41"/><path d="m118.702 205.143 6.908-3.457s14.508 2.074 17.271 11.754c2.763 9.68 15.198 76.751 15.198 76.751l-11.744 5.532-16.58-40.796-11.053-49.784z" fill="#575A89"/><path opacity=".2" d="m124.583 232.351 6.914 26.861 12.261 30.168-.425 1.045-14.623-30.709-4.127-27.365z" fill="#000"/><path d="m72.993 380.487-2.438-.84 23.62-70.223 3.415 1.177-24.597 69.886zM163.274 380.487l2.439-.84-23.621-70.223-3.414 1.177 24.596 69.886zM113.362 394.991l2.579.009.802-82.089-3.611-.013.23 82.093z" fill="#3F3D56"/><path d="m67.023 268.163 7.076 28.621a22.733 22.733 0 0 0 5.967 10.593 22.703 22.703 0 0 0 10.57 5.999 120.598 120.598 0 0 0 60.056-.388l10.563-2.788c6.138-1.62 10.753-6.897 11.19-13.235a13.03 13.03 0 0 0-1.177-6.527l-.124-.261a17.27 17.27 0 0 0-6.146-6.944 17.24 17.24 0 0 0-8.849-2.76l-11.19-.362-40.754-18.071s-14.016-7.126-25.538-7.924c-7.61-.527-13.476 6.636-11.644 14.047z" fill="#6C63FF"/><path d="M315.454 178.135h-40.238v54.731h40.238v-54.731z" fill="#E6E6E6"/><path d="M310.81 184.45h-30.952v42.101h30.952V184.45z" fill="#fff"/><path d="M307.036 195.468H292.04v1.71h14.996v-1.71zM287.278 194.521h-3.645v3.648h3.645v-3.648zM307.036 202.696H292.04v1.71h14.996v-1.71zM287.278 201.75h-3.645v3.648h3.645v-3.648zM307.036 209.925H292.04v1.71h14.996v-1.71zM287.278 208.979h-3.645v3.648h3.645v-3.648zM296.882 181.234a1.548 1.548 0 1 0-3.096-.002 1.548 1.548 0 0 0 3.096.002z" fill="#3F3D56"/></g><defs><clipPath id="a"><path fill="#fff" d="M0 0h447v395H0z"/></clipPath></defs></svg>