<svg width="259" height="253" fill="none" xmlns="http://www.w3.org/2000/svg"><path d="M188.351 165.261c-4.174 2.057-8.502 4.338-12.984 5.652-6.909 2.026-13.972-.573-18.71-5.733-9.714-10.581-12.647-25.682-22.306-36.392-9.403-10.425-25.066-16.04-38.913-13.25-3.26.657-6.769 1.615-8.417 4.772-1.71 3.273-.62 6.465.79 9.62 2.781 6.218 10.228 7.85 15.333 3.293 6.051-5.4 6.127-14.988 3.489-22.095-1.263-3.401-2.955-6.474-6.15-8.387-5.822-3.485-13.569-3.352-20.05-2.585-11.908 1.409-23.159 5.226-34.146 9.843" stroke="#333" stroke-linecap="round" stroke-linejoin="round" stroke-dasharray="4 4"/><path d="m186.42 183.051 3.534-16.123a10 10 0 0 0-3.337-9.799l-12.662-10.633 15.97 3.458a9.999 9.999 0 0 0 9.701-3.256l10.884-12.667-3.609 15.776a10 10 0 0 0 3.255 9.836l12.819 10.943-15.93-3.684a10 10 0 0 0-9.932 3.335l-10.693 12.814z" fill="#E7ACC9"/></svg>