<svg width="246" height="238" fill="none" xmlns="http://www.w3.org/2000/svg"><path d="M59.341 87.019c3.887-2.558 7.9-5.358 12.185-7.216 6.605-2.866 13.935-1.16 19.275 3.373 10.95 9.297 15.73 23.918 26.641 33.35 10.621 9.18 26.858 12.813 40.254 8.33 3.153-1.055 6.517-2.441 7.761-5.777 1.292-3.46-.184-6.492-1.975-9.448-3.53-5.826-11.121-6.523-15.623-1.37-5.335 6.108-4.223 15.631-.726 22.358 1.674 3.218 3.733 6.058 7.141 7.561 6.208 2.737 13.879 1.646 20.216.082 11.642-2.872 22.333-8.053 32.664-13.995" stroke="#333" stroke-linecap="round" stroke-linejoin="round" stroke-dasharray="4 4"/><path d="m59.055 69.127-1.51 16.436a10 10 0 0 0 4.524 9.31l13.88 8.985-16.275-1.455a10 10 0 0 0-9.223 4.432l-9.232 13.917 1.629-16.101a10 10 0 0 0-4.448-9.358l-14.075-9.272 16.263 1.685a10 10 0 0 0 9.442-4.54l9.025-14.04z" fill="#F4C854"/></svg>
