<svg width="246" height="238" viewBox="0 0 246 238" fill="none" xmlns="http://www.w3.org/2000/svg">
<path d="M59.2624 86.8837C61.7365 85.2556 64.2901 83.4738 67.0175 82.2907C71.2215 80.467 75.8868 81.5521 79.2856 84.4378C86.2549 90.3548 89.2967 99.6607 96.2413 105.664C103.001 111.507 113.336 113.819 121.861 110.966C123.868 110.294 126.009 109.412 126.801 107.289C127.623 105.087 126.684 103.157 125.544 101.275C123.298 97.5671 118.466 97.1237 115.601 100.404C112.205 104.291 112.913 110.352 115.139 114.633C116.204 116.682 117.515 118.489 119.684 119.446C123.635 121.188 128.517 120.493 132.55 119.498C139.96 117.67 146.764 114.373 153.34 110.591" stroke="#333333" stroke-linecap="round" stroke-linejoin="round" stroke-dasharray="4 4"/>
<path d="M59.8829 69.9227L58.834 81.3339C58.4936 85.0373 60.2365 88.6237 63.3587 90.6443L72.9974 96.8826L61.6906 95.8721C58.0358 95.5454 54.4956 97.2467 52.4672 100.304L46.0375 109.997L47.1653 98.8463C47.54 95.1424 45.8261 91.537 42.7172 89.4891L32.923 83.0372L44.1792 84.2029C47.9308 84.5915 51.5818 82.8362 53.6213 79.6635L59.8829 69.9227Z" fill="#F4C854"/>
</svg>