<svg width="136" height="108" fill="none" xmlns="http://www.w3.org/2000/svg"><g clip-path="url(#a)"><path d="M77.44 52.809c3.06 0 5.54-2.537 5.54-5.666 0-3.13-2.48-5.666-5.54-5.666-3.061 0-5.542 2.537-5.542 5.666 0 3.13 2.48 5.666 5.541 5.666z" fill="#E6E6E6"/><path d="m91.02 54.424-5.791-5.921a6.353 6.353 0 0 0 .884-2.323 6.41 6.41 0 0 0-.07-2.492 6.337 6.337 0 0 0-1.014-2.266 6.185 6.185 0 0 0-1.797-1.684 6.039 6.039 0 0 0-4.408-.76 6.145 6.145 0 0 0-3.747 2.492 6.375 6.375 0 0 0-1.125 4.086 6.339 6.339 0 0 0 1.678 3.882 6.085 6.085 0 0 0 3.712 1.9 6.026 6.026 0 0 0 4.045-.952l5.79 5.922c.244.25.576.39.921.39.345-.001.677-.141.92-.391.245-.25.382-.588.382-.941s-.137-.692-.38-.942zm-7.85-6.142a4.312 4.312 0 0 1-5.538.558 4.478 4.478 0 0 1-1.76-2.427 4.58 4.58 0 0 1 .145-3.018 4.45 4.45 0 0 1 1.985-2.24 4.301 4.301 0 0 1 2.923-.443 4.37 4.37 0 0 1 2.534 1.554c.644.802.996 1.807.996 2.845a4.56 4.56 0 0 1-.333 1.716 4.48 4.48 0 0 1-.952 1.455z" fill="#3F3D56"/><path d="M132.994 63.158c14.809 16.746-28.119 40.879-62.806 40.879-34.686 0-58.684-18.7-62.805-40.88C-2.61 9.38 92.524-24.802 70.188 22.28c-32.557 68.627 51.144 27.691 62.806 40.879z" fill="#E6E6E6"/><path d="M126.35 67.121C141.158 83.867 98.23 108 63.544 108 28.857 108 4.86 89.301.738 67.121c-9.993-53.78 85.142-87.96 62.806-40.879-32.557 68.627 51.144 27.691 62.806 40.88z" fill="#3F3D56"/><path d="M20.707 27.86c-10.39-.468-18.448-2.76-18.342-5.218.064-1.474 3.005-2.659 8.069-3.251a.136.136 0 0 1 .102.03.142.142 0 0 1 .047.15.143.143 0 0 1-.066.084.136.136 0 0 1-.052.017c-4.77.558-7.768 1.7-7.823 2.982-.096 2.223 8.183 4.477 18.078 4.923 9.895.445 18.335-1.056 18.43-3.279.056-1.287-2.85-2.699-7.585-3.684a.137.137 0 0 1-.088-.06.145.145 0 0 1 .04-.197.137.137 0 0 1 .103-.02c5.025 1.046 7.87 2.494 7.807 3.974-.106 2.458-8.328 4.017-18.72 3.549zM11.479 28.271a10.808 10.808 0 0 0 3.734 4.134 10.492 10.492 0 0 0 5.253 1.677c1.865.08 3.717-.343 5.371-1.226a10.75 10.75 0 0 0 4.057-3.803 164.096 164.096 0 0 1-18.415-.782z" fill="#6C63FF"/><path d="M31.043 26.075c.524-1.604.674-3.311.44-4.986a11.044 11.044 0 0 0-1.785-4.661 10.746 10.746 0 0 0-3.636-3.353 10.454 10.454 0 0 0-9.523-.376 10.691 10.691 0 0 0-3.878 3.056 11.003 11.003 0 0 0-2.133 4.507 11.137 11.137 0 0 0 .063 5.006 77.489 77.489 0 0 0 20.452.807z" fill="#6C63FF"/><path d="M23.37 18.769c.689 0 1.246-.57 1.246-1.274 0-.704-.557-1.274-1.245-1.274-.688 0-1.246.57-1.246 1.274 0 .704.558 1.274 1.246 1.274zM16.959 23.721c1.147 0 2.076-.95 2.076-2.123 0-1.172-.93-2.123-2.076-2.123-1.147 0-2.076.95-2.076 2.123 0 1.173.93 2.123 2.076 2.123z" fill="#fff"/><path d="M48.297 21.642c.764 0 1.384-.634 1.384-1.416 0-.781-.62-1.415-1.384-1.415-.765 0-1.384.634-1.384 1.415 0 .782.62 1.416 1.384 1.416z" fill="#6C63FF"/><path d="M17.013 64.954a.84.84 0 0 0 .83-.849.84.84 0 0 0-.83-.85.84.84 0 0 0-.83.85c0 .47.371.85.83.85zM75.151 94.113a.84.84 0 0 0 .83-.85.84.84 0 0 0-.83-.849.84.84 0 0 0-.83.85c0 .468.371.849.83.849zM21.027 48.535a.42.42 0 0 0 .415-.424.42.42 0 0 0-.415-.425.42.42 0 0 0-.415.425.42.42 0 0 0 .415.424zM55.356 80.24a.42.42 0 0 0 .416-.424.42.42 0 0 0-.416-.424.42.42 0 0 0-.415.424.42.42 0 0 0 .415.425zM117.786 76.136a.42.42 0 0 0 .415-.424.42.42 0 0 0-.415-.425.42.42 0 0 0-.416.425.42.42 0 0 0 .416.424zM98.268 88.734a.42.42 0 0 0 .415-.425.42.42 0 0 0-.415-.425.42.42 0 0 0-.415.425.42.42 0 0 0 .415.425zM77.92 73.447a.42.42 0 0 0 .415-.425.42.42 0 0 0-.415-.424.42.42 0 0 0-.416.424.42.42 0 0 0 .416.425zM51.619 31.55a.42.42 0 0 0 .415-.425.42.42 0 0 0-.415-.424.42.42 0 0 0-.415.424.42.42 0 0 0 .415.425zM54.941 10.601a.42.42 0 0 0 .415-.424.42.42 0 0 0-.415-.425.42.42 0 0 0-.415.425.42.42 0 0 0 .415.424zM53.003 98.783a.42.42 0 0 0 .416-.424.42.42 0 0 0-.416-.425.42.42 0 0 0-.415.425.42.42 0 0 0 .415.424zM32.516 89.866a.42.42 0 0 0 .416-.425.42.42 0 0 0-.416-.424.42.42 0 0 0-.415.424.42.42 0 0 0 .415.425zM97.437 74.58a.42.42 0 0 0 .416-.425.42.42 0 0 0-.416-.425.42.42 0 0 0-.415.425.42.42 0 0 0 .415.424z" fill="#E6E6E6"/><path d="M20.538 33.093c.689 0 1.246-.57 1.246-1.274 0-.704-.557-1.274-1.245-1.274-.689 0-1.246.57-1.246 1.274 0 .703.558 1.274 1.245 1.274zM48.712 51.366c0 3.805-5.753 12.67-7.434 15.18a.557.557 0 0 1-.456.246.543.543 0 0 1-.456-.246c-1.681-2.51-7.434-11.375-7.434-15.18 0-1.06.204-2.109.6-3.088a8.083 8.083 0 0 1 1.71-2.617 7.88 7.88 0 0 1 2.56-1.749 7.739 7.739 0 0 1 6.04 0 7.88 7.88 0 0 1 2.56 1.749 8.082 8.082 0 0 1 1.71 2.617c.396.98.6 2.028.6 3.088z" fill="#fff"/><path d="M40.822 54.904c2.217 0 4.014-1.837 4.014-4.104 0-2.267-1.797-4.105-4.014-4.105-2.217 0-4.014 1.838-4.014 4.105 0 2.267 1.797 4.104 4.014 4.104z" fill="#6C63FF"/><path d="M40.753 71.182c2.56 0 4.637-.412 4.637-.92s-2.076-.92-4.637-.92c-2.561 0-4.637.412-4.637.92s2.076.92 4.637.92z" fill="#fff"/><path d="M113.072 45c-.035.07-.065.142-.089.216l-6.614 1.88-1.192-1.193-1.995 1.604 1.909 2.321a1.086 1.086 0 0 0 1.295.307l7.145-3.225a1.43 1.43 0 0 0 1.652.004 1.48 1.48 0 0 0 .534-.696 1.512 1.512 0 0 0-.394-1.64 1.433 1.433 0 0 0-1.639-.204c-.262.14-.475.359-.612.626z" fill="#FFB8B8"/><path d="m106.136 47.205-2.483 1.976a.61.61 0 0 1-.748.013.635.635 0 0 1-.176-.202l-1.543-2.793a1.793 1.793 0 0 1 .312-2.478 1.702 1.702 0 0 1 2.424.314l2.262 2.207a.644.644 0 0 1-.048.963z" fill="#6C63FF"/><path d="m113.706 44.065 2.518 1.158a.44.44 0 0 1 .229.249.457.457 0 0 1-.01.34l-.298.678a.149.149 0 0 1 .076.083.159.159 0 0 1-.003.114l-.12.27a.144.144 0 0 1-.192.075l-.119.271a.149.149 0 0 1 .076.083.15.15 0 0 1-.003.114l-.119.27a.147.147 0 0 1-.081.078.143.143 0 0 1-.111-.003l-1.61 3.659a.44.44 0 0 1-.243.233.426.426 0 0 1-.333-.01l-2.518-1.158a.44.44 0 0 1-.229-.248.457.457 0 0 1 .01-.341l2.504-5.691a.442.442 0 0 1 .243-.234.426.426 0 0 1 .333.01z" fill="#3F3D56"/><path d="m111.302 50.208 2.02.93a.412.412 0 0 0 .553-.214l.933-2.121.324-.736.844-1.92a.434.434 0 0 0-.209-.564l-.635-.293-1.386-.637a.41.41 0 0 0-.32-.01.422.422 0 0 0-.232.225l-.817 1.856-.93 2.113-.354.807a.439.439 0 0 0-.01.326c.04.106.118.191.219.238z" fill="#F2F2F2"/><path d="M107.082 76.497h1.697l.807-6.694h-2.504v6.694z" fill="#FFB8B8"/><path d="M106.649 75.93h3.342c.28 0 .557.056.815.165.259.11.493.27.691.472.198.203.355.443.462.707.107.264.162.547.162.834v.07h-5.472V75.93z" fill="#2F2E41"/><path d="M111.511 76.072h1.697l.808-6.694h-2.505v6.694z" fill="#FFB8B8"/><path d="M111.079 75.505h3.342a2.094 2.094 0 0 1 1.506.638 2.195 2.195 0 0 1 .624 1.54v.07h-5.472v-2.248zM99.47 60.79a5.573 5.573 0 0 0 1.962 2.73 5.375 5.375 0 0 0 3.145 1.065l.086.001c.876.026 1.905-.263 2.914-.678 1.993-.82 3.908-2.132 4.416-2.493l-.861 8.463-.349 3.431a.652.652 0 0 0 .157.493.63.63 0 0 0 .463.21h2.15a.614.614 0 0 0 .381-.132.64.64 0 0 0 .222-.343l3.549-13.822a2.746 2.746 0 0 0-.517-2.402 2.64 2.64 0 0 0-.991-.758 2.583 2.583 0 0 0-1.22-.212l-7.372.516.515-2.106-6.581-.447-.019.014c-.158.117-.312.24-.459.37a5.633 5.633 0 0 0-.967 1.084 5.519 5.519 0 0 0-.916 2.43 5.562 5.562 0 0 0 .291 2.586z" fill="#2F2E41"/><path d="M99.47 60.79a5.573 5.573 0 0 0 1.962 2.73 5.375 5.375 0 0 0 3.145 1.065 27.02 27.02 0 0 0 3.125-1.895l-.125 1.218-1.085 10.676a.645.645 0 0 0 .157.492.63.63 0 0 0 .463.211h2.15a.618.618 0 0 0 .381-.133.639.639 0 0 0 .222-.342l1.267-4.933 2.282-8.89a2.746 2.746 0 0 0-.517-2.402 2.648 2.648 0 0 0-.991-.758 2.583 2.583 0 0 0-1.22-.212l-7.372.517.514-2.107-3.734-.253a5.518 5.518 0 0 0-.916 2.43 5.562 5.562 0 0 0 .291 2.586z" fill="#2F2E41"/><path d="m101.052 55.178-.05-.006-1.148-5.773c-.01-.05-.948-5.03 1.929-7.633l.05-.356a.649.649 0 0 1 .284-.448.614.614 0 0 1 .518-.07l2.711.86a.625.625 0 0 1 .36.3.643.643 0 0 1 .057.47l-.263 1.026c.365.438 4.667 5.734 3.169 9.813l-.672 2.683-6.945-.866z" fill="#6C63FF"/><path d="M112.309 50.672a1.404 1.404 0 0 0-.184.14l-6.63-1.82-.434-1.646-2.516.344.491 2.991c.039.242.154.464.328.633.173.169.396.276.634.305l7.756.937c.123.274.325.503.579.657a1.427 1.427 0 0 0 1.648-.117 1.498 1.498 0 0 0 .476-1.617 1.482 1.482 0 0 0-.498-.723 1.428 1.428 0 0 0-1.65-.084z" fill="#FFB8B8"/><path d="m105.239 48.966-3.12.41a.614.614 0 0 1-.495-.157.638.638 0 0 1-.207-.486l.059-3.206a1.8 1.8 0 0 1 .352-1.303 1.702 1.702 0 0 1 2.424-.312c.362.287.598.708.657 1.173l.85 3.076a.652.652 0 0 1-.08.524.624.624 0 0 1-.44.281z" fill="#6C63FF"/><path d="M104.361 40.109c1.877 0 3.4-1.557 3.4-3.477s-1.523-3.476-3.4-3.476c-1.878 0-3.4 1.556-3.4 3.476s1.522 3.477 3.4 3.477z" fill="#FFB8B8"/><path d="m104.182 36.922-.426-.792c-.806 3.359.618 6.139.618 6.139l-5.527-2.633.052-.934-.547.635-.786-.443-.103-.606-.594.15 2.166-4.018c2.101-3.823 5.157-2.364 5.157-2.364 4.861-.236 4.267 4.668 4.267 4.668l-4.277.198z" fill="#2F2E41"/><path d="M65.48 62.83c.784-.514-.17-3.465-2.129-6.591-1.96-3.126-4.184-5.244-4.968-4.73-.784.514.17 3.465 2.13 6.59 1.96 3.127 4.183 5.244 4.967 4.73z" fill="#3F3D56"/></g><defs><clipPath id="a"><path fill="#fff" d="M0 0h136v108H0z"/></clipPath></defs></svg>