<svg width="22" height="22" viewBox="0 0 22 22" fill="none" xmlns="http://www.w3.org/2000/svg">
<path d="M11 22C13.9174 22 16.7153 20.8411 18.7782 18.7782C20.8411 16.7153 22 13.9174 22 11C22 8.08262 20.8411 5.28473 18.7782 3.22183C16.7153 1.15893 13.9174 0 11 0C8.08262 0 5.28473 1.15893 3.22183 3.22183C1.15893 5.28473 0 8.08262 0 11C0 13.9174 1.15893 16.7153 3.22183 18.7782C5.28473 20.8411 8.08262 22 11 22ZM12.2788 9.0585L10.9037 15.5279C10.8075 15.9954 10.9436 16.2607 11.3218 16.2607C11.5885 16.2607 11.9914 16.1645 12.265 15.9225L12.144 16.4945C11.7494 16.9703 10.879 17.3167 10.1296 17.3167C9.163 17.3167 8.75187 16.7365 9.01863 15.5031L10.0334 10.7346C10.1214 10.3317 10.0416 10.186 9.63875 10.0884L9.01863 9.977L9.13137 9.45312L12.2801 9.0585H12.2788ZM11 7.5625C10.6353 7.5625 10.2856 7.41763 10.0277 7.15977C9.76987 6.90191 9.625 6.55217 9.625 6.1875C9.625 5.82283 9.76987 5.47309 10.0277 5.21523C10.2856 4.95737 10.6353 4.8125 11 4.8125C11.3647 4.8125 11.7144 4.95737 11.9723 5.21523C12.2301 5.47309 12.375 5.82283 12.375 6.1875C12.375 6.55217 12.2301 6.90191 11.9723 7.15977C11.7144 7.41763 11.3647 7.5625 11 7.5625Z" fill="white"/>
</svg>
