<svg width="22" height="22" viewBox="0 0 22 22" fill="none" xmlns="http://www.w3.org/2000/svg">
<path d="M22 11C22 13.9174 20.8411 16.7153 18.7782 18.7782C16.7153 20.8411 13.9174 22 11 22C8.08262 22 5.28473 20.8411 3.22183 18.7782C1.15893 16.7153 0 13.9174 0 11C0 8.08262 1.15893 5.28473 3.22183 3.22183C5.28473 1.15893 8.08262 0 11 0C13.9174 0 16.7153 1.15893 18.7782 3.22183C20.8411 5.28473 22 8.08262 22 11ZM11 5.5C10.8262 5.5001 10.6544 5.5366 10.4955 5.60715C10.3367 5.6777 10.1944 5.78074 10.0778 5.90963C9.96127 6.03852 9.87298 6.19039 9.81866 6.35548C9.76435 6.52056 9.74522 6.6952 9.7625 6.86812L10.2437 11.6902C10.2599 11.8797 10.3466 12.0562 10.4866 12.1847C10.6267 12.3133 10.8099 12.3847 11 12.3847C11.1901 12.3847 11.3733 12.3133 11.5134 12.1847C11.6534 12.0562 11.7401 11.8797 11.7563 11.6902L12.2375 6.86812C12.2548 6.6952 12.2357 6.52056 12.1813 6.35548C12.127 6.19039 12.0387 6.03852 11.9222 5.90963C11.8056 5.78074 11.6633 5.6777 11.5045 5.60715C11.3456 5.5366 11.1738 5.5001 11 5.5ZM11.0027 13.75C10.6381 13.75 10.2883 13.8949 10.0305 14.1527C9.77262 14.4106 9.62775 14.7603 9.62775 15.125C9.62775 15.4897 9.77262 15.8394 10.0305 16.0973C10.2883 16.3551 10.6381 16.5 11.0027 16.5C11.3674 16.5 11.7172 16.3551 11.975 16.0973C12.2329 15.8394 12.3777 15.4897 12.3777 15.125C12.3777 14.7603 12.2329 14.4106 11.975 14.1527C11.7172 13.8949 11.3674 13.75 11.0027 13.75Z" fill="white"/>
</svg>
