<svg width="72" height="71" fill="none" xmlns="http://www.w3.org/2000/svg"><g clip-path="url(#a)"><path d="M45.709 15.968H26.308c-.442 0-.866.178-1.179.494a1.695 1.695 0 0 0-.489 1.19v43.56l-.222.069-4.76 1.472a.882.882 0 0 1-.677-.066.897.897 0 0 1-.433-.53L4.39 15.44a.907.907 0 0 1 .065-.684c.11-.21.3-.368.525-.438l7.334-2.269 21.262-6.574 7.334-2.27a.88.88 0 0 1 .947.287c.074.091.13.196.164.31l3.619 11.94.068.225z" fill="#F2F2F2"/><path d="m49.942 15.744-4.36-14.392A1.916 1.916 0 0 0 44.66.225a1.874 1.874 0 0 0-1.44-.14L32.91 3.274 11.649 9.85 1.337 13.04c-.479.148-.88.482-1.115.93-.235.446-.285.97-.139 1.454L14.99 64.608c.12.39.359.733.684.976a1.88 1.88 0 0 0 1.677.29l7.068-2.185.223-.07v-.234l-.223.068-7.134 2.207c-.423.13-.88.086-1.27-.124a1.682 1.682 0 0 1-.812-.993L.297 15.357a1.699 1.699 0 0 1 .533-1.792 1.66 1.66 0 0 1 .573-.311l10.311-3.19 21.261-6.575L43.286.3a1.658 1.658 0 0 1 1.48.257c.287.215.498.517.603.861l4.341 14.327.069.224h.231l-.068-.224z" fill="#3F3D56"/><path d="M13.639 14.356a.996.996 0 0 1-.595-.199c-.173-.128-.3-.31-.363-.516L11.25 8.915a1.02 1.02 0 0 1 .32-1.075.997.997 0 0 1 .343-.187l19.56-6.05a.993.993 0 0 1 .762.075c.235.125.41.34.488.596L34.155 7c.077.257.05.534-.074.77a1.004 1.004 0 0 1-.59.493l-19.56 6.05a.99.99 0 0 1-.292.044z" fill="#6C63FF"/><path d="M21.14 5.049a2.235 2.235 0 0 0 2.223-2.246c0-1.24-.995-2.247-2.223-2.247a2.235 2.235 0 0 0-2.223 2.247c0 1.24.995 2.246 2.223 2.246z" fill="#6C63FF"/><path d="M21.14 4.225c.778 0 1.408-.637 1.408-1.422 0-.786-.63-1.423-1.408-1.423-.777 0-1.408.637-1.408 1.423 0 .785.63 1.422 1.408 1.422z" fill="#fff"/><path d="M66.997 65.384H29.421a.94.94 0 0 1-.668-.28.96.96 0 0 1-.277-.674V18.944c0-.253.1-.496.277-.675a.94.94 0 0 1 .668-.28h37.576c.25 0 .49.101.668.28a.961.961 0 0 1 .277.675V64.43c0 .253-.1.495-.277.674a.941.941 0 0 1-.668.28z" fill="#E6E6E6"/><path d="M49.71 15.743H26.308c-.501 0-.982.202-1.336.56a1.922 1.922 0 0 0-.554 1.35v45.8l.222-.069V17.652c0-.446.177-.875.49-1.19a1.661 1.661 0 0 1 1.178-.494h23.47l-.068-.225zm20.4 0H26.308c-.501 0-.982.202-1.336.56a1.922 1.922 0 0 0-.554 1.35V69.09c0 .506.2.991.554 1.349.354.358.835.56 1.336.56H70.11c.501 0 .981-.202 1.336-.56.354-.358.553-.843.554-1.35V17.653c0-.506-.2-.991-.554-1.349a1.883 1.883 0 0 0-1.336-.56zm1.668 53.348c0 .446-.177.875-.49 1.19a1.661 1.661 0 0 1-1.178.494H26.308c-.442 0-.866-.178-1.179-.494a1.695 1.695 0 0 1-.489-1.19V17.652c0-.446.177-.875.49-1.19a1.661 1.661 0 0 1 1.178-.494H70.11c.442 0 .866.178 1.179.494.312.316.488.744.489 1.19v51.439z" fill="#3F3D56"/><path d="M58.437 20.685H37.98a.997.997 0 0 1-.707-.297 1.017 1.017 0 0 1-.294-.714v-4.942c0-.268.106-.525.294-.714a.997.997 0 0 1 .707-.296h20.456c.265 0 .52.106.707.296.188.19.293.446.294.714v4.942c0 .268-.106.525-.294.714a.997.997 0 0 1-.707.297z" fill="#6C63FF"/><path d="M48.209 14.058a2.235 2.235 0 0 0 2.223-2.246c0-1.24-.995-2.246-2.223-2.246a2.235 2.235 0 0 0-2.224 2.246c0 1.24.996 2.246 2.224 2.246z" fill="#6C63FF"/><path d="M48.209 13.18c.748 0 1.354-.612 1.354-1.368 0-.755-.606-1.368-1.354-1.368-.748 0-1.354.612-1.354 1.368 0 .756.606 1.368 1.354 1.368z" fill="#fff"/></g><defs><clipPath id="a"><path fill="#fff" d="M0 0h72v71H0z"/></clipPath></defs></svg>