<svg width="136" height="98" fill="none" xmlns="http://www.w3.org/2000/svg"><g clip-path="url(#a)"><path d="M127.323 19.09c4.86 5.712 3.784 13.112 3.784 13.112s-8.954-1.862-13.814-7.574c-4.86-5.712-3.784-13.112-3.784-13.112s8.954 1.861 13.814 7.574z" fill="#2F2E41"/><path d="M123.826 20.18c.569 6.91 7.097 12.188 7.097 12.188s5.605-5.926 5.036-12.836c-.568-6.91-7.096-12.187-7.096-12.187s-5.605 5.925-5.037 12.835z" fill="#6C63FF"/><path d="m68.03.144 65.981 26.724c.549.223 1.004.57 1.308 1 .304.43.445.922.403 1.415l-3.833 45.745a1.084 1.084 0 0 1-.233.578 1.462 1.462 0 0 1-.544.42 1.84 1.84 0 0 1-.727.163 1.865 1.865 0 0 1-.736-.133L62.164 48.31 65.63 1.26c.016-.222.1-.436.245-.624.144-.189.345-.345.583-.456a1.97 1.97 0 0 1 .78-.178c.276-.006.548.043.794.142z" fill="#D0CDE1"/><path d="m68.79 1.076 64.359 26.068c.536.216.979.556 1.276.975.297.419.434.899.394 1.38l-3.739 44.622a1.06 1.06 0 0 1-.228.564 1.41 1.41 0 0 1-.531.41c-.216.099-.46.153-.709.158a1.815 1.815 0 0 1-.717-.13L63.067 48.06l3.38-45.895c.016-.216.098-.425.239-.608.14-.184.336-.337.568-.445.233-.108.495-.167.762-.173a1.95 1.95 0 0 1 .774.138z" fill="#3F3D56"/><path d="m71.61 4.538 58.34 23.63c.486.197.888.504 1.157.884s.393.815.357 1.251l-3.39 40.448a.96.96 0 0 1-.206.511c-.12.154-.285.282-.481.372-.196.09-.417.14-.643.144a1.644 1.644 0 0 1-.65-.118l-59.67-24.533 3.063-41.602c.014-.196.088-.385.216-.552.128-.166.305-.305.516-.403a1.767 1.767 0 0 1 1.392-.032z" fill="#fff"/><path d="m11.412 70.819 66.065 26.803c.614.25 1.293.379 1.981.378.689 0 1.367-.132 1.981-.382l48.873-19.987c.573-.461.493-1.145.31-1.66a3.301 3.301 0 0 0-.362-.717l-6.66-2.822-55.994-22.507-3.346-1.43a7.418 7.418 0 0 0-2.874-.58 7.433 7.433 0 0 0-2.88.56L11.391 68.193c-.3.125-.55.314-.725.547-.175.233-.266.5-.264.772.003.272.098.538.276.768.178.231.432.418.734.54z" fill="#D0CDE1"/><path opacity=".1" d="m11.412 70.819 66.065 26.803a5.286 5.286 0 0 0 1.981.378 5.28 5.28 0 0 0 1.981-.382l48.873-19.987c.573-.461.493-1.145.31-1.66L81.895 96.377a5.09 5.09 0 0 1-1.924.385 5.112 5.112 0 0 1-1.932-.359L10.426 69.265a1.22 1.22 0 0 0 .175.908c.178.28.462.506.811.646z" fill="#000"/><path opacity=".1" d="m74.118 78.85-21.395-8.71a3.614 3.614 0 0 0-1.39-.26 3.596 3.596 0 0 0-1.383.285L37.54 75.507a.835.835 0 0 0-.346.266.612.612 0 0 0-.124.373.618.618 0 0 0 .135.37.846.846 0 0 0 .353.26l21.815 8.862c.362.148.764.22 1.17.213a2.94 2.94 0 0 0 1.155-.256l12.461-5.655a.71.71 0 0 0 .29-.234.524.524 0 0 0 .1-.321.537.537 0 0 0-.123-.316.737.737 0 0 0-.307-.22zM124.507 77.393l-23.023 9.853a2.24 2.24 0 0 1-.86.177c-.3.002-.596-.054-.864-.163L34.71 60.76a1.052 1.052 0 0 1-.445-.33.766.766 0 0 1-.162-.47.77.77 0 0 1 .167-.467c.109-.14.264-.254.448-.327L57.201 50.2a2.931 2.931 0 0 1 1.09-.204c.378.001.75.073 1.088.21l65.118 26.432a.504.504 0 0 1 .21.155.368.368 0 0 1 .08.22.367.367 0 0 1-.074.221.504.504 0 0 1-.206.159z" fill="#000"/><path d="M25.377 45.942s-5.162-1.812-7.587.102c-2.424 1.914 6.492 1.284 7.587-.102z" fill="#3F3D56"/><path d="M16.464 35.533c1.734-2.36 5.166-2.47 5.166-2.47s3.344-.345 5.49 3.25c2 3.353 4.759 6.59.444 7.374l-.78-1.954-.482 2.1c-.614.035-1.23.043-1.846.025-4.621-.12-9.022.035-8.88-1.3.188-1.777-.781-4.753.888-7.025z" fill="#2F2E41"/><path d="M14.037 80.154s2.19 3.276 3.597 3.276c1.408 0 1.251 2.142.939 2.646-.313.504-1.095 1.638.156 3.277.437.572.359 1.22.072 1.823-.803 1.688-3.93 1.177-3.83-.63l.004-.06c.156-2.016-1.095-5.166-2.346-5.922-1.252-.756-2.346-2.772-2.346-2.772l3.754-1.638zM29.052 79.397s-2.19 3.277-3.597 3.277c-1.408 0-1.251 2.142-.939 2.646.313.504 1.095 1.638-.156 3.276-.437.572-.359 1.222-.072 1.824.804 1.688 3.93 1.177 3.83-.63a2.49 2.49 0 0 0-.004-.06c-.156-2.016 1.095-5.166 2.346-5.922 1.252-.756 2.346-2.772 2.346-2.772l-3.753-1.639z" fill="#FFB8B8"/><path d="m27.332 63.268.938 1.638s13.765 3.654 12.514 7.939c-1.252 4.284-7.352 10.963-8.29 10.71-.939-.251-5.944-1.007-6.1-3.15-.157-2.142 3.597-5.922 3.597-5.922l-5.162-3.78-7.51-.126-6.41 3.906s6.725 4.788 3.753 6.679c-2.972 1.89-7.351 3.15-7.977 2.394-.626-.756-7.664-11.971-6.57-12.98 1.095-1.007 12.201-4.788 12.201-4.788l2.972-3.402 11.575-.504.469 1.386z" fill="#2F2E41"/><path d="M24.516 42.476s-.782 4.159.782 4.663c1.565.504-3.128 2.646-3.128 2.646h-2.659l-1.72-2.898s1.564-2.269.625-4.41c-.938-2.143 6.1 0 6.1 0z" fill="#FFB8B8"/><path opacity=".1" d="M24.516 42.476s-.782 4.159.782 4.663c1.565.504-3.128 2.646-3.128 2.646h-2.659l-1.72-2.898s1.564-2.269.625-4.41c-.938-2.143 6.1 0 6.1 0z" fill="#000"/><path d="M25.611 46.005s-1.72 1.512-2.033 1.764c-.313.252-1.72 1.638-4.692-.378-2.972-2.016-3.285.378-3.285.378V62.89s2.502-.882 4.536 0c2.033.882 6.257-.252 6.257-.252l.782-15.625-1.564-1.008z" fill="#D0CDE1"/><path d="M24.462 46.005s1.462-.505 2.713 0c1.252.504 5.631 3.024 5.319 4.158-.313 1.134-4.38 9.073-1.564 12.853 2.815 3.78 3.284 4.789 3.284 4.789l-6.882-2.899s-5.318-2.646-4.849-4.284c.47-1.638 1.98-14.617 1.98-14.617zM18.258 46.005s-3.283.252-3.44.504c-.156.252-4.926 1.323-4.614 2.457.313 1.134 4.615 11.278 2.738 13.168-1.877 1.89-5.006 4.537-3.91 4.788 1.094.252 2.971-.377 4.848 0 1.877.379 6.257-2.772 5.788-6.174-.47-3.402-.004-13.861-1.41-14.743z" fill="#3F3D56"/><path d="M26.08 70.073v1.26s.783 2.898-1.72 2.772c-2.503-.126-.939-3.528-.939-3.528l.157-1.134 2.503.63zM19.042 70.199s1.72 2.898 0 3.15c-1.72.252-2.972-1.638-2.972-2.142s2.972-1.008 2.972-1.008zM16.774 41.28c.172 0 .313-.227.313-.505s-.14-.504-.313-.504-.313.226-.313.504c0 .279.14.504.313.504zM26.002 41.28c.173 0 .313-.227.313-.505s-.14-.504-.313-.504c-.172 0-.313.226-.313.504 0 .279.14.504.313.504z" fill="#FFB8B8"/><path d="M14.037 47.643s-3.91 0-3.754 1.26c.156 1.26 5.318 22.934 5.318 22.934s2.19-1.638 4.067-1.26l-5.631-22.934zM29.209 48.02s3.91.63 3.91 2.521c0 1.89-5.63 20.036-6.413 20.036-.782 0-3.754-.378-3.754-1.008S29.21 48.02 29.21 48.02z" fill="#3F3D56"/><path opacity=".2" d="m28.349 51.738-3.52 11.088s1.642-9.702 3.52-11.088zM14.66 50.18l3.559 14.497s-1.138-13.66-3.56-14.497z" fill="#000"/><path d="M21.5 44.463c2.485 0 4.5-2.031 4.5-4.537s-2.015-4.537-4.5-4.537S17 37.42 17 39.926s2.015 4.537 4.5 4.537z" fill="#FFB8B8"/><path d="m17.23 35.306 3.391-1.43 4.682.584.969 3.447-2.411-.074-.674-1.267v1.246l-1.113-.035-.646-2.016-.403 2.146-3.956-.065.162-2.536z" fill="#2F2E41"/><path d="m68.073 15.905-1.87 3.583 15.781 6.673 5.317-12.534" fill="#F2F2F2"/><path d="m81.62 23.963 6.972-13.215L72.57 4.396l-6.73 12.894 15.782 6.673z" fill="#6C63FF"/><path d="m72.19 9.45-.117.184 12.13 4.994.118-.185-12.13-4.994zM71.28 11.207l-.117.186 12.131 4.993.118-.185-12.131-4.994z" fill="#fff"/><path opacity=".3" d="M100 51.722c7.18 0 13-5.281 13-11.796s-5.82-11.796-13-11.796-13 5.281-13 11.796 5.82 11.796 13 11.796z" fill="#6C63FF"/><path opacity=".1" d="M94.513 25.407 86 35.078 98.6 49l8.4-9.246-12.487-14.347z" fill="#000"/><path d="M86 35.164a4.25 4.25 0 0 1 .706-.919l7.948-7.858s2.77-.45 3.346.9l-10.154 8.102L86 35.164z" fill="#F2F2F2"/><path d="m86 34.74 11.709 16.533s1.147.742 2.295.318L112 44.12 99.258 26.315 87.78 34.58l-1.779.16z" fill="#575A89"/><path d="m97.868 29.11-7.373 4.82.109.137 7.373-4.819-.11-.138zM90.397 35.733l-.155.093 9.675 13.306.156-.093-9.676-13.306zM108.923 44.197l-7.83 5.24.11.137 7.831-5.24-.111-.138zM99.266 29.34l-.154.097 10.022 13.096.153-.097L99.265 29.34zM96.17 26.77l-9.115 7.61.078.076 9.115-7.608-.078-.078zM95.29 26.738l-8.113 7.356.075.069 8.114-7.356-.075-.069zM96.93 26.836l-9.527 7.649.076.078 9.527-7.649-.077-.078zM97.525 26.988l-9.889 7.498.074.08 9.889-7.497-.074-.08z" fill="#3F3D56"/><path d="M99.817 42.019c1.526 0 2.763-1.115 2.763-2.49 0-1.374-1.237-2.488-2.763-2.488-1.526 0-2.763 1.114-2.763 2.489 0 1.374 1.237 2.489 2.763 2.489z" fill="#575A89"/><path d="m99.81 37.231.091.002a2.71 2.71 0 0 1 1.777.72c.464.44.718 1.028.706 1.636a2.21 2.21 0 0 1-.768 1.612 2.726 2.726 0 0 1-1.893.664 2.707 2.707 0 0 1-1.777-.72 2.197 2.197 0 0 1-.706-1.635 2.213 2.213 0 0 1 .768-1.613 2.726 2.726 0 0 1 1.802-.666zm0-.572v.572-.572c-.84 0-1.648.298-2.248.83-.6.53-.943 1.253-.958 2.01-.014.758.302 1.49.882 2.04.579.55 1.374.872 2.215.898l.113.002c.841 0 1.648-.298 2.247-.83.6-.53.944-1.253.959-2.01.014-.758-.303-1.49-.882-2.04s-1.374-.872-2.215-.898a3.861 3.861 0 0 0-.112-.002z" fill="#CCC"/><path d="m99.475 35.97-.028.714.752.023.027-.713-.751-.023zM101.555 36.325l-.431.598.631.37.431-.6-.631-.368zM103.111 37.542l-.705.324.342.604.705-.324-.342-.604zM102.704 40.777l-.421.562.657.398.42-.561-.656-.399zM96.675 37.341l-.387.58.678.368.388-.58-.679-.368zM96.833 40.593l-.686.357.376.587.686-.357-.376-.587zM98.32 36.224l-.657.329.384.623.658-.328-.384-.624zM99.227 42.385l-.027.712.751.024.028-.713-.752-.023zM101.577 41.922l-.658.329.384.623.658-.328-.384-.624zM97.869 41.806l-.431.598.63.37.431-.599-.63-.369zM96.698 39.166l-.91-.028-.023.606.91.028.023-.606zM102.925 39.968l.909.028.024-.606-.91-.028-.023.606z" fill="#CCC"/></g><defs><clipPath id="a"><path fill="#fff" d="M0 0h136v98H0z"/></clipPath></defs></svg>