<svg width="136" height="98" fill="none" xmlns="http://www.w3.org/2000/svg"><g clip-path="url(#a)"><path d="M8.014 62.14C4.01 60.686.536 57.207.095 52.976a19.648 19.648 0 0 0 13.134 3.004c1.772-.23 3.719-.67 5.235.275.943.587 1.529 1.63 1.797 2.706.269 1.077.257 2.202.243 3.312l.125.247c-4.182.811-8.613 1.074-12.615-.38z" fill="#575A89"/><path d="M.182 52.955a16.772 16.772 0 0 0 8.271 6.164c.714.258 1.464.4 2.223.425.74-.001 1.466-.2 2.103-.575.601-.338 1.177-.754 1.85-.94a2.54 2.54 0 0 1 2.046.34c.755.474 1.295 1.19 1.798 1.908.559.798 1.126 1.635 1.999 2.119.105.059.008.219-.098.16-1.517-.842-2.079-2.629-3.37-3.715-.603-.507-1.363-.836-2.159-.672-.697.144-1.29.572-1.896.92a4.425 4.425 0 0 1-2.036.638 6.689 6.689 0 0 1-2.23-.338 16.285 16.285 0 0 1-4.556-2.26 17.062 17.062 0 0 1-4.11-4.084c-.07-.098.096-.187.165-.09z" fill="#fff"/><path d="M7.357 58.817a2.516 2.516 0 0 1-2.997 1.277c-.116-.036-.065-.217.05-.18a2.334 2.334 0 0 0 2.786-1.194c.054-.108.214-.01.161.097zM12.497 59.18a4.846 4.846 0 0 0-2.24-2.73c-.105-.06-.007-.22.098-.161a5.04 5.04 0 0 1 2.325 2.847c.037.115-.146.16-.183.045zM2.746 55.882a1.421 1.421 0 0 0 .234-1.33c-.038-.114.145-.158.183-.044a1.592 1.592 0 0 1-.257 1.471.097.097 0 0 1-.128.032.094.094 0 0 1-.032-.129z" fill="#fff"/><path d="m10.198 42.699.08.213a18.736 18.736 0 0 0 1.406 2.958 19.757 19.757 0 0 0 4.773 5.492 19.2 19.2 0 0 0 2.418 1.63c1.17.666 2.49 1.294 3.345 2.277.09.102.175.209.252.32l-1.55 6.76-.033.042-.05.272-.137-.067-.079-.039-.05-.025a.224.224 0 0 1-.017-.008l-.045-.022c-.261-.131-.521-.264-.781-.4-.002 0-.002 0-.003-.002a28.247 28.247 0 0 1-5.552-3.704c-.05-.044-.101-.088-.15-.135a18.318 18.318 0 0 1-2.067-2.16 16.202 16.202 0 0 1-.962-1.325 13.445 13.445 0 0 1-1.71-3.845c-.725-2.718-.573-5.637.805-8.05l.107-.182z" fill="#575A89"/><path d="M10.28 42.733a16.734 16.734 0 0 0 2.888 9.895c.415.635.928 1.2 1.52 1.675.59.445 1.29.723 2.025.806.684.091 1.394.106 2.044.361a2.536 2.536 0 0 1 1.428 1.503c.318.832.317 1.728.285 2.604-.034.972-.086 1.982.319 2.893.049.11-.126.18-.175.07-.703-1.585-.075-3.35-.451-4.993-.176-.767-.584-1.486-1.319-1.834-.642-.305-1.374-.32-2.068-.407a4.426 4.426 0 0 1-2.01-.714 6.673 6.673 0 0 1-1.578-1.61 16.24 16.24 0 0 1-2.275-4.544 17.024 17.024 0 0 1-.818-5.732c.003-.12.189-.092.185.027z" fill="#fff"/><path d="M12.475 51.727a2.52 2.52 0 0 1-3.163-.782c-.07-.098.08-.212.15-.114a2.331 2.331 0 0 0 2.944.722c.107-.054.177.12.07.175zM16.36 66.674a6.999 6.999 0 0 0-.141-4.267c-.049-.134.126-.218.174-.084a7.28 7.28 0 0 1 .14 4.44c-.04.139-.212.049-.173-.089zM10.563 46.612a1.427 1.427 0 0 0 .989-.92c.038-.115.21-.04.172.073a1.594 1.594 0 0 1-1.091 1.021.097.097 0 0 1-.122-.052.094.094 0 0 1 .052-.122z" fill="#fff"/><path d="M129.172 77c3.794-1.934 6.814-5.813 6.731-10.066a19.643 19.643 0 0 1-12.665 4.593c-1.787-.01-3.773-.207-5.161.915-.864.699-1.317 1.805-1.451 2.907-.134 1.102.017 2.217.167 3.316l-.093.261c4.249.292 8.679.009 12.472-1.926z" fill="#575A89"/><path d="M135.814 66.924a16.766 16.766 0 0 1-7.45 7.132 7.232 7.232 0 0 1-2.154.695 4.15 4.15 0 0 1-2.158-.313c-.638-.262-1.261-.603-1.951-.706a2.543 2.543 0 0 0-1.989.59c-.691.562-1.138 1.339-1.549 2.113-.457.86-.917 1.761-1.723 2.349-.098.07.019.218.116.147 1.403-1.022 1.74-2.865 2.888-4.101.536-.577 1.249-.996 2.06-.932.709.057 1.351.409 1.995.68a4.424 4.424 0 0 0 2.098.383 6.682 6.682 0 0 0 2.173-.608 16.28 16.28 0 0 0 4.243-2.802 17.063 17.063 0 0 0 3.576-4.558c.057-.106-.118-.174-.175-.07z" fill="#fff"/><path d="M129.415 73.622a2.522 2.522 0 0 0 3.132.9c.11-.05.037-.224-.073-.174a2.334 2.334 0 0 1-2.912-.842c-.066-.101-.213.016-.147.116zM124.358 74.614a4.844 4.844 0 0 1 1.887-2.986c.097-.071-.019-.218-.117-.147a5.037 5.037 0 0 0-1.956 3.11c-.023.12.164.141.186.023zM133.63 70.143a1.42 1.42 0 0 1-.397-1.29c.024-.119-.162-.14-.186-.022a1.588 1.588 0 0 0 .435 1.428.097.097 0 0 0 .132.016.095.095 0 0 0 .016-.132z" fill="#fff"/><path d="m124.611 57.975-.052.22a18.691 18.691 0 0 1-1.033 3.109 19.734 19.734 0 0 1-4.06 6.036 19.22 19.22 0 0 1-2.199 1.916c-1.079.803-2.312 1.589-3.04 2.67a3.369 3.369 0 0 0-.21.348l2.371 6.519.037.037.083.264.128-.083.073-.049a.948.948 0 0 1 .048-.03l.015-.011.042-.027c.243-.162.485-.326.726-.493.002 0 .002 0 .003-.002a28.236 28.236 0 0 0 5.053-4.358c.044-.05.09-.1.133-.153.66-.749 1.257-1.55 1.785-2.396.288-.464.553-.943.792-1.434a13.435 13.435 0 0 0 1.223-4.025c.386-2.787-.125-5.665-1.789-7.89a7.944 7.944 0 0 0-.129-.168z" fill="#575A89"/><path d="M124.534 58.02c.535 3.48-.042 7.04-1.648 10.173a7.205 7.205 0 0 1-1.302 1.85 4.14 4.14 0 0 1-1.911 1.048c-.667.174-1.37.276-1.984.609a2.534 2.534 0 0 0-1.232 1.667c-.213.864-.102 1.753.037 2.618.154.962.33 1.957.041 2.911-.035.116.146.163.181.048.503-1.66-.338-3.333-.167-5.011.08-.783.397-1.546 1.083-1.982.6-.381 1.325-.486 2.003-.657a4.424 4.424 0 0 0 1.907-.955 6.66 6.66 0 0 0 1.367-1.793 16.225 16.225 0 0 0 1.699-4.788 17.03 17.03 0 0 0 .107-5.79c-.019-.118-.199-.067-.181.051z" fill="#fff"/><path d="M123.463 67.215a2.518 2.518 0 0 0 3.042-1.165c.058-.106-.104-.2-.162-.095a2.328 2.328 0 0 1-2.833 1.078c-.113-.04-.161.141-.047.182zM120.023 71.047a4.844 4.844 0 0 1-.294-3.518c.035-.116-.147-.163-.181-.048a5.03 5.03 0 0 0 .313 3.66c.054.109.215.013.162-.094zM124.731 61.903a1.428 1.428 0 0 1-1.095-.792c-.052-.109-.214-.014-.162.094a1.59 1.59 0 0 0 1.209.88.098.098 0 0 0 .115-.067.098.098 0 0 0-.01-.072.096.096 0 0 0-.057-.043z" fill="#fff"/><path d="M84.45.57a.385.385 0 0 0-.385-.384h-68.71a.386.386 0 0 0-.385.384v2.26c0 .095.035.186.099.255a151.322 151.322 0 0 0-.099 5.775v51.028c0 4.785.173 8.676.385 8.676h68.71c.212 0 .385-3.891.385-8.676V8.86c0-2.217-.037-4.24-.099-5.775a.374.374 0 0 0 .099-.254V.57z" fill="#F5F5F5"/><path d="M84.065 68.75h-68.71c-.21 0-.337 0-.457-2.722a146.3 146.3 0 0 1-.113-6.14V8.859c0-2.135.035-4.189.098-5.781C15.006 0 15.145 0 15.355 0h68.71c.21 0 .35 0 .472 3.078.064 1.59.099 3.644.099 5.781v51.029c0 2.316-.04 4.497-.113 6.14-.12 2.721-.248 2.721-.458 2.721zm-68.601-.372h68.493c.152-.582.307-3.85.307-8.49V8.859c0-2.132-.035-4.18-.098-5.767-.078-1.95-.168-2.543-.211-2.72h-68.49c-.042.177-.133.77-.21 2.72a151.889 151.889 0 0 0-.099 5.767v51.029c0 4.64.156 7.908.308 8.49z" fill="#E4E4E4"/><path d="M84.065.186h-68.71a.386.386 0 0 0-.385.384v2.26c0 .095.035.186.099.255a.382.382 0 0 0 .286.13h68.71a.381.381 0 0 0 .286-.13.374.374 0 0 0 .099-.254V.57a.385.385 0 0 0-.385-.384z" fill="#575A89"/><path d="M17.205 2.136a.546.546 0 1 0 0-1.092.546.546 0 0 0 0 1.092zM19.279 2.136a.546.546 0 1 0 0-1.092.546.546 0 0 0 0 1.092zM21.353 2.136a.546.546 0 1 0 0-1.092.546.546 0 0 0 0 1.092zM82.033.861h-2.388a.177.177 0 1 0 0 .353h2.388a.177.177 0 1 0 0-.353zM82.033 1.524h-2.388a.177.177 0 1 0 0 .353h2.388a.177.177 0 1 0 0-.353zM82.033 2.187h-2.388a.177.177 0 1 0 0 .352h2.388a.177.177 0 1 0 0-.352z" fill="#fff"/><path d="M37.564 11.512h-8.041a1.523 1.523 0 0 0-1.52 1.518v6.956a1.52 1.52 0 0 0 1.52 1.518h8.041a1.523 1.523 0 0 0 1.52-1.518V13.03a1.519 1.519 0 0 0-1.52-1.518z" fill="#6C63FF"/><path d="M70.73 14.201H42.703a.691.691 0 0 0-.488 1.178c.13.129.305.202.488.202H70.73a.691.691 0 0 0 .489-1.178.691.691 0 0 0-.489-.202zM53.349 17.433H42.704a.691.691 0 0 0-.489 1.177c.13.13.305.202.488.202H53.35a.691.691 0 0 0 .488-1.177.691.691 0 0 0-.488-.202z" fill="#595C8A"/><path d="M37.564 30.074h-8.041a1.524 1.524 0 0 0-1.52 1.518v6.955a1.52 1.52 0 0 0 1.52 1.519h8.041a1.524 1.524 0 0 0 1.52-1.519v-6.955a1.519 1.519 0 0 0-1.52-1.518z" fill="#6C63FF"/><path d="M70.73 32.763H42.703a.691.691 0 0 0-.488 1.178c.13.129.305.202.488.202H70.73a.691.691 0 0 0 .489-1.178.691.691 0 0 0-.489-.202zM53.349 35.995H42.704a.69.69 0 1 0 0 1.38h10.645a.691.691 0 0 0 .488-1.178.69.69 0 0 0-.488-.202z" fill="#595C8A"/><path d="M37.564 48.636h-8.041a1.523 1.523 0 0 0-1.52 1.518v6.955a1.52 1.52 0 0 0 1.52 1.518h8.041a1.523 1.523 0 0 0 1.52-1.518v-6.955a1.519 1.519 0 0 0-1.52-1.518z" fill="#6C63FF"/><path d="M70.73 51.325H42.703a.69.69 0 1 0 0 1.38H70.73a.691.691 0 0 0 .489-1.178.69.69 0 0 0-.489-.202zM53.349 54.557H42.704a.691.691 0 0 0-.489 1.177.69.69 0 0 0 .488.202H53.35a.69.69 0 1 0 0-1.38z" fill="#595C8A"/><path d="M116.78 90.814H70.748c-.212 0-.385-3.257-.385-7.262V40.835c0-4.004.173-7.262.385-7.262h46.032c.213 0 .385 3.258.385 7.262v42.717c0 4.005-.172 7.262-.385 7.262z" fill="#F5F5F5"/><path d="M116.78 91H70.748c-.195 0-.336 0-.458-2.305a102.746 102.746 0 0 1-.113-5.143V40.835c0-1.94.04-3.766.113-5.142.122-2.305.263-2.305.458-2.305h46.032c.195 0 .336 0 .458 2.305.073 1.376.113 3.203.113 5.142v42.717c0 1.94-.04 3.766-.113 5.143C117.116 91 116.975 91 116.78 91zm-45.93-.371h45.827c.134-.481.302-3.043.302-7.077V40.835c0-4.033-.168-6.595-.302-7.076H70.851c-.134.48-.302 3.043-.302 7.076v42.717c0 4.034.168 6.596.302 7.077z" fill="#E4E4E4"/><path d="M116.78 36.603H70.748a.385.385 0 0 1-.385-.385v-2.26a.384.384 0 0 1 .385-.385h46.032a.385.385 0 0 1 .385.385v2.26a.385.385 0 0 1-.385.384z" fill="#575A89"/><path d="M72.597 35.523a.546.546 0 1 0 0-1.092.546.546 0 0 0 0 1.092zM74.67 35.523a.546.546 0 1 0 .001-1.092.546.546 0 0 0 0 1.092zM76.745 35.523a.546.546 0 1 0 0-1.092.546.546 0 0 0 0 1.092zM114.748 34.602h-2.388a.176.176 0 1 1 0-.353h2.388a.177.177 0 0 1 .177.177.177.177 0 0 1-.177.176zM114.748 35.265h-2.388a.176.176 0 1 1 0-.354h2.388a.176.176 0 1 1 0 .354zM114.748 35.927h-2.388a.176.176 0 0 1-.125-.301.176.176 0 0 1 .125-.052h2.388a.177.177 0 0 1 0 .353z" fill="#fff"/><path d="M84.893 50.635h-5.872a1.112 1.112 0 0 1-1.11-1.11v-5.078a1.11 1.11 0 0 1 1.11-1.11h5.872a1.113 1.113 0 0 1 1.11 1.11v5.079a1.11 1.11 0 0 1-1.11 1.109z" fill="#6C63FF"/><path d="M109.114 46.31H88.647a.505.505 0 0 1-.357-.86.505.505 0 0 1 .357-.147h20.467a.502.502 0 0 1 .356.86.502.502 0 0 1-.356.147zM96.42 48.67h-7.773a.504.504 0 1 1 0-1.007h7.773a.505.505 0 1 1 0 1.007z" fill="#5D608D"/><path d="M84.893 65.67h-5.872a1.113 1.113 0 0 1-1.11-1.109v-5.08a1.11 1.11 0 0 1 1.11-1.108h5.872a1.113 1.113 0 0 1 1.11 1.109v5.079a1.11 1.11 0 0 1-1.11 1.109z" fill="#6C63FF"/><path d="M109.114 61.345H88.647a.505.505 0 0 1-.357-.86.504.504 0 0 1 .357-.147h20.467a.502.502 0 0 1 .504.503.502.502 0 0 1-.504.504zM96.42 63.705h-7.773a.505.505 0 0 1-.357-.86.505.505 0 0 1 .357-.147h7.773a.505.505 0 1 1 0 1.007z" fill="#5D608D"/><path d="M84.893 80.705h-5.872a1.113 1.113 0 0 1-1.11-1.109v-5.08a1.11 1.11 0 0 1 1.11-1.108h5.872a1.112 1.112 0 0 1 1.11 1.109v5.079a1.11 1.11 0 0 1-1.11 1.109z" fill="#6C63FF"/><path d="M109.114 76.38H88.647a.505.505 0 1 1 0-1.007h20.467a.502.502 0 0 1 .356.86.502.502 0 0 1-.356.147zM96.42 78.74h-7.773a.505.505 0 0 1-.357-.86.505.505 0 0 1 .357-.147h7.773a.505.505 0 1 1 0 1.007z" fill="#595C8A"/></g><defs><clipPath id="a"><path fill="#fff" d="M0 0h136v98H0z"/></clipPath></defs></svg>