<svg width="320" height="672" viewBox="0 0 320 672" fill="none" xmlns="http://www.w3.org/2000/svg">
<path d="M142.323 30.2142C142.323 32.5217 146.473 32.5217 146.473 30.2142C146.473 27.9066 142.323 27.9066 142.323 30.2142Z" fill="#FFEFEA"/>
<path d="M87.8248 664.071C87.8248 666.378 91.9744 666.378 91.9744 664.071C91.9744 661.763 87.8248 661.763 87.8248 664.071Z" fill="#FFEFEA"/>
<path d="M60.6463 145.265C60.6463 147.573 64.7959 147.573 64.7959 145.265C64.7959 142.958 60.6463 142.958 60.6463 145.265Z" fill="#FFEFEA"/>
<path d="M47.2103 62.2992C47.2103 64.6068 51.3599 64.6068 51.3599 62.2992C51.3599 59.9917 47.2103 59.9917 47.2103 62.2992Z" fill="#FFEFEA"/>
<path d="M195.381 427.216C195.381 429.524 199.531 429.524 199.531 427.216C199.531 424.909 195.381 424.909 195.381 427.216Z" fill="#FFEFEA"/>
<path d="M200.329 599.748C200.329 602.055 204.479 602.055 204.479 599.748C204.479 597.44 200.329 597.44 200.329 599.748Z" fill="#FFEFEA"/>
<path d="M49.6531 204.385C49.6531 206.692 53.8027 206.692 53.8027 204.385C53.8027 202.077 49.6531 202.077 49.6531 204.385Z" fill="#FFEFEA"/>
<path d="M116.525 291.645C116.525 293.952 120.674 293.952 120.674 291.645C120.674 289.337 116.525 289.337 116.525 291.645Z" fill="#FFEFEA"/>
<path d="M161.057 70.5369C161.057 72.8444 165.207 72.8444 165.207 70.5369C165.207 68.2294 161.057 68.2294 161.057 70.5369Z" fill="#FFEFEA"/>
<path d="M309.228 435.454C309.228 437.761 313.377 437.761 313.377 435.454C313.377 433.146 309.228 433.146 309.228 435.454Z" fill="#FFEFEA"/>
<path d="M302.63 209.035C302.63 211.343 306.78 211.343 306.78 209.035C306.78 206.728 302.63 206.728 302.63 209.035Z" fill="#FFEFEA"/>
<path d="M38.1031 455.84C38.1031 458.147 42.2527 458.147 42.2527 455.84C42.2527 453.532 38.1031 453.532 38.1031 455.84Z" fill="#FFEFEA"/>
<path d="M27.1031 610.603C27.1031 612.911 31.2527 612.911 31.2527 610.603C31.2527 608.296 27.1031 608.296 27.1031 610.603Z" fill="#FFEFEA"/>
<path d="M67.1031 560.712C67.1031 563.02 71.2527 563.02 71.2527 560.712C71.2527 558.405 67.1031 558.405 67.1031 560.712Z" fill="#FFEFEA"/>
<path d="M35.0001 575.985C35.0001 578.293 39.1497 578.293 39.1497 575.985C39.1497 573.678 35.0001 573.678 35.0001 575.985Z" fill="#FFEFEA"/>
<path d="M55.0001 533.222C55.0001 535.529 59.1497 535.529 59.1497 533.222C59.1497 530.914 55.0001 530.914 55.0001 533.222Z" fill="#FFEFEA"/>
<path d="M162.397 580.061C164.104 582.151 167.862 581.142 166.155 579.052C164.447 576.962 160.689 577.971 162.397 580.061Z" fill="#FFEFEA"/>
<path d="M314.176 607.985C314.176 610.293 318.326 610.293 318.326 607.985C318.326 605.678 314.176 605.678 314.176 607.985Z" fill="#FFEFEA"/>
<path d="M126.42 334.298C126.42 336.605 130.57 336.605 130.57 334.298C130.57 331.99 126.42 331.99 126.42 334.298Z" fill="#FFEFEA"/>
<path d="M70.3426 412.292C70.3426 414.599 74.4922 414.599 74.4922 412.292C74.4922 409.984 70.3426 409.984 70.3426 412.292Z" fill="#FFEFEA"/>
<path d="M66.2196 494.54C66.2196 496.847 70.3691 496.847 70.3691 494.54C70.3691 492.232 66.2196 492.232 66.2196 494.54Z" fill="#FFEFEA"/>
<path d="M181.674 567.334C181.674 569.641 185.823 569.641 185.823 567.334C185.823 565.026 181.674 565.026 181.674 567.334Z" fill="#FFEFEA"/>
<path d="M3.2989 320.796C3.2989 323.104 7.44849 323.104 7.44849 320.796C7.44849 318.489 3.2989 318.489 3.2989 320.796Z" fill="#FFEFEA"/>
<path d="M10.1414 152.674C10.1414 154.982 14.291 154.982 14.291 152.674C14.291 150.367 10.1414 150.367 10.1414 152.674Z" fill="#FFEFEA"/>
<path d="M9.89607 111.867C9.89607 114.175 14.0457 114.175 14.0457 111.867C14.0457 109.56 9.89607 109.56 9.89607 111.867Z" fill="#FFEFEA"/>
<path d="M106.628 344.586C106.628 346.894 110.778 346.894 110.778 344.586C110.778 342.279 106.628 342.279 106.628 344.586Z" fill="#FFEFEA"/>
<path d="M133.843 525.154C133.843 527.461 137.992 527.461 137.992 525.154C137.992 522.846 133.843 522.846 133.843 525.154Z" fill="#FFEFEA"/>
<path d="M6.01789 670.269C6.01789 672.577 10.1675 672.577 10.1675 670.269C10.1675 667.962 6.01789 667.962 6.01789 670.269Z" fill="#FFEFEA"/>
<path d="M56.3709 284.9C56.3709 287.208 60.5205 287.208 60.5205 284.9C60.5205 282.593 56.3709 282.593 56.3709 284.9Z" fill="#FFEFEA"/>
<path d="M100.904 63.7922C100.904 66.0997 105.053 66.0997 105.053 63.7922C105.053 61.4846 100.904 61.4846 100.904 63.7922Z" fill="#FFEFEA"/>
<path d="M272.967 429.987C272.967 432.295 277.117 432.295 277.117 429.987C277.117 427.68 272.967 427.68 272.967 429.987Z" fill="#FFEFEA"/>
<path d="M254.022 601.241C254.022 603.548 258.172 603.548 258.172 601.241C258.172 598.933 254.022 598.933 254.022 601.241Z" fill="#FFEFEA"/>
<path d="M188.319 385.694C188.319 388.001 192.469 388.001 192.469 385.694C192.469 383.386 188.319 383.386 188.319 385.694Z" fill="#FFEFEA"/>
<path d="M66.2674 327.553C66.2674 329.86 70.417 329.86 70.417 327.553C70.417 325.245 66.2674 325.245 66.2674 327.553Z" fill="#FFEFEA"/>
<path d="M10.1898 405.547C10.1898 407.854 14.3394 407.854 14.3394 405.547C14.3394 403.239 10.1898 403.239 10.1898 405.547Z" fill="#FFEFEA"/>
<path d="M10.0001 486.385C10.0001 488.693 14.1497 488.693 14.1497 486.385C14.1497 484.078 10.0001 484.078 10.0001 486.385Z" fill="#FFEFEA"/>
<path d="M61.0001 623.84C61.0001 626.147 65.1497 626.147 65.1497 623.84C65.1497 621.532 61.0001 621.532 61.0001 623.84Z" fill="#FFEFEA"/>
<path d="M121.521 560.589C121.521 562.896 125.67 562.896 125.67 560.589C125.67 558.281 121.521 558.281 121.521 560.589Z" fill="#FFEFEA"/>
<path d="M248.144 109.867C248.144 112.174 252.294 112.174 252.294 109.867C252.294 107.559 248.144 107.559 248.144 109.867Z" fill="#FFEFEA"/>
<path d="M283.817 133.75C283.817 136.058 287.966 136.058 287.966 133.75C287.966 131.443 283.817 131.443 283.817 133.75Z" fill="#FFEFEA"/>
<path d="M230.818 4.44328C230.818 6.75079 234.967 6.75079 234.967 4.44328C234.967 2.13577 230.818 2.13577 230.818 4.44328Z" fill="#FFEFEA"/>
<path d="M167.607 166.303C167.607 168.611 171.756 168.611 171.756 166.303C171.756 163.996 167.607 163.996 167.607 166.303Z" fill="#FFEFEA"/>
<path d="M234.478 253.563C234.478 255.87 238.628 255.87 238.628 253.563C238.628 251.255 234.478 251.255 234.478 253.563Z" fill="#FFEFEA"/>
<path d="M117.374 270.107C117.374 272.415 121.524 272.415 121.524 270.107C121.524 267.8 117.374 267.8 117.374 270.107Z" fill="#FFEFEA"/>
<path d="M161.907 48.9992C161.907 51.3067 166.056 51.3067 166.056 48.9992C166.056 46.6917 161.907 46.6917 161.907 48.9992Z" fill="#FFEFEA"/>
<path d="M300.182 408.716C300.182 411.024 304.331 411.024 304.331 408.716C304.331 406.409 300.182 406.409 300.182 408.716Z" fill="#FFEFEA"/>
<path d="M303.48 187.498C303.48 189.805 307.63 189.805 307.63 187.498C307.63 185.19 303.48 185.19 303.48 187.498Z" fill="#FFEFEA"/>
<path d="M14.0194 442.277C14.0194 444.585 18.1689 444.585 18.1689 442.277C18.1689 439.97 14.0194 439.97 14.0194 442.277Z" fill="#FFEFEA"/>
<path d="M17.2537 519.226C18.9613 521.316 22.7191 520.307 21.0116 518.217C19.3041 516.127 15.5462 517.136 17.2537 519.226Z" fill="#FFEFEA"/>
<path d="M147.229 560.35C148.936 562.44 152.694 561.431 150.986 559.341C149.279 557.251 145.521 558.26 147.229 560.35Z" fill="#FFEFEA"/>
<path d="M315.026 586.448C315.026 588.755 319.175 588.755 319.175 586.448C319.175 584.14 315.026 584.14 315.026 586.448Z" fill="#FFEFEA"/>
<path d="M258.123 372.319C258.123 374.627 262.272 374.627 262.272 372.319C262.272 370.012 258.123 370.012 258.123 372.319Z" fill="#FFEFEA"/>
<path d="M315.85 152.046C315.85 154.353 320 154.353 320 152.046C320 149.738 315.85 149.738 315.85 152.046Z" fill="#FFEFEA"/>
<path d="M127.27 312.76C127.27 315.067 131.42 315.067 131.42 312.76C131.42 310.452 127.27 310.452 127.27 312.76Z" fill="#FFEFEA"/>
<path d="M71.1925 390.754C71.1925 393.061 75.342 393.061 75.342 390.754C75.342 388.446 71.1925 388.446 71.1925 390.754Z" fill="#FFEFEA"/>
<path d="M67.0692 473.002C67.0692 475.309 71.2188 475.309 71.2188 473.002C71.2187 470.694 67.0692 470.694 67.0692 473.002Z" fill="#FFEFEA"/>
<path d="M182.524 545.796C182.524 548.104 186.673 548.104 186.673 545.796C186.673 543.489 182.524 543.489 182.524 545.796Z" fill="#FFEFEA"/>
<path d="M184.173 662.078C184.173 664.385 188.323 664.385 188.323 662.078C188.323 659.77 184.173 659.77 184.173 662.078Z" fill="#FFEFEA"/>
<path d="M128.095 114.592C128.095 116.9 132.245 116.9 132.245 114.592C132.245 112.285 128.095 112.285 128.095 114.592Z" fill="#FFEFEA"/>
<path d="M224.582 306.504C224.582 308.812 228.732 308.812 228.732 306.504C228.732 304.197 224.582 304.197 224.582 306.504Z" fill="#FFEFEA"/>
<path d="M261.422 497.109C261.422 499.417 265.572 499.417 265.572 497.109C265.572 494.802 261.422 494.802 261.422 497.109Z" fill="#FFEFEA"/>
<path d="M123.972 632.187C123.972 634.495 128.121 634.495 128.121 632.187C128.121 629.88 123.972 629.88 123.972 632.187Z" fill="#FFEFEA"/>
<path d="M273.12 166.303C273.12 168.611 277.269 168.611 277.269 166.303C277.269 163.996 273.12 163.996 273.12 166.303Z" fill="#FFEFEA"/>
<path d="M96.6165 18.459C96.6165 20.7665 100.766 20.7665 100.766 18.459C100.766 16.1515 96.6165 16.1515 96.6165 18.459Z" fill="#FFEFEA"/>
<path d="M42.1182 652.316C42.1182 654.623 46.2678 654.623 46.2678 652.316C46.2678 650.008 42.1182 650.008 42.1182 652.316Z" fill="#FFEFEA"/>
<path d="M154.965 75.4262C154.965 77.7337 159.115 77.7337 159.115 75.4262C159.115 73.1187 154.965 73.1187 154.965 75.4262Z" fill="#FFEFEA"/>
<path d="M303.48 511.29C303.48 513.597 307.63 513.597 307.63 511.29C307.63 508.982 303.48 508.982 303.48 511.29Z" fill="#FFEFEA"/>
<path d="M291.935 534.924C291.935 537.232 296.084 537.232 296.084 534.924C296.084 532.617 291.935 532.617 291.935 534.924Z" fill="#FFEFEA"/>
<path d="M305.13 545.796C305.13 548.104 309.28 548.104 309.28 545.796C309.28 543.489 305.13 543.489 305.13 545.796Z" fill="#FFEFEA"/>
<path d="M315.026 640.334C315.026 642.642 319.175 642.642 319.175 640.334C319.175 638.027 315.026 638.027 315.026 640.334Z" fill="#FFEFEA"/>
<path d="M305.13 651.679C305.13 653.986 309.28 653.986 309.28 651.679C309.28 649.371 305.13 649.371 305.13 651.679Z" fill="#FFEFEA"/>
<path d="M286.162 220.113C286.162 222.421 290.312 222.421 290.312 220.113C290.312 217.806 286.162 217.806 286.162 220.113Z" fill="#FFEFEA"/>
<path d="M11.2012 376.53C11.2012 378.837 15.3508 378.837 15.3508 376.53C15.3508 374.222 11.2012 374.222 11.2012 376.53Z" fill="#FFEFEA"/>
<path d="M29.0001 472.131C29.0001 474.438 33.1497 474.438 33.1497 472.131C33.1497 469.823 29.0001 469.823 29.0001 472.131Z" fill="#FFEFEA"/>
<path d="M36.0001 484.349C36.0001 486.656 40.1497 486.656 40.1497 484.349C40.1497 482.041 36.0001 482.041 36.0001 484.349Z" fill="#FFEFEA"/>
<path d="M21.0115 615.493C21.0115 617.8 25.1611 617.8 25.1611 615.493C25.1611 613.185 21.0115 613.185 21.0115 615.493Z" fill="#FFEFEA"/>
<path d="M59.0001 588.203C59.0001 590.511 63.1497 590.511 63.1497 588.203C63.1497 585.896 59.0001 585.896 59.0001 588.203Z" fill="#FFEFEA"/>
<path d="M15.3553 553.969C17.0628 556.058 20.8207 555.049 19.1132 552.96C17.4056 550.87 13.6478 551.879 15.3553 553.969Z" fill="#FFEFEA"/>
<path d="M160.498 585.97C162.205 588.059 165.963 587.05 164.256 584.961C162.548 582.871 158.79 583.88 160.498 585.97Z" fill="#FFEFEA"/>
<path d="M308.084 612.875C308.084 615.182 312.233 615.182 312.233 612.875C312.233 610.567 308.084 610.567 308.084 612.875Z" fill="#FFEFEA"/>
<path d="M174.901 11.6772C174.901 13.9847 179.05 13.9847 179.05 11.6772C179.05 9.36966 174.901 9.36966 174.901 11.6772Z" fill="#FFEFEA"/>
<path d="M120.403 645.534C120.403 647.841 124.552 647.841 124.552 645.534C124.552 643.226 120.403 643.226 120.403 645.534Z" fill="#FFEFEA"/>
<path d="M42.6446 11.677C42.6446 13.9846 46.7942 13.9846 46.7942 11.677C46.7942 9.36953 42.6446 9.36953 42.6446 11.677Z" fill="#FFEFEA"/>
<path d="M128.709 1.73063C128.709 4.03815 132.858 4.03815 132.858 1.73063C132.858 -0.576878 128.709 -0.576878 128.709 1.73063Z" fill="#FFEFEA"/>
<path d="M47.0321 116.782C47.0321 119.089 51.1816 119.089 51.1816 116.782C51.1816 114.474 47.0321 114.474 47.0321 116.782Z" fill="#FFEFEA"/>
<path d="M113.903 204.042C113.903 206.349 118.053 206.349 118.053 204.042C118.053 201.734 113.903 201.734 113.903 204.042Z" fill="#FFEFEA"/>
<path d="M0.00031662 218.222C0.00031662 220.53 4.1499 220.53 4.1499 218.222C4.1499 215.915 0.00031662 215.915 0.00031662 218.222Z" fill="#FFEFEA"/>
<path d="M11.5452 261.237C11.5452 263.545 15.6948 263.545 15.6948 261.237C15.6948 258.93 11.5452 258.93 11.5452 261.237Z" fill="#FFEFEA"/>
<path d="M7.52009 65.0711C7.52009 67.3786 11.6697 67.3786 11.6697 65.0711C11.6697 62.7636 7.52009 62.7636 7.52009 65.0711Z" fill="#FFEFEA"/>
<path d="M155.691 429.988C155.691 432.295 159.841 432.295 159.841 429.988C159.841 427.68 155.691 427.68 155.691 429.988Z" fill="#FFEFEA"/>
<path d="M160.639 602.519C160.639 604.827 164.789 604.827 164.789 602.519C164.789 600.212 160.639 600.212 160.639 602.519Z" fill="#FFEFEA"/>
<path d="M104.007 256.983C104.007 259.29 108.157 259.29 108.157 256.983C108.157 254.675 104.007 254.675 104.007 256.983Z" fill="#FFEFEA"/>
<path d="M131.222 437.55C131.222 439.858 135.371 439.858 135.371 437.55C135.371 435.243 131.222 435.243 131.222 437.55Z" fill="#FFEFEA"/>
<path d="M3.3968 582.666C3.3968 584.974 7.54639 584.974 7.54639 582.666C7.54639 580.359 3.3968 580.359 3.3968 582.666Z" fill="#FFEFEA"/>
<path d="M239.083 155.904C239.083 158.211 243.232 158.211 243.232 155.904C243.232 153.596 239.083 153.596 239.083 155.904Z" fill="#FFEFEA"/>
<path d="M302.655 263.601C302.655 265.908 306.805 265.908 306.805 263.601C306.805 261.293 302.655 261.293 302.655 263.601Z" fill="#FFEFEA"/>
<path d="M188.851 259.708C188.851 262.016 193 262.016 193 259.708C193 257.401 188.851 257.401 188.851 259.708Z" fill="#FFEFEA"/>
<path d="M233.383 38.6003C233.383 40.9078 237.533 40.9078 237.533 38.6003C237.533 36.2928 233.383 36.2928 233.383 38.6003Z" fill="#FFEFEA"/>
<path d="M311.727 384.137C311.727 386.444 315.876 386.444 315.876 384.137C315.876 381.829 311.727 381.829 311.727 384.137Z" fill="#FFEFEA"/>
<path d="M198.747 302.361C198.747 304.669 202.896 304.669 202.896 302.361C202.896 300.054 198.747 300.054 198.747 302.361Z" fill="#FFEFEA"/>
<path d="M142.669 380.355C142.669 382.663 146.818 382.663 146.818 380.355C146.818 378.048 142.669 378.048 142.669 380.355Z" fill="#FFEFEA"/>
<path d="M138.545 462.603C138.545 464.91 142.695 464.91 142.695 462.603C142.695 460.295 138.545 460.295 138.545 462.603Z" fill="#FFEFEA"/>
<path d="M254 535.397C254 537.705 258.149 537.705 258.149 535.397C258.149 533.09 254 533.09 254 535.397Z" fill="#FFEFEA"/>
<path d="M255.649 651.679C255.649 653.986 259.799 653.986 259.799 651.679C259.799 649.371 255.649 649.371 255.649 651.679Z" fill="#FFEFEA"/>
<path d="M199.571 104.193C199.571 106.501 203.721 106.501 203.721 104.193C203.721 101.886 199.571 101.886 199.571 104.193Z" fill="#FFEFEA"/>
<path d="M303.48 321.742C303.48 324.049 307.63 324.049 307.63 321.742C307.63 319.434 303.48 319.434 303.48 321.742Z" fill="#FFEFEA"/>
<path d="M315.85 472.057C315.85 474.364 320 474.364 320 472.057C320 469.749 315.85 469.749 315.85 472.057Z" fill="#FFEFEA"/>
<path d="M195.448 621.789C195.448 624.096 199.597 624.096 199.597 621.789C199.597 619.481 195.448 619.481 195.448 621.789Z" fill="#FFEFEA"/>
<path d="M277.495 5.34758C277.495 7.65509 281.645 7.65509 281.645 5.34758C281.645 3.04007 277.495 3.04007 277.495 5.34758Z" fill="#FFEFEA"/>
<path d="M291.11 36.996C291.11 39.3035 295.26 39.3035 295.26 36.996C295.26 34.6885 291.11 34.6885 291.11 36.996Z" fill="#FFEFEA"/>
<path d="M267.544 10.1728C267.544 11.68 270.462 11.68 270.462 10.1728C270.462 8.66556 267.544 8.66556 267.544 10.1728Z" fill="#FFEFEA"/>
<path d="M229.132 167.059C229.132 168.566 232.05 168.566 232.05 167.059C232.05 165.552 229.132 165.552 229.132 167.059Z" fill="#FFEFEA"/>
<path d="M175.16 169.319C175.16 170.827 178.077 170.827 178.077 169.319C178.077 167.812 175.16 167.812 175.16 169.319Z" fill="#FFEFEA"/>
<path d="M101.252 23.7365C101.252 25.2437 104.17 25.2437 104.17 23.7365C104.17 22.2293 101.252 22.2293 101.252 23.7365Z" fill="#FFEFEA"/>
<path d="M272.407 61.7144C272.407 63.2216 275.324 63.2216 275.324 61.7144C275.324 60.2072 272.407 60.2072 272.407 61.7144Z" fill="#FFEFEA"/>
<path d="M48.2527 8.36405C48.2527 9.87126 51.1704 9.87126 51.1704 8.36405C51.1704 6.85684 48.2527 6.85684 48.2527 8.36405Z" fill="#FFEFEA"/>
<path d="M287.966 113.709C287.966 115.216 290.884 115.216 290.884 113.709C290.884 112.202 287.966 112.202 287.966 113.709Z" fill="#FFEFEA"/>
<path d="M148.904 21.4759C148.904 22.9831 151.821 22.9831 151.821 21.4759C151.821 19.9687 148.904 19.9687 148.904 21.4759Z" fill="#FFEFEA"/>
<path d="M94.4053 655.332C94.4053 656.84 97.323 656.84 97.323 655.332C97.323 653.825 94.4053 653.825 94.4053 655.332Z" fill="#FFEFEA"/>
<path d="M67.2269 136.527C67.2269 138.034 70.1445 138.034 70.1445 136.527C70.1445 135.019 67.2269 135.019 67.2269 136.527Z" fill="#FFEFEA"/>
<path d="M53.7906 53.5611C53.7906 55.0683 56.7083 55.0683 56.7083 53.5611C56.7083 52.0539 53.7906 52.0539 53.7906 53.5611Z" fill="#FFEFEA"/>
<path d="M201.961 418.478C201.961 419.985 204.879 419.985 204.879 418.478C204.879 416.97 201.961 416.97 201.961 418.478Z" fill="#FFEFEA"/>
<path d="M206.909 591.009C206.909 592.517 209.827 592.517 209.827 591.009C209.827 589.502 206.909 589.502 206.909 591.009Z" fill="#FFEFEA"/>
<path d="M56.2337 195.647C56.2337 197.154 59.1514 197.154 59.1514 195.647C59.1514 194.139 56.2337 194.139 56.2337 195.647Z" fill="#FFEFEA"/>
<path d="M123.105 282.907C123.105 284.414 126.022 284.414 126.022 282.907C126.022 281.399 123.105 281.399 123.105 282.907Z" fill="#FFEFEA"/>
<path d="M13.6019 299.397C13.6019 300.905 16.5195 300.905 16.5195 299.397C16.5195 297.89 13.6019 297.89 13.6019 299.397Z" fill="#FFEFEA"/>
<path d="M16.722 143.936C16.722 145.443 19.6396 145.443 19.6396 143.936C19.6396 142.429 16.722 142.429 16.722 143.936Z" fill="#FFEFEA"/>
<path d="M113.209 335.848C113.209 337.355 116.126 337.355 116.126 335.848C116.126 334.341 113.209 334.341 113.209 335.848Z" fill="#FFEFEA"/>
<path d="M140.423 516.415C140.423 517.923 143.341 517.923 143.341 516.415C143.341 514.908 140.423 514.908 140.423 516.415Z" fill="#FFEFEA"/>
<path d="M12.5982 661.531C12.5982 663.038 15.5159 663.038 15.5159 661.531C15.5159 660.024 12.5982 660.024 12.5982 661.531Z" fill="#FFEFEA"/>
<path d="M62.9517 276.162C62.9517 277.669 65.8694 277.669 65.8694 276.162C65.8694 274.655 62.9517 274.655 62.9517 276.162Z" fill="#FFEFEA"/>
<path d="M254.725 101.128C254.725 102.636 257.642 102.636 257.642 101.128C257.642 99.6211 254.725 99.6211 254.725 101.128Z" fill="#FFEFEA"/>
<path d="M178.563 6.55582C178.563 8.06303 181.481 8.06303 181.481 6.55582C181.481 5.04861 178.563 5.04861 178.563 6.55582Z" fill="#FFEFEA"/>
<path d="M208.71 159.373C208.71 160.88 211.628 160.88 211.628 159.373C211.628 157.866 208.71 157.866 208.71 159.373Z" fill="#FFEFEA"/>
<path d="M275.581 246.633C275.581 248.14 278.499 248.14 278.499 246.633C278.499 245.126 275.581 245.126 275.581 246.633Z" fill="#FFEFEA"/>
<path d="M158.478 263.177C158.478 264.684 161.395 264.684 161.395 263.177C161.395 261.67 158.478 261.67 158.478 263.177Z" fill="#FFEFEA"/>
<path d="M203.01 42.0694C203.01 43.5766 205.927 43.5766 205.927 42.0694C205.927 40.5622 203.01 40.5622 203.01 42.0694Z" fill="#FFEFEA"/>
<path d="M290.425 363.971C290.425 365.478 293.343 365.478 293.343 363.971C293.343 362.464 290.425 362.464 290.425 363.971Z" fill="#FFEFEA"/>
<path d="M282.446 341.467C282.446 342.974 285.364 342.974 285.364 341.467C285.364 339.96 282.446 339.96 282.446 341.467Z" fill="#FFEFEA"/>
<path d="M294.816 306.488C294.816 307.995 297.734 307.995 297.734 306.488C297.734 304.981 294.816 304.981 294.816 306.488Z" fill="#FFEFEA"/>
<path d="M168.373 305.83C168.373 307.337 171.291 307.337 171.291 305.83C171.291 304.323 168.373 304.323 168.373 305.83Z" fill="#FFEFEA"/>
<path d="M84.5242 186.897C84.5242 188.405 87.4419 188.405 87.4419 186.897C87.4419 185.39 84.5242 185.39 84.5242 186.897Z" fill="#FFEFEA"/>
<path d="M156.271 182.171C156.271 183.678 159.188 183.678 159.188 182.171C159.188 180.663 156.271 180.663 156.271 182.171Z" fill="#FFEFEA"/>
<path d="M108.172 466.072C108.172 467.579 111.09 467.579 111.09 466.072C111.09 464.565 108.172 464.565 108.172 466.072Z" fill="#FFEFEA"/>
<path d="M223.627 538.866C223.627 540.373 226.544 540.373 226.544 538.866C226.544 537.359 223.627 537.359 223.627 538.866Z" fill="#FFEFEA"/>
<path d="M225.276 655.148C225.276 656.655 228.194 656.655 228.194 655.148C228.194 653.64 225.276 653.64 225.276 655.148Z" fill="#FFEFEA"/>
<path d="M169.198 107.662C169.198 109.17 172.116 109.17 172.116 107.662C172.116 106.155 169.198 106.155 169.198 107.662Z" fill="#FFEFEA"/>
<path d="M265.685 299.574C265.685 301.081 268.603 301.081 268.603 299.574C268.603 298.067 265.685 298.067 265.685 299.574Z" fill="#FFEFEA"/>
<path d="M292.899 480.142C292.899 481.649 295.817 481.649 295.817 480.142C295.817 478.635 292.899 478.635 292.899 480.142Z" fill="#FFEFEA"/>
<path d="M165.075 625.258C165.075 626.765 167.992 626.765 167.992 625.258C167.992 623.75 165.075 623.75 165.075 625.258Z" fill="#FFEFEA"/>
<path d="M154.252 139.479C154.252 140.986 157.169 140.986 157.169 139.479C157.169 137.972 154.252 137.972 154.252 139.479Z" fill="#FFEFEA"/>
<path d="M221.123 226.74C221.123 228.247 224.041 228.247 224.041 226.74C224.041 225.232 221.123 225.232 221.123 226.74Z" fill="#FFEFEA"/>
<path d="M104.019 243.284C104.019 244.791 106.937 244.791 106.937 243.284C106.937 241.777 104.019 241.777 104.019 243.284Z" fill="#FFEFEA"/>
<path d="M114.74 87.7688C114.74 89.276 117.658 89.276 117.658 87.7688C117.658 86.2616 114.74 86.2616 114.74 87.7688Z" fill="#FFEFEA"/>
<path d="M262.911 452.686C262.911 454.193 265.828 454.193 265.828 452.686C265.828 451.178 262.911 451.178 262.911 452.686Z" fill="#FFEFEA"/>
<path d="M267.859 625.217C267.859 626.725 270.777 626.725 270.777 625.217C270.777 623.71 267.859 623.71 267.859 625.217Z" fill="#FFEFEA"/>
<path d="M211.227 279.681C211.227 281.188 214.145 281.188 214.145 279.681C214.145 278.174 211.227 278.174 211.227 279.681Z" fill="#FFEFEA"/>
<path d="M238.441 460.248C238.441 461.755 241.359 461.755 241.359 460.248C241.359 458.741 238.441 458.741 238.441 460.248Z" fill="#FFEFEA"/>
<path d="M110.617 605.364C110.617 606.871 113.534 606.871 113.534 605.364C113.534 603.857 110.617 603.857 110.617 605.364Z" fill="#FFEFEA"/>
</svg>
