<svg width="72" height="114" viewBox="0 0 72 114" fill="none" xmlns="http://www.w3.org/2000/svg">
<g clip-path="url(#clip0_1402_5726)">
<path d="M50.4423 62.9014C54.5304 65.5316 60.1375 65.6066 64.2953 63.0867C64.4618 62.2937 64.6284 61.5008 64.7949 60.7079C65.7751 61.7201 67.7026 61.5291 68.4625 60.3443C64.4867 51.9145 58.6511 44.4841 51.3895 38.6052C53.4871 39.9027 56.5159 39.4145 58.0939 37.5247C60.4668 36.7279 62.7137 35.5998 64.7673 34.1742C57.7249 22.9244 44.296 13.9872 41.1041 1.12195C31.5014 11.3749 30.4235 14.9858 20.8208 25.2388C20.8208 25.2388 11.7282 33.3964 9.76562 37.7805C10.2478 38.2841 14.565 39.4927 14.731 40.4829C16.3828 40.6035 18.0413 40.3688 19.5937 39.795C21.1461 39.2211 22.5559 38.3215 23.7273 37.1573C17.5551 43.6793 11.2775 50.3539 7.49766 58.4824C7.15728 59.2144 6.834 60.0502 7.11915 60.8052C7.34681 61.4079 8.16351 61.7554 8.68951 61.5159C8.06117 62.1185 7.55666 62.8368 7.20406 63.6308C9.35349 65.0753 12.5233 64.7578 14.3399 62.9162C13.8134 63.8942 13.2869 64.8722 12.7604 65.8501C14.5546 66.5005 16.46 66.793 18.3679 66.711C20.2757 66.629 22.1487 66.174 23.8796 65.372C19.7092 67.9733 9.28117 76.992 7.0096 81.3347C5.98055 83.302 16.5466 85.6735 18.9232 85.5763C21.2998 85.479 23.5212 84.4408 25.6677 83.4218C25.5631 84.3949 25.7503 85.377 26.2057 86.2446C27.3813 86.5282 28.6019 86.5755 29.796 86.3835C30.9902 86.1916 32.1337 85.7643 33.1594 85.1269C33.0313 87.7587 37.5934 88.8003 38.633 86.3766C38.243 87.8014 40.1393 88.6835 41.6016 88.9416C45.774 89.678 50.809 90.1258 53.524 86.8908C56.6489 90.0236 62.3753 89.9641 65.482 86.8423C65.1763 87.3809 65.6443 88.2872 66.3366 88.43C67.1524 88.5983 67.9461 88.1164 68.6388 87.6559C71.7745 85.5716 66.192 81.9592 69.3277 79.8748C60.1265 73.7077 59.6435 69.0686 50.4423 62.9014Z" fill="#57B894"/>
<path d="M39.6052 111.515L35.7682 113.086L35.7213 81.0519H39.8794L39.6052 111.515Z" fill="#57B894"/>
<path d="M24.9734 28.1412C25.6773 28.1412 26.2479 27.5738 26.2479 26.8739C26.2479 26.1741 25.6773 25.6067 24.9734 25.6067C24.2694 25.6067 23.6988 26.1741 23.6988 26.8739C23.6988 27.5738 24.2694 28.1412 24.9734 28.1412Z" fill="#E6E7E8"/>
<path d="M31.6121 58.8086C32.316 58.8086 32.8867 58.2413 32.8867 57.5414C32.8867 56.8415 32.316 56.2741 31.6121 56.2741C30.9082 56.2741 30.3375 56.8415 30.3375 57.5414C30.3375 58.2413 30.9082 58.8086 31.6121 58.8086Z" fill="white"/>
<path d="M37.8008 35.7448C38.5047 35.7448 39.0753 35.1774 39.0753 34.4775C39.0753 33.7776 38.5047 33.2103 37.8008 33.2103C37.0968 33.2103 36.5262 33.7776 36.5262 34.4775C36.5262 35.1774 37.0968 35.7448 37.8008 35.7448Z" fill="#E6E7E8"/>
<path d="M14.7764 57.5415C15.4803 57.5415 16.051 56.9741 16.051 56.2742C16.051 55.5743 15.4803 55.007 14.7764 55.007C14.0725 55.007 13.5018 55.5743 13.5018 56.2742C13.5018 56.9741 14.0725 57.5415 14.7764 57.5415Z" fill="white"/>
<path d="M37.8006 73.8794C38.5045 73.8794 39.0751 73.3121 39.0751 72.6122C39.0751 71.9123 38.5045 71.345 37.8006 71.345C37.0967 71.345 36.526 71.9123 36.526 72.6122C36.526 73.3121 37.0967 73.8794 37.8006 73.8794Z" fill="#E6E7E8"/>
<path d="M68.3573 91.8001C70.3554 91.8001 71.9752 90.1897 71.9752 88.2031C71.9752 86.2165 70.3554 84.606 68.3573 84.606C66.3593 84.606 64.7395 86.2165 64.7395 88.2031C64.7395 90.1897 66.3593 91.8001 68.3573 91.8001Z" fill="#6C63FF"/>
<path d="M46.0631 94.3345C48.0612 94.3345 49.6809 92.7241 49.6809 90.7375C49.6809 88.7509 48.0612 87.1404 46.0631 87.1404C44.065 87.1404 42.4453 88.7509 42.4453 90.7375C42.4453 92.7241 44.065 94.3345 46.0631 94.3345Z" fill="#FF6584"/>
<path d="M6.20279 87.1835C8.20086 87.1835 9.82062 85.5731 9.82062 83.5865C9.82062 81.5998 8.20086 79.9894 6.20279 79.9894C4.20472 79.9894 2.58496 81.5998 2.58496 83.5865C2.58496 85.5731 4.20472 87.1835 6.20279 87.1835Z" fill="#FF6584"/>
<path d="M4.06924 63.6729C6.06731 63.6729 7.68707 62.0625 7.68707 60.0759C7.68707 58.0893 6.06731 56.4788 4.06924 56.4788C2.07117 56.4788 0.451416 58.0893 0.451416 60.0759C0.451416 62.0625 2.07117 63.6729 4.06924 63.6729Z" fill="#6C63FF"/>
<path d="M64.7677 37.7715C66.7658 37.7715 68.3856 36.161 68.3856 34.1744C68.3856 32.1878 66.7658 30.5773 64.7677 30.5773C62.7697 30.5773 61.1499 32.1878 61.1499 34.1744C61.1499 36.161 62.7697 37.7715 64.7677 37.7715Z" fill="#FF6584"/>
<path d="M13.5025 40.4043C15.5006 40.4043 17.1204 38.7939 17.1204 36.8073C17.1204 34.8207 15.5006 33.2102 13.5025 33.2102C11.5045 33.2102 9.8847 34.8207 9.8847 36.8073C9.8847 38.7939 11.5045 40.4043 13.5025 40.4043Z" fill="#6C63FF"/>
<path d="M38.286 13.4411C38.9899 13.4411 39.5606 12.8737 39.5606 12.1738C39.5606 11.4739 38.9899 10.9066 38.286 10.9066C37.5821 10.9066 37.0114 11.4739 37.0114 12.1738C37.0114 12.8737 37.5821 13.4411 38.286 13.4411Z" fill="white"/>
<path d="M28.4198 16.3515C32.9535 20.4965 39.8344 21.6564 45.5932 19.6208C47.229 19.0448 48.7584 18.2051 50.1201 17.1354L49.5883 16.7274C47.8388 20.3505 44.9694 23.322 41.3998 25.2077C37.6132 27.1851 33.2538 27.7948 29.0655 26.9325C26.6396 26.4423 24.3352 25.4799 22.285 24.1006C22.0556 23.9458 21.6742 24.2086 21.7877 24.4807C23.8778 29.4967 26.2586 34.5802 30.2522 38.3998C33.7538 41.7488 38.472 43.9991 43.4159 43.3731C46.0311 43.042 48.5375 41.961 50.3959 40.0729L49.8642 40.0048C51.1492 42.6835 50.8352 45.8416 49.5569 48.4619C48.1631 51.319 45.7124 53.4121 42.7888 54.6343C39.6898 55.9298 36.2455 56.2697 32.9141 56.0507C25.611 55.5357 18.7033 52.558 13.3332 47.6099C13.2743 47.5549 13.1976 47.5225 13.1168 47.5186C13.0361 47.5147 12.9565 47.5396 12.8925 47.5887C12.8285 47.6378 12.7842 47.7079 12.7675 47.7866C12.7508 47.8652 12.7629 47.9472 12.8015 48.0179C14.8102 52.1283 16.8247 56.2476 19.2272 60.149C21.4748 63.7989 24.0718 67.2623 27.2177 70.1985C30.1592 72.9439 33.5623 75.2353 37.3506 76.6522C40.9416 78.0142 44.8268 78.426 48.6259 77.8475C52.2632 77.278 55.7875 75.7253 58.4575 73.1729C58.7963 72.849 59.1186 72.5091 59.427 72.1565L58.8491 71.9184C58.5651 75.1068 56.7374 77.9577 54.306 79.9816C51.5792 82.2514 48.0684 83.3942 44.5823 83.836C40.9927 84.2551 37.3609 84.1544 33.8004 83.5371C30.3422 82.9678 26.9684 81.974 23.7564 80.5784C20.1203 78.9999 16.7289 76.9142 13.6847 74.3842C13.3529 74.1076 12.8715 74.5814 13.2059 74.8602C18.8151 79.5211 25.5309 82.6767 32.7138 84.0266C36.3439 84.7337 40.0562 84.9277 43.7408 84.6028C47.3895 84.2499 51.0893 83.2327 54.062 81.0249C57.0004 78.8425 59.1976 75.6082 59.5262 71.9184C59.5248 71.8525 59.5041 71.7884 59.4667 71.734C59.4292 71.6795 59.3767 71.6371 59.3154 71.6118C59.2541 71.5866 59.1867 71.5796 59.1216 71.5918C59.0564 71.604 58.9961 71.6348 58.9483 71.6804C56.5491 74.4232 53.2389 76.1818 49.6917 76.964C46.0479 77.7454 42.2611 77.5551 38.7151 76.4124C34.9243 75.2098 31.4821 73.0712 28.5119 70.4611C25.3687 67.6989 22.7551 64.4129 20.5017 60.9062C18.0919 57.1561 16.0802 53.1728 14.12 49.1777C13.8749 48.6781 13.6302 48.1782 13.3861 47.6781L12.8544 48.086C18.1314 52.9415 24.8599 55.9493 32.0151 56.6511C38.5871 57.2798 46.2737 55.6435 49.7716 49.502C51.4705 46.5191 51.9631 42.8214 50.4489 39.665C50.4224 39.6209 50.3862 39.5834 50.343 39.5553C50.2998 39.5272 50.2508 39.5092 50.1996 39.5026C50.1484 39.496 50.0964 39.5011 50.0475 39.5174C49.9986 39.5338 49.954 39.5609 49.9171 39.5969C46.6779 42.8878 41.537 43.5128 37.2867 42.0521C32.5843 40.4361 28.994 36.6584 26.4627 32.5219C24.8666 29.9138 23.6139 27.1175 22.4406 24.3018L21.9433 24.6819C25.7239 27.2071 30.2725 28.3413 34.8042 27.8887C38.0794 27.531 41.209 26.3498 43.8979 24.4565C46.5868 22.5632 48.7464 20.0202 50.173 17.0672C50.2115 16.9966 50.2234 16.9147 50.2066 16.8362C50.1899 16.7576 50.1456 16.6875 50.0816 16.6385C50.0177 16.5894 49.9383 16.5646 49.8576 16.5684C49.7769 16.5722 49.7003 16.6045 49.6413 16.6593C45.0326 20.2839 38.3425 20.8765 33.0165 18.5381C31.5066 17.8806 30.1155 16.9811 28.8986 15.8755C28.5783 15.5826 28.0982 16.0575 28.4198 16.3515L28.4198 16.3515Z" fill="#3C9A9D"/>
</g>
<defs>
<clipPath id="clip0_1402_5726">
<rect width="72" height="114" fill="white"/>
</clipPath>
</defs>
</svg>
