<svg width="108" height="171" viewBox="0 0 108 171" fill="none" xmlns="http://www.w3.org/2000/svg">
<g clip-path="url(#clip0_1398_7063)">
<path d="M75.6633 94.352C81.7956 98.2974 90.2061 98.4099 96.4429 94.6299C96.6927 93.4405 96.9425 92.2511 97.1923 91.0617C98.6626 92.5801 101.554 92.2936 102.694 90.5164C96.7299 77.8717 87.9765 66.726 77.0842 57.9078C80.2305 59.8539 84.7738 59.1218 87.1407 56.2871C90.7001 55.0919 94.0705 53.3997 97.1508 51.2613C86.5872 34.3866 66.4439 20.9807 61.656 1.68286C47.2521 17.0622 45.6351 22.4787 31.2311 37.8581C31.2311 37.8581 17.5922 50.0946 14.6483 56.6707C15.3717 57.4261 21.8474 59.239 22.0964 60.7243C24.5741 60.9051 27.0619 60.5532 29.3905 59.6924C31.7191 58.8316 33.8338 57.4822 35.5909 55.7359C26.3326 65.5189 16.9162 75.5309 11.2464 87.7236C10.7358 88.8216 10.2509 90.0753 10.6786 91.2077C11.0201 92.1118 12.2452 92.6331 13.0342 92.2739C12.0917 93.1777 11.3349 94.2551 10.806 95.4461C14.0301 97.6128 18.7849 97.1367 21.5097 94.3743C20.72 95.8412 19.9303 97.3082 19.1406 98.7751C21.8317 99.7507 24.6899 100.19 27.5517 100.066C30.4135 99.9434 33.2229 99.2609 35.8193 98.0579C29.5636 101.96 13.9217 115.488 10.5143 122.002C8.97073 124.953 24.8198 128.51 28.3847 128.364C31.9495 128.218 35.2817 126.661 38.5014 125.133C38.3445 126.592 38.6253 128.065 39.3085 129.367C41.0718 129.792 42.9028 129.863 44.694 129.575C46.4852 129.287 48.2004 128.646 49.739 127.69C49.5469 131.638 56.3901 133.2 57.9494 129.565C57.3644 131.702 60.2089 133.025 62.4023 133.412C68.6609 134.517 76.2135 135.189 80.286 130.336C84.9732 135.035 93.5628 134.946 98.223 130.263C97.7643 131.071 98.4663 132.431 99.5047 132.645C100.729 132.897 101.919 132.174 102.958 131.484C107.662 128.357 99.288 122.939 103.992 119.812C90.1897 110.561 89.4651 103.603 75.6633 94.352Z" fill="#57B894"/>
<path d="M59.4077 167.273L53.6522 169.629L53.5818 121.578H59.819L59.4077 167.273Z" fill="#57B894"/>
<path d="M37.4601 42.2118C38.516 42.2118 39.3719 41.3607 39.3719 40.3109C39.3719 39.2611 38.516 38.41 37.4601 38.41C36.4042 38.41 35.5482 39.2611 35.5482 40.3109C35.5482 41.3607 36.4042 42.2118 37.4601 42.2118Z" fill="#E6E7E8"/>
<path d="M47.4182 88.2129C48.4741 88.2129 49.3301 87.3618 49.3301 86.312C49.3301 85.2622 48.4741 84.4111 47.4182 84.4111C46.3623 84.4111 45.5063 85.2622 45.5063 86.312C45.5063 87.3618 46.3623 88.2129 47.4182 88.2129Z" fill="white"/>
<path d="M56.7012 53.6171C57.7571 53.6171 58.613 52.7661 58.613 51.7162C58.613 50.6664 57.7571 49.8154 56.7012 49.8154C55.6453 49.8154 54.7893 50.6664 54.7893 51.7162C54.7893 52.7661 55.6453 53.6171 56.7012 53.6171Z" fill="#E6E7E8"/>
<path d="M22.1645 86.3122C23.2204 86.3122 24.0764 85.4611 24.0764 84.4113C24.0764 83.3615 23.2204 82.5104 22.1645 82.5104C21.1087 82.5104 20.2527 83.3615 20.2527 84.4113C20.2527 85.4611 21.1087 86.3122 22.1645 86.3122Z" fill="white"/>
<path d="M56.7008 110.819C57.7567 110.819 58.6127 109.968 58.6127 108.918C58.6127 107.868 57.7567 107.017 56.7008 107.017C55.6449 107.017 54.7889 107.868 54.7889 108.918C54.7889 109.968 55.6449 110.819 56.7008 110.819Z" fill="#E6E7E8"/>
<path d="M102.536 137.7C105.533 137.7 107.963 135.285 107.963 132.305C107.963 129.325 105.533 126.909 102.536 126.909C99.5389 126.909 97.1093 129.325 97.1093 132.305C97.1093 135.285 99.5389 137.7 102.536 137.7Z" fill="#6C63FF"/>
<path d="M69.0947 141.502C72.0918 141.502 74.5215 139.086 74.5215 136.106C74.5215 133.126 72.0918 130.711 69.0947 130.711C66.0976 130.711 63.668 133.126 63.668 136.106C63.668 139.086 66.0976 141.502 69.0947 141.502Z" fill="#FF6584"/>
<path d="M9.30419 130.775C12.3013 130.775 14.7309 128.36 14.7309 125.38C14.7309 122.4 12.3013 119.984 9.30419 119.984C6.30708 119.984 3.87744 122.4 3.87744 125.38C3.87744 128.36 6.30708 130.775 9.30419 130.775Z" fill="#FF6584"/>
<path d="M6.10387 95.5094C9.10097 95.5094 11.5306 93.0937 11.5306 90.1138C11.5306 87.1339 9.10097 84.7182 6.10387 84.7182C3.10676 84.7182 0.677124 87.1339 0.677124 90.1138C0.677124 93.0937 3.10676 95.5094 6.10387 95.5094Z" fill="#6C63FF"/>
<path d="M97.1516 56.6572C100.149 56.6572 102.578 54.2415 102.578 51.2616C102.578 48.2817 100.149 45.866 97.1516 45.866C94.1545 45.866 91.7249 48.2817 91.7249 51.2616C91.7249 54.2415 94.1545 56.6572 97.1516 56.6572Z" fill="#FF6584"/>
<path d="M20.2538 60.6065C23.2509 60.6065 25.6805 58.1908 25.6805 55.2109C25.6805 52.2311 23.2509 49.8154 20.2538 49.8154C17.2567 49.8154 14.827 52.2311 14.827 55.2109C14.827 58.1908 17.2567 60.6065 20.2538 60.6065Z" fill="#6C63FF"/>
<path d="M57.4289 20.1616C58.4848 20.1616 59.3408 19.3106 59.3408 18.2607C59.3408 17.2109 58.4848 16.3599 57.4289 16.3599C56.3731 16.3599 55.5171 17.2109 55.5171 18.2607C55.5171 19.3106 56.3731 20.1616 57.4289 20.1616Z" fill="white"/>
<path d="M42.6297 24.5272C49.4303 30.7446 59.7516 32.4846 68.3897 29.4312C70.8435 28.5672 73.1376 27.3076 75.1801 25.703L74.3825 25.0911C71.7581 30.5256 67.4541 34.9829 62.0997 37.8115C56.4198 40.7776 49.8806 41.6921 43.5982 40.3987C39.9594 39.6634 36.5028 38.2198 33.4275 36.1508C33.0833 35.9186 32.5113 36.3128 32.6815 36.7211C35.8167 44.2451 39.3878 51.8703 45.3783 57.5997C50.6307 62.6231 57.708 65.9987 65.1238 65.0596C69.0466 64.5629 72.8063 62.9414 75.5938 60.1093L74.7962 60.0071C76.7238 64.0251 76.2528 68.7623 74.3354 72.6928C72.2446 76.9785 68.5686 80.1181 64.1832 81.9514C59.5347 83.8947 54.3682 84.4045 49.3712 84.076C38.4164 83.3034 28.0549 78.8369 19.9998 71.4149C19.9114 71.3323 19.7963 71.2837 19.6752 71.2779C19.5541 71.2721 19.4348 71.3093 19.3388 71.383C19.2428 71.4566 19.1763 71.5619 19.1512 71.6798C19.1262 71.7978 19.1443 71.9208 19.2022 72.0267C22.2153 78.1924 25.2371 84.3714 28.8408 90.2235C32.2122 95.6984 36.1076 100.893 40.8265 105.298C45.2388 109.416 50.3434 112.853 56.0258 114.978C61.4124 117.021 67.2401 117.639 72.9389 116.771C78.3948 115.917 83.6812 113.588 87.6862 109.759C88.1944 109.273 88.6779 108.764 89.1405 108.235L88.2736 107.878C87.8476 112.66 85.1061 116.937 81.4589 119.972C77.3688 123.377 72.1026 125.091 66.8734 125.754C61.489 126.383 56.0414 126.232 50.7006 125.306C45.5132 124.452 40.4526 122.961 35.6346 120.868C30.1804 118.5 25.0934 115.371 20.5271 111.576C20.0294 111.161 19.3072 111.872 19.8089 112.29C28.2226 119.282 38.2963 124.015 49.0707 126.04C54.5158 127.101 60.0842 127.391 65.6111 126.904C71.0843 126.375 76.634 124.849 81.093 121.537C85.5006 118.264 88.7963 113.412 89.2893 107.878C89.2872 107.779 89.2562 107.683 89.2 107.601C89.1438 107.519 89.065 107.456 88.9731 107.418C88.8811 107.38 88.7801 107.369 88.6823 107.388C88.5845 107.406 88.4942 107.452 88.4224 107.521C84.8236 111.635 79.8583 114.273 74.5376 115.446C69.0719 116.618 63.3916 116.333 58.0727 114.619C52.3865 112.815 47.2232 109.607 42.7679 105.692C38.053 101.548 34.1327 96.6192 30.7526 91.3592C27.1379 85.7342 24.1203 79.7592 21.18 73.7665C20.8123 73.0171 20.4453 72.2673 20.0792 71.5171L19.2816 72.1289C27.1971 79.4123 37.2898 83.9239 48.0227 84.9766C57.8807 85.9196 69.4106 83.4652 74.6574 74.253C77.2057 69.7786 77.9446 64.2321 75.6733 59.4974C75.6335 59.4313 75.5793 59.3751 75.5145 59.3329C75.4497 59.2907 75.3762 59.2637 75.2994 59.2538C75.2226 59.244 75.1446 59.2516 75.0712 59.2761C74.9978 59.3006 74.9309 59.3413 74.8757 59.3952C70.0169 64.3317 62.3054 65.2692 55.93 63.0781C48.8764 60.6541 43.491 54.9875 39.694 48.7828C37.2999 44.8707 35.4208 40.6761 33.6609 36.4526L32.9149 37.0228C38.5859 40.8107 45.4087 42.5119 52.2063 41.833C57.1191 41.2964 61.8134 39.5246 65.8468 36.6847C69.8801 33.8447 73.1195 30.0302 75.2595 25.6008C75.3172 25.4949 75.335 25.372 75.3099 25.2542C75.2848 25.1364 75.2183 25.0313 75.1224 24.9577C75.0265 24.8841 74.9074 24.8469 74.7864 24.8526C74.6654 24.8583 74.5504 24.9066 74.4619 24.9889C67.5488 30.4259 57.5137 31.3148 49.5248 27.8071C47.2598 26.8208 45.1732 25.4716 43.3479 23.8132C42.8674 23.3739 42.1473 24.0862 42.6297 24.5272L42.6297 24.5272Z" fill="#3C9A9D"/>
</g>
<defs>
<clipPath id="clip0_1398_7063">
<rect width="108" height="171" fill="white"/>
</clipPath>
</defs>
</svg>
