<svg width="1439" height="403" viewBox="0 0 1439 403" fill="none" xmlns="http://www.w3.org/2000/svg">
<path d="M64.684 223.224C69.6241 223.224 69.6241 218.011 64.684 218.011C59.744 218.011 59.744 223.224 64.684 223.224Z" fill="#FFEFEA"/>
<path d="M1421.68 291.693C1426.62 291.693 1426.62 286.48 1421.68 286.48C1416.74 286.48 1416.74 291.693 1421.68 291.693Z" fill="#FFEFEA"/>
<path d="M310.991 325.839C315.931 325.839 315.931 320.625 310.991 320.625C306.051 320.625 306.051 325.839 310.991 325.839Z" fill="#FFEFEA"/>
<path d="M133.373 342.719C138.314 342.719 138.314 337.506 133.373 337.506C128.433 337.506 128.433 342.719 133.373 342.719Z" fill="#FFEFEA"/>
<path d="M914.606 156.565C919.546 156.565 919.546 151.352 914.606 151.352C909.666 151.352 909.666 156.565 914.606 156.565Z" fill="#FFEFEA"/>
<path d="M1283.97 150.348C1288.91 150.348 1288.91 145.135 1283.97 145.135C1279.03 145.135 1279.03 150.348 1283.97 150.348Z" fill="#FFEFEA"/>
<path d="M437.557 339.65C442.497 339.65 442.497 334.437 437.557 334.437C432.617 334.437 432.617 339.65 437.557 339.65Z" fill="#FFEFEA"/>
<path d="M624.368 255.636C629.308 255.636 629.308 250.423 624.368 250.423C619.428 250.423 619.428 255.636 624.368 255.636Z" fill="#FFEFEA"/>
<path d="M151.009 199.688C155.949 199.688 155.949 194.475 151.009 194.475C146.069 194.475 146.069 199.688 151.009 199.688Z" fill="#FFEFEA"/>
<path d="M932.241 13.5335C937.181 13.5335 937.181 8.32019 932.241 8.32019C927.301 8.32019 927.301 13.5335 932.241 13.5335Z" fill="#FFEFEA"/>
<path d="M447.513 21.8222C452.453 21.8222 452.453 16.6089 447.513 16.6089C442.573 16.6089 442.573 21.8222 447.513 21.8222Z" fill="#FFEFEA"/>
<path d="M992.959 385.486C997.899 385.486 997.899 380.273 992.959 380.273C988.019 380.273 988.019 385.486 992.959 385.486Z" fill="#FFEFEA"/>
<path d="M1173.31 380.355C1177.79 378.21 1175.63 373.488 1171.15 375.634C1166.68 377.779 1168.84 382.5 1173.31 380.355Z" fill="#FFEFEA"/>
<path d="M1241.82 198.005C1246.3 195.859 1244.14 191.138 1239.66 193.284C1235.19 195.429 1237.35 200.15 1241.82 198.005Z" fill="#FFEFEA"/>
<path d="M1301.61 7.31709C1306.55 7.31709 1306.55 2.10376 1301.61 2.10376C1296.67 2.10376 1296.67 7.31709 1301.61 7.31709Z" fill="#FFEFEA"/>
<path d="M715.682 243.203C720.622 243.203 720.622 237.99 715.682 237.99C710.742 237.99 710.742 243.203 715.682 243.203Z" fill="#FFEFEA"/>
<path d="M882.655 313.657C887.595 313.657 887.595 308.443 882.655 308.443C877.715 308.443 877.715 313.657 882.655 313.657Z" fill="#FFEFEA"/>
<path d="M1058.74 318.837C1063.68 318.837 1063.68 313.624 1058.74 313.624C1053.8 313.624 1053.8 318.837 1058.74 318.837Z" fill="#FFEFEA"/>
<path d="M1214.58 173.786C1219.52 173.786 1219.52 168.573 1214.58 168.573C1209.64 168.573 1209.64 173.786 1214.58 173.786Z" fill="#FFEFEA"/>
<path d="M686.777 397.887C691.717 397.887 691.717 392.674 686.777 392.674C681.837 392.674 681.837 397.887 686.777 397.887Z" fill="#FFEFEA"/>
<path d="M326.852 389.29C331.793 389.29 331.793 384.077 326.852 384.077C321.912 384.077 321.912 389.29 326.852 389.29Z" fill="#FFEFEA"/>
<path d="M239.491 389.599C244.431 389.599 244.431 384.385 239.491 384.385C234.551 384.385 234.551 389.599 239.491 389.599Z" fill="#FFEFEA"/>
<path d="M737.707 268.069C742.648 268.069 742.648 262.856 737.707 262.856C732.767 262.856 732.767 268.069 737.707 268.069Z" fill="#FFEFEA"/>
<path d="M1124.28 233.878C1129.22 233.878 1129.22 228.665 1124.28 228.665C1119.34 228.665 1119.34 233.878 1124.28 233.878Z" fill="#FFEFEA"/>
<path d="M1434.95 394.471C1439.89 394.471 1439.89 389.258 1434.95 389.258C1430.01 389.258 1430.01 394.471 1434.95 394.471Z" fill="#FFEFEA"/>
<path d="M609.929 331.21C614.869 331.21 614.869 325.996 609.929 325.996C604.989 325.996 604.989 331.21 609.929 331.21Z" fill="#FFEFEA"/>
<path d="M136.569 275.262C141.509 275.262 141.509 270.048 136.569 270.048C131.629 270.048 131.629 275.262 136.569 275.262Z" fill="#FFEFEA"/>
<path d="M920.539 59.0894C925.479 59.0894 925.479 53.8761 920.539 53.8761C915.599 53.8761 915.599 59.0894 920.539 59.0894Z" fill="#FFEFEA"/>
<path d="M1287.17 82.8907C1292.11 82.8907 1292.11 77.6774 1287.17 77.6774C1282.23 77.6774 1282.23 82.8907 1287.17 82.8907Z" fill="#FFEFEA"/>
<path d="M825.713 165.437C830.653 165.437 830.653 160.224 825.713 160.224C820.773 160.224 820.773 165.437 825.713 165.437Z" fill="#FFEFEA"/>
<path d="M701.242 318.777C706.182 318.777 706.182 313.564 701.242 313.564C696.302 313.564 696.302 318.777 701.242 318.777Z" fill="#FFEFEA"/>
<path d="M868.215 389.23C873.155 389.23 873.155 384.017 868.215 384.017C863.275 384.017 863.275 389.23 868.215 389.23Z" fill="#FFEFEA"/>
<path d="M1044.3 394.411C1049.24 394.411 1049.24 389.197 1044.3 389.197C1039.36 389.197 1039.36 394.411 1044.3 394.411Z" fill="#FFEFEA"/>
<path d="M1200.14 249.36C1205.08 249.36 1205.08 244.146 1200.14 244.146C1195.2 244.146 1195.2 249.36 1200.14 249.36Z" fill="#FFEFEA"/>
<path d="M235.208 90.2761C240.148 90.2761 240.148 85.0627 235.208 85.0627C230.268 85.0627 230.268 90.2761 235.208 90.2761Z" fill="#FFEFEA"/>
<path d="M286.339 45.4589C291.279 45.4589 291.279 40.2456 286.339 40.2456C281.399 40.2456 281.399 45.4589 286.339 45.4589Z" fill="#FFEFEA"/>
<path d="M9.5124 112.044C14.4524 112.044 14.4524 106.831 9.5124 106.831C4.57236 106.831 4.57236 112.044 9.5124 112.044Z" fill="#FFEFEA"/>
<path d="M356.03 191.459C360.97 191.459 360.97 186.246 356.03 186.246C351.09 186.246 351.09 191.459 356.03 191.459Z" fill="#FFEFEA"/>
<path d="M542.841 107.445C547.781 107.445 547.781 102.232 542.841 102.232C537.9 102.232 537.9 107.445 542.841 107.445Z" fill="#FFEFEA"/>
<path d="M578.259 254.569C583.199 254.569 583.199 249.355 578.259 249.355C573.319 249.355 573.319 254.569 578.259 254.569Z" fill="#FFEFEA"/>
<path d="M104.9 198.62C109.84 198.62 109.84 193.407 104.9 193.407C99.9598 193.407 99.9598 198.62 104.9 198.62Z" fill="#FFEFEA"/>
<path d="M875.001 24.8989C879.941 24.8989 879.941 19.6855 875.001 19.6855C870.061 19.6855 870.061 24.8989 875.001 24.8989Z" fill="#FFEFEA"/>
<path d="M401.404 20.7545C406.344 20.7545 406.344 15.5411 401.404 15.5411C396.464 15.5411 396.464 20.7545 401.404 20.7545Z" fill="#FFEFEA"/>
<path d="M946.85 384.418C951.79 384.418 951.79 379.205 946.85 379.205C941.91 379.205 941.91 384.418 946.85 384.418Z" fill="#FFEFEA"/>
<path d="M1111.59 380.355C1116.06 378.21 1113.9 373.488 1109.43 375.634C1104.95 377.779 1107.11 382.5 1111.59 380.355Z" fill="#FFEFEA"/>
<path d="M1199.63 217.061C1204.1 214.916 1201.94 210.194 1197.47 212.34C1192.99 214.485 1195.15 219.206 1199.63 217.061Z" fill="#FFEFEA"/>
<path d="M1255.5 6.24946C1260.44 6.24946 1260.44 1.03613 1255.5 1.03613C1250.56 1.03613 1250.56 6.24946 1255.5 6.24946Z" fill="#FFEFEA"/>
<path d="M797.08 77.739C802.02 77.739 802.02 72.5256 797.08 72.5256C792.14 72.5256 792.14 77.739 797.08 77.739Z" fill="#FFEFEA"/>
<path d="M325.508 5.21333C330.448 5.21333 330.448 0 325.508 0C320.567 0 320.567 5.21333 325.508 5.21333Z" fill="#FFEFEA"/>
<path d="M669.572 242.136C674.512 242.136 674.512 236.922 669.572 236.922C664.632 236.922 664.632 242.136 669.572 242.136Z" fill="#FFEFEA"/>
<path d="M836.546 312.589C841.486 312.589 841.486 307.376 836.546 307.376C831.606 307.376 831.606 312.589 836.546 312.589Z" fill="#FFEFEA"/>
<path d="M1012.63 317.769C1017.57 317.769 1017.57 312.556 1012.63 312.556C1007.69 312.556 1007.69 317.769 1012.63 317.769Z" fill="#FFEFEA"/>
<path d="M1168.47 172.718C1173.41 172.718 1173.41 167.505 1168.47 167.505C1163.53 167.505 1163.53 172.718 1168.47 172.718Z" fill="#FFEFEA"/>
<path d="M1417.41 170.646C1422.35 170.646 1422.35 165.433 1417.41 165.433C1412.47 165.433 1412.47 170.646 1417.41 170.646Z" fill="#FFEFEA"/>
<path d="M245.325 241.099C250.265 241.099 250.265 235.886 245.325 235.886C240.385 235.886 240.385 241.099 245.325 241.099Z" fill="#FFEFEA"/>
<path d="M656.18 119.878C661.12 119.878 661.12 114.665 656.18 114.665C651.24 114.665 651.24 119.878 656.18 119.878Z" fill="#FFEFEA"/>
<path d="M1064.24 73.5946C1069.18 73.5946 1069.18 68.3812 1064.24 68.3812C1059.3 68.3812 1059.3 73.5946 1064.24 73.5946Z" fill="#FFEFEA"/>
<path d="M1353.42 246.28C1358.36 246.28 1358.36 241.067 1353.42 241.067C1348.48 241.067 1348.48 246.28 1353.42 246.28Z" fill="#FFEFEA"/>
<path d="M356.03 58.898C360.97 58.898 360.97 53.6847 356.03 53.6847C351.09 53.6847 351.09 58.898 356.03 58.898Z" fill="#FFEFEA"/>
<path d="M39.518 280.648C44.4581 280.648 44.4581 275.434 39.518 275.434C34.578 275.434 34.578 280.648 39.518 280.648Z" fill="#FFEFEA"/>
<path d="M1396.51 349.117C1401.45 349.117 1401.45 343.903 1396.51 343.903C1391.57 343.903 1391.57 349.117 1396.51 349.117Z" fill="#FFEFEA"/>
<path d="M161.476 207.341C166.416 207.341 166.416 202.128 161.476 202.128C156.536 202.128 156.536 207.341 161.476 207.341Z" fill="#FFEFEA"/>
<path d="M1094.6 20.7545C1099.54 20.7545 1099.54 15.5411 1094.6 15.5411C1089.66 15.5411 1089.66 20.7545 1094.6 20.7545Z" fill="#FFEFEA"/>
<path d="M1145.19 35.2596C1150.13 35.2596 1150.13 30.0463 1145.19 30.0463C1140.25 30.0463 1140.25 35.2596 1145.19 35.2596Z" fill="#FFEFEA"/>
<path d="M1168.47 18.6824C1173.41 18.6824 1173.41 13.4691 1168.47 13.4691C1163.53 13.4691 1163.53 18.6824 1168.47 18.6824Z" fill="#FFEFEA"/>
<path d="M1370.86 6.24946C1375.8 6.24946 1375.8 1.03613 1370.86 1.03613C1365.92 1.03613 1365.92 6.24946 1370.86 6.24946Z" fill="#FFEFEA"/>
<path d="M1395.15 18.6824C1400.09 18.6824 1400.09 13.4691 1395.15 13.4691C1390.21 13.4691 1390.21 18.6824 1395.15 18.6824Z" fill="#FFEFEA"/>
<path d="M471.229 42.5122C476.169 42.5122 476.169 37.2988 471.229 37.2988C466.289 37.2988 466.289 42.5122 471.229 42.5122Z" fill="#FFEFEA"/>
<path d="M806.094 387.959C811.034 387.959 811.034 382.746 806.094 382.746C801.154 382.746 801.154 387.959 806.094 387.959Z" fill="#FFEFEA"/>
<path d="M1003.43 393.14C1008.37 393.14 1008.37 387.926 1003.43 387.926C998.486 387.926 998.486 393.14 1003.43 393.14Z" fill="#FFEFEA"/>
<path d="M1185.96 382.74C1190.44 380.595 1188.28 375.874 1183.8 378.019C1179.33 380.164 1181.49 384.886 1185.96 382.74Z" fill="#FFEFEA"/>
<path d="M1254.47 200.39C1258.95 198.245 1256.79 193.524 1252.31 195.669C1247.84 197.814 1250 202.536 1254.47 200.39Z" fill="#FFEFEA"/>
<path d="M1312.07 14.9707C1317.01 14.9707 1317.01 9.75732 1312.07 9.75732C1307.13 9.75732 1307.13 14.9707 1312.07 14.9707Z" fill="#FFEFEA"/>
<path d="M24.9992 182.295C29.9393 182.295 29.9393 177.082 24.9992 177.082C20.0592 177.082 20.0592 182.295 24.9992 182.295Z" fill="#FFEFEA"/>
<path d="M1381.99 250.764C1386.93 250.764 1386.93 245.551 1381.99 245.551C1377.05 245.551 1377.05 250.764 1381.99 250.764Z" fill="#FFEFEA"/>
<path d="M24.999 348.455C29.939 348.455 29.939 343.242 24.999 343.242C20.0589 343.242 20.0589 348.455 24.999 348.455Z" fill="#FFEFEA"/>
<path d="M3.70503 240.329C8.64507 240.329 8.64507 235.115 3.70503 235.115C-1.23501 235.115 -1.23501 240.329 3.70503 240.329Z" fill="#FFEFEA"/>
<path d="M250.012 342.943C254.952 342.943 254.952 337.73 250.012 337.73C245.072 337.73 245.072 342.943 250.012 342.943Z" fill="#FFEFEA"/>
<path d="M436.823 258.929C441.763 258.929 441.763 253.716 436.823 253.716C431.883 253.716 431.883 258.929 436.823 258.929Z" fill="#FFEFEA"/>
<path d="M467.182 402.032C472.122 402.032 472.122 396.818 467.182 396.818C462.242 396.818 462.242 402.032 467.182 402.032Z" fill="#FFEFEA"/>
<path d="M559.27 387.527C564.21 387.527 564.21 382.313 559.27 382.313C554.33 382.313 554.33 387.527 559.27 387.527Z" fill="#FFEFEA"/>
<path d="M139.307 392.584C144.247 392.584 144.247 387.37 139.307 387.37C134.367 387.37 134.367 392.584 139.307 392.584Z" fill="#FFEFEA"/>
<path d="M920.54 206.429C925.48 206.429 925.48 201.216 920.54 201.216C915.599 201.216 915.599 206.429 920.54 206.429Z" fill="#FFEFEA"/>
<path d="M1289.9 200.213C1294.84 200.213 1294.84 194.999 1289.9 194.999C1284.96 194.999 1284.96 200.213 1289.9 200.213Z" fill="#FFEFEA"/>
<path d="M550.162 271.362C555.102 271.362 555.102 266.149 550.162 266.149C545.222 266.149 545.222 271.362 550.162 271.362Z" fill="#FFEFEA"/>
<path d="M936.73 237.172C941.67 237.172 941.67 231.958 936.73 231.958C931.79 231.958 931.79 237.172 936.73 237.172Z" fill="#FFEFEA"/>
<path d="M1247.4 397.764C1252.34 397.764 1252.34 392.551 1247.4 392.551C1242.46 392.551 1242.46 397.764 1247.4 397.764Z" fill="#FFEFEA"/>
<path d="M333.767 101.66C338.707 101.66 338.707 96.4468 333.767 96.4468C328.827 96.4468 328.827 101.66 333.767 101.66Z" fill="#FFEFEA"/>
<path d="M564.33 21.7906C569.27 21.7906 569.27 16.5773 564.33 16.5773C559.39 16.5773 559.39 21.7906 564.33 21.7906Z" fill="#FFEFEA"/>
<path d="M555.997 164.77C560.937 164.77 560.937 159.556 555.997 159.556C551.057 159.556 551.057 164.77 555.997 164.77Z" fill="#FFEFEA"/>
<path d="M82.6376 108.821C87.5777 108.821 87.5777 103.608 82.6376 103.608C77.6976 103.608 77.6976 108.821 82.6376 108.821Z" fill="#FFEFEA"/>
<path d="M822.379 10.3936C827.319 10.3936 827.319 5.1803 822.379 5.1803C817.439 5.1803 817.439 10.3936 822.379 10.3936Z" fill="#FFEFEA"/>
<path d="M647.31 152.337C652.25 152.337 652.25 147.123 647.31 147.123C642.37 147.123 642.37 152.337 647.31 152.337Z" fill="#FFEFEA"/>
<path d="M814.283 222.79C819.223 222.79 819.223 217.577 814.283 217.577C809.343 217.577 809.343 222.79 814.283 222.79Z" fill="#FFEFEA"/>
<path d="M990.364 227.97C995.304 227.97 995.304 222.757 990.364 222.757C985.424 222.757 985.424 227.97 990.364 227.97Z" fill="#FFEFEA"/>
<path d="M1146.21 82.9193C1151.15 82.9193 1151.15 77.7059 1146.21 77.7059C1141.27 77.7059 1141.27 82.9193 1146.21 82.9193Z" fill="#FFEFEA"/>
<path d="M1395.15 80.8471C1400.09 80.8471 1400.09 75.6338 1395.15 75.6338C1390.21 75.6338 1390.21 80.8471 1395.15 80.8471Z" fill="#FFEFEA"/>
<path d="M223.062 151.3C228.002 151.3 228.002 146.087 223.062 146.087C218.122 146.087 218.122 151.3 223.062 151.3Z" fill="#FFEFEA"/>
<path d="M688.801 20.7545C693.741 20.7545 693.741 15.5411 688.801 15.5411C683.861 15.5411 683.861 20.7545 688.801 20.7545Z" fill="#FFEFEA"/>
<path d="M1010.6 5.21333C1015.54 5.21333 1015.54 0 1010.6 0C1005.66 0 1005.66 5.21333 1010.6 5.21333Z" fill="#FFEFEA"/>
<path d="M1331.16 156.481C1336.1 156.481 1336.1 151.268 1331.16 151.268C1326.22 151.268 1326.22 156.481 1331.16 156.481Z" fill="#FFEFEA"/>
<path d="M11.4484 53.401C16.3885 53.401 16.3885 48.1876 11.4484 48.1876C6.5084 48.1876 6.5084 53.401 11.4484 53.401Z" fill="#FFEFEA"/>
<path d="M79.2028 36.2957C84.1429 36.2957 84.1429 31.0824 79.2028 31.0824C74.2628 31.0824 74.2628 36.2957 79.2028 36.2957Z" fill="#FFEFEA"/>
<path d="M21.7782 65.9024C25.0049 65.9024 25.0049 62.2368 21.7782 62.2368C18.5515 62.2368 18.5515 65.9024 21.7782 65.9024Z" fill="#FFEFEA"/>
<path d="M357.648 114.162C360.875 114.162 360.875 110.496 357.648 110.496C354.422 110.496 354.422 114.162 357.648 114.162Z" fill="#FFEFEA"/>
<path d="M362.488 181.97C365.714 181.97 365.714 178.304 362.488 178.304C359.261 178.304 359.261 181.97 362.488 181.97Z" fill="#FFEFEA"/>
<path d="M50.8163 274.824C54.043 274.824 54.043 271.158 50.8163 271.158C47.5896 271.158 47.5896 274.824 50.8163 274.824Z" fill="#FFEFEA"/>
<path d="M132.121 59.794C135.348 59.794 135.348 56.1284 132.121 56.1284C128.894 56.1284 128.894 59.794 132.121 59.794Z" fill="#FFEFEA"/>
<path d="M17.9064 341.41C21.1331 341.41 21.1331 337.744 17.9064 337.744C14.6797 337.744 14.6797 341.41 17.9064 341.41Z" fill="#FFEFEA"/>
<path d="M243.433 40.2458C246.66 40.2458 246.66 36.5802 243.433 36.5802C240.207 36.5802 240.207 40.2458 243.433 40.2458Z" fill="#FFEFEA"/>
<path d="M45.9767 214.957C49.2034 214.957 49.2034 211.291 45.9767 211.291C42.75 211.291 42.75 214.957 45.9767 214.957Z" fill="#FFEFEA"/>
<path d="M1402.97 283.426C1406.2 283.426 1406.2 279.76 1402.97 279.76C1399.74 279.76 1399.74 283.426 1402.97 283.426Z" fill="#FFEFEA"/>
<path d="M292.283 317.571C295.51 317.571 295.51 313.906 292.283 313.906C289.057 313.906 289.057 317.571 292.283 317.571Z" fill="#FFEFEA"/>
<path d="M114.666 334.452C117.893 334.452 117.893 330.786 114.666 330.786C111.439 330.786 111.439 334.452 114.666 334.452Z" fill="#FFEFEA"/>
<path d="M895.898 148.298C899.125 148.298 899.125 144.632 895.898 144.632C892.672 144.632 892.672 148.298 895.898 148.298Z" fill="#FFEFEA"/>
<path d="M1265.26 142.081C1268.49 142.081 1268.49 138.415 1265.26 138.415C1262.04 138.415 1262.04 142.081 1265.26 142.081Z" fill="#FFEFEA"/>
<path d="M418.85 331.383C422.077 331.383 422.077 327.717 418.85 327.717C415.623 327.717 415.623 331.383 418.85 331.383Z" fill="#FFEFEA"/>
<path d="M605.661 247.369C608.888 247.369 608.888 243.703 605.661 243.703C602.434 243.703 602.434 247.369 605.661 247.369Z" fill="#FFEFEA"/>
<path d="M640.965 384.943C644.192 384.943 644.192 381.277 640.965 381.277C637.739 381.277 637.739 384.943 640.965 384.943Z" fill="#FFEFEA"/>
<path d="M308.145 381.023C311.372 381.023 311.372 377.358 308.145 377.358C304.918 377.358 304.918 381.023 308.145 381.023Z" fill="#FFEFEA"/>
<path d="M719 259.802C722.227 259.802 722.227 256.136 719 256.136C715.773 256.136 715.773 259.802 719 259.802Z" fill="#FFEFEA"/>
<path d="M1105.57 225.611C1108.79 225.611 1108.79 221.946 1105.57 221.946C1102.34 221.946 1102.34 225.611 1105.57 225.611Z" fill="#FFEFEA"/>
<path d="M1416.24 386.204C1419.47 386.204 1419.47 382.538 1416.24 382.538C1413.01 382.538 1413.01 386.204 1416.24 386.204Z" fill="#FFEFEA"/>
<path d="M591.221 322.942C594.448 322.942 594.448 319.277 591.221 319.277C587.995 319.277 587.995 322.942 591.221 322.942Z" fill="#FFEFEA"/>
<path d="M216.501 82.0089C219.728 82.0089 219.728 78.3433 216.501 78.3433C213.274 78.3433 213.274 82.0089 216.501 82.0089Z" fill="#FFEFEA"/>
<path d="M14.035 177.694C17.2617 177.694 17.2617 174.028 14.035 174.028C10.8083 174.028 10.8083 177.694 14.035 177.694Z" fill="#FFEFEA"/>
<path d="M341.193 139.819C344.42 139.819 344.42 136.154 341.193 136.154C337.967 136.154 337.967 139.819 341.193 139.819Z" fill="#FFEFEA"/>
<path d="M528.005 55.8055C531.231 55.8055 531.231 52.1399 528.005 52.1399C524.778 52.1399 524.778 55.8055 528.005 55.8055Z" fill="#FFEFEA"/>
<path d="M563.423 202.929C566.65 202.929 566.65 199.263 563.423 199.263C560.196 199.263 560.196 202.929 563.423 202.929Z" fill="#FFEFEA"/>
<path d="M90.0641 146.981C93.2908 146.981 93.2908 143.315 90.0641 143.315C86.8374 143.315 86.8374 146.981 90.0641 146.981Z" fill="#FFEFEA"/>
<path d="M779.207 37.156C782.434 37.156 782.434 33.4904 779.207 33.4904C775.981 33.4904 775.981 37.156 779.207 37.156Z" fill="#FFEFEA"/>
<path d="M731.03 47.181C734.256 47.181 734.256 43.5154 731.03 43.5154C727.803 43.5154 727.803 47.181 731.03 47.181Z" fill="#FFEFEA"/>
<path d="M656.145 31.6397C659.371 31.6397 659.371 27.9741 656.145 27.9741C652.918 27.9741 652.918 31.6397 656.145 31.6397Z" fill="#FFEFEA"/>
<path d="M654.736 190.496C657.963 190.496 657.963 186.83 654.736 186.83C651.51 186.83 651.51 190.496 654.736 190.496Z" fill="#FFEFEA"/>
<path d="M400.119 295.84C403.346 295.84 403.346 292.174 400.119 292.174C396.893 292.174 396.893 295.84 400.119 295.84Z" fill="#FFEFEA"/>
<path d="M390 205.701C393.227 205.701 393.227 202.036 390 202.036C386.773 202.036 386.773 205.701 390 205.701Z" fill="#FFEFEA"/>
<path d="M997.79 266.13C1001.02 266.13 1001.02 262.464 997.79 262.464C994.564 262.464 994.564 266.13 997.79 266.13Z" fill="#FFEFEA"/>
<path d="M1153.63 121.079C1156.86 121.079 1156.86 117.413 1153.63 117.413C1150.41 117.413 1150.41 121.079 1153.63 121.079Z" fill="#FFEFEA"/>
<path d="M1402.57 119.006C1405.8 119.006 1405.8 115.341 1402.57 115.341C1399.35 115.341 1399.35 119.006 1402.57 119.006Z" fill="#FFEFEA"/>
<path d="M230.489 189.46C233.716 189.46 233.716 185.794 230.489 185.794C227.262 185.794 227.262 189.46 230.489 189.46Z" fill="#FFEFEA"/>
<path d="M641.344 68.2385C644.571 68.2385 644.571 64.5729 641.344 64.5729C638.117 64.5729 638.117 68.2385 641.344 68.2385Z" fill="#FFEFEA"/>
<path d="M1027.91 34.0478C1031.14 34.0478 1031.14 30.3822 1027.91 30.3822C1024.69 30.3822 1024.69 34.0478 1027.91 34.0478Z" fill="#FFEFEA"/>
<path d="M1338.58 194.64C1341.81 194.64 1341.81 190.974 1338.58 190.974C1335.36 190.974 1335.36 194.64 1338.58 194.64Z" fill="#FFEFEA"/>
<path d="M298.605 208.238C301.831 208.238 301.831 204.572 298.605 204.572C295.378 204.572 295.378 208.238 298.605 208.238Z" fill="#FFEFEA"/>
<path d="M485.416 124.224C488.642 124.224 488.642 120.558 485.416 120.558C482.189 120.558 482.189 124.224 485.416 124.224Z" fill="#FFEFEA"/>
<path d="M520.834 271.347C524.061 271.347 524.061 267.682 520.834 267.682C517.607 267.682 517.607 271.347 520.834 271.347Z" fill="#FFEFEA"/>
<path d="M187.9 257.878C191.127 257.878 191.127 254.213 187.9 254.213C184.673 254.213 184.673 257.878 187.9 257.878Z" fill="#FFEFEA"/>
<path d="M969.132 71.7238C972.359 71.7238 972.359 68.0582 969.132 68.0582C965.906 68.0582 965.906 71.7238 969.132 71.7238Z" fill="#FFEFEA"/>
<path d="M1338.5 65.5074C1341.72 65.5074 1341.72 61.8418 1338.5 61.8418C1335.27 61.8418 1335.27 65.5074 1338.5 65.5074Z" fill="#FFEFEA"/>
<path d="M598.755 136.657C601.982 136.657 601.982 132.991 598.755 132.991C595.528 132.991 595.528 136.657 598.755 136.657Z" fill="#FFEFEA"/>
<path d="M985.323 102.466C988.55 102.466 988.55 98.8007 985.323 98.8007C982.096 98.8007 982.096 102.466 985.323 102.466Z" fill="#FFEFEA"/>
<path d="M1295.99 263.059C1299.22 263.059 1299.22 259.393 1295.99 259.393C1292.77 259.393 1292.77 263.059 1295.99 263.059Z" fill="#FFEFEA"/>
</svg>
