<svg width="20" height="20" viewBox="0 0 20 20" fill="none" xmlns="http://www.w3.org/2000/svg">
<path d="M18.7367 10.4961L17.4867 4.56602C17.2453 3.27227 16.3156 2.5 15 2.5H5C4.34375 2.5 3.78907 2.6832 3.35547 3.04453C2.92188 3.40586 2.63789 3.91602 2.5125 4.56367L1.2625 10.4961C1.25406 10.5385 1.24987 10.5817 1.25 10.625V15C1.25 15.663 1.5134 16.2989 1.98224 16.7678C2.45108 17.2366 3.08696 17.5 3.75 17.5H16.25C16.913 17.5 17.5489 17.2366 18.0178 16.7678C18.4866 16.2989 18.75 15.663 18.75 15V10.625C18.7499 10.5817 18.7454 10.5385 18.7367 10.4961ZM3.73672 4.81641V4.80547C3.87539 4.08555 4.27617 3.75078 4.99805 3.75078H15C15.727 3.75078 16.1277 4.08477 16.2605 4.80195C16.2605 4.80703 16.2625 4.81211 16.2633 4.81719L17.3152 9.8125C17.32 9.83526 17.3196 9.8588 17.3141 9.88139C17.3087 9.90399 17.2982 9.92508 17.2835 9.94312C17.2689 9.96116 17.2503 9.9757 17.2293 9.98567C17.2083 9.99565 17.1854 10.0008 17.1621 10.0008H12.5C12.3352 9.99995 12.1768 10.0646 12.0596 10.1804C11.9424 10.2963 11.876 10.454 11.875 10.6187C11.875 11.116 11.6775 11.5929 11.3258 11.9446C10.9742 12.2962 10.4973 12.4937 10 12.4937C9.50272 12.4937 9.02581 12.2962 8.67418 11.9446C8.32255 11.5929 8.125 11.116 8.125 10.6187C8.12459 10.5371 8.1081 10.4563 8.07647 10.381C8.04484 10.3057 7.99869 10.2374 7.94065 10.1799C7.88262 10.1225 7.81383 10.077 7.73822 10.0461C7.66262 10.0153 7.58167 9.99959 7.5 10H2.83789C2.81464 10 2.79167 9.99487 2.77067 9.98489C2.74966 9.97492 2.73115 9.96038 2.71648 9.94234C2.70181 9.9243 2.69135 9.90321 2.68586 9.88061C2.68037 9.85802 2.68 9.83448 2.68477 9.81172L3.73672 4.81641Z" fill="#5D54CD"/>
<path d="M14.375 6.25H5.625C5.45924 6.25 5.30027 6.18415 5.18306 6.06694C5.06585 5.94973 5 5.79076 5 5.625C5 5.45924 5.06585 5.30027 5.18306 5.18306C5.30027 5.06585 5.45924 5 5.625 5H14.375C14.5408 5 14.6997 5.06585 14.8169 5.18306C14.9342 5.30027 15 5.45924 15 5.625C15 5.79076 14.9342 5.94973 14.8169 6.06694C14.6997 6.18415 14.5408 6.25 14.375 6.25Z" fill="#5D54CD"/>
<path d="M15 8.75H5C4.83424 8.75 4.67527 8.68415 4.55806 8.56694C4.44085 8.44973 4.375 8.29076 4.375 8.125C4.375 7.95924 4.44085 7.80027 4.55806 7.68306C4.67527 7.56585 4.83424 7.5 5 7.5H15C15.1658 7.5 15.3247 7.56585 15.4419 7.68306C15.5592 7.80027 15.625 7.95924 15.625 8.125C15.625 8.29076 15.5592 8.44973 15.4419 8.56694C15.3247 8.68415 15.1658 8.75 15 8.75Z" fill="#5D54CD"/>
</svg>