<svg width="136" height="98" fill="none" xmlns="http://www.w3.org/2000/svg"><path d="M126.729 92.738a12.52 12.52 0 0 1-.652 1.8 7.938 7.938 0 0 1-.228.462h-6.664c-.047-.049-.092-.1-.139-.148a16.11 16.11 0 0 1-.694-.093l.072-.083c-.121.014-.241.028-.362.035l.29.049a9.278 9.278 0 0 1-.221.24h-.291l.196-.289a6.28 6.28 0 0 1-.465.007l.486-.18.526-.195.061.07c.897-1.09 1.626-2.417 2.144-3.903.518-1.486.814-3.101.872-4.75a16.643 16.643 0 0 0-.538-4.842c-.412-1.549-1.045-2.967-1.862-4.17 1.315 1.22 2.44 2.788 3.312 4.615.872 1.826 1.472 3.874 1.765 6.025.151 1.05.174 2.13.067 3.19.059-.09.117-.18.174-.272.847-1.419 1.458-3.078 1.789-4.86.331-1.783.373-3.644.125-5.451a21.916 21.916 0 0 1 1.044 6.339 22.211 22.211 0 0 1-.807 6.404z" fill="#E6E6E6"/><path d="M136 94.537H0V95h136v-.463z" fill="#3F3D56"/><path d="M68.464 49.035h-53.58a.153.153 0 0 1-.076-.021.21.21 0 0 1-.064-.06.297.297 0 0 1-.044-.09.367.367 0 0 1 .044-.3.21.21 0 0 1 .064-.06.152.152 0 0 1 .077-.02h53.58c.025 0 .051.007.075.02a.207.207 0 0 1 .065.06.297.297 0 0 1 .044.09.37.37 0 0 1 0 .21.3.3 0 0 1-.044.09.207.207 0 0 1-.065.06.153.153 0 0 1-.076.02z" fill="#E6E6E6"/><path d="M71.598 32.003H11.806a1.8 1.8 0 0 1-1.276-.533 1.83 1.83 0 0 1-.53-1.287V15.82c0-.483.19-.946.53-1.287A1.8 1.8 0 0 1 11.806 14h59.792a1.8 1.8 0 0 1 1.276.534c.339.341.529.804.53 1.287v14.362c-.001.483-.191.945-.53 1.287a1.801 1.801 0 0 1-1.276.533zM11.806 14.405a1.4 1.4 0 0 0-.993.415 1.424 1.424 0 0 0-.412 1v14.363c0 .375.149.735.412 1a1.4 1.4 0 0 0 .993.416h59.792c.372 0 .73-.15.992-.415.264-.266.412-.626.412-1.001V15.82c0-.376-.148-.736-.412-1.001a1.4 1.4 0 0 0-.992-.415H11.806z" fill="#3F3D56"/><path d="M20.434 22.294h-4.415a.203.203 0 0 0 0 .405h2.007v3.576c-.004.26.091.51.265.702a1.008 1.008 0 0 0 .707.329.965.965 0 0 0 .793-.44.204.204 0 0 0-.04-.284.2.2 0 0 0-.28.04.57.57 0 0 1-.494.279.614.614 0 0 1-.55-.626v-3.577h2.007a.2.2 0 0 0 .185-.125.204.204 0 0 0-.108-.264.199.199 0 0 0-.077-.015z" fill="#6C63FF"/><path d="M35.482 39.892c.886 0 1.605-.724 1.605-1.618 0-.894-.719-1.618-1.605-1.618-.887 0-1.605.724-1.605 1.618 0 .894.718 1.618 1.605 1.618z" fill="#E6E6E6"/><path d="M41.702 39.892c.886 0 1.605-.724 1.605-1.618 0-.894-.719-1.618-1.605-1.618-.887 0-1.605.724-1.605 1.618 0 .894.718 1.618 1.605 1.618z" fill="#6C63FF"/><path d="M47.922 39.892c.886 0 1.605-.724 1.605-1.618 0-.894-.719-1.618-1.605-1.618-.887 0-1.606.724-1.606 1.618 0 .894.72 1.618 1.606 1.618z" fill="#E6E6E6"/><path d="M21.37 27.155a.256.256 0 0 0 0-.51.252.252 0 0 0-.244.255.256.256 0 0 0 .244.255zM22.975 27.155a.256.256 0 0 0 0-.51.252.252 0 0 0-.244.255.256.256 0 0 0 .244.255zM24.58 27.155a.256.256 0 0 0 0-.51.252.252 0 0 0-.244.255.256.256 0 0 0 .245.255z" fill="#3F3D56"/><path d="M101.042 36.517c2.614 0 4.733-2.136 4.733-4.77 0-2.635-2.119-4.771-4.733-4.771-2.613 0-4.732 2.136-4.732 4.77 0 2.635 2.119 4.771 4.732 4.771z" fill="#2F2E41"/><path d="M116.388 93.011h-2.066l-.983-8.033h3.049v8.033z" fill="#FFB8B8"/><path d="M112.846 92.416h3.985v2.53h-6.493a2.549 2.549 0 0 1 .734-1.79 2.513 2.513 0 0 1 1.774-.74z" fill="#2F2E41"/><path d="m95.314 92.739-1.995-.543 1.125-8.014 2.944.8-2.075 7.757z" fill="#FFB8B8"/><path d="m92.048 91.235 3.847 1.045-.653 2.442-6.27-1.704c.174-.647.595-1.2 1.172-1.534a2.49 2.49 0 0 1 1.904-.25zM99.229 55.839l-6.152 35.145 3.155.636 9.937-24.808 7.414 24.649 3.785-.477s-1.735-35.304-7.256-38.326L99.229 55.84z" fill="#2F2E41"/><path d="M89.473 68.411a1.698 1.698 0 0 0 .892-1.13 1.72 1.72 0 0 0-.286-1.417l3.392-5.016-3.129-.049-2.742 4.77a1.729 1.729 0 0 0-.316 2.26c.231.35.582.603.985.71.403.108.831.062 1.204-.128zM111.871 62.21a1.72 1.72 0 0 0 .606-2.547l3.393-5.017-3.129-.049-2.742 4.77a1.729 1.729 0 0 0-.316 2.26 1.691 1.691 0 0 0 2.188.582zM101.163 37.462c2.286 0 4.139-1.868 4.139-4.173 0-2.304-1.853-4.173-4.139-4.173-2.286 0-4.139 1.869-4.139 4.173 0 2.305 1.853 4.173 4.139 4.173z" fill="#FFB8B8"/><path d="M110.112 39.777c-.158-.636-2.839-.477-2.839-.477s-3.02-.7-2.991-.612c-2.544-.198-5.648.765-6.1.912-.925.257-2.692 1.044-3.967 1.623a.75.75 0 0 0-.373.978l3.888 8.947.552 5.804 12.777-3.975c-3.155-1.273-.789-12.564-.947-13.2z" fill="#6C63FF"/><path d="m109.008 39.936 1.049-.265 5.734 11.397.315 6.52-3.628-2.862v-2.544l-3.785-4.93.315-7.316zM95.206 40.811l-1.214.544a.423.423 0 0 0-.244.315l-2.406 13.85-2.366 6.998 3.154 1.59 3.628-8.746L97.02 49l-1.814-8.19z" fill="#6C63FF"/><path d="M96.823 31.322c.84-.278 1.726.158 2.546.49.809.327 1.673.563 2.543.511.87-.051 1.75-.422 2.275-1.122.526-.7.619-1.75.098-2.455-.342-.464-.889-.728-1.437-.9-1.17-.369-2.479-.381-3.591.138-1.112.52-1.984 1.616-2.076 2.849" fill="#2F2E41"/><path d="M100.917 27.998c-.283-1.925.764-3.925 2.192-4.642 1.428-.718 3.103-.295 4.39.774 1.287 1.068 2.224 2.71 2.923 4.454.698 1.745 1.181 3.614 1.75 5.434.505 1.616 1.098 3.233 2.057 4.469.959 1.236 2.355 2.04 3.691 1.7-1.098 1.49-3.118 1.232-4.372-.042-1.253-1.273-1.905-3.263-2.418-5.2-.513-1.938-.959-3.965-1.951-5.57-1.765-2.857-5.229-3.715-7.703-1.909" fill="#2F2E41"/></svg>