<svg width="20" height="20" viewBox="0 0 20 20" fill="none" xmlns="http://www.w3.org/2000/svg">
<path d="M12.9938 2.52266C12.2336 1.70195 11.1719 1.25 10 1.25C8.82191 1.25 7.75668 1.69922 7.00004 2.51484C6.23519 3.33945 5.86254 4.46016 5.95004 5.67031C6.12348 8.05781 7.94027 10 10 10C12.0598 10 13.8735 8.0582 14.0496 5.67109C14.1383 4.47187 13.7633 3.35352 12.9938 2.52266Z" fill="#5D54CD"/>
<path d="M16.875 18.75H3.12498C2.945 18.7523 2.76677 18.7145 2.60325 18.6393C2.43972 18.5641 2.29502 18.4534 2.17967 18.3152C1.92576 18.0117 1.82342 17.5973 1.8992 17.1781C2.22889 15.3492 3.25779 13.8129 4.87498 12.7344C6.3117 11.777 8.13162 11.25 9.99998 11.25C11.8683 11.25 13.6883 11.7773 15.125 12.7344C16.7422 13.8125 17.7711 15.3488 18.1008 17.1777C18.1765 17.5969 18.0742 18.0113 17.8203 18.3148C17.705 18.4531 17.5603 18.5639 17.3968 18.6391C17.2332 18.7144 17.055 18.7523 16.875 18.75Z" fill="#5D54CD"/>
</svg>
