<svg width="136" height="88" fill="none" xmlns="http://www.w3.org/2000/svg"><path d="M119.326 58.985a1.386 1.386 0 0 1-.305-1.137 1.385 1.385 0 0 1 .686-.961l-.92-4.856 2.394.995.507 4.458a1.388 1.388 0 0 1-.507 1.788 1.427 1.427 0 0 1-1.855-.287z" fill="#FFB6B6"/><path d="M113.638 2.849H8.548v49.306h105.09V2.849z" fill="#E6E6E6"/><path d="M110.633 7.077h-99.08v41.137h99.08V7.077z" fill="#fff"/><path d="M113.593 0H8.503v4.414h105.09V0z" fill="#6C63FF"/><path d="M11.821 2.86a.823.823 0 0 0 .828-.818.823.823 0 0 0-.828-.818.823.823 0 0 0-.827.818c0 .452.37.818.827.818zM14.962 2.86a.823.823 0 0 0 .828-.818.823.823 0 0 0-.828-.818.823.823 0 0 0-.828.818c0 .452.371.818.828.818zM18.103 2.86a.823.823 0 0 0 .828-.818.823.823 0 0 0-.828-.818.823.823 0 0 0-.827.818c0 .452.37.818.827.818z" fill="#fff"/><path d="M17.348 33.544a.437.437 0 0 0-.306.126.427.427 0 0 0 0 .606c.081.08.191.126.306.126h23.826a.436.436 0 0 0 .306-.126.427.427 0 0 0 0-.606.436.436 0 0 0-.306-.126H17.348zM17.348 36.12a.437.437 0 0 0-.306.126.427.427 0 0 0 0 .606c.081.08.191.126.306.127h12.164a.436.436 0 0 0 .306-.127.427.427 0 0 0 0-.606.436.436 0 0 0-.306-.126H17.348z" fill="#E6E6E6"/><path d="M41.204 40.984h-9.05a.445.445 0 0 1-.313-.129.435.435 0 0 1-.13-.309v-1.433c0-.116.047-.227.13-.31a.445.445 0 0 1 .312-.128h9.051c.117 0 .23.047.313.129.082.082.13.193.13.309v1.433a.435.435 0 0 1-.13.31.445.445 0 0 1-.313.128zM41.204 26.053h-9.05a.445.445 0 0 1-.313-.128.435.435 0 0 1-.13-.31v-1.433c0-.116.047-.227.13-.31a.446.446 0 0 1 .312-.127h9.051c.117 0 .23.046.313.128.082.082.13.193.13.309v1.434a.435.435 0 0 1-.13.309.445.445 0 0 1-.313.128z" fill="#6C63FF"/><path d="M57.157 14.271a.57.57 0 0 0-.4.165.557.557 0 0 0 0 .791.57.57 0 0 0 .4.165h47.387a.57.57 0 0 0 .4-.165.557.557 0 0 0 0-.791.57.57 0 0 0-.4-.165H57.157zM57.157 17.633a.57.57 0 0 0-.4.164.557.557 0 0 0 0 .792.57.57 0 0 0 .4.164h32.169a.57.57 0 0 0 .4-.164.557.557 0 0 0-.4-.956h-32.17zM57.157 20.919a.57.57 0 0 0-.4.164.557.557 0 0 0 0 .792.57.57 0 0 0 .4.164h47.387a.57.57 0 0 0 .4-.165.557.557 0 0 0 0-.791.57.57 0 0 0-.4-.164H57.157zM57.157 24.28a.57.57 0 0 0-.4.164.557.557 0 0 0 0 .792.57.57 0 0 0 .4.164h32.169a.57.57 0 0 0 .4-.164.557.557 0 0 0-.4-.956h-32.17z" fill="#E6E6E6"/><path d="M104.683 31.55h-9.051a.445.445 0 0 1-.313-.128.436.436 0 0 1-.13-.309V29.68c0-.116.048-.227.13-.31a.445.445 0 0 1 .313-.128h9.051a.444.444 0 0 1 .442.438v1.433a.435.435 0 0 1-.13.31.445.445 0 0 1-.312.128z" fill="#6C63FF"/><path d="M27.61 14.878c-.161 0-.291.207-.29.461 0 .254.13.46.29.46h13.727c.161 0 .291-.207.29-.461 0-.254-.13-.46-.29-.46H27.61zM27.61 17.545c-.161 0-.291.207-.29.461 0 .254.13.46.29.46h13.727c.161 0 .291-.207.29-.461 0-.254-.13-.46-.29-.46H27.61zM27.61 20.18c-.161 0-.291.207-.29.461 0 .254.13.46.29.46h5.907c.16 0 .29-.207.29-.461s-.13-.46-.29-.46H27.61z" fill="#E4E4E4"/><path d="M97.773 30.821a1.376 1.376 0 0 0 .36 1.121 1.408 1.408 0 0 0 1.101.446l1.862 4.585 1.479-2.11-1.995-4.03a1.39 1.39 0 0 0-.461-.883 1.423 1.423 0 0 0-1.878-.007c-.26.226-.426.538-.468.878zM118.763 85.958h-1.714l-.816-6.538h2.53v6.538z" fill="#FFB6B6"/><path d="M119.2 87.6h-5.527v-.069c0-.564.227-1.105.63-1.504a2.165 2.165 0 0 1 1.521-.623h3.376v2.197z" fill="#2F2E41"/><path d="m113.154 85.904-1.634-.512 1.218-6.476 2.411.755-1.995 6.233z" fill="#FFB6B6"/><path d="m113.069 87.6-5.269-1.649.021-.066a2.131 2.131 0 0 1 1.06-1.246 2.173 2.173 0 0 1 1.64-.14l3.219 1.008-.671 2.094zM111.124 54.007s-2.544 3.948-1.645 7.472c.899 3.525 1.877 10.299 1.877 10.299l4.873 11.467 3.633-.147-3.607-13.52.142-9.04s2.507-4.32 2.019-5.664c-.488-1.345-7.292-.867-7.292-.867z" fill="#2F2E41"/><path d="M119.433 55.418s.313 3.917-.666 5.576c-.979 1.66-2.021 7.974-2.021 7.974l-1.664 12.628-3.446-1.109 2.938-14.148 2.31-11.13 2.549.21z" fill="#2F2E41"/><path d="m120.655 36.455-2.689-1.827-4.091-.117-1.425 1.38-2.174 1.099-.201 17.884s6.51 3.085 10.013 1.596l1.685-13.932c.699-2.765-1.118-6.083-1.118-6.083z" fill="#3F3D56"/><path d="M110.822 41.769h-7.171l-4.712-8.019 3.064-1.2 2.594 4.564 3.756-.336 2.344-.112a2.584 2.584 0 0 1 2.017.813 2.521 2.521 0 0 1 .671 2.049 2.546 2.546 0 0 1-.853 1.6 2.602 2.602 0 0 1-1.71.64z" fill="#3F3D56"/><path d="M116.254 33.038c1.959 0 3.547-1.57 3.547-3.507s-1.588-3.508-3.547-3.508-3.547 1.57-3.547 3.508c0 1.937 1.588 3.507 3.547 3.507z" fill="#FFB6B6"/><path d="M120.528 28.733c-.109-.77-.636-1.501-1.386-1.735-.298-.855-1.088-1.485-1.96-1.76a3.869 3.869 0 0 0-2.474.05 3.818 3.818 0 0 0-1.925 1.537c-.067.104-.272.358-.267.482.008.158.251.32.373.419.303.232.63.43.975.595 1.275.654.851 1.681.833 2.846-.008.566.183 1.049.671 1.372.704.466 1.712.28 2.479.094.869-.213 1.592-.968 2.088-1.696.439-.645.702-1.434.593-2.204z" fill="#2F2E41"/><path d="m120.553 41.022 1.38 14.97-4.434-.236 3.054-14.734z" fill="#3F3D56"/><path d="M135.833 88H81.542a.167.167 0 0 1-.117-.048.164.164 0 0 1 0-.233.167.167 0 0 1 .117-.048h54.291a.166.166 0 0 1 .167.164.165.165 0 0 1-.167.165z" fill="#CACACA"/><path d="M11.757 86.359h1.33l.633-5.07h-1.963v5.07z" fill="#9E616A"/><path d="M11.418 85.93h2.619c.442 0 .867.173 1.18.483.313.31.489.729.489 1.166v.054h-4.288V85.93z" fill="#2F2E41"/><path d="M24.012 86.359h1.33l.633-5.07h-1.963v5.07z" fill="#9E616A"/><path d="M23.673 85.93h2.619c.442 0 .867.173 1.18.483.313.31.489.729.489 1.166v.054h-4.288V85.93z" fill="#2F2E41"/><path d="m22.407 45.621.868 5.47-8.242.106 1.084-5.254 6.29-.322z" fill="#9E616A"/><path d="m23.035 49.755 2.626 6.911.325 28.642h-2.223l-5.314-23.012-4.88 22.412h-2.17l1.519-25.2s-.448-5.058 1.843-8.043l.558-1.593 7.716-.117z" fill="#2F2E41"/><path d="M11.775 55.143a1.632 1.632 0 0 0 1.05-.88 1.593 1.593 0 0 0-.007-1.361l3.506-11.304-2.579-.505-3.207 11.08c-.35.192-.616.505-.748.88a1.6 1.6 0 0 0 .032 1.148c.153.366.436.664.796.838.36.173.771.21 1.157.104z" fill="#9E616A"/><path d="M16.4 48.642a.75.75 0 0 1-.553-.247.729.729 0 0 1-.184-.431c-.082-1.104-.486-3.025-1.201-5.71a4.472 4.472 0 0 1 .153-2.759 4.529 4.529 0 0 1 1.748-2.155 4.61 4.61 0 0 1 6.503 1.543c.299.525.488 1.104.555 1.702.355 3.095-.315 6.203-.62 7.395a.733.733 0 0 1-.257.394.747.747 0 0 1-.447.16l-5.681.108H16.4z" fill="#3F3D56"/><path d="M32.273 38.713a1.557 1.557 0 0 0-.084.234l-7.112 2.39-1.374-1.188-2.083 1.817 2.227 2.335a1.216 1.216 0 0 0 1.432.245l7.61-3.843a1.604 1.604 0 0 0 1.805-.098 1.555 1.555 0 0 0 .013-2.476 1.6 1.6 0 0 0-2.434.584z" fill="#9E616A"/><path d="m24.83 41.467-2.593 2.239a.684.684 0 0 1-.816.06.678.678 0 0 1-.206-.203l-1.854-2.856a1.859 1.859 0 0 1 .19-2.637 1.906 1.906 0 0 1 2.668.183l2.604 2.194a.676.676 0 0 1 .24.508.668.668 0 0 1-.233.512zM15.914 44.492l-3.204-1.244a.683.683 0 0 1-.394-.404.667.667 0 0 1 .053-.559l1.709-2.942c.186-.46.549-.829 1.009-1.025.46-.196.98-.204 1.446-.021.466.182.84.54 1.04.995.199.454.208.968.024 1.43l-.77 3.295a.67.67 0 0 1-.346.444.688.688 0 0 1-.567.031z" fill="#3F3D56"/><path d="M18.29 35.897c1.924 0 3.484-1.543 3.484-3.446 0-1.903-1.56-3.446-3.485-3.446-1.925 0-3.485 1.543-3.485 3.446 0 1.903 1.56 3.446 3.485 3.446z" fill="#9E616A"/><path d="M54.458 88H.166a.167.167 0 0 1-.117-.048.163.163 0 0 1 0-.233.167.167 0 0 1 .117-.048h54.292a.164.164 0 0 1 .117.28.167.167 0 0 1-.117.049z" fill="#CACACA"/><path d="m20.687 31.066 2.243-.013c.053-.504-.174-1.005-.504-1.392a5.73 5.73 0 0 0-1.181-.965c-.429-.291-.873-.589-1.383-.69-.427-.086-.87-.027-1.301.033l-1.718.236c-.628.086-1.286.184-1.796.557-.69.504-.955 1.387-1.177 2.206l-1.227 4.537 7.252.752c.262.045.531.037.79-.023a.681.681 0 0 0 .506-.546c.02-.292-.214-.532-.404-.756a3.502 3.502 0 0 1-.308-3.996l.208.06z" fill="#2F2E41"/></svg>