<svg width="136" height="98" fill="none" xmlns="http://www.w3.org/2000/svg"><path d="M78.498 76.878a1.605 1.605 0 1 0 0 3.21 1.605 1.605 0 0 0 0-3.21zm0 2.593a.988.988 0 1 1 .988-.988.988.988 0 0 1-.988.988z" fill="#E4E4E4"/><path d="M72.324 75.644h6.174v6.11a.804.804 0 0 1-.804.803h-4.566a.804.804 0 0 1-.804-.804v-6.11z" fill="#E4E4E4"/><path d="M92.924 82.697H.125a.14.14 0 0 1-.09-.233.14.14 0 0 1 .09-.046h92.8a.14.14 0 0 1 0 .28z" fill="#CACACA"/><path d="m12.491 80.059-.573 2.837L22.59 86.46l.847-4.188-10.946-2.213z" fill="#FFB6B6"/><path d="m13.564 79.522-1.13 5.588a3.634 3.634 0 0 1-4.282 2.841l-.116-.023 1.851-9.15 3.677.744z" fill="#2F2E41"/><path d="M24.586 40.975a7.246 7.246 0 1 0-7.247-7.246 7.246 7.246 0 0 0 7.247 7.246z" fill="#FEB8B8"/><path d="M31.354 27.478a8.37 8.37 0 0 0-4.761-3.64l-.89.65v-.843a7.708 7.708 0 0 0-1.439-.084l-.767.694v-.636a8.291 8.291 0 0 0-5.719 3.4c-1.667 2.403-1.948 5.746-.309 8.168.45-1.383.997-2.68 1.447-4.063.354.048.712.05 1.066.005l.548-1.278.153 1.224c1.697-.148 4.214-.473 5.823-.77l-.157-.939.936.78c.493-.113.786-.216.762-.295 1.197 1.929 2.66 3.16 3.857 5.09.455-2.72.978-4.982-.55-7.463zM26.944 81.144c10.305 0 18.659-2.337 18.659-5.219s-8.354-5.218-18.66-5.218c-10.305 0-18.659 2.336-18.659 5.218s8.354 5.219 18.66 5.219z" fill="#2F2E41"/><path d="M40.171 52.361c-.249-1.499-.506-3.026-1.203-4.377-.458-.884-1.185-1.727-2.165-1.902a2.095 2.095 0 0 1-.563-.13c-.287-.139-4.146-2.341-4.76-2.725-.526-.329-1.357-.939-1.776-.939-.422-.009-2.038.367-8.349-.126-1.061.426-2.09.931-3.075 1.512-.02-.014-6.55 3.492-6.795 3.483-.465-.02-.896.278-1.163.652-.266.375-.39.838-.522 1.287 1.426 3.175 2.731 6.355 4.157 9.53.067.12.103.254.104.391a.955.955 0 0 1-.178.391c-.7 1.124-.677 2.537-.6 3.857.076 1.32.17 2.715-.42 3.898-.16.325-.369.623-.522.948-.357.736-.486 3.09-.277 3.88l26.162.75c-.562-1.547 1.945-20.38 1.945-20.38z" fill="#6C63FF"/><path d="M7.54 58.767c-.053.378-.058.76-.017 1.14l.375 5.384c.036.507.07 1.013.118 1.52.09.982.224 1.957.391 2.93a.522.522 0 0 0 .535.507c1.65.35 3.356.336 5.04.24 2.571-.143 9.148-.414 9.55-.936.401-.522.167-1.366-.357-1.788-.523-.422-9.202-1.451-9.202-1.451.085-.672.34-1.305.583-1.943.436-1.131.843-2.3.85-3.512.009-1.212-.448-2.486-1.441-3.18-.817-.57-1.869-.676-2.864-.653-.724.02-1.976-.153-2.637.13-.524.23-.827 1.1-.925 1.612z" fill="#FBBEBE"/><path d="M40.218 70.938c.435-.165.914-.105 1.38-.043 1.499.205 3.02.415 4.41 1.014.652.28 1.273.652 1.714 1.201.392.495.62 1.1.837 1.696l.501 1.373c.213.516.36 1.056.437 1.609.157 1.642-.967 3.19-2.38 4.044-1.413.854-3.077 1.157-4.697 1.476-1.621.318-3.248.67-4.862 1.043-.753.196-1.517.346-2.288.45-1.727.196-3.533-.092-5.175.48-.652.228-1.293.567-1.97.725-.45.094-.904.164-1.362.207l-3.107.355c-.631.084-1.267.133-1.905.146-1.357 0-2.692-.321-4.01-.642a1.013 1.013 0 0 1-.39-.158c-.21-.165-.255-.456-.285-.72-.133-1.166-.25-2.333-.35-3.502-.03-.38-.054-.79.153-1.11.261-.391.77-.514 1.235-.59 1.97-.322 3.965-.46 5.96-.414.759-.758 2.009-.762 3.002-1.174a8.92 8.92 0 0 0 1.058-.575 13.832 13.832 0 0 1 5.81-1.836c.402-.012.8-.07 1.19-.17.768-.238 1.468-.888 2.258-.729.098-.27.166-.631.391-.817.112-.095.25-.159.354-.26.218-.221.237-.568.204-.876-.032-.308-.105-.624-.026-.924a1.28 1.28 0 0 1 .145-.322c.39-.675.981-1.022 1.768-.957z" fill="#2F2E41"/><path d="M9.725 49.193a1.35 1.35 0 0 0-.29.463 21.898 21.898 0 0 0-1.84 7.517.752.752 0 0 1-.084.364 1.597 1.597 0 0 1-.192.208.72.72 0 0 0 .123 1.043c.215-.405.73-.537 1.189-.572 2.193-.174 4.335.846 6.535.77-.155-.537-.378-1.052-.505-1.595-.56-2.41.837-5.033-.02-7.354-.17-.465-.456-.921-.906-1.125a2.417 2.417 0 0 0-.58-.153c-.556-.1-1.663-.53-2.2-.358-.199.064-.277.25-.442.363-.25.16-.58.218-.788.429z" fill="#6C63FF"/><path d="M40.187 57.155c-.662-.283-1.913-.11-2.637-.13-.996-.023-2.047.082-2.864.652-.993.695-1.45 1.97-1.442 3.181.008 1.212.415 2.38.85 3.512.243.638.5 1.271.584 1.943 0 0-8.679 1.029-9.203 1.45-.524.423-.758 1.267-.356 1.789s12.939 1.046 14.59.696a.522.522 0 0 0 .535-.507c.166-.973.3-1.948.39-2.93.048-.507.083-1.013.118-1.52l.375-5.385a4.618 4.618 0 0 0-.015-1.139c-.098-.512-.402-1.381-.925-1.612z" fill="#FBBEBE"/><path d="M38.138 48.764c-.165-.112-.243-.299-.442-.363-.537-.172-1.644.257-2.2.358-.199.026-.394.078-.58.153-.45.204-.736.66-.907 1.125-.856 2.32.54 4.944-.02 7.354-.126.543-.35 1.058-.505 1.595 2.2.077 4.343-.944 6.536-.77.458.035.974.167 1.19.572a.721.721 0 0 0 .122-1.043 1.603 1.603 0 0 1-.192-.208.752.752 0 0 1-.085-.364 21.9 21.9 0 0 0-1.84-7.517 1.351 1.351 0 0 0-.29-.463c-.206-.21-.538-.27-.787-.429z" fill="#6C63FF"/><path d="m41.806 84.11-.38 2.869-11.253-.105.563-4.236 11.07 1.471z" fill="#FFB6B6"/><path d="M44.686 83.747 43.456 93l-.117-.015a3.634 3.634 0 0 1-3.124-4.08l.752-5.652 3.719.494zM15.336 72.39c0 .131-.205 0-.224-.139-.143-1.056-.981-1.926-1.957-2.348-.976-.423-2.088-.445-3.145-.345-1.598.151-3.392.763-3.977 2.257-.138.35-1.434 3.459-1.308 4.158.341 1.866 1.617 3.461 3.163 4.567 1.547 1.104 3.353 1.765 5.156 2.36a89.408 89.408 0 0 0 14.614 3.49c.804.121 1.615.234 2.385.492.69.23 1.334.577 2.007.848 1.566.629 3.25.853 4.92 1.074.284.036.61.062.82-.13.272-.252.182-.69.105-1.052a5.655 5.655 0 0 1 .666-4.013c.28-.47.643-.951.59-1.495-.062-.634-.694-1.083-1.323-1.185-.629-.102-1.268.049-1.9.13-.216.05-.443.028-.646-.063a1.287 1.287 0 0 1-.253-.224 2.862 2.862 0 0 0-3.333-.466c-.233.13-.586-.16-.83-.27l-2.744-1.242c-3.152-1.426-6.32-2.859-9.655-3.762a2.027 2.027 0 0 1-.744-.309c-.166-.13-.285-.307-.437-.453-.333-.314-.797-.44-1.196-.662-.399-.224-.846-.77-.754-1.217z" fill="#2F2E41"/><path d="M22.44 70.505a1.956 1.956 0 1 0 0-3.911 1.956 1.956 0 0 0 0 3.912zM26.77 70.505a1.956 1.956 0 1 0 0-3.911 1.956 1.956 0 0 0 0 3.912z" fill="#FBBEBE"/><path d="M38.844 72.956H11.972a1.185 1.185 0 0 1-1.183-1.183v-16.3a1.184 1.184 0 0 1 1.183-1.182h26.872a1.185 1.185 0 0 1 1.183 1.183v16.3a1.185 1.185 0 0 1-1.183 1.182z" fill="#575A89"/><path d="M25.343 64.406a.783.783 0 1 0 0-1.565.783.783 0 0 0 0 1.565z" fill="#fff"/><path d="M121.27 32.397H86.358a.7.7 0 0 1-.698-.698v-6.58h.28v6.58a.42.42 0 0 0 .418.419h34.912a.418.418 0 0 0 .419-.419v-6.625h.28v6.625a.702.702 0 0 1-.699.698z" fill="#3F3D56"/><path d="M133.926 24.98h-82.04v.28h82.04v-.28z" fill="#3F3D56"/><path d="M51.893 27.5a2.403 2.403 0 1 0 0-4.805 2.403 2.403 0 0 0 0 4.806zM76.314 27.5a2.403 2.403 0 1 0 0-4.805 2.403 2.403 0 0 0 0 4.806z" fill="#6C63FF"/><path d="M92.888 34.564a2.403 2.403 0 1 0 0-4.807 2.403 2.403 0 0 0 0 4.807z" fill="#3F3D56"/><path d="M105.488 34.564a2.403 2.403 0 1 0 0-4.806 2.403 2.403 0 0 0 0 4.806z" fill="#CCC"/><path d="M99.382 27.5a2.403 2.403 0 1 0 .001-4.806 2.403 2.403 0 0 0 0 4.807zM133.597 27.5a2.403 2.403 0 1 0 0-4.805 2.403 2.403 0 0 0 0 4.806zM121.829 27.5a2.403 2.403 0 1 0 0-4.805 2.403 2.403 0 0 0 0 4.806z" fill="#6C63FF"/><path d="M95.064 9h-4.458v3.072h4.458V9z" fill="#3F3D56"/><path d="M54.14 9h-4.458v3.072h4.457V9z" fill="#6C63FF"/><path d="M69.238 9H64.78v3.072h4.458V9z" fill="#CCC"/><path d="M59.345 25.26a.14.14 0 0 1-.14-.14v-6.895a.699.699 0 0 1 .7-.699h6.8a.14.14 0 0 1 0 .28h-6.8a.42.42 0 0 0-.42.419v6.895a.14.14 0 0 1-.14.14z" fill="#3F3D56"/><path d="M67.024 20.016a2.403 2.403 0 1 0 0-4.806 2.403 2.403 0 0 0 0 4.806z" fill="#E6E6E6"/><path d="M113.132 25.12h-.279v-6.895a.698.698 0 0 1 .699-.699h6.8v.28h-6.8a.421.421 0 0 0-.42.419v6.895z" fill="#3F3D56"/><path d="M120.672 20.016a2.403 2.403 0 1 0 0-4.806 2.403 2.403 0 0 0 0 4.806z" fill="#E6E6E6"/></svg>