<svg width="136" height="90" fill="none" xmlns="http://www.w3.org/2000/svg"><path d="M81.78 63.424c2.632-.184 5.898-2.37 8.437-3.338a345.417 345.417 0 0 1 9.052-3.296 334.66 334.66 0 0 1 31.974-9.396 260.86 260.86 0 0 1 3.021-.709c-1.571-4.158-4.005-7.738-7.058-10.384.078-.91.118-1.824.119-2.74 0-14.464-9.436-26.19-21.081-26.19-3.585-.005-7.11 1.129-10.23 3.29C87.772 4.02 77.015 0 65.246 0 48.522 0 33.84 8.116 25.52 20.338L64.62 28.43l23.98 4.96c-27.337 1-54.759 1.994-82.017-.352C2.984 37.303.707 42.966.14 49.06-.428 55.154.75 61.3 3.471 66.45c0 .524.018 1.043.05 1.558.695.244 1.365.48 1.967.635a360.36 360.36 0 0 0 29.153 6.273c-7.207 5.444-15.983 6.214-24.296 8.52C14.37 87.505 19.837 90 25.86 90h89.696c9.712 0 17.585-8.283 17.585-18.502 1.457-2.944 2.428-6.21 2.858-9.613-17.972 2.126-36.168.28-54.22 1.54z" fill="#F5F5F5"/><path opacity=".2" d="M136 57.803c.01-4.211-.806-8.363-2.379-12.106-1.572-3.743-3.855-6.967-6.656-9.4.078-.91.117-1.824.119-2.738 0-14.463-9.424-26.183-21.042-26.183-3.578-.005-7.097 1.128-10.213 3.288C87.603 4.02 76.865 0 65.117 0 46.01 0 29.561 10.642 22.267 25.903a17.03 17.03 0 0 0-1.225-.045C9.422 25.858 0 37.582 0 52.044c-.008 5.108 1.195 10.11 3.462 14.394C3.462 79.45 13.47 90 25.81 90h89.533c9.693 0 17.551-8.283 17.551-18.5 2.039-4.13 3.113-8.869 3.105-13.697z" fill="#F5F5F5"/><path d="M85.866 56.5H51.134a1.65 1.65 0 0 1-.434-.057 1.28 1.28 0 0 1-.368-.162.82.82 0 0 1-.246-.244.54.54 0 0 1-.086-.287.54.54 0 0 1 .086-.287.82.82 0 0 1 .246-.244c.106-.07.23-.125.368-.162a1.65 1.65 0 0 1 .434-.057h34.732c.149 0 .296.02.434.057.137.037.262.093.368.162a.82.82 0 0 1 .246.244.54.54 0 0 1 .086.287.54.54 0 0 1-.086.287.82.82 0 0 1-.246.244 1.28 1.28 0 0 1-.368.162 1.65 1.65 0 0 1-.434.057zM85.867 59.5H51.133c-.3 0-.589-.079-.801-.22-.213-.14-.332-.331-.332-.53s.12-.39.332-.53c.212-.141.5-.22.8-.22h34.735c.3 0 .589.079.801.22.213.14.332.331.332.53s-.12.39-.332.53c-.212.141-.5.22-.8.22zM75.823 62.5H60.177c-.312 0-.611-.079-.832-.22-.221-.14-.345-.331-.345-.53s.124-.39.345-.53c.22-.141.52-.22.832-.22h15.646c.312 0 .612.079.832.22.221.14.345.331.345.53s-.124.39-.345.53c-.22.141-.52.22-.832.22z" fill="#fff"/><path d="M68.362 51a56.23 56.23 0 0 1-17.039-2.665 1.912 1.912 0 0 1-.955-.706A1.985 1.985 0 0 1 50 46.482v-13.55c0-.512.2-1.003.554-1.365A1.868 1.868 0 0 1 51.888 31h33.224c.5 0 .98.204 1.334.567.354.362.553.853.554 1.365v13.542c0 .416-.13.82-.372 1.155-.242.334-.582.58-.971.7A58.519 58.519 0 0 1 68.362 51z" fill="#575A89"/><path opacity=".2" d="M87 33.494v2.188l-18.354 6.236a1.6 1.6 0 0 1-1.056-.015L50 35.503v-2.01c.001-.395.164-.774.453-1.054.289-.28.68-.438 1.089-.439h33.916c.409.001.8.159 1.09.439.288.28.45.659.452 1.055z" fill="#000"/><path d="M68.118 39c-.23 0-.46-.04-.675-.121L41.245 29.09a1.92 1.92 0 0 1-.911-.712 1.904 1.904 0 0 1 .965-2.885l24.649-8.391a1.95 1.95 0 0 1 1.229-.005l27.51 9.125c.38.126.71.367.946.69a1.904 1.904 0 0 1 .017 2.222 1.92 1.92 0 0 1-.935.704l-25.962 9.055a1.926 1.926 0 0 1-.635.107z" fill="#575A89"/><path d="M43.787 39H43V27h24v.828H43.787V39z" fill="#3F3D56"/><path d="M43.5 41a1.5 1.5 0 1 0 0-3 1.5 1.5 0 0 0 0 3zM68 67a10.004 10.004 0 0 0-10 10 10 10 0 1 0 10-10zm0 19.714a9.724 9.724 0 0 1-9.706-10.108A9.714 9.714 0 1 1 68 86.714z" fill="#3F3D56"/><path d="M76 77a8 8 0 1 1-16 0 8 8 0 0 1 16 0z" fill="#fff"/><path d="M70.662 77.561a2.113 2.113 0 0 0-.829-.62 8.4 8.4 0 0 0-1.245-.386v-2.3a3.643 3.643 0 0 1 1.77.764l.495-.995c-.284-.24-.61-.43-.964-.563a4.96 4.96 0 0 0-1.223-.296V72h-1.144v1.177a3.26 3.26 0 0 0-1.25.396 2.424 2.424 0 0 0-.846.785 1.889 1.889 0 0 0-.302 1.043c-.02.398.103.791.347 1.117.225.281.522.504.864.647.41.165.833.298 1.266.396v2.203a3.912 3.912 0 0 1-2.107-.794l-.494.996c.335.262.717.466 1.127.604.45.152.92.245 1.395.275V82h1.144v-1.177a3.04 3.04 0 0 0 1.699-.735c.206-.187.368-.412.477-.66.109-.25.162-.517.156-.786.019-.386-.1-.766-.336-1.08zm-3.06-1.25a2.241 2.241 0 0 1-.763-.386.764.764 0 0 1-.206-.27.725.725 0 0 1-.063-.328.933.933 0 0 1 .275-.689c.205-.195.47-.325.756-.37v2.043zm1.704 3.047a1.322 1.322 0 0 1-.718.353v-1.895c.26.066.505.181.718.34a.67.67 0 0 1 .187.237.636.636 0 0 1 .06.292.941.941 0 0 1-.247.673zM114.285 30.803a3.676 3.676 0 0 1-2.047-4.44c.042-.133.069-.27.079-.409a1.839 1.839 0 0 0-1.201-1.84 1.842 1.842 0 0 0-2.109.62 1.79 1.79 0 0 0-.204.361 3.673 3.673 0 0 1-4.441 2.048 1.762 1.762 0 0 0-.407-.08 1.845 1.845 0 0 0-1.841 1.201 1.84 1.84 0 0 0 .619 2.11c.112.081.234.15.362.203a3.675 3.675 0 0 1 2.048 4.441c-.043.132-.07.27-.08.408a1.839 1.839 0 0 0 1.201 1.84 1.843 1.843 0 0 0 2.109-.62c.082-.111.151-.233.204-.361a3.675 3.675 0 0 1 4.441-2.047c.132.042.269.069.408.08a1.843 1.843 0 0 0 1.221-3.311 1.77 1.77 0 0 0-.362-.204zM32.285 56.803a3.675 3.675 0 0 1-2.047-4.44c.042-.133.069-.27.08-.408a1.843 1.843 0 0 0-3.311-1.222c-.082.113-.15.234-.204.362a3.674 3.674 0 0 1-4.44 2.048 1.765 1.765 0 0 0-.409-.08 1.843 1.843 0 0 0-1.22 3.31c.111.082.233.15.361.204a3.674 3.674 0 0 1 2.048 4.441c-.043.132-.07.27-.08.408a1.842 1.842 0 0 0 3.31 1.22c.082-.111.15-.233.204-.361a3.674 3.674 0 0 1 4.441-2.047c.132.042.27.069.408.08a1.842 1.842 0 0 0 1.22-3.311 1.77 1.77 0 0 0-.361-.204z" fill="#6C63FF"/></svg>